<?xml version="1.0" encoding="UTF-8"?><svg id="Adephi_Logo" xmlns="http://www.w3.org/2000/svg" viewBox="0 0 108 46.31"><defs><style>.cls-1{fill:#fff;}</style></defs><g><path class="cls-1" d="M11.83,31.54c0,1.13-.29,1.61-1.18,1.61s-1.18-.52-1.18-1.58v-4.39h-2.16v4.49c0,2.11,1.21,3.19,3.35,3.19s3.37-1.02,3.37-3.22v-4.45h-2.18v4.36Z"/><polygon class="cls-1" points="23.44 31.43 21.02 27.18 18.58 27.18 18.58 34.73 20.48 34.73 20.48 29.99 23.24 34.73 25.33 34.73 25.33 27.18 23.44 27.18 23.44 31.43"/><rect class="cls-1" x="29.99" y="27.18" width="2.19" height="7.55"/><polygon class="cls-1" points="40.08 32.48 38.55 27.18 36.22 27.18 38.72 34.73 41.18 34.73 43.65 27.18 41.63 27.18 40.08 32.48"/><polygon class="cls-1" points="49.82 31.69 52.26 31.69 52.26 30.14 49.82 30.14 49.82 28.85 52.88 28.85 52.88 27.18 47.67 27.18 47.67 34.73 53.05 34.73 53.05 33.06 49.82 33.06 49.82 31.69"/><path class="cls-1" d="M63.32,29.62v-.04c0-1.59-1.1-2.4-3.07-2.4h-2.95v7.55h2.15v-2.7h.51l1.53,2.7h2.28l-1.81-3.12c.79-.31,1.36-.91,1.36-1.98Zm-2.09,.09c0,.61-.36,.92-1.09,.92h-.7v-1.81h.71c.7,0,1.08,.24,1.08,.85v.04Z"/><path class="cls-1" d="M73.51,32.34c0-1.64-.98-2.13-2.89-2.34-.94-.13-1.17-.32-1.17-.74,0-.38,.3-.64,.88-.64s.9,.27,.97,.81h2c-.14-1.59-1.16-2.35-2.98-2.35s-2.92,.99-2.92,2.35c0,1.52,.72,2.15,2.85,2.41,.91,.14,1.19,.26,1.19,.73s-.35,.75-.97,.75c-.9,0-1.14-.44-1.19-.98h-2.06c.06,1.64,1.14,2.52,3.25,2.52,1.94,0,3.04-1.13,3.04-2.51Z"/><rect class="cls-1" x="77.74" y="27.18" width="2.19" height="7.55"/><polygon class="cls-1" points="84.07 28.85 86.02 28.85 86.02 34.73 88.19 34.73 88.19 28.85 90.15 28.85 90.15 27.18 84.07 27.18 84.07 28.85"/><polygon class="cls-1" points="97.35 29.72 96.07 27.18 93.72 27.18 96.18 31.5 96.18 34.73 98.35 34.73 98.35 31.5 100.7 27.18 98.63 27.18 97.35 29.72"/><polygon class="cls-1" points="36.66 45.34 34.14 41.06 33.32 41.06 33.32 46.24 33.92 46.24 33.92 41.8 36.54 46.24 37.26 46.24 37.26 41.06 36.66 41.06 36.66 45.34"/><polygon class="cls-1" points="39.92 43.85 41.85 43.85 41.85 43.34 39.92 43.34 39.92 41.58 42.31 41.58 42.31 41.06 39.29 41.06 39.29 46.24 42.44 46.24 42.44 45.73 39.92 45.73 39.92 43.85"/><polygon class="cls-1" points="48.29 45.26 47.07 41.06 46.62 41.06 45.41 45.24 44.36 41.06 43.71 41.06 45.06 46.24 45.63 46.24 46.84 42.15 48.01 46.24 48.59 46.24 49.94 41.06 49.35 41.06 48.29 45.26"/><polygon class="cls-1" points="55.79 43.47 54.43 41.06 53.72 41.06 55.45 43.98 55.45 46.24 56.08 46.24 56.08 43.99 57.72 41.06 57.09 41.06 55.79 43.47"/><path class="cls-1" d="M61.24,41c-1.52,0-2.55,1.16-2.55,2.63v.06c0,1.45,1.04,2.62,2.56,2.62s2.51-1.17,2.51-2.64v-.06c0-1.46-1.01-2.62-2.53-2.62Zm1.88,2.67c0,1.25-.71,2.12-1.86,2.12-1.08,0-1.91-.85-1.91-2.11v-.06c0-1.23,.7-2.12,1.9-2.12s1.88,.94,1.88,2.1v.06Z"/><path class="cls-1" d="M68.91,42.53v-.03c0-1.04-.82-1.44-1.81-1.44h-1.56v5.18h.63v-2.25h.8l1.54,2.25h.7l-1.59-2.3c.71-.14,1.28-.56,1.28-1.41Zm-2.74,.96v-1.92h.97c.7,0,1.14,.23,1.14,.93v.03c0,.64-.4,.96-1.14,.96h-.97Z"/><polygon class="cls-1" points="74.4 41.05 73.7 41.05 71.44 43.55 71.44 41.06 70.81 41.06 70.81 46.24 71.44 46.24 71.44 43.71 73.75 46.24 74.52 46.24 72.1 43.57 74.4 41.05"/></g><path class="cls-1" d="M27.58,18.42h0Z"/><path class="cls-1" d="M59.54,1.56h-6.25V19.59h12.87v-5.61h-6.61V1.56Zm6.22,12.82v4.82h-12.08V1.95h5.47V14.38h6.61Z"/><polygon class="cls-1" points="58.37 2.73 54.47 2.73 54.47 18.42 64.98 18.42 64.98 15.16 58.37 15.16 58.37 2.73"/><path class="cls-1" d="M44.78,13.97h0v-.91h6.55v-4.93h-6.55v-.92h7.37V1.58h-13.71V19.59h13.85v-5.62h-7.51Zm7.12,5.23h-13.07V1.98h12.93V6.82h-7.37v1.7h6.55v4.14h-6.54v1.7h7.51v4.84Z"/><polygon class="cls-1" points="43.61 13.56 43.62 12.08 43.62 11.88 50.16 11.88 50.16 9.3 43.61 9.3 43.61 6.04 50.98 6.04 50.98 2.76 43.77 2.76 42.79 2.76 39.62 2.76 39.62 18.42 51.13 18.42 51.13 15.15 43.61 15.14 43.61 13.56"/><path class="cls-1" d="M76.66,1.72c-.25-.02-.52-.04-.78-.05-.77-.04-1.6-.06-2.56-.06-.85,0-1.72,.02-2.55,.03-.84,.01-1.71,.03-2.56,.03h-1.06V19.59h6.3v-4.5c.13,0,.26,0,.39,0,.36,0,.66,0,.94-.03h.19c.84-.07,1.7-.14,2.56-.38,3.02-.84,4.83-3.65,4.61-7.17-.19-3.13-2.49-5.56-5.46-5.79Zm.75,12.59c-.82,.23-1.67,.29-2.49,.35h-.19c-.27,.03-.56,.04-.91,.04-.19,0-.38,0-.58,0h-.2v4.51h-5.52V2.06h.67c.86,0,1.73-.02,2.57-.03,.83-.01,1.7-.03,2.55-.03,.95,0,1.78,.02,2.54,.06,.27,.01,.53,.03,.78,.05,2.78,.21,4.93,2.5,5.1,5.43,.2,3.33-1.5,5.98-4.33,6.77Z"/><path class="cls-1" d="M76.58,2.89c-.24-.02-.5-.04-.76-.05-.74-.04-1.56-.06-2.5-.06-.84,0-1.69,.02-2.52,.03h-.01c-.81,.01-1.64,.03-2.47,.03v15.57h3.95v-4.52l.99,.02c.19,0,.38,0,.57,0,.33,0,.6,0,.85-.03h.19c.78-.07,1.59-.13,2.33-.34,2.46-.68,3.93-3.02,3.75-5.97-.15-2.54-2-4.51-4.38-4.7Zm-.71,7.99h0c-.42,.05-.88,.07-1.44,.07-.38,0-.76-.01-1.15-.02l-1.02-.03V5.44h.99c.39-.02,.75-.03,1.12-.03,.55,0,1,.02,1.41,.05,1.13,.1,1.86,1.09,1.91,2.58,.05,1.62-.64,2.71-1.81,2.85Z"/><path class="cls-1" d="M75.7,6.24c-.39-.03-.82-.05-1.34-.05-.37,0-.73,0-1.11,.02h-.21v3.94h.26c.39,.02,.76,.03,1.13,.03,.53,0,.96-.02,1.35-.07,.87-.1,1.15-1.12,1.12-2.04-.01-.4-.13-1.73-1.19-1.82Zm.69,2.76c-.13,.44-.35,.68-.67,.72-.38,.04-.79,.06-1.3,.06-.33,0-.66,0-1-.02v-3.17c.32,0,.62-.01,.93-.01,.51,0,.93,.02,1.31,.05,.74,.06,.82,1.12,.83,1.44,0,.12,0,.54-.11,.93Z"/><path class="cls-1" d="M93.87,7.55h-4.69V1.58h-6.24V19.59h6.28v-6.31h4.7v6.31h6.29V1.58h-6.33V7.55Zm.39-5.56h5.55V19.2h-5.51v-6.31h-5.48v6.31h-5.5V1.96h5.46V7.94h5.48V1.98Z"/><polygon class="cls-1" points="88.01 2.75 84.11 2.75 84.11 18.42 88.05 18.42 88.05 12.11 95.09 12.11 95.09 18.42 99.03 18.42 99.03 2.76 95.05 2.77 95.05 8.72 88.01 8.72 88.01 2.75"/><rect class="cls-1" x="102.94" y="2.75" width="3.89" height="15.67"/><path class="cls-1" d="M101.76,1.58V19.59h6.24V1.57h-6.24Zm5.85,17.63h-5.46V1.97h5.46V19.2Z"/><path class="cls-1" d="M6.31,10.35c-1.44,2.64-2.92,5.36-4.36,8.07H6.21c.1-.19,.48-.91,.76-1.48l.27-.54h6.64l.27,.55c.26,.53,.6,1.21,.72,1.47h4.3c-2.71-5.11-7.82-14.5-8.61-15.94-1.38,2.61-2.84,5.28-4.25,7.87Zm1.07,3.63l3.18-6.22,3.18,6.22H7.38Z"/><path class="cls-1" d="M30.07,2.86c-.63-.07-1.29-.11-2.03-.14-.82-.03-1.58-.04-2.08-.04-.62,0-1.26,0-1.88,.01h-.01c-.58,0-1.25,.01-1.89,.01-.15,0-.22,0-.28,0-.04,0-.08,0-.13,0v15.7h5.8c.71,0,1.36,0,1.98-.02,.5,0,1.07-.12,1.77-.35,3.18-1.05,4.85-3.29,5.12-6.85,.17-2.22-.37-4.2-1.54-5.72-1.16-1.5-2.83-2.4-4.84-2.61Zm1.72,10.32c-.6,1.3-1.65,1.99-3.04,1.99h-.04c-.64,0-1.28,0-1.93,0h-1.01V6.09l1.26-.03c.39-.01,.76-.02,1.13-.02,.57,0,1.04,.03,1.48,.08,.94,.12,1.72,.82,2.2,1.96,.73,1.71,.71,3.43-.06,5.1Z"/><path class="cls-1" d="M8.66,13.2h3.8l-1.9-3.72-1.9,3.72Zm3.16-.39h-2.52l1.26-2.47,1.26,2.47Z"/><path class="cls-1" d="M29.54,6.89c-.4-.05-.84-.08-1.37-.08-.37,0-.73,.01-1.11,.02h-.5v7.54h.28c.63,0,1.25,0,1.87,0h.03c1.08,0,1.86-.52,2.33-1.53,.67-1.46,.69-2.97,.05-4.47-.38-.89-.92-1.4-1.59-1.49Zm1.18,5.79c-.41,.89-1.03,1.3-1.97,1.3h-.03c-.36,0-.71,0-1.07,0-.23,0-.46,0-.7,0V7.23h.12c.38-.01,.74-.03,1.1-.03,.52,0,.94,.02,1.32,.07,.65,.09,1.05,.73,1.28,1.25,.59,1.4,.58,2.79-.04,4.15Z"/><path class="cls-1" d="M30.19,1.69c-.65-.07-1.34-.12-2.1-.15-.84-.03-1.61-.04-2.12-.04-.63,0-1.27,0-1.89,.01h-.01c-.62,0-1.25,.01-1.87,.01-.17,0-.25,0-.32,0-.05,0-.1,0-.2,0h-1.06V18.63l-.31-.58C17.4,12.57,11.55,1.84,11.49,1.73l-.94-1.73-.92,1.74c-1.41,2.66-2.9,5.4-4.34,8.05-1.47,2.7-2.99,5.48-4.46,8.25l-.82,1.55H6.92l.31-.58c.11-.2,.45-.87,.74-1.43h5.18c.27,.55,.6,1.21,.7,1.42l.3,.6h13.44c.72,0,1.37,0,2-.02,.63,0,1.3-.14,2.12-.41,3.63-1.19,5.62-3.85,5.92-7.88,.38-5.14-2.67-9.09-7.43-9.59ZM14.39,19.2l-.19-.39c-.11-.21-.47-.95-.75-1.52l-.05-.11H7.72l-.05,.11c-.29,.58-.68,1.32-.79,1.54l-.19,.37H.65l.52-.97c1.47-2.77,2.99-5.56,4.46-8.25,1.44-2.65,2.94-5.38,4.35-8.05l.58-1.1,.6,1.09c.06,.11,5.91,10.84,8.81,16.31l.52,.97h-6.08Zm22.84-7.95c-.29,3.86-2.19,6.4-5.66,7.54-.78,.26-1.41,.38-2,.39-.63,0-1.28,.02-1.99,.02h-6.58V1.94h.67c.1,0,.16,0,.21,0,.07,0,.14,0,.31,0,.62,0,1.26,0,1.88-.01h.01c.62,0,1.26-.01,1.88-.01,.51,0,1.27,0,2.11,.04,.75,.03,1.43,.08,2.08,.15,4.54,.48,7.45,4.25,7.08,9.17Z"/><g><path class="cls-1" d="M11.83,31.54c0,1.13-.29,1.61-1.18,1.61s-1.18-.52-1.18-1.58v-4.39h-2.16v4.49c0,2.11,1.21,3.19,3.35,3.19s3.37-1.02,3.37-3.22v-4.45h-2.18v4.36Z"/><polygon class="cls-1" points="23.44 31.43 21.02 27.18 18.58 27.18 18.58 34.73 20.48 34.73 20.48 29.99 23.24 34.73 25.33 34.73 25.33 27.18 23.44 27.18 23.44 31.43"/><rect class="cls-1" x="29.99" y="27.18" width="2.19" height="7.55"/><polygon class="cls-1" points="40.08 32.48 38.55 27.18 36.22 27.18 38.72 34.73 41.18 34.73 43.65 27.18 41.63 27.18 40.08 32.48"/><polygon class="cls-1" points="49.82 31.69 52.26 31.69 52.26 30.14 49.82 30.14 49.82 28.85 52.88 28.85 52.88 27.18 47.67 27.18 47.67 34.73 53.05 34.73 53.05 33.06 49.82 33.06 49.82 31.69"/><path class="cls-1" d="M63.32,29.62v-.04c0-1.59-1.1-2.4-3.07-2.4h-2.95v7.55h2.15v-2.7h.51l1.53,2.7h2.28l-1.81-3.12c.79-.31,1.36-.91,1.36-1.98Zm-2.09,.09c0,.61-.36,.92-1.09,.92h-.7v-1.81h.71c.7,0,1.08,.24,1.08,.85v.04Z"/><path class="cls-1" d="M73.51,32.34c0-1.64-.98-2.13-2.89-2.34-.94-.13-1.17-.32-1.17-.74,0-.38,.3-.64,.88-.64s.9,.27,.97,.81h2c-.14-1.59-1.16-2.35-2.98-2.35s-2.92,.99-2.92,2.35c0,1.52,.72,2.15,2.85,2.41,.91,.14,1.19,.26,1.19,.73s-.35,.75-.97,.75c-.9,0-1.14-.44-1.19-.98h-2.06c.06,1.64,1.14,2.52,3.25,2.52,1.94,0,3.04-1.13,3.04-2.51Z"/><rect class="cls-1" x="77.74" y="27.18" width="2.19" height="7.55"/><polygon class="cls-1" points="84.07 28.85 86.02 28.85 86.02 34.73 88.19 34.73 88.19 28.85 90.15 28.85 90.15 27.18 84.07 27.18 84.07 28.85"/><polygon class="cls-1" points="97.35 29.72 96.07 27.18 93.72 27.18 96.18 31.5 96.18 34.73 98.35 34.73 98.35 31.5 100.7 27.18 98.63 27.18 97.35 29.72"/><polygon class="cls-1" points="36.66 45.34 34.14 41.06 33.32 41.06 33.32 46.24 33.92 46.24 33.92 41.8 36.54 46.24 37.26 46.24 37.26 41.06 36.66 41.06 36.66 45.34"/><polygon class="cls-1" points="39.92 43.85 41.85 43.85 41.85 43.34 39.92 43.34 39.92 41.58 42.31 41.58 42.31 41.06 39.29 41.06 39.29 46.24 42.44 46.24 42.44 45.73 39.92 45.73 39.92 43.85"/><polygon class="cls-1" points="48.29 45.26 47.07 41.06 46.62 41.06 45.41 45.24 44.36 41.06 43.71 41.06 45.06 46.24 45.63 46.24 46.84 42.15 48.01 46.24 48.59 46.24 49.94 41.06 49.35 41.06 48.29 45.26"/><polygon class="cls-1" points="55.79 43.47 54.43 41.06 53.72 41.06 55.45 43.98 55.45 46.24 56.08 46.24 56.08 43.99 57.72 41.06 57.09 41.06 55.79 43.47"/><path class="cls-1" d="M61.24,41c-1.52,0-2.55,1.16-2.55,2.63v.06c0,1.45,1.04,2.62,2.56,2.62s2.51-1.17,2.51-2.64v-.06c0-1.46-1.01-2.62-2.53-2.62Zm1.88,2.67c0,1.25-.71,2.12-1.86,2.12-1.08,0-1.91-.85-1.91-2.11v-.06c0-1.23,.7-2.12,1.9-2.12s1.88,.94,1.88,2.1v.06Z"/><path class="cls-1" d="M68.91,42.53v-.03c0-1.04-.82-1.44-1.81-1.44h-1.56v5.18h.63v-2.25h.8l1.54,2.25h.7l-1.59-2.3c.71-.14,1.28-.56,1.28-1.41Zm-2.74,.96v-1.92h.97c.7,0,1.14,.23,1.14,.93v.03c0,.64-.4,.96-1.14,.96h-.97Z"/><polygon class="cls-1" points="74.4 41.05 73.7 41.05 71.44 43.55 71.44 41.06 70.81 41.06 70.81 46.24 71.44 46.24 71.44 43.71 73.75 46.24 74.52 46.24 72.1 43.57 74.4 41.05"/></g><path class="cls-1" d="M27.58,18.42h0Z"/><path class="cls-1" d="M59.54,1.56h-6.25V19.59h12.87v-5.61h-6.61V1.56Zm6.22,12.82v4.82h-12.08V1.95h5.47V14.38h6.61Z"/><polygon class="cls-1" points="58.37 2.73 54.47 2.73 54.47 18.42 64.98 18.42 64.98 15.16 58.37 15.16 58.37 2.73"/><path class="cls-1" d="M44.78,13.97h0v-.91h6.55v-4.93h-6.55v-.92h7.37V1.58h-13.71V19.59h13.85v-5.62h-7.51Zm7.12,5.23h-13.07V1.98h12.93V6.82h-7.37v1.7h6.55v4.14h-6.54v1.7h7.51v4.84Z"/><polygon class="cls-1" points="43.61 13.56 43.62 12.08 43.62 11.88 50.16 11.88 50.16 9.3 43.61 9.3 43.61 6.04 50.98 6.04 50.98 2.76 43.77 2.76 42.79 2.76 39.62 2.76 39.62 18.42 51.13 18.42 51.13 15.15 43.61 15.14 43.61 13.56"/><path class="cls-1" d="M76.66,1.72c-.25-.02-.52-.04-.78-.05-.77-.04-1.6-.06-2.56-.06-.85,0-1.72,.02-2.55,.03-.84,.01-1.71,.03-2.56,.03h-1.06V19.59h6.3v-4.5c.13,0,.26,0,.39,0,.36,0,.66,0,.94-.03h.19c.84-.07,1.7-.14,2.56-.38,3.02-.84,4.83-3.65,4.61-7.17-.19-3.13-2.49-5.56-5.46-5.79Zm.75,12.59c-.82,.23-1.67,.29-2.49,.35h-.19c-.27,.03-.56,.04-.91,.04-.19,0-.38,0-.58,0h-.2v4.51h-5.52V2.06h.67c.86,0,1.73-.02,2.57-.03,.83-.01,1.7-.03,2.55-.03,.95,0,1.78,.02,2.54,.06,.27,.01,.53,.03,.78,.05,2.78,.21,4.93,2.5,5.1,5.43,.2,3.33-1.5,5.98-4.33,6.77Z"/><path class="cls-1" d="M76.58,2.89c-.24-.02-.5-.04-.76-.05-.74-.04-1.56-.06-2.5-.06-.84,0-1.69,.02-2.52,.03h-.01c-.81,.01-1.64,.03-2.47,.03v15.57h3.95v-4.52l.99,.02c.19,0,.38,0,.57,0,.33,0,.6,0,.85-.03h.19c.78-.07,1.59-.13,2.33-.34,2.46-.68,3.93-3.02,3.75-5.97-.15-2.54-2-4.51-4.38-4.7Zm-.71,7.99h0c-.42,.05-.88,.07-1.44,.07-.38,0-.76-.01-1.15-.02l-1.02-.03V5.44h.99c.39-.02,.75-.03,1.12-.03,.55,0,1,.02,1.41,.05,1.13,.1,1.86,1.09,1.91,2.58,.05,1.62-.64,2.71-1.81,2.85Z"/><path class="cls-1" d="M75.7,6.24c-.39-.03-.82-.05-1.34-.05-.37,0-.73,0-1.11,.02h-.21v3.94h.26c.39,.02,.76,.03,1.13,.03,.53,0,.96-.02,1.35-.07,.87-.1,1.15-1.12,1.12-2.04-.01-.4-.13-1.73-1.19-1.82Zm.69,2.76c-.13,.44-.35,.68-.67,.72-.38,.04-.79,.06-1.3,.06-.33,0-.66,0-1-.02v-3.17c.32,0,.62-.01,.93-.01,.51,0,.93,.02,1.31,.05,.74,.06,.82,1.12,.83,1.44,0,.12,0,.54-.11,.93Z"/><path class="cls-1" d="M93.87,7.55h-4.69V1.58h-6.24V19.59h6.28v-6.31h4.7v6.31h6.29V1.58h-6.33V7.55Zm.39-5.56h5.55V19.2h-5.51v-6.31h-5.48v6.31h-5.5V1.96h5.46V7.94h5.48V1.98Z"/><polygon class="cls-1" points="88.01 2.75 84.11 2.75 84.11 18.42 88.05 18.42 88.05 12.11 95.09 12.11 95.09 18.42 99.03 18.42 99.03 2.76 95.05 2.77 95.05 8.72 88.01 8.72 88.01 2.75"/><rect class="cls-1" x="102.94" y="2.75" width="3.89" height="15.67"/><path class="cls-1" d="M101.76,1.58V19.59h6.24V1.57h-6.24Zm5.85,17.63h-5.46V1.97h5.46V19.2Z"/><path class="cls-1" d="M6.31,10.35c-1.44,2.64-2.92,5.36-4.36,8.07H6.21c.1-.19,.48-.91,.76-1.48l.27-.54h6.64l.27,.55c.26,.53,.6,1.21,.72,1.47h4.3c-2.71-5.11-7.82-14.5-8.61-15.94-1.38,2.61-2.84,5.28-4.25,7.87Zm1.07,3.63l3.18-6.22,3.18,6.22H7.38Z"/><path class="cls-1" d="M30.07,2.86c-.63-.07-1.29-.11-2.03-.14-.82-.03-1.58-.04-2.08-.04-.62,0-1.26,0-1.88,.01h-.01c-.58,0-1.25,.01-1.89,.01-.15,0-.22,0-.28,0-.04,0-.08,0-.13,0v15.7h5.8c.71,0,1.36,0,1.98-.02,.5,0,1.07-.12,1.77-.35,3.18-1.05,4.85-3.29,5.12-6.85,.17-2.22-.37-4.2-1.54-5.72-1.16-1.5-2.83-2.4-4.84-2.61Zm1.72,10.32c-.6,1.3-1.65,1.99-3.04,1.99h-.04c-.64,0-1.28,0-1.93,0h-1.01V6.09l1.26-.03c.39-.01,.76-.02,1.13-.02,.57,0,1.04,.03,1.48,.08,.94,.12,1.72,.82,2.2,1.96,.73,1.71,.71,3.43-.06,5.1Z"/><path class="cls-1" d="M8.66,13.2h3.8l-1.9-3.72-1.9,3.72Zm3.16-.39h-2.52l1.26-2.47,1.26,2.47Z"/><path class="cls-1" d="M29.54,6.89c-.4-.05-.84-.08-1.37-.08-.37,0-.73,.01-1.11,.02h-.5v7.54h.28c.63,0,1.25,0,1.87,0h.03c1.08,0,1.86-.52,2.33-1.53,.67-1.46,.69-2.97,.05-4.47-.38-.89-.92-1.4-1.59-1.49Zm1.18,5.79c-.41,.89-1.03,1.3-1.97,1.3h-.03c-.36,0-.71,0-1.07,0-.23,0-.46,0-.7,0V7.23h.12c.38-.01,.74-.03,1.1-.03,.52,0,.94,.02,1.32,.07,.65,.09,1.05,.73,1.28,1.25,.59,1.4,.58,2.79-.04,4.15Z"/><path class="cls-1" d="M30.19,1.69c-.65-.07-1.34-.12-2.1-.15-.84-.03-1.61-.04-2.12-.04-.63,0-1.27,0-1.89,.01h-.01c-.62,0-1.25,.01-1.87,.01-.17,0-.25,0-.32,0-.05,0-.1,0-.2,0h-1.06V18.63l-.31-.58C17.4,12.57,11.55,1.84,11.49,1.73l-.94-1.73-.92,1.74c-1.41,2.66-2.9,5.4-4.34,8.05-1.47,2.7-2.99,5.48-4.46,8.25l-.82,1.55H6.92l.31-.58c.11-.2,.45-.87,.74-1.43h5.18c.27,.55,.6,1.21,.7,1.42l.3,.6h13.44c.72,0,1.37,0,2-.02,.63,0,1.3-.14,2.12-.41,3.63-1.19,5.62-3.85,5.92-7.88,.38-5.14-2.67-9.09-7.43-9.59ZM14.39,19.2l-.19-.39c-.11-.21-.47-.95-.75-1.52l-.05-.11H7.72l-.05,.11c-.29,.58-.68,1.32-.79,1.54l-.19,.37H.65l.52-.97c1.47-2.77,2.99-5.56,4.46-8.25,1.44-2.65,2.94-5.38,4.35-8.05l.58-1.1,.6,1.09c.06,.11,5.91,10.84,8.81,16.31l.52,.97h-6.08Zm22.84-7.95c-.29,3.86-2.19,6.4-5.66,7.54-.78,.26-1.41,.38-2,.39-.63,0-1.28,.02-1.99,.02h-6.58V1.94h.67c.1,0,.16,0,.21,0,.07,0,.14,0,.31,0,.62,0,1.26,0,1.88-.01h.01c.62,0,1.26-.01,1.88-.01,.51,0,1.27,0,2.11,.04,.75,.03,1.43,.08,2.08,.15,4.54,.48,7.45,4.25,7.08,9.17Z"/></svg>