<?xml version="1.0" encoding="UTF-8"?><svg id="Layer_1" xmlns="http://www.w3.org/2000/svg" viewBox="0 0 215.99 46.86"><defs><style>.cls-1{fill:#fff;}.cls-1,.cls-2{stroke-width:0px;}.cls-2{fill:#ffc222;}</style></defs><path class="cls-1" d="m181.6,35.13c-.26,0-.61.11-1.73.11s-1.7-.11-1.93-.11c-.19,0-.26.14-.26.33,0,.26.1.31.26.31.12,0,.21-.02.5-.02.47,0,.8.05.8.38s-.28.97-.85,1.88l-1.33,2.19c-.26.42-.35.43-.42.43-.09,0-.16-.05-.4-.47l-1.3-2.13c-.68-1.13-.97-1.56-.97-1.92,0-.24.14-.36.61-.36.17,0,.47.02.62.02.23,0,.28-.14.28-.31,0-.24-.12-.33-.26-.33-.21,0-1.44.11-2.05.11-1.11,0-1.75-.11-1.96-.11-.19,0-.28.14-.28.33,0,.26.09.33.23.33.09,0,.21-.02.29-.02.24,0,.56,0,.76.28.52.64.92,1.26,1.4,2.06l2.03,3.27c.1.18.16.3.19.4.04.11.04.31.04.43v1.91c0,.92-.07,1.37-.17,1.56-.12.25-.54.35-.95.35-.09,0-.24-.02-.29-.02-.14,0-.23.12-.23.29,0,.22.09.34.23.34.15,0,1.01-.1,2.08-.1s1.75.1,1.92.1c.16,0,.26-.12.26-.31s-.09-.33-.26-.33c-.05,0-.22.02-.29.02-.48,0-.69-.1-.85-.3-.14-.17-.24-.62-.24-1.59v-2.11c0-.12,0-.28.02-.36.02-.08.09-.26.14-.33l2.06-3.33c.45-.71,1.02-1.64,1.33-1.94.21-.19.42-.31.73-.31.1,0,.23.02.29.02.1,0,.23-.05.23-.31,0-.28-.14-.33-.28-.33m-16.13.02c-.35,0-.57.09-4.7.09s-4.33-.11-4.68-.11c-.14,0-.26.11-.26.33,0,.71-.14,2.01-.14,2.16s.14.24.31.24c.23,0,.31-.12.33-.27.05-.54.19-1.08.48-1.34.33-.3.74-.37,1.68-.37.76,0,1.32.04,1.49.14.14.09.16.35.16.66v7.52c0,.92-.07,1.28-.18,1.47-.12.23-.55.35-.94.35-.08,0-.3-.02-.38-.02-.12,0-.19.14-.19.31,0,.22.09.33.24.33.19,0,.94-.1,2-.1s1.9.1,2.18.1c.12,0,.24-.09.24-.31,0-.19-.09-.33-.21-.33-.1,0-.33.02-.4.02-.48,0-.83-.1-.97-.3-.12-.17-.24-.57-.24-1.54v-7.5c0-.43.04-.6.16-.69.19-.11.61-.11,1.59-.11s1.46.05,1.77.38c.26.28.37.73.4,1.35,0,.14.12.24.35.24.17,0,.31-.08.31-.27,0-.11-.07-1.49-.07-2.12,0-.24-.15-.33-.34-.33m-16.46.92c.17-.21.38-.31.86-.31.05,0,.23.02.28.02.21,0,.26-.17.26-.33,0-.19-.09-.31-.28-.31-.17,0-.73.11-1.8.11s-1.94-.11-2.13-.11c-.17,0-.26.12-.26.35s.1.29.22.29c.05,0,.26-.02.35-.02.43,0,.76.12.89.35.14.23.17.66.17,1.56v6.46c0,.92-.07,1.37-.17,1.56-.11.25-.52.35-.94.35-.09,0-.24-.02-.29-.02-.14,0-.22.14-.22.29,0,.22.09.34.22.34.16,0,.99-.1,2.06-.1s1.75.1,1.92.1.26-.14.26-.33c0-.16-.07-.31-.26-.31-.05,0-.23.02-.29.02-.47,0-.69-.1-.85-.3-.14-.17-.24-.62-.24-1.59v-6.45c0-1.02.09-1.45.24-1.63m-11.14,4.54l-1.54-.85c-1.26-.7-1.75-1.34-1.75-2.19,0-1.11.88-1.89,2.49-1.89.95,0,1.49.2,1.8.59.24.31.43.97.47,1.39.02.16.14.29.4.29.17,0,.33-.1.33-.31,0-.1-.1-1.42-.16-1.89-.03-.25-.26-.4-.55-.49-.52-.14-1.21-.31-2.23-.31-2.17,0-3.66,1.16-3.66,2.94,0,1.31.71,2.17,2.17,2.96l1.61.87c1.07.57,1.77,1.28,1.77,2.27,0,1.32-1.04,2.13-2.65,2.13-1.02,0-1.8-.42-2.11-.85-.29-.43-.43-.94-.54-1.51-.04-.17-.1-.31-.37-.31-.24,0-.38.12-.38.31,0,.21.14,1.09.21,1.99.02.19.14.35.29.45.49.31,1.6.64,2.81.64,2.46,0,3.93-1.23,3.93-3.25,0-1.32-.76-2.13-2.34-3m-17.05.05c-.21,0-.71-.07-.81-.14-.15-.09-.23-.28-.23-.59v-3.59c0-.31.12-.41.31-.43.26-.03.64-.03,1.06-.03,1.96,0,2.96.68,2.96,2.32s-.92,2.46-3.29,2.46m6.79,5.4c-.14,0-.29.03-.38.03-.4,0-.78-.08-1.4-.85-.49-.62-1.14-1.51-1.99-2.84-.28-.42-.57-.87-1.02-1.11-.1-.05-.14-.1-.14-.14,0-.05.02-.09.14-.12,1.78-.5,2.63-1.6,2.63-3.02,0-1.85-1.25-2.85-4.19-2.85-.69,0-1.51.05-2.01.05-1.06,0-1.84-.09-2.03-.09-.12,0-.24.11-.24.35,0,.21.07.33.26.33.07,0,.19-.02.28-.02.5,0,.78.14.92.35.14.21.17.67.17,1.58v6.51c0,.94-.09,1.27-.17,1.45-.12.23-.47.35-.9.35-.09,0-.26-.02-.33-.02-.12,0-.22.1-.22.33s.09.31.24.31.92-.1,1.89-.1c1.07,0,2.08.1,2.27.1.12,0,.22-.07.22-.28,0-.19-.07-.36-.24-.36-.05,0-.28.02-.35.02-.54,0-.8-.07-.97-.28-.16-.17-.26-.57-.26-1.53v-2.54c0-.31.1-.38.31-.38.16,0,.57.02.88.03.52.03.8.18,1.04.43.23.24.68.97,1.32,2.03.38.66.99,1.68,1.38,2.08.68.71,1.32.86,2.32.86.28,0,.48-.02.64-.07.1-.03.17-.1.17-.31,0-.19-.14-.3-.24-.3m-16.46-2.18c-.21,0-.26.1-.31.22-.23.61-.47,1.18-.92,1.49-.33.24-.95.31-1.87.31-1.33,0-2.18-.05-2.48-.49-.12-.17-.14-.57-.14-.89v-3.15c0-.33.12-.41.59-.41.78,0,1.66.03,1.87.16.19.12.43.36.5,1.19.02.14.12.25.31.25.21,0,.29-.12.29-.25,0-.33-.05-.99-.05-1.59,0-.75.11-1.63.11-1.79,0-.17-.12-.26-.3-.26-.21,0-.31.1-.33.26-.09.85-.31,1.11-.61,1.21-.24.09-.88.16-1.71.16-.45,0-.68-.02-.68-.4v-3.55c0-.33.1-.45.31-.45.43,0,1.44-.03,1.94-.03.94,0,1.54.02,1.86.35.28.28.38.73.41,1.28.02.16.09.24.33.24.19,0,.29-.09.29-.26,0-.1-.03-1.28-.05-1.99,0-.24-.12-.33-.28-.33-1.18,0-2.32.05-4.85.05-1.07,0-2.32-.09-2.51-.09-.15,0-.26.12-.26.35,0,.19.07.29.22.29.05,0,.26-.02.35-.02.48,0,.76.14.88.33.14.22.17.6.17,1.49v6.63c0,.9-.07,1.28-.17,1.47-.12.21-.4.35-.85.35-.09,0-.31-.02-.38-.02-.14,0-.22.12-.22.33,0,.24.14.31.24.31.19,0,1.63-.05,2.68-.05,2.22,0,3.24.05,4.9.05.26,0,.43-.16.54-.45.17-.54.48-1.89.48-2.1,0-.14-.12-.22-.33-.22m-13.62-8.75c-.19,0-.79.09-1.49.09s-1.84-.09-2.01-.09c-.23,0-.29.12-.29.33,0,.17.09.31.24.31.04,0,.19-.02.33-.02.64,0,.9.15.9.47,0,.26-.07.61-.38,1.39l-2.51,6.31c-.22.54-.31.71-.38.71-.12,0-.19-.17-.41-.76l-2.46-6.27c-.29-.75-.38-1.09-.38-1.37,0-.26.17-.47.95-.47.07,0,.26.02.33.02.21,0,.26-.19.26-.35,0-.21-.07-.3-.28-.3-.16,0-1.47.07-2.18.07s-1.58-.07-1.77-.07c-.16,0-.28.09-.28.31,0,.21.09.33.26.33.09,0,.24-.02.35-.02.26,0,.52.09.69.3.17.22.4.59.76,1.51,1.96,4.92,2.72,6.9,3.14,7.95.17.42.31.83.4,1.04.05.14.14.26.38.26.21,0,.29-.14.38-.33.17-.38.43-1.07.52-1.28.76-1.85,2.03-4.91,3.19-7.64.37-.85.56-1.21.73-1.46.19-.28.47-.35.69-.35.12,0,.23.02.31.02.17,0,.26-.12.26-.33s-.09-.31-.24-.31m-18.09.94c.17-.21.38-.31.86-.31.05,0,.23.02.28.02.21,0,.26-.17.26-.33,0-.19-.09-.31-.28-.31-.17,0-.73.11-1.8.11s-1.94-.11-2.13-.11c-.17,0-.26.12-.26.35s.1.3.22.3c.05,0,.26-.02.35-.02.43,0,.76.12.88.35.14.23.17.66.17,1.56v6.46c0,.92-.07,1.37-.17,1.56-.1.25-.52.35-.94.35-.09,0-.24-.02-.29-.02-.14,0-.22.14-.22.29,0,.22.09.34.22.34.16,0,.99-.1,2.06-.1s1.75.1,1.92.1.26-.14.26-.33c0-.16-.07-.31-.26-.31-.05,0-.23.02-.3.02-.47,0-.69-.1-.85-.3-.14-.17-.24-.62-.24-1.59v-6.45c0-1.02.09-1.45.24-1.63m-8.87-.94c-.16,0-.68.11-1.73.11s-1.91-.11-2.04-.11c-.16,0-.26.12-.26.35,0,.19.1.3.24.3.07,0,.31-.02.42-.02.41,0,.8.12.92.35.1.19.16.67.19,1.61.05,1.18.03,2.89.05,4.16,0,.75,0,1.44-.02,2.18,0,.07-.02.14-.09.14s-.14-.07-.21-.16c-1.6-1.89-2.7-3.29-3.97-4.9-1.23-1.59-1.99-2.48-2.91-3.72-.12-.17-.23-.28-.45-.28s-.57.07-1.13.07c-.49,0-1.06-.07-1.23-.07-.12,0-.28.05-.28.33,0,.21.1.31.23.31.07,0,.24-.02.33-.02.37,0,.73.03,1.04.42.17.22.22.64.22,1.49,0,.76,0,3.01-.07,6.55-.02.94-.09,1.28-.19,1.47-.12.23-.52.35-.93.35-.09,0-.24-.02-.31-.02-.14,0-.22.16-.22.31,0,.24.1.33.24.33.17,0,.83-.1,1.91-.1s1.72.1,1.91.1c.14,0,.22-.1.22-.29,0-.23-.07-.35-.22-.35-.1,0-.33.02-.38.02-.5,0-.75-.12-.88-.3-.14-.19-.26-.55-.28-1.52-.02-1.13-.04-2.41-.04-3.48s0-2.43.02-3.49c0-.07.04-.15.1-.15.09,0,.14.07.21.14,1.96,2.43,4.3,5.44,6.29,7.83.41.5.83,1.04,1.25,1.63.07.1.16.15.28.15.26,0,.43-.09.43-.33,0-.22-.1-1.4-.1-5.68,0-1.42.02-2.47.02-3.12,0-.97.12-1.49.26-1.66.14-.19.33-.3.82-.3.1,0,.33.02.38.02.16,0,.24-.1.24-.33,0-.21-.09-.31-.26-.31m-18.19,0c-.16,0-1,.11-1.72.11s-1.71-.11-1.96-.11c-.17,0-.24.14-.24.35,0,.17.09.3.19.3.07,0,.33-.02.4-.02.43,0,.79.14.92.33.14.22.17.6.21,1.51.02.61.03,2.68.03,3.77,0,2.69-.33,4.66-3.71,4.66-2.36,0-3.38-1.16-3.43-3.83-.03-1.31-.03-3.22-.03-4.57,0-1.11.1-1.39.26-1.59.15-.21.52-.28.95-.28.07,0,.24.02.29.02.14,0,.23-.14.23-.33s-.11-.31-.24-.31c-.17,0-.92.11-1.99.11s-1.86-.11-2.03-.11c-.21,0-.28.14-.28.35,0,.17.05.3.21.3.07,0,.26-.02.35-.02.47,0,.75.14.87.33.14.22.21.6.21,1.51,0,2.39-.02,3.81-.02,4.9,0,2.81,1.3,4.37,4.59,4.37s4.55-1.7,4.55-4.52c0-.99-.02-4.02-.02-4.73,0-1.02.12-1.37.28-1.54.16-.18.4-.29.8-.31.07,0,.29.02.36.02.23,0,.28-.12.28-.33,0-.19-.04-.31-.31-.31"/><path class="cls-2" d="m215.56,28.17v-1.01c0-.18-.15-.33-.32-.33H1.37c-.18,0-.32.14-.32.33v1.01c0,.18.14.32.32.32h213.87c.18,0,.32-.15.32-.32"/><path class="cls-1" d="m59.16,19.66c-2.61,0-4.45-2.28-4.45-5.93,0-3.42,1.7-5.45,4.34-5.45s4.39,2.14,4.39,5.73-1.61,5.65-4.28,5.65m.11-12.32c-3.59,0-6.57,2.45-6.57,6.84,0,3.48,2.28,6.45,6.26,6.45,4.17,0,6.57-3.09,6.57-6.98,0-3.67-2.34-6.31-6.26-6.31m-9.98,2.07c0-.27.07-.38.44-.38,1.75,0,2.37.06,2.59.06.33,0,.53-.17.53-.67,0-.59-.22-.64-.5-.64-.59,0-1,.08-2.62.08-.39,0-.4-.11-.4-.41.09-2.12.32-3.52.59-4.25.39-1.14,1.28-2.06,2.53-2.06.69,0,1.17.17,1.36.53.14.25.14.64.17.89.08.61.47,1,1.08,1s1.14-.31,1.14-1.22c0-1.53-1.59-2.17-3.23-2.17-1.17,0-2.45.28-3.37,1.09-1.04.91-1.54,2.12-1.79,4.25,0,.01,0,.02,0,.03-.02.2-.04.42-.06.64-.11.73-.32,1.06-.54,1.31-.31.36-.78.47-1.5.58-.16.03-.33.08-.33.45,0,.33.08.58.31.58.25,0,.7-.06,1.47-.06.39,0,.47.08.47.45v7.04c0,1.22-.08,1.95-.25,2.28-.14.31-.53.53-1.17.53-.17,0-.42-.03-.53-.03-.22,0-.36.2-.36.47,0,.33.11.53.39.53.31,0,1.11-.14,2.7-.14,1.67,0,3.2.14,3.45.14.22,0,.39-.17.39-.5,0-.31-.08-.5-.39-.5-.22,0-.5.03-.7.03-.59,0-1.17-.08-1.47-.42-.28-.31-.42-.97-.42-2.39v-6.81c0-.1,0-.2,0-.3m56.21,8.88c-.33.31-1.36,1-2.45,1-1.75,0-2.56-1.09-2.56-2.09,0-.89.61-1.53,1.47-1.86.69-.25,1.89-.53,2.86-.72.36-.08.7-.11.83-.11.22,0,.39.11.42.39.03.33.03.81.03,1.33,0,1.22-.22,1.7-.61,2.06m4.73.09c-.31,0-.45.16-.5.36-.11.31-.39.56-.81.56-.67,0-1.22-.47-1.22-2.36s.08-4.56.08-5.95c0-1.14-.11-2-.5-2.56-.45-.67-1.2-1.09-2.45-1.09-1.39,0-3.09.89-4.28,1.92-.53.48-1.25,1.34-1.25,2.14,0,.72.39,1.17,1.06,1.17.55,0,1.06-.3,1.06-.92,0-.42-.2-.59-.2-1.17,0-.97,1.42-1.87,2.48-1.87.95,0,1.53.25,1.86.75.39.58.53,1.25.53,3.39,0,.64-.28.81-1.08.95-3.03.56-4.23.92-5.12,1.42-.78.47-1.22,1.28-1.22,2.28,0,1.75,1.5,3.23,3.64,3.23,1.31,0,2.31-.36,3.28-1.34.19-.19.28-.33.44-.33.11,0,.2.11.25.28.42,1.06,1.11,1.31,1.89,1.31,1.03,0,1.61-.41,2.17-1.05.19-.25.3-.47.3-.69,0-.28-.19-.42-.42-.42m-66.34.92c-.08,0-.25.03-.45.03-.72,0-1.08-.14-1.31-.44-.2-.25-.31-1-.31-2.37v-3.89c0-1.3,0-2.75.08-4.23.03-.34.03-.73.03-.84,0-.28-.17-.45-.36-.45-.17,0-.33.06-.53.19-.86.56-1.67,1.06-2.78,1.42-.11.03-.22.17-.22.36,0,.28.08.36.31.42.56.14,1.25.33,1.5.83.25.44.36,1.12.36,2.56v3.67c0,1.06-.11,1.89-.31,2.25-.14.31-.53.5-1.11.5-.14,0-.39-.03-.5-.03-.2,0-.39.16-.39.47s.09.53.36.53,1.03-.14,2.73-.14,2.64.14,2.9.14c.28,0,.42-.17.42-.5,0-.31-.14-.5-.42-.5m53.76,0c-.08,0-.25.03-.44.03-.73,0-1.09-.14-1.31-.44-.19-.25-.3-1-.3-2.37v-3.89c0-1.3,0-2.75.08-4.23.03-.34.03-.73.03-.84,0-.28-.17-.45-.36-.45-.17,0-.34.06-.53.19-.86.56-1.67,1.06-2.78,1.42-.11.03-.22.17-.22.36,0,.28.08.36.31.42.56.14,1.25.33,1.5.83.25.44.36,1.12.36,2.56v3.67c0,1.06-.11,1.89-.31,2.25-.14.31-.53.5-1.11.5-.14,0-.39-.03-.5-.03-.19,0-.39.16-.39.47s.08.53.36.53,1.03-.14,2.73-.14,2.64.14,2.89.14c.28,0,.42-.17.42-.5,0-.31-.14-.5-.42-.5m-7.51,0c-.08,0-.39.03-.53.03-.75,0-.92-.11-1.11-.44-.14-.22-.22-.72-.22-2.98v-3.31c0-2.39-.25-3.37-.81-4.14-.58-.81-1.36-1.17-2.67-1.17-1.56,0-3.09.67-4.59,1.97-.11.09-.28.2-.33.2-.11,0-.25-.05-.25-.28-.03-.61-.03-1.48-.06-1.72-.03-.2-.17-.34-.36-.34s-.33.08-.5.19c-.72.53-1.36.92-2.53,1.42-.11.06-.22.17-.22.39,0,.25.11.33.22.36.75.19,1.36.39,1.61.89.22.42.33,1.09.33,2.59v3.59c0,1.06-.14,1.92-.3,2.28-.14.33-.59.5-1.09.5-.16,0-.41-.03-.55-.03-.22,0-.36.22-.36.5,0,.3.11.5.33.5.31,0,1.09-.14,2.67-.14s2.67.14,2.95.14c.31,0,.44-.2.44-.47,0-.31-.11-.53-.44-.53-.14,0-.42.03-.56.03-.67,0-.95-.14-1.17-.44-.19-.25-.3-1.03-.3-2.39v-3.53c0-1.47.2-2.11.53-2.53.58-.72,2.06-1.64,3.37-1.64,1.17,0,2.11.44,2.53,1.34.31.67.47,1.97.47,4.73,0,2.12-.03,3.34-.28,3.95-.11.33-.39.53-1.03.53-.11,0-.47-.03-.58-.03-.22,0-.39.22-.39.5,0,.3.11.5.39.5.31,0,1.03-.14,2.59-.14,1.67,0,2.62.14,2.84.14.28,0,.42-.2.42-.47,0-.31-.17-.53-.44-.53m-16.72-11.99c-1.25,0-2.59.92-3.42,2.03-.08.11-.2.11-.25.11-.08,0-.17-.05-.17-.28-.03-.58-.03-1.5-.06-1.72-.03-.22-.17-.34-.36-.34s-.33.08-.5.19c-.81.58-1.39.95-2.53,1.42-.11.06-.22.17-.22.39,0,.25.11.33.22.36.75.19,1.36.39,1.61.89.22.42.33,1.09.33,2.59v3.7c0,1.06-.11,1.81-.31,2.17-.17.31-.59.5-1.08.5-.17,0-.42-.03-.56-.03-.19,0-.36.2-.36.5s.14.5.36.5c.31,0,1.14-.14,2.7-.14,1.67,0,2.98.14,3.25.14s.45-.2.45-.5c0-.28-.11-.5-.45-.5-.17,0-.45.03-.58.03-.78,0-1.17-.14-1.42-.44-.25-.31-.39-.97-.39-2.31v-3.62c0-1.36.28-2,.5-2.47.33-.67,1.28-1.47,1.95-1.47.36,0,.78.19,1,.61.11.22.33.44.83.44.44,0,1.17-.33,1.17-1.33,0-.84-.67-1.42-1.72-1.42M15.97,15.21c-.33,0-.47.14-.56.39-.36.92-.72,1.7-1.34,2.31-.75.78-1.97,1.53-4.28,1.53-4.59,0-7.71-3.28-7.71-8.46,0-5.51,3.34-8.29,7.35-8.29,2.95,0,3.92.64,4.53,1.33.5.59.83,1.56,1.03,2.59.06.22.22.34.56.34s.55-.11.55-.48c0-.47-.33-2.2-.36-3.53,0-.39-.3-.58-.72-.67-1.11-.25-2.37-.73-5.01-.73C3.65,1.55.14,5.52.01,10.98h-.01v.31c0,5.2,3.14,9.29,9.62,9.29,2.56,0,3.81-.47,5.04-1.09.39-.2.75-.47.97-.89.39-.72.81-2.56.81-3,0-.25-.14-.39-.47-.39m24.78-9.93c.78,0,1.31-.56,1.31-1.33,0-.86-.56-1.34-1.33-1.34-.72,0-1.36.56-1.36,1.34s.64,1.33,1.39,1.33m53.76,0c.78,0,1.31-.56,1.31-1.33,0-.86-.56-1.34-1.33-1.34-.72,0-1.36.56-1.36,1.34s.64,1.33,1.39,1.33m-57.94,13.99c-.14,0-.42.03-.61.03-.67,0-1-.14-1.22-.45-.19-.25-.31-.97-.31-2.36V6.73c0-4.03.09-5.9.09-6.29,0-.2-.14-.31-.28-.31-.22,0-.36.11-.53.22-.75.47-1.39.81-2.75,1.36-.08.03-.2.14-.2.36,0,.2.08.33.17.36.22.08.47.11.64.17.53.17.78.45.92.7.22.42.28,2.17.28,4.06v9.12c0,1.11-.11,1.98-.28,2.28-.17.33-.64.53-1.11.53-.22,0-.5-.03-.61-.03-.2,0-.33.19-.33.47,0,.33.09.53.33.53.22,0,1.17-.14,2.86-.14s2.64.14,2.92.14c.16,0,.33-.17.33-.53,0-.31-.11-.47-.31-.47m-12.02-.98c-.34.31-1.36,1-2.45,1-1.75,0-2.56-1.09-2.56-2.09,0-.89.61-1.53,1.48-1.86.69-.25,1.89-.53,2.86-.72.36-.08.69-.11.83-.11.22,0,.39.11.42.39.03.33.03.81.03,1.33,0,1.22-.22,1.7-.61,2.06m4.73.09c-.3,0-.44.16-.5.36-.11.31-.39.56-.81.56-.67,0-1.22-.47-1.22-2.36s.08-4.56.08-5.95c0-1.14-.11-2-.5-2.56-.45-.67-1.2-1.09-2.45-1.09-1.39,0-3.09.89-4.28,1.92-.53.48-1.25,1.34-1.25,2.14,0,.72.39,1.17,1.06,1.17.56,0,1.06-.3,1.06-.92,0-.42-.2-.59-.2-1.17,0-.97,1.42-1.87,2.48-1.87.95,0,1.53.25,1.86.75.39.58.53,1.25.53,3.39,0,.64-.28.81-1.08.95-3.03.56-4.23.92-5.12,1.42-.78.47-1.22,1.28-1.22,2.28,0,1.75,1.5,3.23,3.64,3.23,1.31,0,2.31-.36,3.28-1.34.19-.19.28-.33.45-.33.11,0,.19.11.25.28.42,1.06,1.11,1.31,1.89,1.31,1.03,0,1.61-.41,2.17-1.05.2-.25.31-.47.31-.69,0-.28-.2-.42-.42-.42m140.84-7.88c.61-1.53,1.98-2.33,3.34-2.33,2.12,0,3.14,1.03,3.14,2.75,0,.45-.28.7-.75.78-.83.11-3,.14-5.65.14-.28,0-.36-.14-.36-.28.03-.39.14-.75.28-1.06m8.18,5.62c-.36,0-.47.22-.53.58-.03.17-.08.42-.2.67-.42.92-1.58,1.78-3.42,1.78-2.64,0-4.62-2.06-4.62-5.43,0-.69.14-.94.45-.94,2.59,0,6.31,0,7.79-.14.67-.05.89-.39.89-.89,0-2.4-1.45-4.56-4.9-4.56s-6.01,2.81-6.01,7.01c0,3.39,2.03,6.29,5.79,6.29,2.81,0,4.29-1.39,4.87-2.45.28-.5.44-1.06.44-1.34,0-.41-.19-.58-.56-.58m8.93-8.96c-1.25,0-2.59.92-3.42,2.03-.08.11-.2.11-.25.11-.08,0-.17-.06-.17-.28-.03-.58-.03-1.5-.06-1.72-.03-.22-.17-.33-.36-.33s-.33.08-.5.2c-.81.58-1.39.95-2.53,1.42-.11.06-.23.17-.23.39,0,.25.11.34.23.36.75.19,1.36.39,1.61.89.22.42.33,1.09.33,2.59v3.7c0,1.06-.11,1.81-.31,2.17-.17.31-.58.5-1.09.5-.16,0-.42-.03-.55-.03-.2,0-.36.2-.36.5s.14.5.36.5c.3,0,1.14-.14,2.7-.14,1.67,0,2.98.14,3.25.14s.45-.19.45-.5c0-.28-.11-.5-.45-.5-.17,0-.44.03-.58.03-.78,0-1.17-.14-1.42-.45-.25-.3-.39-.97-.39-2.31v-3.62c0-1.36.28-2,.5-2.47.33-.67,1.28-1.48,1.95-1.48.36,0,.78.19,1,.61.11.22.33.44.84.44.44,0,1.17-.33,1.17-1.34,0-.83-.66-1.42-1.72-1.42m-19.39,11.99c-.08,0-.44.03-.58.03-.72,0-.92-.11-1.11-.45-.14-.22-.22-.72-.22-2.97v-3.31c0-2.39-.22-3.37-.78-4.15-.58-.81-1.36-1.17-2.67-1.17-1.5,0-3.12.61-4.59,1.95-.11.08-.22.14-.3.14-.11,0-.19-.08-.19-.28v-2.83c0-3.95.08-5.43.08-5.81,0-.2-.14-.3-.28-.3-.2,0-.36.08-.5.19-.72.5-1.39.89-2.73,1.39-.08.03-.19.14-.19.36,0,.19.09.33.17.36.23.08.5.11.64.17.53.16.78.44.92.7.22.44.28,1.47.28,4.01v9.23c0,1.06-.14,1.92-.31,2.28-.14.34-.56.5-1.08.5-.17,0-.42-.03-.53-.03-.25,0-.39.22-.39.5,0,.31.11.5.36.5.28,0,1.06-.14,2.64-.14s2.73.14,3,.14.41-.19.41-.48c0-.3-.11-.53-.41-.53-.17,0-.45.03-.59.03-.67,0-1-.14-1.22-.45-.17-.25-.28-.97-.28-2.39v-3.53c0-1.47.11-2.11.47-2.53.59-.75,2.12-1.64,3.45-1.64,1.17,0,2.11.44,2.53,1.33.31.67.47,1.92.47,4.67,0,2.14-.06,3.4-.28,4.01-.14.34-.41.53-1.03.53-.14,0-.47-.03-.58-.03-.22,0-.39.22-.39.5,0,.31.11.5.36.5.31,0,1.06-.14,2.64-.14s2.58.14,2.81.14c.25,0,.39-.19.39-.48,0-.3-.14-.53-.39-.53m47.7,0c-.09,0-.39.03-.53.03-.75,0-.92-.11-1.11-.45-.14-.22-.22-.72-.22-2.97v-3.31c0-2.39-.25-3.37-.81-4.15-.59-.81-1.36-1.17-2.67-1.17-1.56,0-3.09.67-4.59,1.98-.11.08-.28.2-.33.2-.11,0-.25-.06-.25-.28-.03-.61-.03-1.47-.05-1.72-.03-.2-.17-.33-.36-.33s-.33.08-.5.2c-.72.53-1.36.92-2.53,1.42-.11.06-.22.17-.22.39,0,.25.11.34.22.36.75.19,1.36.39,1.61.89.22.42.33,1.09.33,2.59v3.59c0,1.06-.14,1.92-.3,2.28-.14.34-.58.5-1.08.5-.17,0-.42-.03-.56-.03-.22,0-.36.22-.36.5,0,.31.11.5.33.5.3,0,1.08-.14,2.67-.14s2.67.14,2.95.14c.31,0,.45-.19.45-.48,0-.3-.11-.53-.45-.53-.14,0-.42.03-.55.03-.67,0-.95-.14-1.17-.45-.2-.25-.31-1.03-.31-2.39v-3.53c0-1.47.19-2.11.53-2.53.58-.72,2.06-1.64,3.36-1.64,1.17,0,2.12.44,2.53,1.33.31.67.48,1.98.48,4.73,0,2.11-.03,3.34-.28,3.95-.11.34-.39.53-1.03.53-.11,0-.48-.03-.59-.03-.22,0-.39.22-.39.5,0,.31.11.5.39.5.31,0,1.03-.14,2.59-.14,1.67,0,2.61.14,2.84.14.28,0,.42-.19.42-.48,0-.3-.16-.53-.44-.53m-19.96-1c-.33.31-1.36,1-2.45,1-1.75,0-2.56-1.08-2.56-2.09,0-.89.61-1.53,1.47-1.86.7-.25,1.89-.53,2.87-.72.36-.09.7-.11.83-.11.22,0,.39.11.42.39.02.33.02.81.02,1.33,0,1.22-.22,1.7-.61,2.06m4.73.08c-.3,0-.44.17-.5.36-.11.31-.39.56-.81.56-.67,0-1.23-.47-1.23-2.37s.09-4.56.09-5.95c0-1.14-.11-2-.5-2.56-.45-.67-1.19-1.08-2.45-1.08-1.39,0-3.09.89-4.28,1.92-.53.47-1.25,1.34-1.25,2.14,0,.72.39,1.16,1.05,1.16.56,0,1.06-.3,1.06-.92,0-.42-.19-.58-.19-1.17,0-.98,1.42-1.86,2.47-1.86.95,0,1.53.25,1.86.75.39.59.53,1.25.53,3.4,0,.64-.28.81-1.09.95-3.03.56-4.23.92-5.12,1.42-.78.47-1.22,1.28-1.22,2.28,0,1.75,1.5,3.23,3.65,3.23,1.31,0,2.31-.36,3.28-1.34.19-.19.28-.33.44-.33.11,0,.2.11.25.28.42,1.06,1.11,1.31,1.89,1.31,1.03,0,1.61-.42,2.17-1.06.2-.25.31-.47.31-.7,0-.28-.19-.42-.42-.42m-48.21-.03c-.11,0-.28.08-.36.19-.5.59-1.03.75-1.64.75s-1.14-.22-1.41-.72c-.14-.3-.28-.92-.28-2.06,0-.61,0-3.31.05-7.06,0-.28.11-.42.45-.42.97,0,2.2.06,2.61.06.25,0,.5-.2.5-.67,0-.44-.17-.64-.47-.64-.39,0-1.59.08-2.64.08-.34,0-.42-.14-.42-.42,0-.92.06-2.19.06-2.45,0-.31-.11-.53-.42-.53-.41,0-.47.25-.53.53-.42,1.97-.95,2.78-2.73,3.06-.2.03-.36.14-.36.5,0,.44.2.53.42.53.3,0,.75-.06,1.39-.06.36,0,.47.11.47.42-.06,3.81-.14,6.56-.14,7.59,0,.95.08,1.86.45,2.45.33.56.89,1.03,2.2,1.03,1.7,0,2.7-.89,3.09-1.28.11-.11.2-.25.2-.39,0-.28-.23-.5-.48-.5m-22.58-2.56c-.31,0-.45.14-.53.36-.36.95-.81,1.95-1.5,2.45-.56.42-1.53.5-3,.5-2.33,0-3.56-.17-3.92-.78-.19-.31-.25-.97-.25-1.48V5.81c0-1.64.11-2.4.36-2.67.28-.34.7-.47,1.45-.47.08,0,.39.03.47.03.33,0,.42-.28.42-.56,0-.3-.14-.47-.45-.47-.28,0-1.2.17-2.92.17s-3.12-.17-3.42-.17c-.25,0-.42.17-.42.53s.19.5.36.5c.08,0,.41-.03.55-.03.7,0,1.22.19,1.45.56.2.36.25,1.03.25,2.48v10.54c0,1.45-.11,2.06-.28,2.36-.2.34-.64.56-1.36.56-.14,0-.5-.03-.61-.03-.22,0-.36.19-.36.53,0,.39.25.5.39.5.3,0,2.61-.11,4.31-.11,3.56,0,5.23.11,7.9.11.42,0,.7-.25.86-.72.28-.86.78-3.09.78-3.45,0-.22-.25-.33-.53-.33m14.7,2.86c-.25,0-.7.17-.95.17-.33,0-.58-.08-.78-.3-.31-.33-.47-1.08-.47-2.2v-4.51c0-2.7.2-4.06.2-4.25,0-.25-.14-.39-.42-.39-.16,0-.47.17-.72.25-.53.2-1.58.47-2.56.59-.2.03-.33.19-.33.47,0,.31.19.45.36.45.64.06,1.34.19,1.59.7.22.44.25,1.03.25,2.56v3.12c0,1.34-.11,2.14-.45,2.53-.53.61-1.78,1.28-3.25,1.28s-2.37-.56-2.75-1.48c-.36-.86-.45-2.09-.45-4.81,0-3,.36-4.95.36-5.23,0-.25-.23-.42-.39-.42-.14,0-.3.05-.55.17-.81.31-1.56.47-2.92.67-.2.03-.34.19-.34.47s.17.45.34.45c.72.06,1.42.19,1.67.78.11.28.19.86.19,1.42,0,.83-.03,3.03-.03,3.73,0,2.26.2,3.51.83,4.48.61.75,1.5,1.31,2.95,1.31s2.75-.42,4.01-1.36c.17-.14.42-.39.58-.39.09,0,.17.06.2.25.08.5.14,1,.22,1.3.06.22.17.34.39.34.25,0,.7-.39,1.67-.7.69-.25,1.33-.39,1.67-.5.17-.06.25-.22.25-.44,0-.25-.11-.48-.36-.48"/></svg>