<?xml version="1.0" encoding="UTF-8"?><svg id="Layer_1" xmlns="http://www.w3.org/2000/svg" viewBox="0 0 336.08 60.14"><defs><style>.cls-1{fill:#fff;}</style></defs><path class="cls-1" d="M191.33,26.99c0-3.15-2.69-5.05-4.89-5.81,1.48-1.18,2.74-2.5,2.74-4.71,0-1.43-.86-4.03-5.73-4.03-.91,0-1.96,.08-3.28,.08-.54,0-2.23-.08-3.66-.08-.4,0-.59,.05-.59,.24s.16,.24,.46,.24c.38,0,.83,.03,1.05,.08,.89,.19,1.1,.62,1.16,1.53,.05,.86,.05,1.61,.05,5.7v4.73c0,2.47,0,4.6-.14,5.73-.11,.78-.24,1.37-.78,1.48-.24,.05-.56,.11-.97,.11-.32,0-.43,.08-.43,.21,0,.19,.19,.27,.54,.27,1.08,0,2.77-.08,3.39-.08,.81,0,3.25,.16,3.9,.16,4.95,0,7.18-2.98,7.18-5.86Zm-9.46-12.93c0-.3,.05-.4,.24-.46,.27-.05,.51-.05,.89-.05,2.31,0,3.36,2.37,3.36,4.17,0,1.32-.4,2.29-1.1,2.85-.46,.4-1.05,.51-1.94,.51-.62,0-1.02-.03-1.26-.08-.11-.03-.19-.08-.19-.3v-6.64Zm2.9,17.58c-.62,0-1.24-.03-1.96-.32-.86-.35-.94-.81-.94-2.58v-6.37c0-.13,.05-.19,.16-.19,.4,0,.67,0,1.16,.03,1.05,.05,1.67,.24,2.23,.65,2.04,1.42,2.61,3.68,2.61,5.35,0,2.8-2.04,3.44-3.25,3.44Zm18.65,1.13c.29,0,.51-.08,.51-.27,0-.14-.14-.21-.43-.21-.4,0-.99-.05-1.37-.11-.81-.11-.99-.59-1.08-1.32-.11-1.16-.11-3.28-.11-5.89v-4.73c0-4.09,0-4.84,.05-5.7,.05-.94,.27-1.4,.99-1.53,.32-.05,.54-.08,.81-.08s.43-.05,.43-.27c0-.16-.21-.21-.56-.21-1.02,0-2.61,.08-3.28,.08-.78,0-2.47-.08-3.49-.08-.43,0-.65,.05-.65,.21,0,.22,.16,.27,.43,.27,.32,0,.67,.03,.97,.11,.59,.13,.86,.59,.91,1.51,.05,.86,.05,1.61,.05,5.7v4.73c0,2.61,0,4.73-.14,5.86-.08,.78-.24,1.24-.78,1.34-.24,.05-.57,.11-.97,.11-.32,0-.43,.08-.43,.21,0,.19,.19,.27,.54,.27,1.08,0,2.77-.08,3.39-.08,.73,0,2.42,.08,4.2,.08Zm-59.87-20.33c-1.05,0-2.74,.08-3.07,.08-.03,0-1.72-.08-3.09-.08-.38,0-.56,.05-.56,.24s.16,.24,.45,.24,.75,.03,.97,.08c.89,.19,1.1,.62,1.16,1.53,.05,.86,.05,1.61,.05,5.7v3.36c0,2.77-.08,5.19-1.56,6.67-1.07,1.08-2.53,1.45-3.71,1.45-.91,0-2.15-.11-3.36-1.1-1.32-1.08-2.1-2.72-2.1-6.62v-3.76c0-4.09,0-4.84,.05-5.7,.05-.94,.27-1.4,1-1.53,.32-.05,.48-.08,.78-.08,.27,0,.43-.05,.43-.24s-.19-.24-.59-.24c-.97,0-2.66,.08-3.31,.08-.81,0-2.5-.08-3.93-.08-.4,0-.59,.05-.59,.24s.16,.24,.46,.24c.38,0,.83,.03,1.05,.08,.89,.19,1.1,.62,1.16,1.53,.05,.86,.05,1.61,.05,5.7v3.93c0,3.9,1.02,5.89,2.39,7.13,1.96,1.78,4.54,1.86,5.97,1.86,1.75,0,3.68-.3,5.59-1.94,2.26-1.94,2.55-5.11,2.55-8.09v-2.88c0-4.09,0-4.84,.05-5.7,.05-.94,.27-1.4,.99-1.53,.32-.05,.48-.08,.78-.08,.32,0,.48-.05,.48-.24s-.19-.24-.56-.24Zm-52.11-.38c-8.07,0-11.11,5.94-11.11,10.54s3.12,10.54,10.84,10.54c6.83,0,11.13-4.87,11.13-11.03s-4.17-10.06-10.86-10.06Zm.86,19.74c-5.16,0-8.26-4.44-8.26-10.03,0-6.7,3.52-8.42,6.62-8.42,4.41,0,7.88,3.74,7.88,9.76,0,7.77-4.36,8.69-6.24,8.69Zm-34.37-2.07c2.92,2.54,6.62,3.5,11.02,3.5,2.06,0,4.5-.22,5.78-.74,.55-.22,.68-.39,.84-.93,.32-1.09,.71-3.89,.71-4.28,0-.26-.07-.48-.29-.48-.26,0-.32,.13-.42,.64-.13,.58-.55,1.51-1.09,2.12-1.29,1.48-3.02,1.8-5.88,1.8-4.31,0-10.12-3.79-10.12-11.44,0-3.12,.61-6.17,2.96-8.32,1.42-1.29,3.25-1.99,6.04-1.99,2.96,0,5.46,.87,6.52,1.99,.8,.84,1.22,1.96,1.25,2.96,0,.45,.07,.71,.32,.71,.29,0,.35-.26,.39-.74,.06-.64,.03-2.41,.1-3.47,.06-1.12,.16-1.51,.16-1.77,0-.19-.13-.35-.48-.39-.96-.1-1.99-.38-3.21-.55-1.48-.19-2.67-.32-4.66-.32-4.79,0-7.84,1.29-10.15,3.41-3.09,2.83-3.76,6.62-3.76,8.81,0,3.12,.84,6.72,3.99,9.48ZM106.47,12.93c.35,0,.67,.03,.89,.08,.89,.19,1.1,.62,1.16,1.53,.05,.86,.05,1.61,.05,5.7v4.73c0,2.47,0,4.6-.13,5.73-.11,.78-.24,1.37-.78,1.48-.24,.05-.56,.11-.97,.11-.32,0-.43,.08-.43,.21,0,.19,.19,.27,.54,.27,1.07,0,2.77-.08,3.39-.08,2.18,0,3.95,.16,7.83,.16,1.4,0,1.53-.14,1.69-.73,.22-.78,.4-2.8,.4-3.09,0-.32-.02-.46-.22-.46-.21,0-.27,.16-.3,.4-.05,.51-.38,1.26-.7,1.61-.67,.73-1.72,.75-3.15,.75-2.1,0-2.8-.19-3.25-.59-.57-.48-.57-2.34-.57-5.78v-4.73c0-4.09,0-4.84,.05-5.7,.05-.94,.27-1.4,.99-1.53,.32-.05,.75-.08,1.05-.08,.32,0,.48-.05,.48-.24s-.19-.24-.56-.24c-1.05,0-3.01,.08-3.66,.08-.72,0-2.42-.08-3.68-.08-.4,0-.59,.05-.59,.24s.16,.24,.46,.24Zm66.87,19.55c0-.16-.19-.19-.43-.19-.35,0-.89-.03-1.67-.27-.81-.24-1.07-1.02-1.32-2.72l-2.45-16.62c-.08-.57-.24-.83-.48-.83s-.4,.22-.59,.65l-7.31,15.35-7.34-15.17c-.35-.7-.51-.83-.73-.83s-.38,.24-.46,.7l-2.66,17.53c-.14,.91-.35,1.96-1.1,2.12-.4,.08-.59,.08-.81,.08-.27,0-.43,.05-.43,.19,0,.24,.22,.3,.48,.3,.86,0,2.15-.08,2.66-.08,.48,0,1.69,.08,2.82,.08,.4,0,.65-.05,.65-.3,0-.14-.19-.19-.4-.19-.27,0-.64-.03-1.13-.14-.46-.11-.81-.35-.81-.86,0-.43,.03-.78,.08-1.26l1.4-10.7h.11c.94,2.02,2.56,5.4,2.8,5.97,.32,.75,2.45,4.87,3.09,6.1,.43,.81,.7,1.35,.94,1.35s.38-.24,1-1.51l5.86-12.21h.11l1.61,11.83c.11,.75,.03,1.1-.13,1.16-.19,.08-.3,.16-.3,.3,0,.16,.16,.24,.78,.3,1.07,.08,4.78,.16,5.46,.16,.38,0,.7-.08,.7-.3Zm54.58-.19c-.32,0-.72-.03-1.13-.11-.56-.13-1.34-.51-2.37-2.93-1.72-4.09-6.02-15.06-6.67-16.54-.27-.62-.43-.86-.67-.86-.27,0-.43,.3-.75,1.08l-6.75,16.89c-.54,1.34-1.05,2.26-2.29,2.42-.21,.03-.59,.05-.83,.05-.22,0-.32,.05-.32,.21,0,.21,.16,.27,.51,.27,1.4,0,2.88-.08,3.17-.08,.83,0,1.99,.08,2.85,.08,.3,0,.46-.05,.46-.27,0-.16-.08-.21-.4-.21h-.4c-.83,0-1.08-.35-1.08-.83,0-.32,.14-.97,.4-1.64l1.45-3.85c.05-.16,.11-.21,.24-.21h6c.13,0,.22,.05,.27,.19l2.15,5.7c.14,.32-.05,.57-.24,.62-.27,.03-.37,.08-.37,.24,0,.19,.32,.19,.81,.21,2.15,.05,4.11,.05,5.08,.05s1.24-.05,1.24-.27c0-.19-.13-.21-.35-.21Zm-9.09-7.88h-4.95c-.11,0-.13-.08-.11-.19l2.48-6.62c.03-.11,.08-.24,.16-.24s.11,.14,.14,.24l2.42,6.64c.03,.08,0,.16-.13,.16ZM24.34,10.69c-.37,.12-.75,.01-1.08-.26-.29-.24-.59-.44-.89-.62,.92-.55,1.55-1.55,1.55-2.71,0-1.57-1.15-2.88-2.66-3.11l1.16-1.49c.11-.15,.11-.39,0-.54L20.97,.11c-.06-.08-.13-.11-.21-.11s-.15,.03-.21,.11l-1.43,1.86c-.12,.15-.12,.39,0,.54l1.15,1.49c-1.51,.24-2.66,1.54-2.66,3.11,0,1.15,.62,2.16,1.55,2.71-.3,.18-.6,.38-.89,.62-.33,.27-.71,.37-1.08,.26-6.55-2.09-12.34-4.11-15.63-.89-3.94,3.86,.65,10.11,2.09,12.68,1.01,1.8,1.73,3.9,1.73,5.57h30.77c0-1.67,.72-3.77,1.73-5.57,1.44-2.57,6.03-8.82,2.09-12.68-3.29-3.22-9.07-1.2-15.62,.89Zm-8.26,15.23c-1.19,.08-2.17-1.02-2.55-2.53l.98-2.29c.11-.25,.03-.48-.13-.65l-3.09-3.09c-.17-.17-.34-.18-.42,0l-1.46,3.09c-.11,.26,.01,.47,.17,.65l2.31,2.33c.48,1.84-.76,2.5-1.46,2.5-2.45,0-4.41-3.33-6.41-6.78-1.97-3.39-2.66-5.87-1.18-7.74,2.48-3.13,8.98-.65,14.03,1.65-.05,.72,.12,1.56,.57,2.56,2.67,5.94,.87,10.15-1.34,10.3Zm21.45-6.76c-2,3.45-3.96,6.78-6.41,6.78-.7,0-1.95-.66-1.46-2.5l2.31-2.33c.16-.18,.28-.38,.17-.65l-1.46-3.09c-.08-.18-.24-.17-.42,0l-3.09,3.09c-.17,.17-.24,.4-.13,.65l.98,2.29c-.38,1.51-1.36,2.61-2.55,2.53-2.21-.15-4.01-4.36-1.34-10.3,.45-1,.62-1.84,.57-2.56,5.05-2.3,11.55-4.77,14.03-1.65,1.48,1.87,.79,4.35-1.18,7.74ZM5.38,32.77h30.76v-2.53H5.38v2.53Zm330.47,26.8c-.21,0-.57-.05-1.09-.26-.95-.37-1.75-1.17-2.53-1.91-.69-.65-4.15-4.38-4.79-5.21,.6-.64,3.27-3.29,3.82-3.82,.76-.74,1.36-1.11,1.91-1.32,.34-.12,.78-.19,1.02-.19,.18,0,.27-.04,.27-.16s-.12-.16-.3-.16c-.55,0-1.52,.05-2.07,.05-.48,0-1.45-.05-1.82-.05-.19,0-.28,.03-.28,.16,0,.11,.07,.14,.23,.18,.18,.03,.25,.16,.25,.35,0,.3-.39,.74-.88,1.32-.51,.6-3.09,3.23-3.69,3.89h-.09v-.78c0-2.69,0-3.18,.04-3.75,.04-.62,.18-.92,.65-1.01,.21-.03,.32-.05,.5-.05,.14,0,.25-.04,.25-.16s-.12-.16-.37-.16c-.6,0-1.71,.05-2.14,.05s-1.54-.05-2.47-.05c-.27,0-.39,.03-.39,.16s.11,.16,.3,.16c.25,0,.55,.02,.69,.05,.58,.12,.72,.41,.76,1.01,.03,.57,.03,1.06,.03,3.75v3.11c0,1.62,0,3.02-.09,3.76-.07,.51-.16,.9-.51,.97-.16,.04-.37,.07-.64,.07-.21,0-.28,.05-.28,.14,0,.12,.12,.18,.35,.18,.71,0,1.82-.05,2.23-.05,.44,0,1.55,.05,2.54,.05,.2,0,.34-.05,.34-.18,0-.09-.09-.14-.23-.14-.23,0-.62-.03-.87-.07-.44-.07-.6-.46-.64-.95-.05-.76-.05-2.16-.05-3.78v-1.61h.09l.19,.27c.37,.51,3.85,4.59,4.63,5.28,.76,.67,1.24,1.06,2.19,1.15,.37,.04,.69,.04,1.22,.04h1.54c.34,0,.42-.05,.42-.18,0-.11-.11-.14-.23-.14Zm-14.49,0c-.14,0-.3-.02-.5-.05-.27-.05-.99-.18-1.98-1.2-1.04-1.09-2.26-2.67-3.83-4.65,1.78-1.45,2.33-2.65,2.33-3.96,0-1.18-.71-2.09-1.2-2.42-.95-.65-2.14-.76-3.25-.76-.55,0-1.89,.05-2.49,.05-.37,0-1.48-.05-2.42-.05-.27,0-.39,.03-.39,.16s.11,.16,.3,.16c.25,0,.55,.02,.69,.05,.58,.12,.72,.41,.76,1.01,.03,.57,.03,1.06,.03,3.75v3.11c0,1.62,0,3.02-.09,3.76-.07,.51-.16,.9-.51,.97-.16,.04-.37,.07-.64,.07-.21,0-.28,.05-.28,.14,0,.12,.12,.18,.35,.18,.71,0,1.82-.05,2.16-.05,.26,0,1.57,.05,2.6,.05,.23,0,.35-.05,.35-.18,0-.09-.07-.14-.21-.14-.21,0-.6-.03-.87-.07-.53-.07-.64-.46-.69-.97-.09-.74-.09-2.14-.09-3.78v-.25c0-.11,.05-.14,.14-.14l1.54,.04c.12,0,.23,.02,.32,.12,.23,.27,1.04,1.47,1.75,2.44,.99,1.36,1.66,2.19,2.42,2.6,.46,.25,.9,.34,1.89,.34h1.68c.21,0,.34-.04,.34-.18,0-.09-.07-.14-.21-.14Zm-7.1-6.32c-.32,.23-.55,.3-1.25,.3-.44,0-.97-.05-1.34-.18-.12-.05-.16-.12-.16-.32v-5.37c0-.14,.04-.21,.16-.25,.18-.05,.49-.07,.94-.07,1.04,0,2.7,.72,2.7,3.23,0,1.45-.51,2.26-1.04,2.65Zm-235.3,3.36c-.14,0-.18,.07-.23,.35-.07,.32-.3,.83-.6,1.17-.71,.81-1.66,.99-3.23,.99-2.37,0-5.56-2.08-5.56-6.29,0-1.71,.34-3.39,1.63-4.58,.78-.71,1.78-1.1,3.32-1.1,1.63,0,3,.48,3.59,1.1,.44,.46,.67,1.08,.69,1.62,0,.25,.04,.39,.18,.39,.16,0,.19-.14,.21-.41,.04-.35,.02-1.32,.05-1.91,.04-.62,.09-.83,.09-.97,0-.11-.07-.2-.26-.21-.53-.05-1.1-.21-1.77-.3-.81-.11-1.47-.18-2.56-.18-2.63,0-4.31,.71-5.58,1.87-1.7,1.56-2.07,3.64-2.07,4.84,0,1.71,.46,3.69,2.19,5.21,1.61,1.4,3.64,1.93,6.06,1.93,1.13,0,2.47-.12,3.18-.41,.3-.12,.37-.21,.46-.51,.18-.6,.39-2.14,.39-2.35,0-.14-.04-.26-.16-.26Zm-18.18-4.77l-.5-.37c-1.47-1.11-1.87-1.73-1.87-2.54,0-1.06,.8-1.82,2.1-1.82,1.15,0,1.66,.53,1.93,.87,.37,.46,.46,1.01,.46,1.17,0,.21,.05,.32,.18,.32,.14,0,.19-.14,.19-.53,0-1.38,.07-1.89,.07-2.12,0-.12-.09-.18-.25-.21-.46-.12-1.2-.3-2.35-.3-2.46,0-4.08,1.39-4.08,3.34,0,1.43,.67,2.67,2.61,4.19l.81,.64c1.47,1.15,1.73,1.96,1.73,2.83,0,.94-.78,2.01-2.37,2.01-1.1,0-2.14-.48-2.53-1.78-.09-.3-.16-.67-.16-.9,0-.14-.02-.3-.18-.3-.14,0-.19,.2-.21,.46-.02,.28-.09,1.34-.09,2.31,0,.39,.05,.48,.34,.6,.76,.34,1.55,.46,2.58,.46,.94,0,1.93-.16,2.81-.72,1.27-.83,1.66-2.05,1.66-3.07,0-1.68-.76-2.9-2.9-4.5Zm36.06,7.74c-.27,0-.65-.03-.9-.07-.53-.07-.64-.46-.69-.95-.09-.76-.09-2.16-.09-3.78v-3.11c0-2.69,0-3.18,.04-3.75,.04-.62,.18-.92,.65-1.01,.21-.03,.37-.05,.51-.05,.21,0,.32-.04,.32-.16s-.12-.16-.37-.16c-.69,0-1.8,.05-2.23,.05-.48,0-1.59-.05-2.54-.05-.25,0-.37,.03-.37,.16s.11,.16,.3,.16c.25,0,.55,.02,.69,.05,.58,.12,.72,.41,.76,1.01,.04,.57,.04,1.06,.04,3.75v.37c0,.09-.05,.12-.11,.12h-6.75c-.05,0-.11-.04-.11-.12v-.37c0-2.69,0-3.18,.04-3.75,.04-.62,.18-.92,.65-1.01,.21-.03,.37-.05,.51-.05,.21,0,.32-.04,.32-.16s-.12-.16-.37-.16c-.69,0-1.8,.05-2.23,.05-.48,0-1.59-.05-2.54-.05-.25,0-.37,.03-.37,.16s.11,.16,.3,.16c.25,0,.55,.02,.69,.05,.58,.12,.72,.41,.76,1.01,.04,.57,.04,1.06,.04,3.75v3.11c0,1.62,0,3.02-.09,3.76-.07,.51-.16,.9-.51,.97-.16,.04-.37,.07-.64,.07-.21,0-.28,.05-.28,.14,0,.12,.12,.18,.35,.18,.71,0,1.82-.05,2.23-.05,.49,0,1.61,.05,2.76,.05,.21,0,.35-.05,.35-.18,0-.09-.09-.14-.28-.14-.26,0-.65-.03-.9-.07-.53-.07-.64-.46-.69-.95-.09-.76-.09-2.16-.09-3.78v-1.55c0-.09,.05-.11,.11-.11h6.75c.05,0,.11,.03,.11,.11v1.55c0,1.62,0,3.02-.09,3.76-.07,.51-.16,.9-.51,.97-.16,.04-.37,.07-.64,.07-.21,0-.28,.05-.28,.14,0,.12,.12,.18,.37,.18,.69,0,1.8-.05,2.21-.05,.49,0,1.61,.05,2.76,.05,.21,0,.35-.05,.35-.18,0-.09-.09-.14-.28-.14Zm139.41,0c-.27,0-.65-.03-.9-.07-.53-.07-.65-.39-.71-.87-.07-.76-.07-2.16-.07-3.87v-3.11c0-2.69,0-3.18,.04-3.75,.03-.62,.18-.92,.65-1.01,.21-.03,.35-.05,.53-.05s.28-.04,.28-.18c0-.11-.14-.14-.37-.14-.67,0-1.71,.05-2.16,.05-.51,0-1.63-.05-2.3-.05-.28,0-.42,.03-.42,.14,0,.14,.11,.18,.28,.18,.21,0,.44,.02,.64,.07,.39,.09,.57,.39,.6,.99,.03,.57,.03,1.06,.03,3.75v3.11c0,1.71,0,3.11-.09,3.85-.05,.51-.16,.81-.51,.88-.16,.04-.37,.07-.64,.07-.21,0-.28,.05-.28,.14,0,.12,.12,.18,.35,.18,.71,0,1.82-.05,2.23-.05,.48,0,1.59,.05,2.76,.05,.19,0,.34-.05,.34-.18,0-.09-.09-.14-.28-.14Zm-58.55-13.18c-.09,0-.18,.07-.28,.11-.18,.05-.39,.05-.72,.07-.41,.02-3.99,.02-4.66,.02-.25,0-.65-.02-1.11-.04-.46,0-.97-.02-1.43-.02-.26,0-.41,.03-.41,.18,0,.11,.12,.14,.3,.14,.25,0,.55,.02,.69,.05,.58,.12,.72,.41,.76,1.01,.04,.57,.04,1.06,.04,3.75v3.11c0,1.7,0,3.02-.09,3.76-.07,.51-.16,.9-.51,.97-.16,.04-.37,.07-.64,.07-.19,0-.27,.05-.27,.14,0,.14,.12,.18,.37,.18,.67,0,1.78-.05,2.24-.05s1.57,.05,2.69,.05c.26,0,.39-.05,.39-.18,0-.09-.07-.14-.3-.14-.25,0-.64-.03-.88-.07-.53-.07-.64-.46-.69-.97-.09-.74-.09-2.07-.09-3.76v-1.43c0-.12,.04-.16,.12-.16,.3,0,2.17,0,2.61,.05,.55,.07,.81,.39,.9,.64,.07,.21,.11,.42,.11,.55s.04,.25,.14,.25c.18,0,.18-.18,.18-.34,0-.12,.04-.94,.07-1.29,.05-.55,.14-.99,.14-1.09s-.04-.16-.11-.16c-.11,0-.14,.07-.23,.18-.18,.23-.42,.3-.76,.32-.25,.02-.49,.02-.8,.02l-2.26,.02c-.11,0-.12-.05-.12-.16v-4.42c0-.19,.05-.25,.16-.25l2.72,.05c.67,.02,1.04,.28,1.17,.53,.11,.25,.11,.53,.11,.67,.02,.19,.05,.28,.18,.28s.16-.11,.18-.25c.04-.21,.07-1.25,.09-1.43,.05-.46,.14-.67,.14-.8,0-.09-.05-.16-.12-.16Zm73.83,13.18c-.21,0-.48-.02-.74-.07-.37-.09-.88-.34-1.55-1.93-1.13-2.69-3.96-9.75-4.38-10.72-.18-.41-.28-.57-.44-.57-.18,0-.28,.19-.49,.71l-4.43,10.95c-.35,.88-.69,1.48-1.5,1.59-.14,.02-.39,.03-.55,.03-.14,0-.21,.04-.21,.14,0,.14,.11,.18,.34,.18,.92,0,1.89-.05,2.09-.05,.55,0,1.31,.05,1.87,.05,.19,0,.3-.04,.3-.18,0-.11-.05-.14-.26-.14h-.27c-.55,0-.71-.23-.71-.55,0-.21,.09-.64,.27-1.08l.95-2.42c.03-.11,.07-.14,.16-.14h3.94c.09,0,.14,.04,.18,.12l1.41,3.64c.09,.21-.03,.37-.16,.41-.18,.02-.25,.05-.25,.16,0,.12,.21,.12,.53,.14,1.41,.04,2.7,.04,3.34,.04s.81-.04,.81-.18c0-.12-.09-.14-.23-.14Zm-5.97-5.07h-3.25c-.07,0-.09-.05-.07-.12l1.62-4.33c.02-.07,.05-.16,.11-.16s.07,.09,.09,.16l1.59,4.35c.02,.05,0,.11-.09,.11Zm16.38,2.63c-.14,0-.18,.11-.2,.27-.03,.34-.25,.83-.46,1.06-.44,.48-1.13,.5-2.07,.5-1.38,0-1.84-.12-2.14-.39-.37-.32-.37-1.54-.37-3.8v-3.11c0-2.69,0-3.18,.04-3.75,.03-.62,.18-.92,.65-1.01,.21-.03,.49-.05,.69-.05,.21,0,.32-.04,.32-.16s-.12-.16-.37-.16c-.69,0-1.98,.05-2.4,.05-.48,0-1.59-.05-2.42-.05-.27,0-.39,.03-.39,.16s.11,.16,.3,.16c.23,0,.44,.02,.58,.05,.58,.12,.72,.41,.76,1.01,.03,.57,.03,1.06,.03,3.75v3.11c0,1.62,0,3.02-.09,3.76-.07,.51-.16,.9-.51,.97-.16,.04-.37,.07-.64,.07-.21,0-.28,.05-.28,.14,0,.12,.12,.18,.35,.18,.35,0,.81-.04,1.22-.04,.42-.02,.81-.02,1.01-.02,.72,0,1.36,.02,2.16,.05,.8,.02,1.71,.05,2.99,.05,.92,0,1.01-.09,1.11-.48,.14-.51,.26-1.84,.26-2.03,0-.21-.02-.3-.14-.3Zm-56.48-10.85c-5.3,0-7.3,3.9-7.3,6.93s2.05,6.92,7.12,6.92c4.49,0,7.31-3.2,7.31-7.24s-2.74-6.61-7.14-6.61Zm.57,12.97c-3.39,0-5.42-2.91-5.42-6.59,0-4.4,2.31-5.53,4.35-5.53,2.9,0,5.18,2.46,5.18,6.41,0,5.1-2.86,5.71-4.1,5.71Zm-13.93-7.42l-.5-.37c-1.47-1.11-1.87-1.73-1.87-2.54,0-1.06,.8-1.82,2.1-1.82,1.15,0,1.66,.53,1.93,.87,.37,.46,.46,1.01,.46,1.17,0,.21,.05,.32,.18,.32,.14,0,.19-.14,.19-.53,0-1.38,.07-1.89,.07-2.12,0-.12-.09-.18-.25-.21-.46-.12-1.2-.3-2.35-.3-2.46,0-4.08,1.39-4.08,3.34,0,1.43,.67,2.67,2.61,4.19l.81,.64c1.47,1.15,1.73,1.96,1.73,2.83,0,.94-.78,2.01-2.37,2.01-1.1,0-2.14-.48-2.53-1.78-.09-.3-.16-.67-.16-.9,0-.14-.02-.3-.18-.3-.14,0-.19,.2-.21,.46-.02,.28-.09,1.34-.09,2.31,0,.39,.05,.48,.34,.6,.76,.34,1.55,.46,2.58,.46,.94,0,1.93-.16,2.81-.72,1.27-.83,1.66-2.05,1.66-3.07,0-1.68-.76-2.9-2.9-4.5Zm35.45,4.77c-.14,0-.18,.07-.23,.35-.07,.32-.3,.83-.6,1.17-.71,.81-1.66,.99-3.23,.99-2.37,0-5.56-2.08-5.56-6.29,0-1.71,.34-3.39,1.62-4.58,.78-.71,1.78-1.1,3.32-1.1,1.62,0,3,.48,3.59,1.1,.44,.46,.67,1.08,.69,1.62,0,.25,.04,.39,.18,.39,.16,0,.2-.14,.21-.41,.04-.35,.02-1.32,.05-1.91,.04-.62,.09-.83,.09-.97,0-.11-.07-.2-.27-.21-.53-.05-1.09-.21-1.77-.3-.81-.11-1.47-.18-2.56-.18-2.63,0-4.31,.71-5.58,1.87-1.7,1.56-2.07,3.64-2.07,4.84,0,1.71,.46,3.69,2.19,5.21,1.61,1.4,3.64,1.93,6.06,1.93,1.13,0,2.47-.12,3.18-.41,.3-.12,.37-.21,.46-.51,.18-.6,.39-2.14,.39-2.35,0-.14-.04-.26-.16-.26Zm-103.25-10.32c-5.3,0-7.3,3.9-7.3,6.93s2.05,6.92,7.12,6.92c4.49,0,7.31-3.2,7.31-7.24s-2.74-6.61-7.14-6.61Zm.57,12.97c-3.39,0-5.42-2.91-5.42-6.59,0-4.4,2.31-5.53,4.35-5.53,2.9,0,5.18,2.46,5.18,6.41,0,5.1-2.86,5.71-4.1,5.71Zm172.83-12.97c-5.3,0-7.3,3.9-7.3,6.93s2.05,6.92,7.12,6.92c4.49,0,7.31-3.2,7.31-7.24s-2.74-6.61-7.14-6.61Zm.57,12.97c-3.39,0-5.42-2.91-5.42-6.59,0-4.4,2.31-5.53,4.35-5.53,2.9,0,5.18,2.46,5.18,6.41,0,5.1-2.86,5.71-4.1,5.71Zm-139.11-12.97c-5.3,0-7.3,3.9-7.3,6.93s2.05,6.92,7.12,6.92c4.49,0,7.31-3.2,7.31-7.24s-2.74-6.61-7.14-6.61Zm.57,12.97c-3.39,0-5.42-2.91-5.42-6.59,0-4.4,2.31-5.53,4.35-5.53,2.9,0,5.18,2.46,5.18,6.41,0,5.1-2.86,5.71-4.1,5.71Zm-52.68-12.97c-5.3,0-7.3,3.9-7.3,6.93s2.05,6.92,7.12,6.92c4.49,0,7.31-3.2,7.31-7.24s-2.74-6.61-7.14-6.61Zm.57,12.97c-3.39,0-5.42-2.91-5.42-6.59,0-4.4,2.31-5.53,4.35-5.53,2.9,0,5.18,2.46,5.18,6.41,0,5.1-2.86,5.71-4.1,5.71Zm181.17-12.72c-.58,0-1.34,.05-1.47,.05-.16,0-.9-.05-1.84-.05-.27,0-.41,.03-.41,.16,0,.11,.12,.16,.3,.16,.69,0,.85,.25,.85,.53,0,.25-.05,.62-.18,1.02-.62,2.07-2.03,6.73-2.35,7.91h-.05l-3.68-8.9c-.23-.57-.32-.83-.51-.83-.14,0-.27,.14-.44,.64l-3.43,9.22h-.05c-.32-.99-1.96-6.34-2.26-7.51-.21-.8-.39-1.39-.39-1.62,0-.19,.04-.32,.19-.39,.12-.07,.3-.07,.44-.07,.18,0,.32-.02,.32-.16,0-.11-.12-.16-.37-.16-1.02,0-1.8,.05-1.96,.05s-1.13-.05-2.05-.05c-.25,0-.39,.03-.39,.16,0,.14,.11,.16,.28,.16,.16,0,.51,.04,.71,.16,.25,.18,.44,.6,.65,1.25l3.75,11.22c.16,.46,.23,.65,.41,.65,.21,0,.3-.21,.64-.94,.76-1.63,3.11-7.9,3.44-8.8h.04l3.68,8.87c.26,.65,.37,.87,.55,.87,.23,0,.32-.21,.51-.83,.87-2.65,2.72-8.27,3.53-10.5,.37-1.01,.57-1.71,.99-1.87,.2-.07,.44-.09,.62-.09,.16,0,.25-.05,.25-.18,0-.11-.12-.14-.32-.14Zm-145.31,10.6c-.14,0-.18,.11-.19,.27-.04,.34-.25,.83-.46,1.06-.44,.48-1.13,.5-2.07,.5-1.38,0-1.84-.12-2.14-.39-.37-.32-.37-1.54-.37-3.8v-3.11c0-2.69,0-3.18,.04-3.75,.04-.62,.18-.92,.65-1.01,.21-.03,.49-.05,.69-.05,.21,0,.32-.04,.32-.16s-.12-.16-.37-.16c-.69,0-1.98,.05-2.4,.05-.48,0-1.59-.05-2.42-.05-.27,0-.39,.03-.39,.16s.11,.16,.3,.16c.23,0,.44,.02,.58,.05,.58,.12,.72,.41,.76,1.01,.04,.57,.04,1.06,.04,3.75v3.11c0,1.62,0,3.02-.09,3.76-.07,.51-.16,.9-.51,.97-.16,.04-.37,.07-.64,.07-.21,0-.28,.05-.28,.14,0,.12,.12,.18,.35,.18,.35,0,.81-.04,1.22-.04,.42-.02,.81-.02,1.01-.02,.72,0,1.36,.02,2.16,.05,.8,.02,1.71,.05,2.99,.05,.92,0,1.01-.09,1.11-.48,.14-.51,.27-1.84,.27-2.03,0-.21-.02-.3-.14-.3Z"/></svg>