<?xml version="1.0" encoding="utf-8"?>
<!-- Generator: Adobe Illustrator 26.3.1, SVG Export Plug-In . SVG Version: 6.00 Build 0)  -->
<svg version="1.1" id="Layer_1" xmlns="http://www.w3.org/2000/svg" xmlns:xlink="http://www.w3.org/1999/xlink" x="0px" y="0px"
	 viewBox="0 0 303.9 58.7" style="enable-background:new 0 0 303.9 58.7;" xml:space="preserve">
<style type="text/css">
	.st0{fill:#E57200;}
	.st1{fill-rule:evenodd;clip-rule:evenodd;fill:#E57200;}
	.st2{fill:#FFFFFF;}
</style>
<g>
	<g>
		<rect x="23.5" y="15.6" class="st0" width="2.7" height="12.8"/>
		<rect x="9" y="15.6" class="st0" width="2.6" height="12.8"/>
		<rect x="12.5" y="15.6" class="st0" width="2.8" height="12.8"/>
		<rect x="16.2" y="15.6" class="st0" width="2.8" height="12.8"/>
		<rect x="19.8" y="15.6" class="st0" width="2.8" height="12.8"/>
		<polygon class="st0" points="25,14.7 10.1,14.7 17.8,10 		"/>
		<polygon class="st0" points="8.4,14.7 2,14.7 2,10 16.1,10 		"/>
		<polygon class="st0" points="19.3,10 33.1,10 33.1,14.7 26.7,14.7 		"/>
		<path class="st0" d="M31.1,9.1H4c2.7-4.8,7.7-8,13.6-8S28.5,4.2,31.1,9.1L31.1,9.1z"/>
		<path class="st1" d="M4.1,24.7l-0.2,0.7L4.5,25l0.6,0.4l-0.2-0.7l0.6-0.4H4.7l-0.2-0.7l-0.2,0.7H3.5L4.1,24.7L4.1,24.7z M2,20.7
			l0.6,0.4l-0.2,0.7L3,21.4l0.6,0.4l-0.2-0.7L4,20.7H3.2L3,20l-0.2,0.7H2L2,20.7z M8.1,28.4H7.3l-0.2-0.7l0.6-0.4H7l-0.2-0.7
			l-0.2,0.7H5.7l0.6,0.4l-0.2,0.7H2V17.9l0.6-0.4l0.6,0.4L3,17.2l0.6-0.4H2.8l-0.2-0.7l-0.1,0.3l-0.1,0.4H2v-1.2h6.1L8.1,28.4
			L8.1,28.4z M7.3,28.4H6.1l0.6-0.4L7.3,28.4L7.3,28.4z M2,17.8v-0.7l0.2,0.1l-0.1,0.4C2.1,17.6,2,17.8,2,17.8z"/>
		<rect x="2" y="29.3" class="st0" width="6.1" height="3.4"/>
		<rect x="27.1" y="29.3" class="st0" width="6" height="3.4"/>
		<path class="st1" d="M21.7,31.7l0.6-0.4h-0.7l-0.2-0.7l-0.2,0.7h-0.7l0.6,0.4l-0.2,0.7l0.6-0.4l0.6,0.4L21.7,31.7L21.7,31.7z
			 M17.2,32.1L17,32.7H9v-3.4h1l-0.2,0.5H9.1l0.6,0.4L9.5,31l0.6-0.4l0.6,0.4l-0.2-0.7l0.6-0.4h-0.7l-0.2-0.5H25l-0.2,0.5h-0.7
			l0.6,0.4L24.5,31l0.6-0.4l0.6,0.4l-0.2-0.7l0.6-0.4h-0.7l-0.2-0.5h1v3.4h-8L18,32.1l0.6-0.4h-0.7L17.6,31l-0.2,0.7h-0.7L17.2,32.1
			L17.2,32.1z M13.3,31.7l-0.2,0.7l0.6-0.4l0.6,0.4L14,31.7l0.6-0.4h-0.7l-0.2-0.7l-0.2,0.7h-0.7L13.3,31.7L13.3,31.7z M17.9,32.7
			h-0.7l0.3-0.2L17.9,32.7z"/>
		<path class="st1" d="M31,24.7l0.6-0.4h-0.7l-0.2-0.7l-0.2,0.7h-0.7l0.6,0.4L30,25.4l0.6-0.4l0.6,0.4L31,24.7L31,24.7z M29.1,28.4
			l-0.2-0.7l0.6-0.4h-0.7l-0.2-0.7l-0.2,0.7h-0.7l0.6,0.4l-0.2,0.7l0.6-0.4L29.1,28.4C29.1,28.4,29.1,28.4,29.1,28.4z M33.1,28.4h-6
			V15.6h6v1.2h-0.3l-0.2-0.7l-0.2,0.7h-0.7l0.6,0.4L32,17.9l0.6-0.4l0.5,0.4v2.8h-0.7L32.1,20l-0.2,0.7h-0.7l0.6,0.4l-0.2,0.7
			l0.6-0.4l0.6,0.4l-0.2-0.7l0.6-0.4L33.1,28.4L33.1,28.4z M33.1,17.1v0.6L33,17.2L33.1,17.1z"/>
	</g>
	<g>
		<path class="st2" d="M92.7,7.7c1-1.8,2.3-2.1,3-2.1h0.9c0.2,0,0.3-0.1,0.3-0.3v-1c0-0.3,0-0.4-0.3-0.4c-0.4,0-1.4,0.1-5.1,0.1
			C88.9,4.1,87,4,86.6,4c-0.2,0-0.2,0.1-0.2,0.3v1c0,0.2,0,0.4,0.2,0.4h1.2c1.2,0,1.6,0.8,1.6,1.3s0,1.2-0.4,2.2
			c-0.6,1.8-1.9,5.2-2.7,7.1c-0.5,1.5-2.5,6.5-3.7,9.2h-0.2l-3.1-9c-0.8-2.3-2.4-7.1-2.7-8.5c-0.1-0.6-0.1-1-0.1-1.4
			c0-0.5,0.8-1,1.7-1h1.7c0.3,0,0.3-0.2,0.3-0.4V4.3c0-0.2,0-0.4-0.4-0.4S78,4.1,73.8,4.1c-2.9,0-4.6,0-5.6,0l0,0
			c-0.1,0-0.3,0-0.6,0c-0.3,0-0.5,0-0.6,0l0,0c-0.7,0-1.8,0-3,0c-2.7,0-4.6-0.1-5-0.1c-0.2,0-0.3,0.1-0.3,0.3v1c0,0.2,0,0.3,0.3,0.3
			h1.3c0.7,0,1.3,0.7,1.5,1.8c0.2,0.9,0.6,5.3,0.6,8.7v6.2c0,2.9-0.9,5.1-2.5,6.5c-1.1,1-3.3,1.8-4.7,1.8c-1.8,0-3.7-0.6-5-2.2
			c-0.9-1.1-1.2-2.9-1.3-4.8c0-1.3-0.2-6.4-0.2-8.5v-2.7c0-2,0-4.8,0.1-5.2c0.1-0.8,0.8-1.6,2.1-1.6h1.4c0.3,0,0.3-0.1,0.3-0.3v-1
			c0-0.2,0-0.3-0.4-0.3c-0.4,0-2.4,0.1-5.9,0.1C42,4.1,40,4,39.6,4c-0.3,0-0.4,0.1-0.4,0.3v1c0,0.3,0,0.4,0.3,0.4h1.9
			c0.8,0,1.1,0.6,1.1,2v9.5c0,5.3,0.2,8,0.8,9.7c1,2.6,2.7,4.5,4.7,5.3c1.7,0.7,4.3,1,6.1,1c2.6,0,5.3-0.9,7.1-2.5
			c2.1-1.8,3.2-4.4,3.4-7.7c0.1-1.6,0.2-8.6,0.2-9.2s0-6.1,0.1-6.7c0.1-0.4,0.2-1.5,1.7-1.5h1.5C69.1,5.6,69.6,6,70,7
			c0.5,1.1,2.5,6.9,3.6,9.7c1.1,2.8,4.8,12.5,6.3,15.7c0.2,0.5,0.4,1,0.9,1c0.4,0,0.6-0.2,0.9-0.7c0.7-1.2,5.2-11.9,6.2-14.1
			C89.5,15.2,91.2,10.5,92.7,7.7"/>
		<path class="st2" d="M97.9,19.9c0.3-1,3.8-10.5,4-11c0.1-0.4,0.2-0.5,0.5-0.5c0.2,0,0.3,0.3,0.4,0.9l3,10.6
			C105.8,19.9,97.9,19.9,97.9,19.9z M118.8,31h-1.4c-0.6,0-1.6-0.5-2.3-1.8c-0.6-1.1-3.2-8.5-4.1-11.7c-0.8-2.6-3.9-11.6-4.7-14.1
			c-0.1-0.4-0.2-0.7-0.4-0.7c-0.2,0-0.3,0.2-0.5,0.4c-0.6,0.7-3.2,1.7-4.5,2c-0.3,0.1-0.4,0.2-0.4,0.4c0,0.2,0.2,0.4,0.3,0.5
			c0.3,0.4,0.1,1,0,1.4c-0.4,1.1-3.6,9.7-3.9,10.5c-1.3,3.5-4.2,10.5-4.7,11.4c-0.8,1.2-1.8,1.8-2.7,1.8h-1c-0.2,0-0.3,0.1-0.3,0.4
			v0.8c0,0.3,0,0.5,0.3,0.5c0.6,0,1.5-0.1,4.4-0.1c3.3,0,4.9,0.1,5.5,0.1c0.3,0,0.4-0.1,0.4-0.4v-0.9c0-0.2,0-0.3-0.4-0.3h-1.4
			c-1.2,0-1.6-1-1.6-1.8c0-1.3,2-6.8,2.3-7.6h8.8c0.5,1.5,2,6.6,2.4,8c0.2,1-0.1,1.5-1.2,1.5h-1.1c-0.2,0-0.2,0.2-0.2,0.4v0.8
			c0,0.3,0,0.5,0.4,0.5c0.8,0,2.2-0.1,5.5-0.1c5.1,0,6,0.1,6.7,0.1c0.3,0,0.4-0.3,0.4-0.5v-0.8C119.1,31.2,119,31,118.8,31"/>
	</g>
	<g>
		<path class="st0" d="M130.4,14.1c0-1-0.2-6.7-0.2-7.3c-0.1-1-0.6-1.1-1.4-1.1h-2.2c-0.2,0-0.3-0.1-0.3-0.3V4.3
			c0-0.2,0.2-0.2,0.4-0.2c1.2,0,3.2,0.1,6.1,0.1c2,0,4-0.1,6-0.1c5.4,0,9.7,0.5,13.4,3.7c2.7,2.2,4.5,5.5,4.5,10.2
			s-1.3,7.6-3.9,10.5c-3.9,4.3-10.2,4.3-12.9,4.3c-1.5,0-5.6-0.1-7.6-0.1c-3.5,0-5.1,0.1-5.7,0.1c-0.2,0-0.2-0.1-0.2-0.4v-1
			c0-0.2,0.1-0.2,0.3-0.2h2.3c0.8,0,1.2-0.3,1.3-1c0.1-0.8,0.3-9.9,0.3-12.9L130.4,14.1L130.4,14.1z M135.5,18
			c0,0.5,0.1,7.3,0.1,9.8c0,0.8,0.2,1.4,0.7,2.2c0.5,0.8,2,1.1,3.5,1.1c3.1,0,6.3-1.4,8.3-4.1c1.7-2.2,2.9-5.5,2.9-9.1
			c0-3.2-1.4-6.7-3.2-8.7c-2.2-2.3-5.7-3.8-9-3.8c-0.9,0-1.9,0-2.6,0.4c-0.6,0.3-0.7,1-0.7,1.8c-0.1,1.7-0.1,6.9-0.1,7.5V18z"/>
		<path class="st0" d="M218.3,14.1c0-1-0.2-6.7-0.2-7.3c-0.1-1-0.6-1.1-1.4-1.1h-2.2c-0.2,0-0.3-0.1-0.3-0.3V4.3
			c0-0.2,0.2-0.2,0.4-0.2c1.2,0,3.2,0.1,6.1,0.1c2,0,4-0.1,6-0.1c5.4,0,9.7,0.5,13.4,3.7c2.7,2.2,4.5,5.5,4.5,10.2
			s-1.3,7.6-3.9,10.5c-3.9,4.3-10.2,4.3-12.9,4.3c-1.5,0-5.6-0.1-7.6-0.1c-3.5,0-5.1,0.1-5.7,0.1c-0.2,0-0.2-0.1-0.2-0.4v-1
			c0-0.2,0.1-0.2,0.3-0.2h2.3c0.8,0,1.2-0.3,1.3-1c0.1-0.8,0.3-9.9,0.3-12.9L218.3,14.1L218.3,14.1z M223.3,18
			c0,0.5,0.1,7.3,0.1,9.8c0,0.8,0.2,1.4,0.7,2.2c0.5,0.8,2,1.1,3.5,1.1c3.1,0,6.3-1.4,8.3-4.1c1.7-2.2,2.9-5.5,2.9-9.1
			c0-3.2-1.4-6.7-3.2-8.7c-2.2-2.3-5.7-3.8-9-3.8c-0.9,0-1.9,0-2.6,0.4c-0.6,0.3-0.7,1-0.7,1.8c-0.1,1.7-0.1,6.9-0.1,7.5V18z"/>
		<path class="st0" d="M254.6,20.9c0,2.2,0.1,6.1,0.1,6.8c0,2.1,0.7,2.9,1.6,3.1c0.6,0.2,1.6,0.3,3.1,0.3c0.7,0,2.6-0.1,3.4-0.2
			c0.7-0.1,2.2-0.5,3.3-1.4c0.7-0.6,3-3.3,3.7-4.3c0.2-0.2,0.3-0.2,0.4-0.2l0.6,0.4c0.1,0.1,0.2,0.2,0.1,0.4l-1.9,6
			c-0.1,0.4-0.4,0.6-0.9,0.6c-0.2,0-1.1,0-3.6-0.1c-2.5,0-6.7,0-13.4,0c-1.5,0-2.6,0-3.4,0c-0.8,0-1.4,0.1-1.7,0.1
			c-0.2,0-0.3-0.1-0.3-0.3v-1c0-0.2,0.1-0.3,0.4-0.3h1.4c1.8,0,2-0.2,2-1.7V15.8c0-3.3-0.1-8.3-0.2-8.8c-0.2-1.1-0.6-1.4-1.8-1.4
			h-1.5c-0.2,0-0.2-0.1-0.2-0.3v-1c0-0.2,0-0.3,0.2-0.3c0.9,0,2.3,0.2,5.6,0.1h1.1c1.8,0,11-0.1,12.8-0.1c0.6,0,1.4,0,1.6,0
			c0.2,0,0.3,0.1,0.3,0.2c0.2,0.5,1.7,6,1.8,6.4c0.1,0.2,0,0.4-0.1,0.4l-0.7,0.3c-0.1,0-0.2,0-0.4-0.2c-0.2-0.2-3.4-3.9-4.4-4.5
			c-0.8-0.5-1.9-1-3-1l-6.1-0.2l-0.1,11.6c1.2,0,4.1-0.1,4.6-0.2c0.9-0.2,1.4-0.5,1.8-1.4c0.2-0.5,0.6-1.5,0.6-2.2
			c0-0.2,0.2-0.3,0.3-0.3l1,0.1c0.2,0,0.3,0.1,0.2,0.3c-0.1,0.6-0.1,3.3-0.1,4.3c0,1.6,0.2,3.5,0.2,4.4c0,0.2-0.1,0.2-0.3,0.3
			l-0.9,0.2c-0.2,0-0.2,0-0.3-0.3c-0.2-0.6-0.4-1.5-0.6-2c-0.4-0.8-1.1-1.4-2-1.4c-1.4-0.2-3.4-0.2-4.6-0.2L254.6,20.9L254.6,20.9z"
			/>
		<path class="st0" d="M277.9,14.4c0,6.8,0.3,12.4,0.4,13.7c0.1,2,0.6,3,2,3h1c0.3,0,0.3,0.2,0.3,0.4v0.9c0,0.2,0,0.3-0.3,0.3
			c-0.4,0-2.8-0.1-4.3-0.1c-1,0-3.8,0.1-4.2,0.1c-0.2,0-0.2-0.1-0.2-0.4v-1c0-0.1,0.1-0.2,0.2-0.2h1.4c1,0,1.6-0.9,1.8-3.3
			c0-0.7,0.3-6.3,0.3-12.8V9.9c0-2.4-1.4-4.3-3.1-4.3h-1.3c-0.2,0-0.2-0.1-0.2-0.3V4.3c0-0.2,0.1-0.2,0.2-0.2c0.2,0,0.5,0,1.2,0.1
			c0.7,0,1.8,0,3.6,0c0.7,0,1.3,0,1.8-0.1c0.5,0,0.9,0,1.1,0c0.5,0,0.7,0.1,1,0.4c0.4,0.4,8.3,10.3,9.1,11.4
			c0.6,0.6,6.8,8.4,7.5,9.2h0.2v-4.2c0-3.5,0-5.5-0.1-7.5c-0.1-1.5-0.2-5.5-0.4-6.1c-0.3-1-1.2-1.5-2.1-1.5h-1.3
			c-0.2,0-0.2-0.2-0.2-0.4V4.3c0-0.2,0-0.3,0.3-0.3c0.5,0,1.8,0.1,4.5,0.1c2.4,0,3.4-0.1,3.9-0.1c0.3,0,0.4,0.2,0.4,0.3v0.9
			c0,0.2-0.1,0.4-0.2,0.4h-1.1c-0.8,0-1.2,0.6-1.3,2.1c-0.2,2.7-0.6,9.5-0.6,13.6v10.6c0,0.6,0,1.1-0.5,1.1c-0.6,0-1-0.3-1.4-0.6
			c-0.3-0.4-2.5-2.9-5-5.9c-2.8-3.4-5.9-7.2-6.4-7.9c-0.6-0.6-7-8.6-7.5-9.1h-0.2L277.9,14.4L277.9,14.4z"/>
		<path class="st0" d="M212.1,31.1c-1,0-2.1-0.1-2.8-0.8c-0.6-0.6-3.2-4.2-3.4-4.6c-0.3-0.5-2.8-4.3-3.3-4.9
			c-0.6-0.7-1.3-1.4-2.4-1.8v-0.2c4.4-0.7,7.5-2.8,7.5-7.9c0-1.5-0.7-3.2-2.2-4.5c-1.6-1.4-4.1-2.5-7.3-2.5c-1.2,0-4.9,0.1-7.1,0.1
			c-3.9,0-5.2-0.1-5.5-0.1c-0.2,0-0.3,0.1-0.3,0.3v1.1c0,0.2,0.1,0.2,0.3,0.2h1.6c0.7,0,1.3,0.6,1.3,2v10.5c0,3.8,0,7.5-0.1,11.6
			c0,1.1-0.6,1.3-1.5,1.3H184c-0.8,0-1.8-0.5-2.6-1.8c-0.6-1.1-3.1-8.5-4.1-11.7c-0.7-2.6-3.9-11.6-4.6-14c-0.1-0.2-0.2-0.7-0.5-0.7
			c-0.2,0-0.4,0.2-0.6,0.4c-0.5,0.5-2.7,1.7-4,2c-0.3,0.1-0.4,0.2-0.4,0.4c0,0.1,0.1,0.4,0.2,0.5c0.2,0.2,0,1-0.1,1.4L163.5,18
			c-1.2,3.4-4.1,10.6-4.5,11.3c-0.7,1.2-1.4,1.8-2.6,1.8h-1.2c-0.2,0-0.2,0.1-0.2,0.3v0.8c0,0.3,0,0.5,0.2,0.5
			c0.6,0,1.4-0.1,4.4-0.1c2.8,0,4.5,0.1,5.1,0.1c0.2,0,0.3-0.2,0.3-0.4v-1c0-0.1-0.1-0.2-0.4-0.2h-1.7c-0.8,0-1.4-0.4-1.4-1
			c0-0.2,0-0.5,0.1-0.8c0.2-1.1,2.2-6.8,2.5-7.7h9.3c0.5,1.5,2.1,6.6,2.4,8.1c0.2,1.1-0.1,1.5-1.2,1.5h-1c-0.2,0-0.3,0.1-0.3,0.3
			v0.8c0,0.2,0.1,0.5,0.4,0.5c0.9,0,2.2-0.1,5.6-0.1h11.5c4.2,0,5,0.1,5.5,0.1c0.3,0,0.4-0.1,0.4-0.4v-1c0-0.2-0.1-0.3-0.3-0.3h-2
			c-0.6,0-0.9-0.7-1-1.5c-0.1-0.6-0.2-5.1-0.2-7.5v-2.2c0.4,0,1.1-0.1,1.3-0.1c1.7,0,2.6,1.1,3.6,2.5c0.6,0.9,1.8,2.7,2.2,3.4
			c0.4,0.6,1.9,3.5,2.7,4.6c0.5,0.8,1.3,1.9,1.8,2.3c0.9,0,2.4-0.1,3.5-0.1c2.6,0,3.6,0.1,3.9,0.1c0.2,0,0.3-0.1,0.3-0.4v-0.8
			C212.4,31.2,212.3,31.1,212.1,31.1L212.1,31.1z M164.6,19.9c0.3-0.9,3.9-10.8,4.1-11.3c0.1-0.4,0.3-0.5,0.5-0.5
			c0.2,0,0.2,0.2,0.4,0.7c0.2,0.8,3,10,3.4,11.1H164.6z M194.7,18.6c-0.5,0-1-0.1-1.5-0.2l0.1-11.6c0-0.5,0.2-1,0.5-1.2
			c0.3-0.2,0.8-0.2,1.4-0.2c2,0,3.9,0.4,5.3,1.7c1,0.9,1.8,2.7,1.8,4.5S201,18.6,194.7,18.6L194.7,18.6z"/>
	</g>
</g>
<g>
	<path class="st2" d="M4.9,50.5v1.8h3.4V54H4.9v2h4.3v1.7H2.8v-9h6.4v1.7L4.9,50.5L4.9,50.5z"/>
	<path class="st2" d="M15.6,52.9l2.8,4.8h-2.4l-1.8-3.3l-1.8,3.3h-2l2.8-4.8l-2.5-4.2H13l1.5,2.7l1.5-2.7h2L15.6,52.9L15.6,52.9z"/>
	<path class="st2" d="M22,50.5v1.8h3.4V54H22v2h4.3v1.7h-6.4v-9h6.4v1.7L22,50.5L22,50.5z"/>
	<path class="st2" d="M33.1,52.2c0-1-0.4-1.9-1.5-1.9c-1.5,0-1.6,1.9-1.6,3c0,1.2,0.1,2.8,1.7,2.8c1,0,1.4-0.8,1.6-1.7l2,0.1
		c-0.2,2.1-1.6,3.3-3.7,3.3c-2.7,0-4-2.2-4-4.6c0-2.4,1.3-4.6,4-4.6c2.2,0,3.4,1.3,3.6,3.5L33.1,52.2L33.1,52.2z"/>
	<path class="st2" d="M44.2,54.2c0,1,0,2-0.7,2.7c-0.7,0.7-1.8,0.9-2.8,0.9s-2-0.1-2.7-0.8c-0.9-0.8-0.9-1.8-0.9-2.9v-5.4h2.3v5.4
		c0,0.4,0,1,0.2,1.4c0.3,0.5,0.8,0.6,1.3,0.6c0.4,0,1-0.1,1.3-0.5c0.3-0.4,0.2-1,0.2-1.5v-5.4h1.8C44.2,48.7,44.2,54.2,44.2,54.2z"
		/>
	<path class="st2" d="M52.4,50.5h-2.2v7.2H48v-7.2h-2.3v-1.8h6.6L52.4,50.5L52.4,50.5z"/>
	<path class="st2" d="M56.1,57.7H54v-9h2.1V57.7z"/>
	<path class="st2" d="M62.7,57.7h-2.3l-2.7-9H60l1.8,6.4l1.9-6.4h1.8C65.4,48.7,62.7,57.7,62.7,57.7z"/>
	<path class="st2" d="M69,50.5v1.8h3.4V54H69v2h4.3v1.7h-6.4v-9h6.4v1.7L69,50.5L69,50.5z"/>
	<path class="st2" d="M81.6,50.5v1.8H85V54h-3.4v2h4.3v1.7h-6.4v-9h6.4v1.7L81.6,50.5L81.6,50.5z"/>
	<path class="st2" d="M90.2,48.7c1.3,0,2.4,0.1,3.4,1c1,0.9,1.4,2.2,1.4,3.4c0,1.2-0.4,2.4-1.2,3.3c-0.9,1-2,1.2-3.3,1.2h-3v-9
		L90.2,48.7L90.2,48.7z M89.7,56h0.7c0.9,0,1.4-0.2,1.9-1c0.4-0.6,0.5-1.3,0.5-1.9c0-0.7-0.2-1.5-0.6-2c-0.5-0.6-1-0.7-1.8-0.7h-0.7
		V56L89.7,56z"/>
	<path class="st2" d="M103.8,54.2c0,1,0,2-0.7,2.7c-0.7,0.7-1.8,0.9-2.8,0.9s-2-0.1-2.7-0.8c-0.9-0.8-0.9-1.8-0.9-2.9v-5.4h2.3v5.4
		c0,0.4,0,1,0.2,1.4c0.3,0.5,0.8,0.6,1.3,0.6c0.4,0,1-0.1,1.3-0.5c0.3-0.4,0.2-1,0.2-1.5v-5.4h1.8C103.8,48.7,103.8,54.2,103.8,54.2
		z"/>
	<path class="st2" d="M111,52.2c0-1-0.4-1.9-1.5-1.9c-1.5,0-1.6,1.9-1.6,3c0,1.2,0.1,2.8,1.7,2.8c1,0,1.4-0.8,1.6-1.7l2,0.1
		c-0.2,2.1-1.6,3.3-3.7,3.3c-2.7,0-4-2.2-4-4.6c0-2.4,1.3-4.6,4-4.6c2.2,0,3.4,1.3,3.6,3.5L111,52.2L111,52.2z"/>
	<path class="st2" d="M122.6,57.7h-2.3l-0.5-1.8h-2.9l-0.6,1.8h-1.8l2.9-9h2.4L122.6,57.7L122.6,57.7z M119.3,54.2l-1-3.2l-1,3.2
		H119.3L119.3,54.2z"/>
	<path class="st2" d="M129.2,50.5H127v7.2h-2.1v-7.2h-2.3v-1.8h6.6L129.2,50.5L129.2,50.5z"/>
	<path class="st2" d="M133,57.7h-2.1v-9h2.1V57.7z"/>
	<path class="st2" d="M135.9,56.4c-0.7-0.9-0.9-2.1-0.9-3.2c0-2.4,1.2-4.6,3.8-4.6c1.2,0,2.1,0.4,2.9,1.4c0.6,0.9,1,2.1,1,3.2
		c0,1-0.3,2.3-0.8,3.1c-0.7,1-1.7,1.5-3,1.5C137.6,57.8,136.6,57.4,135.9,56.4L135.9,56.4z M137.4,51.3c-0.2,0.5-0.3,1.3-0.3,1.9
		c0,1.1,0.2,2.9,1.7,2.9c0.7,0,1.1-0.4,1.3-1c0.2-0.5,0.3-1.3,0.3-1.9c0-0.7-0.1-1.4-0.3-2c-0.3-0.6-0.6-0.9-1.3-0.9
		C138.1,50.3,137.7,50.7,137.4,51.3L137.4,51.3z"/>
	<path class="st2" d="M151.4,57.7h-1.8l-3.4-6h0v6h-1.6v-9h2.3l3,5.3h0v-5.3h1.6L151.4,57.7L151.4,57.7z"/>
	<path class="st2" d="M159.7,52.5c-0.4-0.5-0.8-1-0.8-1.8c0-1.5,1.4-2.1,2.8-2.1c1.4,0,2.7,0.7,2.7,2.2c0,1.1-0.7,1.7-1.7,2.1
		l1.3,1.4c0.4-0.5,0.7-1.1,0.8-1.7l1.9,0.2c-0.2,1-0.8,2-1.5,2.8c0.3,0.3,0.5,0.4,0.9,0.4c0.2,0,0.3,0,0.5,0v1.6
		c-0.3,0.1-0.6,0.1-0.9,0.1c-0.8,0-1.4-0.2-2-0.8c-0.9,0.7-1.7,1-2.8,1c-0.8,0-1.7-0.1-2.3-0.6c-0.7-0.5-1.1-1.4-1.1-2.2
		C157.5,53.7,158.5,52.9,159.7,52.5L159.7,52.5z M160.8,53.7c-0.6,0.2-1.1,0.5-1.1,1.3c0,0.8,0.7,1.3,1.4,1.3c0.5,0,1-0.2,1.5-0.5
		L160.8,53.7L160.8,53.7z M161.7,51.9c0.5-0.2,1-0.5,1-1c0-0.6-0.4-0.9-1-0.9c-0.4,0-0.8,0.2-0.8,0.7
		C160.9,51,161.3,51.4,161.7,51.9L161.7,51.9z"/>
	<path class="st2" d="M178.2,55.9v1.8h-5.7v-9h2.1v7.2H178.2L178.2,55.9z"/>
	<path class="st2" d="M181.8,57.7h-2.1v-9h2.1V57.7z"/>
	<path class="st2" d="M186.2,50.5v2h3.4v1.7h-3.4v3.5h-2.1v-9h6.4v1.7H186.2z"/>
	<path class="st2" d="M193.9,50.5v1.8h3.4V54h-3.4v2h4.3v1.7h-6.4v-9h6.4v1.7L193.9,50.5L193.9,50.5z"/>
	<path class="st2" d="M205.6,55.9v1.8h-5.7v-9h2.1v7.2H205.6L205.6,55.9z"/>
	<path class="st2" d="M207.5,56.4c-0.7-0.9-0.9-2.1-0.9-3.2c0-2.4,1.2-4.6,3.8-4.6c1.2,0,2.1,0.4,2.9,1.4c0.6,0.9,1,2.1,1,3.2
		c0,1-0.3,2.3-0.8,3.1c-0.7,1-1.7,1.5-3,1.5C209.2,57.8,208.3,57.4,207.5,56.4L207.5,56.4z M209.1,51.3c-0.2,0.5-0.3,1.3-0.3,1.9
		c0,1.1,0.2,2.9,1.7,2.9c0.7,0,1.1-0.4,1.3-1c0.2-0.5,0.3-1.3,0.3-1.9c0-0.7-0.1-1.4-0.3-2c-0.3-0.6-0.6-0.9-1.3-0.9
		C209.7,50.3,209.3,50.7,209.1,51.3L209.1,51.3z"/>
	<path class="st2" d="M223.1,57.7h-1.8l-3.4-6h0v6h-1.6v-9h2.3l3,5.3h0v-5.3h1.6L223.1,57.7L223.1,57.7z"/>
	<path class="st2" d="M228.7,54.6v-1.7h3.7v4.8h-1l-0.3-1c-0.7,0.8-1.4,1.2-2.4,1.2c-2.6,0-3.7-2.2-3.7-4.5s1.2-4.7,3.9-4.7
		c1.9,0,3.2,1.2,3.5,3.1l-2,0.3c-0.1-0.9-0.6-1.7-1.6-1.7c-1.5,0-1.7,1.9-1.7,3s0.3,2.8,1.8,2.8c0.9,0,1.5-0.6,1.5-1.6L228.7,54.6
		L228.7,54.6z"/>
	<path class="st2" d="M244.7,55.9v1.8H239v-9h2.1v7.2H244.7L244.7,55.9z"/>
	<path class="st2" d="M248.2,50.5v1.8h3.4V54h-3.4v2h4.3v1.7h-6.4v-9h6.4v1.7L248.2,50.5L248.2,50.5z"/>
	<path class="st2" d="M261.6,57.7h-2.3l-0.5-1.8h-2.9l-0.6,1.8h-1.8l2.9-9h2.4L261.6,57.7L261.6,57.7z M258.3,54.2l-1-3.2l-1,3.2
		H258.3L258.3,54.2z"/>
	<path class="st2" d="M265.3,57.7h-2.1v-9h3.8c0.8,0,1.6,0,2.3,0.5c0.7,0.5,1.1,1.4,1.1,2.2c0,1-0.6,2-1.6,2.3l1.7,4h-2.3l-1.4-3.5
		h-1.5V57.7L265.3,57.7z M265.3,52.6h1.2c0.4,0,0.9,0,1.3-0.2c0.3-0.2,0.5-0.6,0.5-1c0-0.4-0.2-0.7-0.5-0.9c-0.4-0.2-1-0.2-1.3-0.2
		h-1.1L265.3,52.6L265.3,52.6z"/>
	<path class="st2" d="M279.2,57.7h-1.8l-3.4-6h0v6h-1.6v-9h2.3l3,5.3h0v-5.3h1.6L279.2,57.7L279.2,57.7z"/>
	<path class="st2" d="M283.6,57.7h-2.1v-9h2.1V57.7z"/>
	<path class="st2" d="M292.9,57.7h-1.8l-3.4-6h0v6H286v-9h2.3l3,5.3h0v-5.3h1.6L292.9,57.7L292.9,57.7z"/>
	<path class="st2" d="M298.5,54.6v-1.7h3.7v4.8h-1l-0.3-1c-0.7,0.8-1.4,1.2-2.4,1.2c-2.6,0-3.7-2.2-3.7-4.5s1.2-4.7,3.9-4.7
		c1.9,0,3.2,1.2,3.5,3.1l-2,0.3c-0.1-0.9-0.6-1.7-1.6-1.7c-1.5,0-1.7,1.9-1.7,3s0.3,2.8,1.8,2.8c0.9,0,1.5-0.6,1.5-1.6L298.5,54.6
		L298.5,54.6z"/>
</g>
</svg>
