<?xml version="1.0" encoding="utf-8"?>
<!-- Generator: Adobe Illustrator 16.0.0, SVG Export Plug-In . SVG Version: 6.00 Build 0)  -->
<!DOCTYPE svg PUBLIC "-//W3C//DTD SVG 1.1//EN" "http://www.w3.org/Graphics/SVG/1.1/DTD/svg11.dtd">
<svg version="1.1" id="Layer_1" xmlns="http://www.w3.org/2000/svg" xmlns:xlink="http://www.w3.org/1999/xlink" x="0px" y="0px"
	 width="220px" height="40px" viewBox="0 0 220 40" enable-background="new 0 0 220 40" xml:space="preserve">
<g>
	<g>
		<path fill="#FFFFFF" d="M71.362,17.209v2.03h-4.8v2.236h4.563v2.03h-4.563v4.06H64.25V17.209H71.362z"/>
		<path fill="#FFFFFF" d="M85.17,17.209h2.312v10.356H85.17V17.209z"/>
		<path fill="#FFFFFF" d="M106.269,19.209v8.356h-2.311v-8.356h-2.935v-2h8.177v2H106.269z"/>
		<path fill="#FFFFFF" d="M131.144,20.647c0,1.657-0.657,2.731-1.972,3.215l2.621,3.705h-2.841l-2.297-3.305h-1.6v3.305h-2.312
			V17.21h3.924c1.61,0,2.757,0.272,3.445,0.815C130.799,18.568,131.144,19.441,131.144,20.647z M128.357,21.878
			c0.289-0.257,0.432-0.666,0.432-1.224c0-0.559-0.149-0.941-0.445-1.149c-0.298-0.207-0.814-0.311-1.555-0.311h-1.733v3.068h1.687
			C127.533,22.263,128.071,22.133,128.357,21.878z"/>
		<path fill="#FFFFFF" d="M152.745,27.567l-0.963-2.238h-4.34l-0.964,2.238h-2.461l4.475-10.357h2.238l4.475,10.357H152.745z
			 M149.621,20.291l-1.305,3.009h2.591L149.621,20.291z"/>
		<path fill="#FFFFFF" d="M176.171,18.565c0.984,0.904,1.479,2.16,1.479,3.773c0,1.609-0.481,2.881-1.446,3.822
			c-0.962,0.937-2.431,1.407-4.407,1.407h-3.539V17.21h3.657C173.765,17.209,175.181,17.661,176.171,18.565z M174.476,24.722
			c0.566-0.534,0.85-1.309,0.85-2.327c0-1.018-0.284-1.8-0.85-2.349c-0.569-0.547-1.442-0.822-2.615-0.822h-1.289v6.297h1.467
			C173.095,25.521,173.905,25.256,174.476,24.722z"/>
		<path fill="#FFFFFF" d="M191.504,17.209h2.312v10.356h-2.312V17.209z"/>
		<path fill="#FFFFFF" d="M216.928,26.137c-1.044,1.022-2.335,1.533-3.865,1.533s-2.819-0.511-3.868-1.533
			c-1.047-1.022-1.569-2.294-1.569-3.816c0-1.52,0.522-2.793,1.569-3.814c1.049-1.021,2.336-1.533,3.868-1.533
			c1.53,0,2.821,0.511,3.865,1.533c1.047,1.021,1.572,2.295,1.572,3.814C218.5,23.843,217.975,25.114,216.928,26.137z
			 M216.144,22.328c0-0.922-0.296-1.711-0.888-2.362c-0.594-0.651-1.321-0.979-2.186-0.979s-1.594,0.328-2.186,0.979
			c-0.593,0.651-0.891,1.44-0.891,2.362c0,0.924,0.298,1.711,0.891,2.355c0.592,0.648,1.321,0.971,2.186,0.971
			s1.592-0.322,2.186-0.971C215.848,24.039,216.144,23.252,216.144,22.328z"/>
	</g>
	<g>
		<path fill="#FFFFFF" d="M32.642,33.055v-17.86h-6.951v17.86h-5.172V7.62H13.57v28.906c0,1.92,1.555,3.475,3.475,3.475h32.884
			v-6.945H32.642z"/>
		<rect x="37.809" y="22.888" fill="#FFFFFF" width="6.95" height="5.604"/>
		<path fill="#FFFFFF" d="M1.448,36.525c0,1.92,1.554,3.475,3.475,3.475h2.461h1.013v-6.945V0.051H1.448V36.525z"/>
	</g>
</g>
</svg>
