<?xml version="1.0" encoding="UTF-8"?><svg id="Layer_1" xmlns="http://www.w3.org/2000/svg" xmlns:xlink="http://www.w3.org/1999/xlink" viewBox="0 0 175.94 27"><defs><style>.cls-1{clip-path:url(#clippath);}.cls-2{fill:none;}.cls-2,.cls-3{stroke-width:0px;}.cls-3{fill:#fff;}</style><clipPath id="clippath"><path class="cls-2" d="M27,27H0V0h27v27h0ZM12.57,23.84c.03.19.44.28.53,0l.94-7.48h-2.29l.82,7.48h0ZM14.84,15.82v-1.13h-3.9v1.13h3.9ZM13.72,14.14c4.94.18,5.29-4.32,5.31-6.01,0-.1-.05-.11-.07-.04-.14.35-.79,1.61-2.57,2.37-1.59.68-2.55,2.23-2.71,3.62,0,.03.02.05.05.05ZM13.18,13.81c.78-3.75,3.83-3.84,4.11-4.55.43-1.11-.35-3.08-.55-3.31-.02-.03-.05,0-.06.01-.42.91-1.09,1.77-1.58,2.17-.69.56-3.34,2.52-1.99,5.68.02.04.06.03.06,0ZM12.64,13.96c-1.65-3.53,1.65-5.82,2.19-6.31.08-.07.06-.13.06-.21,0-1.11-.64-2.91-.84-3.17-.03-.04-.06-.02-.07.02-.28,1.1-1.79,2.73-2.09,3.09-2.56,3.04-1.97,4.89.7,6.63.03.02.07,0,.06-.04ZM11.9,14.08c-2.77-1.65-2.49-4.01-1.34-5.74.02-.04.03-.1.03-.17-.05-.41-.5-1.46-.68-1.74-.05-.07-.09-.07-.09-.02-.02.47-.55,1.65-1.37,3.01-.87,1.45-.88,4.59,3.46,4.72.04,0,.05-.04.01-.07Z"/></clipPath></defs><path class="cls-3" d="M93.15,11.23l.82-.98c.57.47,1.16.77,1.88.77.57,0,.91-.22.91-.59v-.02c0-.35-.21-.53-1.27-.8-1.27-.32-2.09-.67-2.09-1.93v-.02c0-1.14.92-1.9,2.21-1.9.92,0,1.7.29,2.34.8l-.72,1.04c-.56-.39-1.11-.62-1.64-.62s-.81.24-.81.55v.02c0,.42.27.55,1.36.83,1.28.33,2,.79,2,1.89v.02c0,1.25-.96,1.95-2.31,1.95-.96,0-1.92-.33-2.67-1.01Z"/><path class="cls-3" d="M99.22,5.85h1.39v6.3h-1.39v-6.3Z"/><path class="cls-3" d="M102,5.85h1.39v5.04h3.14v1.26h-4.53v-6.3Z"/><path class="cls-3" d="M106.85,5.85h1.53l1.65,4.44,1.65-4.44h1.5l-2.55,6.35h-1.22l-2.55-6.35Z"/><path class="cls-3" d="M113.96,5.85h4.75v1.23h-3.38v1.28h2.97v1.23h-2.97v1.32h3.42v1.23h-4.8v-6.3Z"/><path class="cls-3" d="M119.81,5.85h2.88c.8,0,1.42.23,1.84.64.35.35.54.85.54,1.44v.02c0,1.02-.55,1.66-1.35,1.95l1.54,2.25h-1.62l-1.35-2.02h-1.09v2.02h-1.39v-6.3ZM122.6,8.91c.68,0,1.06-.36,1.06-.89v-.02c0-.59-.41-.9-1.09-.9h-1.38v1.81h1.4Z"/><path class="cls-3" d="M128.23,11.23l.82-.98c.57.47,1.16.77,1.88.77.57,0,.91-.22.91-.59v-.02c0-.35-.22-.53-1.27-.8-1.27-.32-2.09-.67-2.09-1.93v-.02c0-1.14.92-1.9,2.2-1.9.92,0,1.7.29,2.34.8l-.72,1.04c-.56-.39-1.11-.62-1.64-.62s-.81.24-.81.55v.02c0,.42.27.55,1.36.83,1.28.33,2,.79,2,1.89v.02c0,1.25-.95,1.95-2.31,1.95-.95,0-1.92-.33-2.67-1.01Z"/><path class="cls-3" d="M133.96,9.02v-.02c0-1.79,1.35-3.26,3.29-3.26,1.19,0,1.9.4,2.48.97l-.88,1.02c-.49-.44-.98-.71-1.61-.71-1.06,0-1.83.88-1.83,1.96v.02c0,1.08.75,1.98,1.83,1.98.72,0,1.16-.29,1.66-.74l.88.89c-.65.69-1.37,1.13-2.58,1.13-1.85,0-3.23-1.43-3.23-3.24Z"/><path class="cls-3" d="M140.7,5.85h1.39v2.49h2.56v-2.49h1.39v6.3h-1.39v-2.53h-2.56v2.53h-1.39v-6.3Z"/><path class="cls-3" d="M147.08,9.02v-.02c0-1.79,1.41-3.26,3.36-3.26s3.34,1.45,3.34,3.24v.02c0,1.79-1.41,3.26-3.36,3.26s-3.34-1.45-3.34-3.24ZM152.33,9.02v-.02c0-1.08-.79-1.98-1.91-1.98s-1.89.88-1.89,1.96v.02c0,1.08.79,1.98,1.91,1.98s1.89-.88,1.89-1.96Z"/><path class="cls-3" d="M154.55,9.02v-.02c0-1.79,1.41-3.26,3.36-3.26s3.34,1.45,3.34,3.24v.02c0,1.79-1.41,3.26-3.36,3.26s-3.34-1.45-3.34-3.24ZM159.8,9.02v-.02c0-1.08-.79-1.98-1.91-1.98s-1.89.88-1.89,1.96v.02c0,1.08.79,1.98,1.91,1.98s1.89-.88,1.89-1.96Z"/><path class="cls-3" d="M162.3,5.85h1.39v5.04h3.14v1.26h-4.53v-6.3Z"/><path class="cls-3" d="M93.3,18.02v-.02c0-1.79,1.41-3.26,3.36-3.26s3.34,1.45,3.34,3.24v.02c0,1.79-1.41,3.26-3.36,3.26s-3.34-1.45-3.34-3.24ZM98.55,18.02v-.02c0-1.08-.79-1.98-1.91-1.98s-1.89.88-1.89,1.96v.02c0,1.08.79,1.98,1.91,1.98s1.89-.88,1.89-1.96Z"/><path class="cls-3" d="M101.05,14.85h4.8v1.26h-3.41v1.34h3.01v1.26h-3.01v2.44h-1.39v-6.3Z"/><path class="cls-3" d="M108.86,20.23l.82-.98c.57.47,1.16.77,1.88.77.57,0,.91-.22.91-.59v-.02c0-.35-.22-.53-1.27-.8-1.27-.32-2.09-.67-2.09-1.93v-.02c0-1.14.92-1.9,2.21-1.9.92,0,1.7.29,2.34.8l-.72,1.04c-.56-.39-1.11-.62-1.64-.62s-.81.24-.81.55v.02c0,.42.27.55,1.36.83,1.28.33,2,.79,2,1.89v.02c0,1.25-.96,1.95-2.31,1.95-.95,0-1.92-.33-2.67-1.01Z"/><path class="cls-3" d="M114.59,18.02v-.02c0-1.79,1.41-3.26,3.36-3.26s3.34,1.45,3.34,3.24v.02c0,1.79-1.41,3.26-3.36,3.26s-3.34-1.45-3.34-3.24ZM119.84,18.02v-.02c0-1.08-.79-1.98-1.91-1.98s-1.89.88-1.89,1.96v.02c0,1.08.79,1.98,1.91,1.98s1.89-.88,1.89-1.96Z"/><path class="cls-3" d="M122.06,18.02v-.02c0-1.79,1.35-3.26,3.29-3.26,1.19,0,1.9.4,2.48.97l-.88,1.02c-.49-.44-.98-.71-1.61-.71-1.06,0-1.83.88-1.83,1.96v.02c0,1.08.75,1.98,1.83,1.98.72,0,1.16-.29,1.66-.74l.88.89c-.65.69-1.37,1.12-2.58,1.12-1.86,0-3.23-1.43-3.23-3.24Z"/><path class="cls-3" d="M128.87,14.85h1.39v6.3h-1.39v-6.3Z"/><path class="cls-3" d="M133.81,14.8h1.28l2.7,6.35h-1.45l-.58-1.41h-2.66l-.58,1.41h-1.41l2.7-6.35ZM135.27,18.51l-.84-2.04-.84,2.04h1.68Z"/><path class="cls-3" d="M138.58,14.85h1.39v5.04h3.14v1.26h-4.53v-6.3Z"/><path class="cls-3" d="M146,14.85h1.49l1.3,4.27,1.41-4.29h1.19l1.41,4.29,1.3-4.27h1.45l-2.15,6.35h-1.21l-1.42-4.12-1.42,4.12h-1.21l-2.15-6.35Z"/><path class="cls-3" d="M156.13,18.02v-.02c0-1.79,1.41-3.26,3.36-3.26s3.34,1.45,3.34,3.24v.02c0,1.79-1.41,3.26-3.36,3.26s-3.34-1.45-3.34-3.24ZM161.38,18.02v-.02c0-1.08-.79-1.98-1.91-1.98s-1.89.88-1.89,1.96v.02c0,1.08.79,1.98,1.91,1.98s1.89-.88,1.89-1.96Z"/><path class="cls-3" d="M163.88,14.85h2.88c.8,0,1.42.23,1.84.64.35.35.54.85.54,1.44v.02c0,1.02-.55,1.66-1.35,1.95l1.54,2.25h-1.62l-1.35-2.02h-1.09v2.02h-1.38v-6.3ZM166.67,17.91c.68,0,1.06-.36,1.06-.89v-.02c0-.59-.41-.9-1.09-.9h-1.38v1.81h1.4Z"/><path class="cls-3" d="M170.2,14.85h1.39v2.76l2.56-2.76h1.67l-2.56,2.67,2.68,3.63h-1.67l-1.95-2.68-.73.76v1.93h-1.39v-6.3Z"/><rect class="cls-3" x="86.28" width=".59" height="27"/><path class="cls-3" d="M34,5.94h3.11l7.19,9.44V5.94h3.33v15.34h-2.87l-7.43-9.75v9.75h-3.33V5.94Z"/><path class="cls-3" d="M55.2,15.22l-5.89-9.29h3.95l3.66,6.16,3.72-6.16h3.83l-5.89,9.22v6.11h-3.37v-6.05Z"/><path class="cls-3" d="M65.92,14.7V5.94h3.37v8.68c0,2.5,1.25,3.79,3.31,3.79s3.31-1.25,3.31-3.68V5.94h3.37v8.65c0,4.64-2.61,6.92-6.72,6.92s-6.64-2.3-6.64-6.81Z"/><g class="cls-1"><rect class="cls-3" x="2.9" y=".66" width="21.85" height="25.41"/></g></svg>