<?xml version="1.0" encoding="UTF-8"?><svg id="Layer_1" xmlns="http://www.w3.org/2000/svg" viewBox="0 0 300 129.29"><defs><style>.cls-1{fill:#fff;}.cls-2{fill:#ffb71b;}</style></defs><path class="cls-2" d="M279.57,104.27l-3.21,5.33-3.14,5.79-3.03-5.61-3.32-5.5h-4.59v.31l8.9,14.36v10.02h4.09v-10.02l8.83-14.29v-.39h-4.52Zm-24.67,0h-18.35v3.74h7.13v20.96h4.09v-20.96h7.13v-3.74Zm-38.68,24.7h11.93v-3.32h-3.92v-18.1h3.6v-3.28h-11.29v3.28h3.6v18.1h-3.92v3.32Zm-18.81,.32c5.89,0,9.74-2.89,9.74-7.48,0-4.06-3.03-6.39-9.53-7.16-3.95-.49-5.64-1.37-5.64-3.7,0-1.98,1.91-3.28,5.11-3.28,3.39,0,5.12,1.38,5.44,3.67h3.92c-.32-4.41-3.78-7.37-9.32-7.37s-9.21,2.86-9.21,6.99,3.11,6.67,9,7.3c4.24,.46,6.11,1.52,6.11,3.67,0,2.29-2.12,3.63-5.68,3.63s-5.72-1.48-5.86-4.02h-3.99c.25,4.59,3.96,7.76,9.92,7.76m-35.01-21.42h6.04c2.89,0,4.59,1.66,4.59,4.48s-1.69,4.52-4.59,4.52h-6.04v-9Zm9.77,11.93c3.18-1.13,5.01-3.85,5.01-7.59,0-4.76-3.42-7.94-8.54-7.94h-10.34v24.7h4.1v-8.54h5.58l5.96,8.54h4.62v-.17l-6.39-9Zm-36.49,5.44v-7.02h10.34v-3.71h-10.34v-6.49h10.84v-3.74h-14.93v24.7h15.24v-3.74h-11.15Zm-18.46-20.96l-3.53,8.61-3.24,9.11-3.57-9.11-3.56-8.61h-4.41v.31l10.77,24.6h1.41l10.62-24.6v-.31h-4.48Zm-38.47,24.7h11.93v-3.32h-3.92v-18.1h3.6v-3.28h-11.29v3.28h3.6v18.1h-3.92v3.32Zm-14.89-24.7v9l.18,7.34-15-16.41h-1.41v24.77h4.06v-8.96l-.21-7.45,15.04,16.44h1.41v-24.74h-4.06Zm-38.04,25.02c5.75,0,9.56-3.85,9.56-9.63v-15.39h-4.1v15.42c0,3.6-2.05,5.75-5.47,5.75s-5.58-2.15-5.58-5.75v-15.42h-4.09v15.39c0,5.79,3.88,9.63,9.67,9.63"/><path class="cls-1" d="M266.68,69.04v-13.76h29.66v-20.19h-29.66v-13.13h32.18V1.39h-55.15V89.74h56.29v-20.7h-33.32Zm-74.46,22.09c24.11,0,39.51-14.01,43.55-35.09h-22.72c-3.16,8.08-10.35,13.13-19.94,13.13-13,0-21.71-9.46-21.71-23.6s8.71-23.6,21.71-23.6c8.83,0,15.65,4.29,19.18,11.49h22.97C230.59,13.38,215.57,0,192.22,0c-26,0-44.42,18.81-44.42,45.56s18.42,45.56,44.42,45.56M105.13,36.98l7.95,21.58h-16.28l8.33-21.58ZM110.18,.51h-10.1L58.56,88.48v1.26h24.86l4.92-11.23h33.32l5.05,11.23h24.86v-1.26L110.18,.51ZM36.47,45.44h-13.38V21.46h13.38c7.45,0,11.86,4.29,11.86,11.86s-4.41,12.12-11.86,12.12M38.75,1.39H0V89.74H23.1v-24.36h15.65c19.69,0,33.07-12.75,33.07-32.06S58.81,1.39,38.75,1.39"/></svg>