<?xml version="1.0" encoding="UTF-8"?><svg id="Layer_1" xmlns="http://www.w3.org/2000/svg" viewBox="0 0 837.94 149.79"><defs><style>.cls-1{fill:#fff;}.cls-2{fill:#a19c97;}.cls-3{fill:#d6bf91;}.cls-4{fill:#231f20;}</style></defs><g><g><path class="cls-1" d="M326.15,11.61l-9.41-2.74V2.08h36.76c23.94,0,32.78,7.65,32.78,25.73,0,16.91-9.66,25.68-28.58,25.68h-14.87v27.08l9.53,2.74v6.31h-35.85v-6.31l9.65-2.74V11.61Zm16.68-.3V45.13l17.52-1.3c4.35-2,8.83-4.63,8.83-15.55,0-8.25-.38-16.98-16.39-16.98h-9.95Z"/><path class="cls-1" d="M522.86,52.35h-11.89v28.23l9.53,2.74v6.31h-35.85v-6.31l9.65-2.74V11.61l-9.53-2.74V2.08h38.38c22.75,0,31.04,8.07,31.04,23.58,0,11.99-4.68,18.23-15.48,22.51l16.2,31.68,10.47,3.45v6.31h-24.4l-18.1-37.28Zm-11.89-40.97V44.72l17.72-1.19c5.63-2.79,8.34-7.25,8.34-16.44,0-9.65-3.12-15.72-13.12-15.72h-12.94Z"/><path class="cls-1" d="M572.51,83.31l9.53-2.62V11.61l-9.41-2.74V2.08h42.31c23.94,0,37.91,14.43,37.91,42.82,0,32.12-14.49,44.73-39.74,44.73h-40.61v-6.31Zm26.32-71.94V80.57h12.54c8.6,0,23.44-1.4,23.44-32.99,0-24.89-4.47-36.21-23.44-36.21h-12.54Z"/><path class="cls-1" d="M353.55,135.24c0,10.64-6.15,14.55-16.24,14.55s-16.24-5.97-16.24-14.55v-21.34l-4.57-1.43v-4.02h18.66v4.02l-4.51,1.43v21.34c0,5.5,2.11,8.5,8.11,8.5,2.93,0,7.91-.92,7.91-8.77v-21.06l-4.57-1.43v-4.02h16.02v4.02l-4.57,1.43v21.34Z"/><path class="cls-1" d="M385.73,124.25v19.58l4.51,1.38v3.98h-15.74v-3.98l4.62-1.38v-27.78l-1.96-2.47-2.73-.85v-4.28h10.31l19.87,24.99v-19.54l-4.57-1.38v-4.07h15.74v4.07l-4.57,1.38v35.34h-5.34l-20.15-24.99Z"/><path class="cls-1" d="M449.76,143.83l4.57,1.38v3.98h-18.71v-3.98l4.57-1.38v-29.98l-4.57-1.38v-4.02h18.71v4.02l-4.57,1.38v29.98Z"/><path class="cls-1" d="M701.79,143.83l4.57,1.38v3.98h-18.71v-3.98l4.57-1.38v-29.98l-4.57-1.38v-4.02h18.71v4.02l-4.57,1.38v29.98Z"/><path class="cls-1" d="M497.15,149.19h-8.81l-12.94-35.28-4.57-1.43v-4.02h19.71v4.02l-4.62,1.43,8.59,25.1,8.75-25.1-4.57-1.43v-4.02h16.02v4.02l-4.57,1.43-12.99,35.28Z"/><path class="cls-1" d="M534.21,113.9l-4.57-1.38v-4.07h31.98l.33,12.58h-5.12l-2.48-7.18h-10.57v11.45h10.57v5.78h-10.57v12.88h10.85l3.25-7.14h5.01l-.72,12.37h-32.53v-3.98l4.57-1.14v-30.16Z"/><path class="cls-1" d="M601.1,132.56h-3.47v11.27l4.57,1.38v3.98h-18.71v-3.98l4.57-1.38v-29.93l-4.57-1.38v-4.07h18.61c11.39,0,14.92,4.4,14.92,11.28,0,4.51-1,8.62-6.59,10.66l6.54,13.29,5.72,1.76v3.74h-13.76l-7.82-16.62Zm-3.47-18.66v14.26l6.44-.55c2.15-1.54,3.19-4.24,3.19-7.1,0-4.07-1.07-6.61-5.26-6.61h-4.38Z"/><path class="cls-1" d="M639.26,136.53h5.66l1.21,5.72c2.37,1.49,5.46,2.37,8.6,2.37,.44,0,.88,0,1.32-.06,1.6-1.27,2.53-2.92,2.53-4.9,0-9.52-19.49-5.28-19.49-19.21,0-6.39,5.84-12.5,15.52-12.5,3.52,0,7.43,.99,11.06,2.81v10.73h-5.34l-1.93-6.83c-1.93-.83-4.62-1.32-6.6-1.32-.39,0-.72,0-1.1,.06-1.82,1.27-2.7,2.86-2.7,4.79,0,8.15,19.32,5.23,19.32,18.88,0,7.38-6.66,12.66-15.63,12.66-3.85,0-9.03-1.27-12.38-3.69l-.06-9.52Z"/><path class="cls-1" d="M738.68,113.96h-5.28l-2.43,7.27h-5.11v-12.77h35.5v12.77h-5.03l-2.34-7.27h-5.72v29.87l4.57,1.38v3.98h-18.72v-3.98l4.57-1.38v-29.87Z"/><path class="cls-1" d="M793.3,133.5l-10.68-19.6-4.57-1.43v-4.02h19.71v4.02l-4.62,1.43,6.72,13.27,6.77-13.27-4.57-1.43v-4.02h16.07v4.02l-4.57,1.43-10.73,19.49v10.44l4.57,1.38v3.98h-18.72v-3.98l4.62-1.38v-10.33Z"/><polygon class="cls-1" points="810.53 64.26 804.33 80.57 776.92 80.57 776.92 49.08 792.45 49.08 794.45 57.9 801.35 57.9 801.35 31.37 794.45 31.37 792.45 39.88 776.92 39.88 776.92 11.37 803.14 11.37 808.14 28.28 817.58 28.28 816.99 2.08 750.71 2.08 750.71 8.87 760.12 11.61 760.12 80.69 750.59 83.31 750.59 89.63 818.3 89.63 819.84 64.26 810.53 64.26"/><path class="cls-1" d="M467.73,59.52c0,22.21-10.6,31.42-32.34,31.42-20.01,0-34.48-7.99-34.48-29.1V11.61l-9.53-2.74V2.08h35.73v6.79l-9.53,2.74V61.84c0,12.63,5.84,18.17,19.77,18.17,9.62,0,18.46-5.64,18.46-19.33V11.61l-9.41-2.74V2.08h30.85v6.79l-9.53,2.74V59.52Z"/><path class="cls-1" d="M733.67,59.52c0,22.21-10.6,31.42-32.34,31.42-20.01,0-34.48-7.99-34.48-29.1V11.61l-9.53-2.74V2.08h35.73v6.79l-9.53,2.74V61.84c0,12.63,5.84,18.17,19.77,18.17,9.62,0,18.46-5.64,18.46-19.33V11.61l-9.41-2.74V2.08h30.85v6.79l-9.53,2.74V59.52Z"/></g><path class="cls-3" d="M148.02,149.27l18.85-44.28h31.23c45.2,0,62.35-18.56,74.21-46.42,4.39-10.32,11.74-27.58,2.03-42.27C264.69,1.69,244.19,0,229.61,0H63.62l-23.41,54.98h30.04l-16.72,39.28H23.42L0,149.27H148.02Z"/><path class="cls-2" d="M265.84,21.92c-5.28-7.99-16.8-11.72-36.22-11.72H70.36l-14.73,34.59h30.04l-25.41,59.68H30.16l-14.73,34.62h125.85l14.74-34.62h-30.53l4.12-9.67h68.49c44.05,0,55.8-19.02,64.82-40.22,4.86-11.41,9.07-23.33,2.91-32.66m-114.94,22.87h50.3c6.93,0,5.94,3.48,5.03,5.63-2.58,6.03-8.76,9.78-16.11,9.78h-45.78l6.56-15.41Z"/><path class="cls-4" d="M229.61,15.51H73.86l-10.21,23.98h30.05l-29.93,70.27h-30.11l-10.22,24.01h114.33l10.22-24.01h-30.52l8.64-20.28h71.99c41.27,0,51.64-17.48,59.95-36.99,8.31-19.51,12.83-36.99-28.44-36.99m-39.49,49.99h-53.8l11.08-26.01h53.81c9.52,0,13.36,4.89,9.9,13.01-3.45,8.1-11.46,13-20.98,13"/></g><path class="cls-2" d="M829.2,149.07c-4.81,0-8.73-3.92-8.73-8.73s3.92-8.73,8.73-8.73,8.73,3.92,8.73,8.73-3.92,8.73-8.73,8.73Zm0-15.65c-3.82,0-6.92,3.1-6.92,6.92s3.1,6.92,6.92,6.92,6.92-3.1,6.92-6.92-3.1-6.92-6.92-6.92Z"/><path class="cls-2" d="M828.1,141.13v3.25h-1.72v-8.1h3.56c1.76,0,2.72,.96,2.72,2.22,0,1.08-.59,1.67-1.18,1.92,.4,.15,1.01,.56,1.01,2.02v.4c0,.54,0,1.16,.12,1.54h-1.67c-.14-.35-.16-.96-.16-1.82v-.12c0-.88-.22-1.31-1.53-1.31h-1.15Zm0-1.4h1.47c.95,0,1.33-.36,1.33-1.03s-.43-1.03-1.29-1.03h-1.5v2.07Z"/></svg>