<?xml version="1.0" encoding="UTF-8"?><svg id="Layer_2" xmlns="http://www.w3.org/2000/svg" viewBox="0 0 330 109.74"><defs><style>.cls-1{fill:#fff;stroke-width:0px;}</style></defs><g id="SMU"><path class="cls-1" d="M152.01,41.26c.45,0,.89,0,.89-.56,0-.45-.33-.56-.67-.56h-.67v1h.45v.11ZM151.45,43.16h-.45v-3.23h1.23c.67,0,1,.33,1,.89s-.33.78-.78.89l.89,1.45h-.45l-.89-1.45h-.67v1.45h.11ZM154.35,41.49c0-1.34-1-2.34-2.23-2.34-1.34,0-2.23,1-2.23,2.34s1,2.34,2.23,2.34c1.23,0,2.23-1,2.23-2.34M154.68,41.49c0,1.45-1.23,2.68-2.68,2.68s-2.68-1.23-2.68-2.68,1.23-2.68,2.68-2.68c1.56,0,2.68,1.23,2.68,2.68M145.99.89h6.02v3.68s-2.01.33-2.34,3.01v18.07c0,10.37-6.25,19.29-19.41,19.29s-20.07-8.14-20.07-19.29V7.36h0c-.11-2.12-2.34-2.79-2.34-2.79V.89h15.39v3.68s-2.34.22-2.34,3.68h0v16.62c0,6.25,3.23,10.04,9.37,10.04s8.7-3.9,8.7-10.04V7.36c-.11-2.12-2.34-2.79-2.34-2.79V.89h9.37ZM99.48,37.03c0,3.12,2.34,3.35,2.34,3.35v3.79h-15.28v-3.79s2.01-.11,2.34-2.79v-19.85l-13.94,13.38-1-1-13.05-12.38v19.29c0,3.12,2.34,3.23,2.34,3.23v3.9h-15.39v-3.79s2.12-.11,2.34-2.9V7.36c-.11-2.12-2.34-2.79-2.34-2.79V.89h11.6l15.39,14.83L90.22.89h11.49v3.68s-2.12.33-2.34,3.12l.11,29.33h0M20.74,0c3.68,0,8.25.45,13.27,1.67h.56c1.45,0,1.78-.89,1.78-.89h3.23v11.71s-5.8.11-6.13.11c0,0-1.9-2.12-5.24-3.01-1.9-.45-4.46-.78-6.8-.78-2.01,0-5.35.22-7.25.78-2.12.56-3.9,1.67-3.9,3.23.11,1.67,2.34,2.79,5.13,3.23,2.79.45,6.91.45,14.28,1.78,8.59,1.56,12.27,7.58,11.82,13.49-.45,5.46-3.23,8.92-6.69,10.93-3.46,2.12-8.59,2.79-13.27,2.79h-2.01c-3.57-.11-9.03-1.12-12.49-2.57-.33-.11-.56-.11-.78-.11-1.45,0-1.9,1.56-1.9,1.56H.67v-13.83l6.8-.11s1.78,3.9,6.58,5.02c1.9.45,4.35.56,6.13.56,2.23,0,5.35-.22,6.47-.45,1.9-.45,4.13-1.67,4.35-3.46.11-1.9-.67-3.79-4.13-4.35-3.57-.67-10.15-.67-17.62-2.45C2.68,23.2,0,19.41,0,13.38,0,5.02,7.47.89,14.28.11c1.56,0,4.57-.11,6.47-.11"/></g><g id="school"><path class="cls-1" d="M37.7,91.12l6.58,18.18h-4.35l-1.45-4.24h-6.69l-1.45,4.24h-4.35l6.58-18.18s5.13,0,5.13,0ZM32.79,102.04h4.68l-1.67-5.02c-.22-.78-.45-1.67-.67-2.57h0c-.11.89-.45,1.78-.67,2.57l-1.67,5.02Z"/><path class="cls-1" d="M23.87,77.73c0-4.35,2.79-6.58,6.47-6.58s6.47,2.23,6.47,6.58-2.79,6.58-6.47,6.58-6.47-2.23-6.47-6.58ZM32.9,77.73c0-2.57-.89-3.79-2.45-3.79s-2.45,1.23-2.45,3.79.89,3.79,2.45,3.79c1.45,0,2.45-1.23,2.45-3.79Z"/><path class="cls-1" d="M38.92,77.73c0-4.35,2.79-6.58,6.47-6.58s6.47,2.23,6.47,6.58-2.68,6.58-6.47,6.58-6.47-2.23-6.47-6.58ZM47.96,77.73c0-2.57-.89-3.79-2.45-3.79s-2.45,1.23-2.45,3.79.89,3.79,2.45,3.79c1.45,0,2.45-1.23,2.45-3.79Z"/><path class="cls-1" d="M54.09,77.84c0-4.01,2.12-6.58,5.24-6.58,1.67,0,2.9.67,3.57,2.01v-7.36h4.01v18.18h-3.79v-2.12c-.67,1.45-2.23,2.34-4.01,2.34-3.01,0-5.02-2.57-5.02-6.47ZM62.9,78.4v-1.12c0-2.12-.89-3.35-2.23-3.35-1.56,0-2.45,1.34-2.45,3.79s.89,3.79,2.45,3.79c1.34,0,2.23-1.23,2.23-3.12Z"/><path class="cls-1" d="M70.15,88.88v-2.9c.56.11.89.11,1.23.11,1.45,0,2.23-.45,2.57-1.56l.22-.56-4.8-12.49h4.35l2.23,7.58c.11.56.22.89.22,1.45h.11c0-.45.11-.78.33-1.45l2.01-7.58h4.01l-4.46,13.05c-1.12,3.23-3.01,4.46-6.36,4.46-.33,0-1,0-1.67-.11Z"/><path class="cls-1" d="M90.45,80.3l3.12-2.23c.89,1.78,2.45,3.01,4.8,3.01,1.67,0,3.01-.67,3.01-2.01s-.78-1.78-2.57-2.23l-2.34-.45c-3.12-.67-4.91-2.34-4.91-5.35,0-3.23,2.68-5.24,6.91-5.24,3.23,0,5.8,1.12,7.14,3.57l-2.79,2.34c-.89-1.67-2.57-2.68-4.57-2.68-1.67,0-2.79.67-2.79,1.78s.67,1.67,2.57,2.12l2.57.56c3.12.67,4.91,2.23,4.91,5.24,0,3.35-2.68,5.69-7.25,5.69-3.9,0-6.58-1.56-7.81-4.13Z"/><path class="cls-1" d="M107.51,77.73c0-4.13,2.57-6.58,6.58-6.58,3.23,0,5.46,1.56,5.91,4.46l-3.79.78c-.22-1.45-1-2.23-2.23-2.23-1.56,0-2.45,1.34-2.45,3.46,0,2.34.89,3.68,2.45,3.68,1.23,0,2.01-.78,2.23-2.34l3.79.78c-.45,2.79-2.79,4.46-6.02,4.46-3.9.11-6.47-2.45-6.47-6.47Z"/><path class="cls-1" d="M123.01,83.98v-18.07h4.01v7.81c.78-1.67,2.12-2.57,4.01-2.57,2.68,0,4.13,1.67,4.13,5.02v7.81h-4.01v-7.36c0-1.56-.67-2.34-1.9-2.34-1.45,0-2.23,1.12-2.23,3.01v6.69h-4.01Z"/><path class="cls-1" d="M137.96,77.73c0-4.35,2.79-6.58,6.47-6.58s6.47,2.23,6.47,6.58-2.79,6.58-6.47,6.58-6.47-2.23-6.47-6.58ZM146.88,77.73c0-2.57-.89-3.79-2.45-3.79s-2.45,1.23-2.45,3.79.89,3.79,2.45,3.79,2.45-1.23,2.45-3.79Z"/><path class="cls-1" d="M153.01,77.73c0-4.35,2.79-6.58,6.47-6.58s6.47,2.23,6.47,6.58-2.79,6.58-6.47,6.58-6.47-2.23-6.47-6.58ZM162.04,77.73c0-2.57-.89-3.79-2.45-3.79s-2.45,1.23-2.45,3.79.89,3.79,2.45,3.79c1.45,0,2.45-1.23,2.45-3.79Z"/><path class="cls-1" d="M173.09,65.91v18.18h-4.01v-18.18h4.01Z"/><path class="cls-1" d="M182.9,77.73c0-4.35,2.79-6.58,6.47-6.58s6.47,2.23,6.47,6.58-2.79,6.58-6.47,6.58-6.47-2.23-6.47-6.58ZM191.93,77.73c0-2.57-.89-3.79-2.45-3.79s-2.45,1.23-2.45,3.79.89,3.79,2.45,3.79c1.45,0,2.45-1.23,2.45-3.79Z"/><path class="cls-1" d="M203.64,71.49h2.9v2.68h-2.9v9.81h-4.01v-9.81h-2.01v-2.68h2.01v-1.23c0-3.01,1.67-4.57,4.91-4.57.67,0,1.34.11,2.01.22v2.9c-.45-.11-.89-.11-1.23-.11-1.12,0-1.67.56-1.67,1.67v1.12h0Z"/><path class="cls-1" d="M215.24,75.17c0-5.58,3.35-9.37,8.81-9.37,4.68,0,7.14,2.45,7.7,5.46l-4.13.78c-.33-1.67-1.45-3.01-3.57-3.01-2.79,0-4.46,2.34-4.46,6.13s1.56,6.13,4.46,6.13c2.68,0,3.9-2.12,3.9-3.68v-.33h-4.35v-3.01h8.25v9.93h-3.01l-.22-2.57c-.89,1.9-2.9,3.01-5.58,3.01-4.91-.22-7.81-3.9-7.81-9.48Z"/><path class="cls-1" d="M239.22,74.72c.67-2.23,2.01-3.57,4.13-3.57h.22v3.79h-.78c-1.12,0-1.9.22-2.45.78-.78.78-1,1.9-1,3.12v5.13h-4.01v-12.49h3.79v3.23h.11Z"/><path class="cls-1" d="M245.35,80.63c0-1.23.45-2.12,1.23-2.68.78-.56,2.01-1,3.9-1.23l3.01-.45v-.45c0-1.45-.56-2.01-1.9-2.01-1.23,0-1.9.67-2.01,1.9h-4.01c.22-2.79,2.45-4.46,6.02-4.46,4.01,0,5.8,1.56,5.8,5.13v4.13c0,1.45.11,2.68.33,3.46h-3.9c-.11-.56-.22-1.23-.22-2.01-.67,1.45-2.23,2.23-4.13,2.23-2.45.11-4.13-1.34-4.13-3.57ZM253.72,79.29v-1l-2.12.33c-1.45.22-2.12.78-2.12,1.67s.67,1.45,1.78,1.45c1.45,0,2.45-1,2.45-2.45Z"/><path class="cls-1" d="M260.52,77.84c0-4.01,2.12-6.58,5.24-6.58,1.67,0,2.9.67,3.57,2.01v-7.36h4.01v18.18h-3.9v-2.12c-.67,1.45-2.12,2.45-3.9,2.45-3.12-.11-5.02-2.68-5.02-6.58ZM269.33,78.4v-1.12c0-2.12-.89-3.35-2.23-3.35-1.56,0-2.45,1.34-2.45,3.79s.89,3.79,2.45,3.79c1.34,0,2.23-1.23,2.23-3.12Z"/><path class="cls-1" d="M277.03,79.63v-8.14h4.01v7.36c0,1.56.67,2.34,1.78,2.34,1.34,0,2.12-1,2.12-2.57v-7.14h4.01v12.49h-3.79v-2.23c-.56,1.56-2.12,2.57-3.9,2.57-3.01,0-4.24-1.78-4.24-4.68Z"/><path class="cls-1" d="M291.97,80.63c0-1.23.45-2.12,1.23-2.68s2.01-1,3.9-1.23l3.01-.45v-.45c0-1.45-.56-2.01-1.9-2.01-1.23,0-1.9.67-2.01,1.9h-4.01c.22-2.79,2.45-4.46,6.02-4.46,4.01,0,5.8,1.56,5.8,5.13v4.13c0,1.45.11,2.68.33,3.46h-3.68c-.11-.56-.22-1.23-.22-2.01-.67,1.45-2.23,2.23-4.13,2.23-2.68.11-4.35-1.34-4.35-3.57ZM300.33,79.29v-1l-2.12.33c-1.45.22-2.12.78-2.12,1.67s.67,1.45,1.78,1.45c1.34,0,2.45-1,2.45-2.45Z"/><path class="cls-1" d="M306.36,74.16v-2.68h2.23v-3.01l4.01-1.56v4.57h3.01v2.68h-3.01v4.91c0,1.23.67,1.9,1.78,1.9.45,0,.78,0,1.12-.11v3.23c-.89.22-1.56.22-2.23.22-3.35,0-4.68-1.45-4.68-4.24v-5.8h-2.23v-.11Z"/><path class="cls-1" d="M330,78.62h-8.7c0,1.67,1.23,2.79,2.9,2.79,1.23,0,2.12-.56,2.68-1.78l2.9,1.34c-1,2.01-3.12,3.23-5.69,3.23-4.13,0-6.58-2.34-6.58-6.47s2.45-6.69,6.36-6.69,6.13,2.23,6.13,6.25v1.34h0ZM326.1,76.39h0c0-1.9-.78-2.79-2.34-2.79s-2.45,1-2.45,2.79h4.8Z"/><path class="cls-1" d="M45.61,103.05c0-4.01,2.12-6.58,5.24-6.58,1.67,0,2.9.67,3.57,2.01v-7.36h4.01v18.18h-3.79v-2.12c-.67,1.45-2.12,2.45-3.9,2.45-3.12-.11-5.13-2.68-5.13-6.58ZM54.42,103.61v-1.12c0-2.12-.89-3.35-2.23-3.35-1.56,0-2.45,1.34-2.45,3.79s.89,3.79,2.45,3.79c1.45,0,2.23-1.23,2.23-3.12Z"/><path class="cls-1" d="M65.24,109.18l-4.35-12.49h4.13l2.01,7.36c.22.56.33,1.23.33,1.78h0c.11-.56.22-1.23.33-1.78l2.01-7.36h4.13l-4.35,12.49s-4.24,0-4.24,0Z"/><path class="cls-1" d="M75.5,105.84c0-1.23.45-2.12,1.23-2.68s2.01-1,3.9-1.23l3.01-.45v-.45c0-1.45-.56-2.01-1.9-2.01-1.23,0-1.9.67-2.01,1.9h-4.01c.22-2.79,2.45-4.46,6.02-4.46,4.01,0,5.8,1.56,5.8,5.13v4.13c0,1.45.11,2.68.33,3.46h-3.9c-.11-.56-.22-1.23-.22-2.01-.67,1.45-2.23,2.23-4.13,2.23-2.45.11-4.13-1.34-4.13-3.57ZM83.87,104.5v-1l-2.12.33c-1.45.22-2.12.78-2.12,1.67s.67,1.45,1.78,1.45c1.45,0,2.45-1,2.45-2.45Z"/><path class="cls-1" d="M91.45,109.18v-12.49h3.9v2.45c.89-1.78,2.23-2.68,4.13-2.68,2.68,0,4.13,1.67,4.13,5.02v7.81h-4.01v-7.25c0-1.67-.56-2.57-1.9-2.57-1.45,0-2.23,1.12-2.23,3.01v6.8h-4.01v-.11Z"/><path class="cls-1" d="M106.39,102.94c0-4.13,2.57-6.58,6.58-6.58,3.23,0,5.46,1.56,5.91,4.46l-3.79.78c-.22-1.45-1-2.23-2.23-2.23-1.56,0-2.45,1.34-2.45,3.46,0,2.34.89,3.68,2.45,3.68,1.23,0,2.01-.78,2.23-2.34l3.79.78c-.45,2.79-2.79,4.46-6.02,4.46-3.79.11-6.47-2.45-6.47-6.47Z"/><path class="cls-1" d="M133.49,103.83h-8.7c0,1.67,1.23,2.79,2.9,2.79,1.23,0,2.12-.56,2.68-1.78l2.9,1.34c-1,2.01-3.12,3.23-5.69,3.23-4.13,0-6.58-2.34-6.58-6.47s2.45-6.69,6.36-6.69,6.13,2.23,6.13,6.25v1.34ZM129.59,101.6h0c0-1.9-.78-2.79-2.34-2.79s-2.45,1-2.45,2.79h4.8Z"/><path class="cls-1" d="M135.72,103.05c0-4.01,2.12-6.58,5.24-6.58,1.67,0,2.9.67,3.57,2.01v-7.36h4.01v18.18h-3.79v-2.12c-.67,1.45-2.12,2.45-3.9,2.45-3.12-.11-5.13-2.68-5.13-6.58ZM144.54,103.61v-1.12c0-2.12-.89-3.35-2.23-3.35-1.56,0-2.45,1.34-2.45,3.79s.89,3.79,2.45,3.79c1.45,0,2.23-1.23,2.23-3.12Z"/><path class="cls-1" d="M157.81,105.5l3.12-2.23c.89,1.78,2.45,3.01,4.8,3.01,1.67,0,3.01-.67,3.01-2.01s-.78-1.78-2.57-2.23l-2.34-.45c-3.12-.67-4.91-2.34-4.91-5.35,0-3.23,2.68-5.24,6.91-5.24,3.23,0,5.8,1.12,7.14,3.57l-2.79,2.34c-.89-1.67-2.57-2.68-4.57-2.68-1.67,0-2.79.67-2.79,1.78s.67,1.67,2.57,2.12l2.57.56c3.12.67,4.91,2.23,4.91,5.24,0,3.35-2.68,5.69-7.25,5.69-3.79,0-6.58-1.56-7.81-4.13Z"/><path class="cls-1" d="M174.31,99.37v-2.68h2.23v-3.01l4.01-1.56v4.57h3.01v2.68h-3.01v4.91c0,1.23.67,1.9,1.78,1.9.45,0,.78,0,1.12-.11v3.23c-.89.22-1.56.22-2.23.22-3.35,0-4.68-1.45-4.68-4.24v-5.8h-2.23v-.11Z"/><path class="cls-1" d="M186.25,104.83v-8.14h4.01v7.36c0,1.56.67,2.34,1.78,2.34,1.34,0,2.12-1,2.12-2.57v-7.14h4.01v12.49h-3.79v-2.23c-.56,1.56-2.12,2.57-3.9,2.57-3.01,0-4.24-1.78-4.24-4.68Z"/><path class="cls-1" d="M201.19,103.05c0-4.01,2.12-6.58,5.24-6.58,1.67,0,2.9.67,3.57,2.01v-7.36h4.01v18.18h-3.79v-2.12c-.67,1.45-2.12,2.45-3.9,2.45-3.12-.11-5.13-2.68-5.13-6.58ZM210,103.61v-1.12c0-2.12-.89-3.35-2.23-3.35-1.56,0-2.45,1.34-2.45,3.79s.89,3.79,2.45,3.79c1.45,0,2.23-1.23,2.23-3.12Z"/><path class="cls-1" d="M217.92,94.68v-3.68h4.13v3.68h-4.13ZM218.03,109.18v-12.49h4.01v12.49h-4.01Z"/><path class="cls-1" d="M237.55,103.83h-8.7c0,1.67,1.23,2.79,2.9,2.79,1.23,0,2.12-.56,2.68-1.78l2.9,1.34c-1,2.01-3.12,3.23-5.69,3.23-4.13,0-6.58-2.34-6.58-6.47s2.45-6.69,6.36-6.69,6.13,2.23,6.13,6.25v1.34ZM233.64,101.6h0c0-1.9-.78-2.79-2.34-2.79s-2.45,1-2.45,2.79h4.8Z"/><path class="cls-1" d="M239.55,106.62l2.34-1.67c.89,1.23,2.23,1.9,3.9,1.9,1.34,0,2.01-.45,2.01-1.12s-.45-.89-1.78-1.12l-2.01-.33c-2.57-.45-3.9-1.67-3.9-3.79,0-2.34,2.01-3.9,5.46-3.9,2.57,0,4.68.89,5.69,2.34l-2.12,1.9c-1-1-2.23-1.45-3.79-1.45-1.23,0-1.67.33-1.67,1,0,.56.33.89,1.34,1l2.45.45c2.57.45,3.68,1.67,3.68,3.79,0,2.45-2.01,4.13-5.58,4.13-2.57-.22-4.8-1.23-6.02-3.12Z"/><path class="cls-1" d="M1.34,84.09v-18.18h5.91l3.35,11.15c.22.89.33,1.56.45,2.23h0c.11-.67.22-1.34.45-2.23l3.23-11.04h6.02v18.18h-3.9v-12.49c0-.67,0-1.34.11-2.01h-.11c0,.56-.22,1.23-.33,1.78l-3.68,12.6h-3.68l-3.79-12.6c-.22-.45-.33-1.23-.33-1.78h-.11c0,.56.11,1.34.11,2.01v12.38s-3.68,0-3.68,0Z"/><path class="cls-1" d="M17.62,106.39v3.01c-.56.11-1.12.22-1.67.22-1.45,0-2.68-.45-3.68-1.45-1.45,1-3.23,1.56-5.13,1.56-3.9,0-6.36-2.01-6.36-5.13,0-2.01,1-3.46,3.57-4.91-1.45-1.67-2.01-2.9-2.01-4.35,0-2.79,2.01-4.57,5.24-4.57s5.35,1.67,5.35,4.24c0,2.01-1.23,3.57-3.57,4.8h-.11l3.23,3.46c.56-1.12.89-2.57,1.12-4.13l3.12.67c-.22,2.23-1,4.24-2.01,5.8.56.45,1.23.78,2.12.78.56.11.67.11.78,0ZM7.81,106.95c.89,0,1.78-.22,2.45-.78l-4.13-4.35c-1,.78-1.45,1.45-1.45,2.57,0,1.45,1.34,2.57,3.12,2.57ZM5.91,95.24c0,.78.33,1.56,1.56,2.9l.22-.11c1.23-.56,1.78-1.45,1.78-2.68s-.67-2.01-1.78-2.01-1.67.67-1.78,1.9Z"/></g></svg>