<?xml version="1.0" encoding="UTF-8"?><svg id="Layer_1" xmlns="http://www.w3.org/2000/svg" viewBox="0 0 396.35 91.2"><defs><style>.cls-1{fill:#fff;}.cls-2{stroke-miterlimit:10;}.cls-2,.cls-3{fill:none;stroke:#fff;}</style></defs><path class="cls-3" d="m.5.88v19.95l.02,31.78c0,11.36.75,14.78,7.42,22.62,6.67,7.85,23.75,14.18,23.75,14.18,0,0,17.06-6.33,23.73-14.18,6.67-7.85,7.42-11.25,7.42-22.62l.02-31.78V.88s-7.68,4.57-15.5,4c-8.87-.65-15.67-4.15-15.67-4.15,0,0-6.82,3.5-15.68,4.15C8.18,5.45.5.88.5.88Z"/><path class="cls-1" d="m61.23,52.31l.02-48.87s-7,3.58-14.51,3.03c-8.52-.63-15.04-3.98-15.04-3.98,0,0-6.54,3.36-15.06,3.98-7.52.56-14.62-2.93-14.62-2.93l.02,49.06c.55,10.47.43,13.91,6.85,21.44,6.41,7.53,22.81,13.61,22.81,13.61,0,0,16.38-6.08,22.79-13.61,6.41-7.53,7.12-10.81,6.74-21.72Zm-8.31-13.87l-4.57-6.63v11.88c0,4.93-1.55,7.85-2.83,9.23-3.17,3.17-7.19,3.98-10.21,4.17v2.15c0,2.41.45,4.06,2.75,4.06h4.26v7.1h-21.37v-7.1h4.27c2.29,0,2.75-1.65,2.75-4.06v-2.15c-3.02-.19-7.04-1-10.21-4.17-1.29-1.37-2.83-4.3-2.83-9.23v-11.88l-4.57,6.63-3.34-1.93,3.04-10.93s1.58-.41,4.79-.86c-.23-2.6-.89-5.63-2.66-6.45l.25-1.24s9.98-1.63,12.34-2.83l.69,3.82s-4.79.36-4.88,6.1c3.02-.23,6.7-.4,11.05-.4s8.03.17,11.05.4c-.09-5.73-4.87-6.1-4.87-6.1l.69-3.82c2.36,1.2,12.34,2.83,12.34,2.83l.25,1.24c-1.78.82-2.43,3.84-2.66,6.45,3.21.44,4.79.86,4.79.86l3.04,10.93-3.35,1.93h.02Zm-32.32-7.88v10.76s-.06,2.88.64,4.7c.81,2.09,2.03,3.23,6.72,3.57l-.03-19.32s-3.23-.03-7.33.28h0Zm22.07,0c-4.09-.3-7.33-.28-7.33-.28l-.03,19.32c4.69-.34,5.91-1.48,6.72-3.57.71-1.83.65-4.7.65-4.7v-10.77h0Z"/><path class="cls-3" d="m31.64,23.72c14.52,0,21.58,1.87,21.58,1.87l3.04,10.93-3.35,1.93-5.05-7.33c-6.17-.89-12.52-.84-12.52-.84l-.05,28.96c0,2.41.46,4.06,2.75,4.06h4.27v7.1h-10.73.09-10.74v-7.1h4.27c2.3,0,2.75-1.65,2.75-4.06l-.05-28.96s-6.35-.06-12.51.84l-5.06,7.33-3.34-1.93,3.04-10.93s7.05-1.87,21.58-1.87h0Z"/><path class="cls-1" d="m93.01,2.11h-.71c-.9,0-3.35,0-4.45.32-1.27.38-2.11,2.29-2.51,3.16-.06.14-.14.16-.29.14l-.51-.14c-.08-.03-.17-.05-.11-.22.28-.98,1.27-4.49,1.32-4.79.06-.36.17-.43.29-.43.14,0,.23.03.34.11l.36.25c.51.36.79.43,1.61.46,1.49.05,2.68.16,5.33.16h1.35c3.07,0,4.28-.11,5.66-.16.62-.03.98-.11,1.46-.38l.54-.32c.14-.08.23-.11.34-.11.14,0,.19.08.25.43.06.32.59,3.7.82,4.9.03.14-.03.19-.17.22l-.45.11c-.11.03-.14,0-.23-.19-.23-.52-1.07-2.61-2-3.04-.84-.41-3.49-.46-4.87-.46h-.79v7.75c0,.38,0,8,.03,8.46.06.68.29,1.09.96,1.09h1.78c.25,0,.29.08.29.27v.57c0,.14-.03.22-.29.22-.28,0-1.19-.08-3.95-.08s-3.89.08-4.28.08c-.23,0-.25-.11-.25-.27v-.52c0-.19.03-.27.19-.27h1.92c.56,0,.9-.32.93-.65.08-.79.08-9.14.08-9.66V2.11h.01Z"/><path class="cls-1" d="m111.32,20.24c-1.92-.73-2.9-1.93-3.35-3.65-.34-1.22-.45-3.05-.45-6.61V3.5c0-.95-.19-1.39-1.07-1.39h-1.32c-.17,0-.19-.05-.19-.25v-.6c0-.16.03-.22.25-.22.28,0,1.66.08,3.86.08s3.55-.08,3.86-.08c.23,0,.25.05.25.16v.71c0,.14-.03.19-.23.19h-1.41c-.82,0-1.3.52-1.35,1.11-.03.25-.06,2.15-.06,3.54v1.79c0,1.44.11,4.9.14,5.77.03,1.25.25,2.53.9,3.45,1.04,1.47,2.84,1.96,4.48,1.96s3.24-.52,4.22-1.5c1.1-1.14,1.46-2.78,1.46-4.79v-5.82c0-2.07-.06-3.65-.14-4.33-.08-.71-.54-1.2-1.27-1.2h-1.24c-.17,0-.19-.08-.19-.22v-.65c0-.14.03-.19.19-.19.28,0,1.57.08,3.47.08s2.84-.08,3.1-.08.28.11.28.19v.6c0,.16-.03.27-.17.27h-1.15c-1.04,0-1.13.76-1.21,1.09-.06.27-.06,4.14-.06,4.52s-.06,5.14-.14,6.21c-.17,2.23-.79,3.95-2.36,5.25-1.13,1-2.84,1.63-5.29,1.63-1.46,0-2.87-.19-3.8-.57h0Z"/><path class="cls-1" d="m129.94,8.21c0-1.74-.06-4.63-.08-5.12-.06-.71-.19-.98-1.04-.98h-1.32c-.17,0-.19-.14-.19-.27v-.6c0-.14.03-.19.19-.19.31,0,1.32.08,3.66.08,2.73,0,3.91-.08,4.17-.08.23,0,.25.08.25.22v.63c0,.14-.06.22-.29.22h-1.69c-.87,0-.98.27-.98,1.06,0,.36-.08,4.46-.08,6.37v2.34c0,.46,0,6.34.08,7.46.62.05,6.19.11,7.07,0,1.66-.25,3.35-3.51,3.74-4.57.06-.11.11-.16.23-.11l.45.16c.08.05.08.08.06.25-.08.19-1.21,4.68-1.38,5.42-.37-.03-2.57-.05-5.07-.05-2.51-.03-5.27-.03-6.79-.03-1.1,0-1.92.03-2.51.03-.56.03-.9.05-1.1.05s-.23-.05-.23-.19v-.68c0-.14.03-.19.19-.19h1.35c1.04,0,1.21-.38,1.21-.73,0-.52.08-7.29.08-8.95v-1.54Z"/><path class="cls-1" d="m151.09,12.84c-.28.68-1.83,4.82-1.97,5.39-.03.19-.08.46-.08.6,0,.38.34.6.96.6h1.32c.19,0,.28.05.28.19v.63c0,.19-.08.25-.23.25-.4,0-1.55-.08-3.21-.08-2.05,0-2.68.08-3.07.08-.14,0-.19-.05-.19-.22v-.65c0-.14.11-.19.23-.19h.98c.84,0,1.24-.38,1.63-1.25.19-.43,2.25-5.47,3.07-7.7.19-.54,2.48-6.39,2.73-7.13.08-.27.23-.63.03-.93-.08-.11-.19-.25-.19-.36,0-.08.06-.19.25-.25.79-.16,2.03-.98,2.34-1.36.14-.14.23-.25.37-.25.17,0,.23.16.31.46.54,1.72,2.73,7.81,3.27,9.55.65,2.12,2.48,7.18,2.87,7.98.48.9,1.21,1.22,1.92,1.22h.93c.17,0,.23.08.23.19v.68c0,.14-.08.19-.28.19-.51,0-1.1-.08-3.38-.08s-3.32.08-3.97.08c-.14,0-.23-.08-.23-.25v-.63c0-.16.08-.19.25-.19h.71c.79,0,1.04-.27.84-1.04-.23-.98-1.38-4.46-1.78-5.55h-6.93v.03Zm6.59-.98c-.25-.82-2.53-7.62-2.68-8.03-.08-.19-.14-.38-.23-.38-.11,0-.23.19-.31.41-.14.36-2.82,7.32-3.01,8h6.23Z"/><path class="cls-1" d="m169.93,4.67c0-1.61-.84-2.5-1.86-2.53l-1.15-.03c-.14,0-.17-.11-.17-.19v-.71c0-.11.03-.16.17-.16s.36.03.79.03c.42.03,1.04.05,2,.05s1.55-.05,1.89-.05c.36,0,.59.11.82.36l5.91,7.41c.31.38,5.07,6.01,5.75,6.89h.11v-3.24c0-2.42-.03-3.76-.08-5.12-.03-1.06-.17-3.73-.34-4.19-.23-.68-.76-1.06-1.55-1.06h-.9c-.11,0-.17-.05-.17-.19v-.71c0-.11.06-.16.17-.16.4,0,1.3.08,3.1.08,1.69,0,2.36-.08,2.73-.08.19,0,.23.08.23.19v.68c0,.11-.06.19-.17.19h-.76c-.76,0-1.04.46-1.1,1.5-.11,1.82-.11,4.52-.11,6.28v10.18c0,.38-.03.65-.14.65-.34,0-.59-.32-.67-.43l-3.43-4.19c-1.97-2.36-4.03-4.87-4.2-5.03-.31-.27-5.49-6.56-5.66-6.78h-.17v6.04c0,2.53.23,6.96.29,7.51.11,1.06.28,1.58,1.04,1.58h.84c.19,0,.23.08.23.25v.6c0,.16-.03.22-.23.22-.29,0-1.97-.08-2.73-.08-.59,0-2.53.08-2.82.08-.11,0-.14-.05-.14-.19v-.71c0-.08.03-.16.17-.16h.96c.82,0,1.13-.32,1.27-1.66.06-.52.11-3.62.11-8.46v-4.65Z"/><path class="cls-1" d="m195.51,9.98c.23,0,3.24-.11,3.58-.16.82-.14,1.04-.36,1.3-1.2.08-.27.19-.82.23-1.33,0-.14.08-.19.19-.19l.71.03c.14,0,.19.11.17.22-.08.46-.08,2.7-.08,3.1,0,.95.11,2.26.17,2.83,0,.14-.06.19-.17.22l-.62.08c-.14.03-.19-.05-.23-.25-.06-.36-.23-.98-.31-1.28-.17-.57-.48-.98-1.21-1.06-1.32-.14-3.27-.14-3.72-.14v1.68c0,1.47.06,4.11.06,4.65.03,1.41.73,1.96,1.61,2.12.56.11,1.38.19,2.09.19.48,0,1.89-.03,2.48-.08.48-.05,1.72-.36,2.45-.95.34-.27,1.92-2.23,2.31-2.86.08-.14.17-.25.34-.16l.45.25c.14.08.14.16.06.38l-1.49,4c-.08.25-.28.41-.62.41-.14,0-.76-.03-2.45-.05-1.69,0-4.42-.03-8.82-.03-1.04,0-1.83.03-2.4.03-.59.03-.96.05-1.21.05-.17,0-.25-.05-.25-.19v-.73c0-.11.08-.14.29-.14h1.13c1.3,0,1.41-.19,1.41-1.2v-9.12c0-2.26-.06-5.66-.08-5.93-.11-.87-.4-1.06-1.44-1.06h-1.01c-.14,0-.23-.03-.23-.19v-.73c0-.08.06-.14.19-.14.62,0,1.61.08,3.47.08h1.24c2.79,0,5.58-.03,8.36-.03.45,0,.98-.05,1.13-.05s.19.05.23.14l1.44,4.38c.03.11.03.19-.08.25l-.42.22c-.08.05-.19-.03-.23-.08-.06-.11-2.14-2.7-2.82-3.1-.59-.38-1.38-.71-2.14-.73l-5.01-.11v7.98-.03Z"/><path class="cls-1" d="m222.58,20.24c-1.92-.73-2.9-1.93-3.35-3.65-.34-1.22-.45-3.05-.45-6.61V3.5c0-.95-.19-1.39-1.07-1.39h-1.32c-.17,0-.19-.05-.19-.25v-.6c0-.16.03-.22.25-.22.28,0,1.66.08,3.86.08s3.55-.08,3.86-.08c.23,0,.25.05.25.16v.71c0,.14-.03.19-.23.19h-1.41c-.82,0-1.3.52-1.35,1.11-.03.25-.06,2.15-.06,3.54v1.79c0,1.44.11,4.9.14,5.77.03,1.25.25,2.53.9,3.45,1.04,1.47,2.84,1.96,4.48,1.96s3.24-.52,4.22-1.5c1.1-1.14,1.46-2.78,1.46-4.79v-5.82c0-2.07-.06-3.65-.14-4.33-.08-.71-.54-1.2-1.27-1.2h-1.24c-.17,0-.19-.08-.19-.22v-.65c0-.14.03-.19.19-.19.29,0,1.57.08,3.47.08s2.84-.08,3.1-.08.28.11.28.19v.6c0,.16-.03.27-.17.27h-1.15c-1.04,0-1.13.76-1.21,1.09-.06.27-.06,4.14-.06,4.52s-.06,5.14-.14,6.21c-.17,2.23-.79,3.95-2.36,5.25-1.13,1-2.84,1.63-5.29,1.63-1.46,0-2.87-.19-3.8-.57h0Z"/><path class="cls-1" d="m241.06,4.67c0-1.61-.84-2.5-1.86-2.53l-1.15-.03c-.14,0-.17-.11-.17-.19v-.71c0-.11.03-.16.17-.16s.37.03.79.03c.42.03,1.04.05,2,.05s1.55-.05,1.89-.05c.36,0,.59.11.82.36l5.91,7.41c.31.38,5.07,6.01,5.75,6.89h.11v-3.24c0-2.42-.03-3.76-.08-5.12-.03-1.06-.17-3.73-.34-4.19-.23-.68-.76-1.06-1.55-1.06h-.9c-.11,0-.17-.05-.17-.19v-.71c0-.11.06-.16.17-.16.4,0,1.3.08,3.1.08,1.69,0,2.36-.08,2.73-.08.19,0,.23.08.23.19v.68c0,.11-.06.19-.17.19h-.76c-.76,0-1.04.46-1.1,1.5-.11,1.82-.11,4.52-.11,6.28v10.18c0,.38-.03.65-.14.65-.34,0-.59-.32-.67-.43l-3.43-4.19c-1.97-2.36-4.03-4.87-4.2-5.03-.31-.27-5.49-6.56-5.66-6.78h-.17v6.04c0,2.53.23,6.96.28,7.51.11,1.06.28,1.58,1.04,1.58h.84c.19,0,.23.08.23.25v.6c0,.16-.03.22-.23.22-.29,0-1.97-.08-2.73-.08-.59,0-2.53.08-2.82.08-.11,0-.14-.05-.14-.19v-.71c0-.08.03-.16.17-.16h.96c.82,0,1.13-.32,1.27-1.66.06-.52.11-3.62.11-8.46v-4.65Z"/><path class="cls-1" d="m263.87,9c0-.65-.08-5.55-.11-5.96-.06-.65-.34-.93-1.41-.93h-1.63c-.14,0-.23-.05-.23-.16v-.73c0-.11.08-.16.19-.16.34,0,1.78.08,4.39.08s3.41-.08,3.8-.08c.14,0,.19.08.19.19v.68c0,.14-.08.19-.23.19h-1.32c-.56,0-.98.22-.98.76,0,.27-.08,6.28-.08,6.61v2.09c0,.27.08,6.56.08,6.86,0,.84.42.98,1.32.98h1.15c.14,0,.23.05.23.19v.71c0,.11-.08.16-.25.16-.34,0-1.46-.08-3.91-.08-2.68,0-3.89.08-4.2.08-.14,0-.23-.05-.23-.16v-.73c0-.11.08-.16.23-.16h1.57c.56,0,1.15-.08,1.27-.79.06-.41.14-6.28.14-7.73v-1.9h0Z"/><path class="cls-1" d="m271.45,1.24c0-.14.03-.19.19-.19.28,0,1.21.08,3.41.08,2.36,0,3.63-.08,3.89-.08s.28.08.28.19v.63c0,.14-.03.25-.23.25h-1.35c-.79,0-1.19.25-1.19.71,0,.22.03.54.11.93.17.98,1.21,4.22,1.72,5.74.34,1.04,1.97,5.71,2.62,7.37h.06c.59-1.28,2.79-6.89,3.01-7.51.28-.73,1.35-3.86,1.78-5.06.23-.68.4-1.17.4-1.55,0-.32-.19-.63-.9-.63h-.73c-.11,0-.14-.08-.14-.25v-.63c0-.14.03-.19.17-.19.25,0,1.55.08,3.32.08,2.05,0,2.76-.08,3.01-.08.17,0,.19.05.19.19v.68c0,.11-.03.19-.19.19h-.76c-.93,0-1.46.43-2,1.06-.73.87-2.99,6.45-3.47,7.59-.34.9-3.97,9.55-4.11,9.82-.11.22-.25.36-.4.36-.23,0-.34-.27-.48-.63-.9-2.5-3.18-8.71-3.55-9.69l-.28-.93c-.67-1.93-2-5.88-2.36-6.69-.29-.63-.56-.9-1.15-.9h-.73c-.11,0-.14-.08-.14-.19v-.68h.02Z"/><path class="cls-1" d="m297.53,9.98c.23,0,3.24-.11,3.58-.16.82-.14,1.04-.36,1.3-1.2.08-.27.19-.82.23-1.33,0-.14.08-.19.19-.19l.71.03c.14,0,.19.11.17.22-.08.46-.08,2.7-.08,3.1,0,.95.11,2.26.17,2.83,0,.14-.06.19-.17.22l-.62.08c-.14.03-.19-.05-.23-.25-.06-.36-.23-.98-.31-1.28-.17-.57-.48-.98-1.21-1.06-1.32-.14-3.27-.14-3.72-.14v1.68c0,1.47.06,4.11.06,4.65.03,1.41.73,1.96,1.61,2.12.56.11,1.38.19,2.09.19.48,0,1.89-.03,2.48-.08.48-.05,1.72-.36,2.45-.95.34-.27,1.92-2.23,2.31-2.86.08-.14.17-.25.34-.16l.45.25c.14.08.14.16.06.38l-1.49,4c-.08.25-.28.41-.62.41-.14,0-.76-.03-2.45-.05-1.69,0-4.42-.03-8.82-.03-1.04,0-1.83.03-2.39.03-.59.03-.96.05-1.21.05-.17,0-.25-.05-.25-.19v-.73c0-.11.08-.14.28-.14h1.13c1.3,0,1.41-.19,1.41-1.2v-9.12c0-2.26-.06-5.66-.08-5.93-.11-.87-.4-1.06-1.44-1.06h-1.01c-.14,0-.23-.03-.23-.19v-.73c0-.08.06-.14.19-.14.62,0,1.61.08,3.47.08h1.24c2.79,0,5.58-.03,8.36-.03.45,0,.98-.05,1.13-.05s.19.05.23.14l1.44,4.38c.03.11.03.19-.08.25l-.42.22c-.08.05-.19-.03-.23-.08-.06-.11-2.14-2.7-2.82-3.1-.59-.38-1.38-.71-2.14-.73l-5.01-.11v7.98-.03Z"/><path class="cls-1" d="m314.46,8.02c0-2.01,0-3.76-.03-4.55-.03-.9-.37-1.36-1.07-1.36h-1.13c-.14,0-.17-.08-.17-.19v-.68c0-.14.03-.19.17-.19.25,0,1.13.08,3.49.08,1.57,0,4.2-.08,4.7-.08,2.34,0,4.2.68,5.27,1.66.93.87,1.46,2.09,1.46,3.1,0,3.4-1.61,4.68-5.21,5.44v.05c.67.25,1.07.73,1.3,1.04.34.36,2.34,3.13,2.57,3.49.14.27,1.94,2.75,2.48,3.13.59.41,1.24.46,2.03.46.19,0,.23.11.23.22v.6c0,.16-.03.25-.23.25-.23,0-.96-.08-2.2-.08-.82,0-1.86.05-2.28.08-.31-.27-.93-1.2-1.19-1.55-.23-.32-1.75-2.91-1.89-3.13-.11-.19-1.46-2.15-1.8-2.53-.73-.84-1.41-1.58-3.04-1.58-.25,0-.54,0-.93.08v1.52c0,1.61.03,4.65.06,5.06.06.57.28,1.06.71,1.06h1.78c.19,0,.23.08.23.22v.6c0,.19-.03.25-.31.25-.31,0-1.02-.08-3.69-.08s-3.21.08-3.52.08c-.23,0-.23-.08-.23-.22v-.63c0-.14,0-.22.14-.22h1.15c.62,0,1.1-.19,1.1-.93.06-2.7.06-5.25.06-7.84v-2.64h-.02Zm2.53,2.7c.42.08.73.11,1.27.11,5.12,0,6.11-3.4,6.11-4.55,0-1.25-.59-2.45-1.41-3.1-1.1-.84-2.34-1.25-4.68-1.25-.34,0-.71.05-.96.22-.19.14-.34.43-.34.87v7.7h0Z"/><path class="cls-1" d="m334.21,19.4c-.34-.25-.51-.32-.65-.32-.17,0-.28.19-.45.46-.17.3-.31.32-.51.32-.17,0-.31-.14-.25-.43.11-.68.4-4.14.48-4.92.03-.16.08-.16.19-.16l.42.03c.11,0,.17.05.17.22.03.87.08,1.77,1.01,3.16.84,1.28,2.4,2.01,3.95,2.01,1.69,0,3.83-1,3.83-3.45,0-2.81-2.09-3.84-4.34-4.6-.87-.3-2.9-.98-4.11-2.2-.93-.9-1.41-2.18-1.41-3.97,0-1.36.87-2.7,1.75-3.49,1.02-.93,2.42-1.31,3.95-1.31,1.61,0,2.84.46,3.32.68.25.14.4.11.54-.03l.37-.32c.14-.11.23-.16.36-.16s.23.22.23.46c0,.95.37,3.73.4,4.33,0,.14-.03.19-.14.22l-.34.08c-.08.03-.14,0-.17-.08-.23-.79-.59-1.85-1.75-3.02-.76-.79-1.75-1.17-3.07-1.17-2.51,0-3.41,1.79-3.41,3.18,0,.76.17,1.66.87,2.36.82.79,2.4,1.39,3.21,1.63,1.94.6,3.52,1.06,4.54,2.26.73.84,1.24,1.9,1.24,3.7,0,3.21-2.03,5.96-5.75,5.96-1.97,0-3.35-.57-4.48-1.41h0Z"/><path class="cls-1" d="m350.12,9c0-.65-.08-5.55-.11-5.96-.06-.65-.34-.93-1.41-.93h-1.63c-.14,0-.23-.05-.23-.16v-.73c0-.11.08-.16.19-.16.34,0,1.78.08,4.39.08s3.41-.08,3.8-.08c.14,0,.19.08.19.19v.68c0,.14-.08.19-.23.19h-1.32c-.56,0-.98.22-.98.76,0,.27-.08,6.28-.08,6.61v2.09c0,.27.08,6.56.08,6.86,0,.84.42.98,1.32.98h1.15c.14,0,.23.05.23.19v.71c0,.11-.08.16-.25.16-.34,0-1.46-.08-3.91-.08-2.68,0-3.89.08-4.2.08-.14,0-.23-.05-.23-.16v-.73c0-.11.08-.16.23-.16h1.57c.56,0,1.15-.08,1.27-.79.06-.41.14-6.28.14-7.73v-1.9h0Z"/><path class="cls-1" d="m365.27,2.11h-.71c-.9,0-3.35,0-4.45.32-1.27.38-2.11,2.29-2.51,3.16-.06.14-.14.16-.28.14l-.51-.14c-.08-.03-.17-.05-.11-.22.29-.98,1.27-4.49,1.32-4.79.06-.36.17-.43.28-.43.14,0,.23.03.34.11l.37.25c.51.36.79.43,1.61.46,1.49.05,2.68.16,5.33.16h1.35c3.07,0,4.28-.11,5.66-.16.62-.03.98-.11,1.46-.38l.54-.32c.14-.08.23-.11.34-.11.14,0,.19.08.25.43.06.32.59,3.7.82,4.9.03.14-.03.19-.17.22l-.45.11c-.11.03-.14,0-.23-.19-.23-.52-1.07-2.61-2-3.04-.84-.41-3.49-.46-4.87-.46h-.79v7.75c0,.38,0,8,.03,8.46.06.68.28,1.09.96,1.09h1.78c.25,0,.28.08.28.27v.57c0,.14-.03.22-.28.22-.28,0-1.19-.08-3.95-.08s-3.89.08-4.28.08c-.23,0-.25-.11-.25-.27v-.52c0-.19.03-.27.19-.27h1.92c.56,0,.9-.32.93-.65.08-.79.08-9.14.08-9.66V2.11h0Z"/><path class="cls-1" d="m387.36,15.34c0,1.06.08,2.83.11,3.13.08.87.51.95,1.24.95h1.1c.19,0,.19.08.19.19v.63c0,.16,0,.25-.19.25-.34,0-1.44-.08-3.8-.08-2.53,0-3.41.08-3.72.08-.11,0-.17-.08-.17-.22v-.65c0-.11.03-.19.19-.19h1.38c.73,0,.96-.27.98-.68.03-.38.08-2.53.08-5.06v-1.58c-.37-.71-5.04-8.38-5.86-9.34-.37-.41-1.02-.65-1.46-.65h-.71c-.17,0-.19-.08-.19-.19v-.71c0-.11.03-.16.19-.16.25,0,1.57.08,3.3.08,2.9,0,3.91-.08,4.2-.08.17,0,.19.05.19.14v.68c0,.14-.03.25-.19.25h-.93c-.84,0-.96.25-.84.9.08.43,3.55,6.34,4.39,7.89,1.04-1.58,4.98-7.24,5.1-7.73.11-.46.25-1.06-.93-1.06h-.76c-.17,0-.19-.08-.19-.25v-.65c0-.11.03-.16.19-.16.29,0,1.44.08,3.32.08,1.67,0,2.28-.08,2.53-.08.19,0,.23.05.23.16v.65c0,.16-.03.25-.23.25h-.71c-.42,0-.9.16-1.38.6-.56.52-5.6,7.57-6.67,9.06v3.56h0Z"/><path class="cls-1" d="m89.15,38.92c0-1.37-.06-5.75-.06-6.13,0-.59-.45-.9-1.32-.9h-1.87c-.13,0-.23-.06-.23-.19v-.84c0-.12.1-.19.23-.19.19,0,.58.03,1.32.03.74.03,1.83.06,3.38.06.54,0,11.84.03,12.36-.12.1.53,1.06,4.73,1.29,5.53.03.12,0,.19-.06.22l-.58.22c-.1.03-.16-.03-.26-.22-.29-.5-1.13-1.65-2.06-2.86-.54-.71-1.32-1.24-2.25-1.46-.8-.19-5.92-.28-6.89-.28,0,.4-.03,6.65-.03,8.55v1.55c.45,0,3.83-.09,4.22-.16.71-.12,1.13-.4,1.42-1.37.1-.31.23-.97.32-1.52.03-.12.1-.22.23-.22l.64.03c.13,0,.19.09.19.22-.06.53-.06,3.11-.06,3.54,0,1.12.1,2.61.16,3.23,0,.16-.06.22-.23.25l-.61.12c-.16.03-.19-.06-.23-.22-.03-.25-.26-1.18-.36-1.52-.23-.75-.61-1.12-1.32-1.21-1.51-.19-3.86-.19-4.38-.19v1.15c0,.93.03,6.15.03,6.63,0,.84.16,1,1.26,1h1.57c.19,0,.29.06.29.19v.78c0,.19-.06.25-.26.25-.32,0-1.61-.09-4.38-.09-2.51,0-3.73.09-4.22.09-.13,0-.19-.06-.19-.22v-.84c0-.12.1-.16.23-.16h1.45c.84,0,1.09-.12,1.13-.69.06-.62.13-4.54.13-9.89v-2.18h0Z"/><path class="cls-1" d="m107.73,38.64c0-2.3,0-4.29-.03-5.2-.03-1.02-.42-1.55-1.22-1.55h-1.29c-.16,0-.19-.09-.19-.22v-.78c0-.16.03-.22.19-.22.29,0,1.29.09,3.99.09,1.8,0,4.79-.09,5.38-.09,2.67,0,4.79.78,6.02,1.9,1.06,1,1.67,2.4,1.67,3.54,0,3.89-1.83,5.35-5.95,6.22v.06c.77.28,1.22.84,1.48,1.18.39.4,2.67,3.58,2.93,3.98.16.31,2.22,3.14,2.83,3.58.67.47,1.42.53,2.32.53.23,0,.26.12.26.25v.69c0,.19-.03.28-.26.28-.26,0-1.09-.09-2.51-.09-.93,0-2.12.06-2.6.09-.36-.31-1.06-1.37-1.35-1.78-.26-.38-2-3.33-2.16-3.58-.13-.22-1.67-2.46-2.06-2.89-.84-.97-1.61-1.8-3.48-1.8-.29,0-.61,0-1.06.09v1.74c0,1.83.03,5.32.06,5.79.06.65.32,1.21.8,1.21h2.03c.23,0,.26.09.26.25v.69c0,.22-.03.28-.36.28-.36,0-1.16-.09-4.22-.09s-3.67.09-4.02.09c-.26,0-.26-.09-.26-.25v-.71c0-.16,0-.25.16-.25h1.32c.71,0,1.26-.22,1.26-1.06.06-3.08.06-6,.06-8.96v-3.02h0Zm2.9,3.08c.49.09.84.12,1.45.12,5.86,0,6.98-3.89,6.98-5.2,0-1.43-.67-2.8-1.61-3.54-1.26-.97-2.67-1.43-5.34-1.43-.39,0-.8.06-1.09.25-.23.16-.39.5-.39,1v8.8Z"/><path class="cls-1" d="m132.71,40.88c.26,0,3.7-.12,4.09-.19.93-.16,1.19-.4,1.48-1.37.1-.31.23-.93.26-1.52,0-.16.1-.22.23-.22l.8.03c.16,0,.23.12.19.25-.1.53-.1,3.08-.1,3.54,0,1.09.13,2.58.19,3.23,0,.16-.06.22-.19.25l-.71.09c-.16.03-.23-.06-.26-.28-.06-.4-.26-1.12-.36-1.46-.19-.65-.54-1.12-1.39-1.21-1.52-.16-3.73-.16-4.25-.16v1.93c0,1.68.06,4.7.06,5.32.03,1.62.84,2.24,1.83,2.42.64.12,1.57.22,2.38.22.54,0,2.16-.03,2.83-.09.54-.06,1.96-.4,2.8-1.09.39-.31,2.19-2.55,2.64-3.27.1-.16.19-.28.39-.19l.51.28c.16.09.16.19.06.43l-1.7,4.57c-.1.28-.32.47-.71.47-.16,0-.87-.03-2.8-.06-1.93,0-5.05-.03-10.07-.03-1.19,0-2.09.03-2.73.03-.67.03-1.09.06-1.39.06-.19,0-.29-.06-.29-.22v-.84c0-.12.1-.16.32-.16h1.29c1.48,0,1.61-.22,1.61-1.37v-10.42c0-2.58-.06-6.47-.1-6.78-.13-1-.45-1.21-1.64-1.21h-1.16c-.16,0-.26-.03-.26-.22v-.84c0-.09.06-.16.23-.16.71,0,1.83.09,3.96.09h1.42c3.19,0,6.37-.03,9.56-.03.51,0,1.13-.06,1.29-.06s.23.06.26.16l1.64,5.01c.03.12.03.22-.1.28l-.49.25c-.1.06-.23-.03-.26-.09-.06-.12-2.45-3.08-3.22-3.54-.67-.43-1.57-.81-2.45-.84l-5.73-.12v9.13Z"/><path class="cls-1" d="m154.28,40.88c.26,0,3.7-.12,4.09-.19.93-.16,1.19-.4,1.48-1.37.1-.31.23-.93.26-1.52,0-.16.1-.22.23-.22l.8.03c.16,0,.23.12.19.25-.1.53-.1,3.08-.1,3.54,0,1.09.13,2.58.19,3.23,0,.16-.06.22-.19.25l-.71.09c-.16.03-.23-.06-.26-.28-.06-.4-.26-1.12-.36-1.46-.19-.65-.54-1.12-1.39-1.21-1.52-.16-3.73-.16-4.25-.16v1.93c0,1.68.06,4.7.06,5.32.03,1.62.84,2.24,1.83,2.42.64.12,1.57.22,2.38.22.54,0,2.16-.03,2.83-.09.54-.06,1.96-.4,2.8-1.09.39-.31,2.19-2.55,2.64-3.27.1-.16.19-.28.39-.19l.51.28c.16.09.16.19.06.43l-1.7,4.57c-.1.28-.32.47-.71.47-.16,0-.87-.03-2.8-.06-1.93,0-5.05-.03-10.07-.03-1.19,0-2.09.03-2.73.03-.67.03-1.09.06-1.39.06-.19,0-.29-.06-.29-.22v-.84c0-.12.1-.16.32-.16h1.29c1.48,0,1.61-.22,1.61-1.37v-10.42c0-2.58-.06-6.47-.1-6.78-.13-1-.45-1.21-1.64-1.21h-1.16c-.16,0-.26-.03-.26-.22v-.84c0-.09.06-.16.23-.16.71,0,1.83.09,3.96.09h1.42c3.19,0,6.37-.03,9.56-.03.51,0,1.13-.06,1.29-.06s.23.06.26.16l1.64,5.01c.03.12.03.22-.1.28l-.49.25c-.1.06-.23-.03-.26-.09-.06-.12-2.45-3.08-3.22-3.54-.67-.43-1.57-.81-2.45-.84l-5.73-.12v9.13Z"/><path class="cls-1" d="m183.86,47.82c.45-.47,3.67-7.9,3.93-8.31.23-.43,3.73-7.74,3.83-8.36.06-.34.42-.38.74-.38,4.28,0,5.38-.09,5.73-.09.16,0,.19.09.19.22v.71c0,.19-.03.28-.26.28h-1.42c-.97,0-1.06.56-1.06,1.28,0,.9-.1,5.35-.1,7.43v2.18c0,1.55.1,6.6.1,7.22,0,1.18.29,1.68,1.09,1.68h1.9c.19,0,.23.09.23.22v.71c0,.19-.03.28-.29.28-.39,0-.97-.09-4.51-.09-2.96,0-4.22.09-4.63.09-.23,0-.26-.09-.26-.28v-.71c0-.16.03-.22.26-.22h2.19c.54,0,.84-.19.9-1.12.03-.38.06-5.79.06-8.09v-1.99c0-2.05,0-7.59-.1-7.87h-.06c-.32.4-4.89,10.2-5.05,10.51-.19.38-3.76,8.31-3.89,8.58s-.39.75-.64.75c-.19,0-.36-.25-.49-.56l-4.38-10.42c-.61-1.43-3.54-8.4-3.99-8.77-.13.43-.19,8.31-.19,8.67s-.03,6.94.06,8.03c.16,1.78.45,2.27,1.48,2.27h1.61c.19,0,.23.09.23.22v.78c0,.12-.03.22-.29.22-.36,0-1.22-.09-3.89-.09s-3.86.09-4.15.09c-.26,0-.29-.03-.29-.28v-.75c0-.09.03-.19.19-.19h1.7c1.22,0,1.51-.81,1.7-1.87.39-2.21.49-10.17.49-10.73,0-.43,0-5.13-.03-6.03-.03-.71,0-1.15-1.32-1.15h-1.96c-.19,0-.23-.09-.23-.22v-.81c0-.09.03-.19.23-.19.32,0,1.19.09,3.93.09,1.52,0,2.35-.09,2.73-.09.49,0,.67.12.84.53l7.15,16.6h.02Z"/><path class="cls-1" d="m206.16,44.15c-.32.78-2.09,5.51-2.25,6.15-.03.22-.1.53-.1.69,0,.43.39.69,1.09.69h1.51c.23,0,.32.06.32.22v.71c0,.22-.1.28-.26.28-.45,0-1.77-.09-3.67-.09-2.35,0-3.06.09-3.51.09-.16,0-.23-.06-.23-.25v-.75c0-.16.13-.22.26-.22h1.13c.97,0,1.42-.43,1.87-1.43.23-.5,2.57-6.25,3.51-8.8.23-.62,2.83-7.31,3.12-8.15.1-.31.26-.71.03-1.06-.1-.12-.23-.28-.23-.4,0-.09.06-.22.29-.28.9-.19,2.32-1.12,2.67-1.55.16-.16.26-.28.42-.28.19,0,.26.19.36.53.61,1.96,3.12,8.93,3.73,10.92.74,2.42,2.83,8.21,3.28,9.12.54,1.02,1.39,1.4,2.19,1.4h1.06c.19,0,.26.09.26.22v.78c0,.16-.1.22-.32.22-.58,0-1.26-.09-3.86-.09s-3.8.09-4.54.09c-.16,0-.26-.09-.26-.28v-.71c0-.19.1-.22.29-.22h.8c.9,0,1.19-.31.97-1.18-.26-1.12-1.57-5.1-2.03-6.34h-7.92v-.03Zm7.53-1.12c-.29-.93-2.9-8.71-3.06-9.17-.1-.22-.16-.43-.26-.43-.13,0-.26.22-.36.47-.16.4-3.22,8.36-3.45,9.14h7.12Z"/><path class="cls-1" d="m226.73,34.82c0-1.83-.97-2.86-2.12-2.89l-1.32-.03c-.16,0-.19-.12-.19-.22v-.81c0-.12.03-.19.19-.19s.42.03.9.03c.49.03,1.19.06,2.29.06s1.77-.06,2.16-.06c.42,0,.67.12.93.4l6.76,8.46c.36.43,5.79,6.87,6.57,7.87h.13v-3.7c0-2.77-.03-4.29-.1-5.84-.03-1.21-.19-4.26-.39-4.79-.26-.78-.87-1.21-1.77-1.21h-1.03c-.13,0-.19-.06-.19-.22v-.81c0-.12.06-.19.19-.19.45,0,1.48.09,3.54.09,1.93,0,2.7-.09,3.12-.09.23,0,.26.09.26.22v.78c0,.12-.06.22-.19.22h-.87c-.87,0-1.19.53-1.26,1.71-.13,2.09-.13,5.16-.13,7.18v11.63c0,.43-.03.75-.16.75-.39,0-.67-.38-.77-.5l-3.93-4.79c-2.25-2.71-4.6-5.57-4.79-5.75-.36-.31-6.28-7.5-6.47-7.74h-.19v6.91c0,2.89.26,7.96.32,8.58.13,1.21.32,1.8,1.19,1.8h.97c.23,0,.26.09.26.28v.69c0,.19-.03.25-.26.25-.32,0-2.25-.09-3.12-.09-.67,0-2.9.09-3.22.09-.13,0-.16-.06-.16-.22v-.81c0-.09.03-.19.19-.19h1.09c.93,0,1.29-.38,1.45-1.9.06-.59.13-4.13.13-9.67v-5.29Z"/><path class="cls-1" d="m259.15,51.65c-.39-.28-.58-.38-.74-.38-.19,0-.32.22-.51.53-.19.34-.36.38-.58.38-.19,0-.36-.16-.29-.5.13-.78.45-4.73.54-5.63.03-.19.1-.19.23-.19l.49.03c.13,0,.19.06.19.25.03,1,.1,2.02,1.16,3.61.97,1.46,2.73,2.3,4.51,2.3,1.93,0,4.38-1.15,4.38-3.95,0-3.2-2.38-4.39-4.96-5.25-1-.34-3.32-1.12-4.7-2.52-1.06-1.02-1.61-2.49-1.61-4.54,0-1.55,1-3.08,2-3.98,1.16-1.06,2.77-1.49,4.51-1.49,1.83,0,3.25.53,3.8.78.29.16.45.12.61-.03l.42-.38c.16-.12.26-.19.42-.19s.26.25.26.53c0,1.09.42,4.26.45,4.94,0,.16-.03.22-.16.25l-.39.09c-.1.03-.16,0-.19-.09-.26-.9-.67-2.11-2-3.45-.87-.9-2-1.33-3.51-1.33-2.86,0-3.89,2.05-3.89,3.64,0,.87.19,1.9,1,2.71.93.9,2.73,1.59,3.67,1.87,2.22.69,4.02,1.21,5.18,2.58.84.97,1.42,2.18,1.42,4.23,0,3.67-2.32,6.81-6.56,6.81-2.25,0-3.83-.65-5.12-1.62h-.03Z"/><path class="cls-1" d="m276.86,50.4c-2.32-2.11-3.45-5.72-3.45-8.71s.97-5.88,3.28-8.24c1.64-1.68,4.54-3.14,8.05-3.14,2.93,0,5.34,1.06,6.5,1.71.42.25.58.22.64,0l.26-.9c.06-.19.13-.19.42-.19s.36.06.36.5c0,.59.64,5.16.8,6.03.03.16,0,.28-.13.31l-.49.12c-.16.03-.23,0-.32-.25-.45-1.02-1.16-2.52-2.51-3.85s-3.06-2.4-5.6-2.4c-5.76,0-8.08,4.94-8.05,9.48,0,1.8.58,5.32,3.09,7.99,2.19,2.36,4.02,2.61,6.18,2.61,3.63,0,6.47-1.93,7.95-3.95.1-.16.16-.19.26-.09l.42.31c.1.06.16.12.06.28-1.93,2.71-5.05,5.22-9.59,5.22-3.8,0-6.21-1.15-8.14-2.86h0Z"/><path class="cls-1" d="m299.55,40.54c0-1.93-.06-6.13-.06-6.63,0-1.59-.23-2.02-1.42-2.02h-1.51c-.16,0-.19-.06-.19-.25v-.75c0-.16.1-.22.26-.22.64,0,1.67.09,4.51.09,2.51,0,3.67-.09,4.28-.09.23,0,.32.03.32.16v.81c0,.19-.06.25-.26.25h-1.64c-1.09,0-1.26.53-1.26,1.78,0,.43-.06,4.54-.06,6.28v.53c0,.16.1.25.39.25h11.91c.49,0,.64-.06.64-.47v-.31c0-1.78-.1-6.1-.1-6.47,0-1-.13-1.59-1.06-1.59h-1.67c-.16,0-.23-.06-.23-.22v-.81c0-.12.03-.19.19-.19.67,0,2.06.09,4.25.09s3.51-.09,4.12-.09c.23,0,.26.06.26.25v.75c0,.19-.06.22-.26.22h-1.45c-.93,0-1.03.53-1.03,1.65,0,.43-.06,5.69-.06,6.84v1.06c0,1,.06,6.91.1,8.67,0,1.12.32,1.55,1.29,1.55h1.42c.23,0,.29.06.29.22v.75c0,.19-.06.25-.26.25-.61,0-1.7-.09-4.06-.09-2.8,0-3.83.09-4.79.09-.13,0-.19-.09-.19-.22v-.78c0-.16.06-.22.26-.22h2.03c.77,0,.87-.59.87-1.43.03-1.46.1-6.47.1-7.59v-.43c0-.34-.16-.38-.71-.38h-11.78c-.36,0-.45.09-.45.31v.65c0,.84.03,5.63.06,7.81.03.75.36,1.06,1.03,1.06h1.57c.19,0,.26.06.26.22v.78c0,.16-.06.22-.26.22-.61,0-1.74-.09-4.06-.09-2.77,0-3.73.09-4.48.09-.16,0-.23-.06-.23-.22v-.81c0-.12.1-.19.23-.19h1.9c.8,0,.9-.75.9-1.49.03-1.46.1-7.5.1-8.31v-1.33h0Z"/><path class="cls-1" d="m328.33,51.24c-2.29-1.33-4.73-4.7-4.73-9.24,0-1.9.51-4.85,2.99-7.74,2.83-3.33,6.02-3.95,8.72-3.95,2.03,0,4.66.4,7.21,2.46,2.35,1.96,4.41,5.01,4.41,9.3,0,2.27-.74,4.63-2.42,6.81-1.96,2.52-4.83,4.39-9.27,4.39-1.57,0-4.38-.5-6.92-2.02h0Zm15.45-8.93c0-6.81-5.02-10.83-8.6-10.83-.49,0-2.67-.38-5.09,1.83-2.16,1.99-3.22,5.13-3.22,7.68,0,8.18,5.89,11.07,8.63,11.07,7.08,0,8.27-7,8.27-9.76Z"/><path class="cls-1" d="m354.11,51.24c-2.29-1.33-4.73-4.7-4.73-9.24,0-1.9.51-4.85,2.99-7.74,2.83-3.33,6.02-3.95,8.72-3.95,2.03,0,4.66.4,7.21,2.46,2.35,1.96,4.41,5.01,4.41,9.3,0,2.27-.74,4.63-2.42,6.81-1.96,2.52-4.83,4.39-9.27,4.39-1.57,0-4.38-.5-6.92-2.02h0Zm15.45-8.93c0-6.81-5.02-10.83-8.6-10.83-.49,0-2.67-.38-5.09,1.83-2.16,1.99-3.22,5.13-3.22,7.68,0,8.18,5.89,11.07,8.63,11.07,7.08,0,8.27-7,8.27-9.76h0Z"/><path class="cls-1" d="m378.13,38.86c0-1.99-.06-5.29-.1-5.84-.06-.81-.23-1.12-1.19-1.12h-1.51c-.19,0-.23-.16-.23-.31v-.69c0-.16.03-.22.23-.22.36,0,1.51.09,4.19.09,3.12,0,4.48-.09,4.76-.09.26,0,.29.09.29.25v.71c0,.16-.06.25-.32.25h-1.93c-1,0-1.13.31-1.13,1.21,0,.4-.1,5.1-.1,7.28v2.68c0,.53,0,7.25.1,8.52.71.06,7.08.12,8.08,0,1.9-.28,3.83-4.01,4.28-5.22.06-.12.13-.19.26-.12l.51.19c.1.06.1.09.06.28-.1.22-1.39,5.35-1.57,6.19-.42-.03-2.93-.06-5.79-.06-2.86-.03-6.02-.03-7.75-.03-1.26,0-2.19.03-2.86.03-.64.03-1.03.06-1.26.06s-.26-.06-.26-.22v-.78c0-.16.03-.22.23-.22h1.54c1.19,0,1.39-.43,1.39-.84,0-.59.1-8.33.1-10.23v-1.74.02Z"/><path class="cls-1" d="m86.32,78.25c0-3.92,3.06-9.24,7.34-9.24,2.16,0,3.45,1.52,3.45,3.64,0,3.42-2.8,9.61-7.47,9.61-1.77,0-3.32-1.65-3.32-4.01h0Zm9.5-6.06c.03-.97-.54-1.74-1.61-1.74-1.35,0-3.06,1.18-4.66,3.7-1.09,1.68-1.87,3.58-1.87,5.04,0,1,.71,1.59,1.48,1.59,3.35,0,6.66-6.53,6.66-8.58h0Z"/><path class="cls-1" d="m98.97,71c-.16,0-.23-.09-.16-.31l.13-.53c.06-.22.13-.31.39-.31h2.8c.97-2.68,2.06-5.25,3.76-7.09.9-1,2.67-2.11,4.76-2.11,1.87,0,2.9,1.09,2.9,1.83,0,.97-.64,1.43-1.29,1.43-1.03,0-1.32-.56-1.42-1.24-.03-.31-.36-.9-1.32-.9-2.99,0-4.15,4.6-5.22,8.09h3.12c.19,0,.26.09.19.38l-.16.56c-.03.19-.1.22-.36.22h-3.06c-.84,2.52-2.32,7.9-3.93,11.88-1.96,4.85-4.25,8.31-7.69,8.31-1.29,0-2.32-.84-2.32-1.83,0-.71.54-1.33,1.39-1.33.93,0,1.42.87,1.51,1.4.06.31.29.53.54.53,1.54,0,3.28-2.61,5.02-8.36l3.25-10.57h-2.86v-.02Z"/><path class="cls-1" d="m119.35,68.42c0-1.15-.06-4.94-.1-5.51-.1-1.8-.61-1.87-2.09-1.87h-1c-.19,0-.26-.06-.26-.22v-.78c0-.16.06-.22.26-.22.51,0,1.96.09,4.28.09,1.03,0,2.96-.09,4.09-.09,2.51,0,4.57.22,5.69.84,1.83.97,2.48,2.4,2.48,4.23,0,3.08-1.42,3.85-3.93,5.13l.1.06c3.12,1,5.22,2.86,5.22,6.15,0,1.59-1,3.76-2.48,4.66-1.35.81-3.19,1.12-6.15,1.12-2.22,0-3.48-.09-4.83-.09-1.61,0-3.51.09-4.12.09-.39,0-.45-.06-.45-.19v-.81c0-.16.06-.22.29-.22h1.54c1,0,1.16-.38,1.29-1.37.1-.71.16-4.82.16-7.37v-3.67h0Zm2.83,1.21c.61.06,1.16.06,1.7.06,1.83,0,3.28-.28,4.06-.81,1.32-.97,1.8-2.36,1.8-3.73,0-1.18-.39-2.42-1.57-3.27-1.16-.78-2.77-1.06-4.41-1.06-.45,0-.8-.03-1.06.03-.26.06-.45.28-.45.56-.03.62-.06,3.33-.06,5.91v2.3h0Zm0,7.28c0,2.86.71,4.13,3.38,4.13s5.18-1.24,5.18-4.94c0-2.52-1.32-4.17-3.22-4.88-1.32-.5-2.83-.53-4.31-.53h-1.03v6.22h0Z"/><path class="cls-1" d="m143.07,81.76c-2.19-.84-3.32-2.21-3.83-4.17-.39-1.4-.51-3.49-.51-7.56v-7.4c0-1.09-.23-1.59-1.22-1.59h-1.52c-.19,0-.23-.06-.23-.28v-.69c0-.19.03-.25.29-.25.32,0,1.9.09,4.41.09s4.06-.09,4.41-.09c.26,0,.29.06.29.19v.81c0,.16-.03.22-.26.22h-1.61c-.93,0-1.48.59-1.54,1.28-.03.28-.06,2.46-.06,4.04v2.05c0,1.65.13,5.6.16,6.6.03,1.43.29,2.89,1.03,3.95,1.19,1.68,3.25,2.24,5.12,2.24s3.7-.59,4.83-1.71c1.26-1.31,1.67-3.17,1.67-5.47v-6.65c0-2.36-.06-4.17-.16-4.94-.1-.81-.61-1.37-1.45-1.37h-1.42c-.19,0-.23-.09-.23-.25v-.75c0-.16.03-.22.23-.22.32,0,1.8.09,3.96.09s3.25-.09,3.54-.09.32.12.32.22v.69c0,.19-.03.31-.19.31h-1.32c-1.19,0-1.29.87-1.39,1.24-.06.31-.06,4.73-.06,5.16s-.06,5.88-.16,7.09c-.19,2.55-.9,4.51-2.7,6-1.29,1.15-3.25,1.87-6.05,1.87-1.67,0-3.28-.22-4.35-.65v-.03Z"/><path class="cls-1" d="m163.16,80.8c-.39-.28-.58-.38-.74-.38-.19,0-.32.22-.51.53-.19.34-.36.38-.58.38-.19,0-.36-.16-.29-.5.13-.78.45-4.73.54-5.63.03-.19.1-.19.23-.19l.49.03c.13,0,.19.06.19.25.03,1,.1,2.02,1.16,3.61.97,1.46,2.73,2.3,4.51,2.3,1.93,0,4.38-1.15,4.38-3.95,0-3.2-2.38-4.39-4.96-5.25-1-.34-3.32-1.12-4.7-2.52-1.06-1.02-1.61-2.49-1.61-4.54,0-1.55,1-3.08,2-3.98,1.16-1.06,2.77-1.49,4.51-1.49,1.83,0,3.25.53,3.8.78.29.16.45.12.61-.03l.42-.38c.16-.12.26-.19.42-.19s.26.25.26.53c0,1.09.42,4.26.45,4.94,0,.16-.03.22-.16.25l-.39.09c-.1.03-.16,0-.19-.09-.26-.9-.67-2.11-2-3.45-.87-.9-2-1.33-3.51-1.33-2.86,0-3.89,2.05-3.89,3.64,0,.87.19,1.9,1,2.71.93.9,2.73,1.59,3.67,1.87,2.22.69,4.02,1.21,5.18,2.58.84.97,1.42,2.18,1.42,4.23,0,3.67-2.32,6.81-6.57,6.81-2.25,0-3.83-.65-5.12-1.62h-.02Z"/><path class="cls-1" d="m180.38,68.92c0-.75-.1-6.34-.13-6.81-.06-.75-.39-1.06-1.61-1.06h-1.87c-.16,0-.26-.06-.26-.19v-.84c0-.12.1-.19.23-.19.39,0,2.03.09,5.02.09s3.89-.09,4.35-.09c.16,0,.23.09.23.22v.78c0,.16-.1.22-.26.22h-1.51c-.64,0-1.13.25-1.13.87,0,.31-.1,7.18-.1,7.56v2.4c0,.31.1,7.5.1,7.84,0,.97.49,1.12,1.51,1.12h1.32c.16,0,.26.06.26.22v.81c0,.12-.1.19-.29.19-.39,0-1.67-.09-4.48-.09-3.06,0-4.44.09-4.79.09-.16,0-.26-.06-.26-.19v-.84c0-.12.1-.19.26-.19h1.8c.64,0,1.32-.09,1.45-.9.06-.47.16-7.18.16-8.83v-2.18h0Z"/><path class="cls-1" d="m191.52,63.97c0-1.83-.97-2.86-2.12-2.89l-1.32-.03c-.16,0-.19-.12-.19-.22v-.81c0-.12.03-.19.19-.19s.42.03.9.03c.49.03,1.19.06,2.29.06s1.77-.06,2.16-.06c.42,0,.67.12.93.4l6.76,8.46c.36.43,5.79,6.87,6.57,7.87h.13v-3.7c0-2.77-.03-4.29-.1-5.84-.03-1.21-.19-4.26-.39-4.79-.26-.78-.87-1.21-1.77-1.21h-1.03c-.13,0-.19-.06-.19-.22v-.81c0-.12.06-.19.19-.19.45,0,1.48.09,3.54.09,1.93,0,2.7-.09,3.12-.09.23,0,.26.09.26.22v.78c0,.12-.06.22-.19.22h-.87c-.87,0-1.19.53-1.26,1.71-.13,2.09-.13,5.16-.13,7.18v11.63c0,.43-.03.75-.16.75-.39,0-.67-.38-.77-.5l-3.93-4.79c-2.25-2.71-4.6-5.57-4.79-5.75-.36-.31-6.28-7.5-6.47-7.74h-.19v6.91c0,2.89.26,7.96.32,8.58.13,1.21.32,1.8,1.19,1.8h.97c.23,0,.26.09.26.28v.69c0,.19-.03.25-.26.25-.32,0-2.25-.09-3.12-.09-.67,0-2.9.09-3.22.09-.13,0-.16-.06-.16-.22v-.81c0-.09.03-.19.19-.19h1.09c.93,0,1.29-.38,1.45-1.9.06-.59.13-4.13.13-9.67v-5.29h0Z"/><path class="cls-1" d="m219.78,70.04c.26,0,3.7-.12,4.09-.19.93-.16,1.19-.4,1.48-1.37.1-.31.23-.93.26-1.52,0-.16.1-.22.23-.22l.8.03c.16,0,.23.12.19.25-.1.53-.1,3.08-.1,3.54,0,1.09.13,2.58.19,3.23,0,.16-.06.22-.19.25l-.71.09c-.16.03-.23-.06-.26-.28-.06-.4-.26-1.12-.36-1.46-.19-.65-.54-1.12-1.39-1.21-1.51-.16-3.73-.16-4.25-.16v1.93c0,1.68.06,4.7.06,5.32.03,1.62.84,2.24,1.83,2.42.64.12,1.57.22,2.38.22.54,0,2.16-.03,2.83-.09.54-.06,1.96-.4,2.8-1.09.39-.31,2.19-2.55,2.64-3.27.1-.16.19-.28.39-.19l.51.28c.16.09.16.19.06.43l-1.7,4.57c-.1.28-.32.47-.71.47-.16,0-.87-.03-2.8-.06-1.93,0-5.05-.03-10.07-.03-1.19,0-2.09.03-2.73.03-.67.03-1.09.06-1.39.06-.19,0-.29-.06-.29-.22v-.84c0-.12.1-.16.32-.16h1.29c1.48,0,1.61-.22,1.61-1.37v-10.42c0-2.58-.06-6.47-.1-6.78-.13-1-.45-1.21-1.64-1.21h-1.16c-.16,0-.26-.03-.26-.22v-.84c0-.09.06-.16.23-.16.71,0,1.83.09,3.96.09h1.42c3.19,0,6.37-.03,9.56-.03.51,0,1.13-.06,1.29-.06s.23.06.26.16l1.64,5.01c.03.12.03.22-.1.28l-.49.25c-.1.06-.23-.03-.26-.09-.06-.12-2.45-3.08-3.22-3.54-.67-.43-1.57-.81-2.45-.84l-5.73-.12v9.13Z"/><path class="cls-1" d="m237.97,80.8c-.39-.28-.58-.38-.74-.38-.19,0-.32.22-.51.53-.19.34-.36.38-.58.38-.19,0-.36-.16-.29-.5.13-.78.45-4.73.54-5.63.03-.19.1-.19.23-.19l.49.03c.13,0,.19.06.19.25.03,1,.1,2.02,1.16,3.61.97,1.46,2.73,2.3,4.51,2.3,1.93,0,4.38-1.15,4.38-3.95,0-3.2-2.38-4.39-4.96-5.25-1-.34-3.32-1.12-4.7-2.52-1.06-1.02-1.61-2.49-1.61-4.54,0-1.55,1-3.08,2-3.98,1.16-1.06,2.77-1.49,4.51-1.49,1.83,0,3.25.53,3.8.78.29.16.45.12.61-.03l.42-.38c.16-.12.26-.19.42-.19s.26.25.26.53c0,1.09.42,4.26.45,4.94,0,.16-.03.22-.16.25l-.39.09c-.1.03-.16,0-.19-.09-.26-.9-.67-2.11-2-3.45-.87-.9-2-1.33-3.51-1.33-2.86,0-3.89,2.05-3.89,3.64,0,.87.19,1.9,1,2.71.93.9,2.73,1.59,3.67,1.87,2.22.69,4.02,1.21,5.18,2.58.84.97,1.42,2.18,1.42,4.23,0,3.67-2.32,6.81-6.56,6.81-2.25,0-3.83-.65-5.12-1.62h-.03Z"/><path class="cls-1" d="m254.97,80.8c-.39-.28-.58-.38-.74-.38-.19,0-.32.22-.51.53-.19.34-.36.38-.58.38-.19,0-.36-.16-.29-.5.13-.78.45-4.73.54-5.63.03-.19.1-.19.23-.19l.49.03c.13,0,.19.06.19.25.03,1,.1,2.02,1.16,3.61.97,1.46,2.73,2.3,4.51,2.3,1.93,0,4.38-1.15,4.38-3.95,0-3.2-2.38-4.39-4.96-5.25-1-.34-3.32-1.12-4.7-2.52-1.06-1.02-1.61-2.49-1.61-4.54,0-1.55,1-3.08,2-3.98,1.16-1.06,2.77-1.49,4.51-1.49,1.83,0,3.25.53,3.8.78.29.16.45.12.61-.03l.42-.38c.16-.12.26-.19.42-.19s.26.25.26.53c0,1.09.42,4.26.45,4.94,0,.16-.03.22-.16.25l-.39.09c-.1.03-.16,0-.19-.09-.26-.9-.67-2.11-2-3.45-.87-.9-2-1.33-3.51-1.33-2.86,0-3.89,2.05-3.89,3.64,0,.87.19,1.9,1,2.71.93.9,2.73,1.59,3.67,1.87,2.22.69,4.02,1.21,5.18,2.58.84.97,1.42,2.18,1.42,4.23,0,3.67-2.32,6.81-6.56,6.81-2.25,0-3.83-.65-5.12-1.62h-.03Z"/><line class="cls-2" x1="75.57" y1=".73" x2="75.57" y2="89.4"/></svg>