<?xml version="1.0" encoding="UTF-8"?>
<svg id="Layer_1" data-name="Layer 1" xmlns="http://www.w3.org/2000/svg" viewBox="0 0 487.53 109.88">
  <defs>
    <style>
      .cls-1 {
        fill: #fff;
      }
    </style>
  </defs>
  <path class="cls-1" d="M53.5,75.96c-1.14,2.84-7.06,11.58-7.06,11.58,0,0,.07-10.17.04-13.18-.04-4.51-11.39-11.49-13.14-12.89-1.85-1.48-8.41-4.94-8.8-12.27-.4-7.84,0-17.36,0-17.36,0,0,1.88,5.59,2.74,7.65,2.16,5.16,16,14.71,19.02,16.85,2.99,2.12,5.87,4.13,7.76,8.27,1.36,3,.58,8.51-.57,11.36ZM72.79,75.11c-2.11,5.53-7.22,12.25-7.22,12.25,0,0-.15-10.68-.13-14.02.03-8.57-14.06-17.85-14.06-17.85-1.22-1.12-6.48-4.77-6.73-10.5-.21-4.84-.29-13.19-.29-13.19,0,0,1.93,3.88,4.18,6.08,5.05,4.96,15.55,13.07,18.39,15.24,3.87,2.96,5.9,5.62,7.28,10.45,1.38,4.83-1.4,11.53-1.4,11.53ZM67.59,34.15c2.2,5.44,8.49,9.44,12.08,12.52,3.59,3.08,4.83,5.18,4.36,9.8-.65,6.44-6.03,14.24-6.03,14.24,0,0,.76-7-.1-10.23-1.38-5.28-9.2-10.26-10.46-12.81-1.18-2.38-1.15-6.83-1.15-6.83l-.09-9.57,1.39,2.88ZM230.2,93.1c0,2.44-1.27,3.69-3.33,3.69s-3.35-1.32-3.35-3.79v-7.54h-2.33v7.63c0,3.84,2.2,5.83,5.64,5.83s5.7-1.99,5.7-5.95v-7.52h-2.33v7.63ZM250.53,94.63l-7.1-9.17h-2.16v13.26h2.29v-9.43l7.31,9.43h1.95v-13.26h-2.29v9.17ZM237,63.9c-.24-.16-.36-.05-.6.22-.3.38-1.15.82-2.12.82-1.09,0-1.82-.98-1.82-4.08v-11.55c0-1.47-.06-2.72-1.33-3.87-.84-.71-2-1.47-4.84-1.47s-4.84.54-7.38,1.91c-2.48,1.31-4.18,3.38-4.18,5.12,0,1.25.49,1.74,1.46,1.74,2.48,0,3.21-1.2,3.21-3.11,0-.98-.55-1.8.3-2.51.85-.71,2.72-1.15,3.94-1.15,1.76,0,2.96.49,3.63,1.2.66.71.73,2.12.85,3.05v3.49c-.97.76-4.12,2.07-6.84,3.16-4.78,1.91-6.05,4.09-6.05,6.59,0,3.43,2.18,4.52,3.63,4.52,1.33,0,2.42,0,3.57-.33,2.72-.82,4.72-1.96,5.99-3.32h.12c.54,2.23,2.12,3.65,4.3,3.65,3.09,0,4.24-1.85,4.72-2.67.36-.55.24-.82.06-.98l-.61-.44ZM228.05,62.05c0,1.47-3.21,3.38-4.96,3.38s-3.15-.98-3.15-3c0-4.52,5.93-5.61,8.11-7.08v6.7ZM103.78,3.94C96.87,1.3,89.27.01,80.52,0h-.14c-9.63.02-19.39,1.58-28.88,3.1-9.5,1.52-18.48,2.96-27.32,2.96C13.68,6.06,4.56,3.47,0,1.89v40.32c0,27.5,19.9,53.11,51.93,66.84l1.92.83,1.92-.83c32.03-13.73,51.93-39.34,51.93-66.84V5.6l-2.48-1.04-1.45-.62ZM4.36,6.68c31.6,10.76,67.69-11.9,98.99,1.09C70.35-1.14,37.35,25.21,4.36,16.18V6.68ZM103.44,42.21c0,27.19-19.95,50.91-49.59,63.61C24.22,93.12,4.26,69.4,4.26,42.21v-21.9c31.66,10.78,67.84-11.99,99.17,1.16v20.73ZM210.37,65.53h-.97c-1.09,0-1.94-.38-2.66-1.14-2.66-2.89-5.08-6.21-7.51-9.43,1.27-1.41,6.42-7.14,7.45-7.9.6-.44,1.21-.65,2.36-.65h.97c.42,0,.48-.11.48-.44v-.98c0-.33-.06-.54-.54-.54-.42,0-1.03.16-3.45.16-3.45,0-4.48-.16-5.21-.16-.24,0-.3.11-.3.43v1.15c0,.22.06.38.36.38h.73c1.03,0,1.21,1.09.66,1.74l-4.6,5.45-3.75-5.34c-.73-.98-.73-1.85.24-1.85h.55c.24,0,.36-.11.36-.44v-1.04c0-.33-.06-.49-.36-.49-.55,0-2.79.16-5.63.16s-4.48-.16-4.96-.16c-.42,0-.48.11-.48.49v1.09c0,.16.06.38.42.38h1.7c.85,0,1.7.22,2.18.76,1.39,1.36,4.84,5.77,7.14,8.99-1.03,1.04-6.66,7.79-7.81,8.72-.48.44-1.15.65-2.48.65h-1.58c-.42,0-.48.22-.48.49v.98c0,.27.06.49.54.49.61,0,1.64-.16,4.66-.16,2.6,0,4.18.16,4.72.16.36,0,.42-.22.42-.44v-1.09c0-.22-.06-.44-.3-.44h-1.27c-.72,0-.97-.6-.66-1.2.42-.87,4.42-5.72,5.27-6.81l4.36,6.27c.67.93.3,1.74-.36,1.74h-.91c-.42,0-.48.16-.48.54v.93c0,.27.06.49.48.49.67,0,2.48-.16,5.93-.16,2.97,0,4.12.16,4.66.16.36,0,.42-.22.42-.44v-1.09c0-.33-.06-.44-.3-.44ZM250,53.82c-2.97-.76-5.81-1.36-5.81-4.52,0-2.35,2.36-3.6,4.66-3.6s3.51,1.09,4.24,2.12l2.06,2.51c.18.27.3.33.54.27l.73-.22c.3-.11.42-.28.42-.49l-.91-3.81c-.06-.33-.19-.6-1.09-.98-1.09-.49-2.66-1.14-5.57-1.14-4.54,0-8.48,2.89-8.48,6.65,0,4.3,3.57,5.99,7.14,6.92,4.54,1.14,5.87,2.56,5.87,5.01s-2.66,3.71-4.78,3.71c-3.21,0-4.05-1.36-5.26-3.38l-1.51-2.67c-.12-.27-.3-.38-.55-.33l-.78.16c-.24.05-.42.16-.37.44l1.03,5.18c.06.27.06.6.36.76.72.49,3.15,1.58,6.11,1.58,5.15,0,9.14-2.78,9.2-7.19-.06-4.19-2.84-5.83-7.26-6.97ZM182.05,61.23l-.78-.38c-.18-.06-.42.05-.54.27-1.03,1.8-3.63,3.7-7.33,3.7-4.84,0-8.59-4.03-8.59-9.37,0-1.25.06-2.12.18-2.61h14.95c.97,0,1.7-.11,1.7-.87,0-2.12-1.94-8.01-8.9-8.01-3.03,0-6.05.49-8.66,2.89-3.21,2.89-3.81,6.54-3.81,8.66,0,3.81.54,5.83,2.66,8.61,2.24,2.94,6.05,3.87,9.5,3.87,5.39,0,8.54-3.76,9.62-5.94.3-.6.18-.76,0-.82ZM171.58,45.59c3.94,0,4.66,3.6,4.66,4.85,0,.49-.48.76-1.64.76h-9.38c1.15-4.03,3.69-5.61,6.35-5.61ZM154.09,65.37h-3.81c-1.46,0-1.94-.82-2.06-2.18-.06-.93-.06-16.18-.06-16.95v-15.53h1.7c2.96,0,8.66.11,10.47.93,2,.87,3.81,5.07,4.3,6.1.18.38.24.44.48.38l.97-.22c.3-.05.42-.16.36-.44-.48-2.4-1.64-9.15-1.76-9.81-.12-.71-.24-.87-.54-.87-.24,0-.42.05-.73.22l-1.15.65c-1.03.54-1.82.71-3.15.76-2.97.11-5.57.33-12.17.33h-2.9c-5.69,0-8.23-.22-11.44-.33-1.76-.05-2.36-.22-3.45-.93l-.79-.49c-.24-.16-.42-.22-.72-.22-.24,0-.48.16-.6.87-.12.6-2.24,7.63-2.85,9.59-.12.33.06.38.24.44l1.09.27c.3.05.48,0,.61-.27.84-1.74,2.66-5.56,5.38-6.32,2.36-.65,7.63-.65,9.56-.65h1.52v14c0,1.04,0,17.76-.18,19.34-.06.65-.78,1.31-2,1.31h-4.12c-.36,0-.42.16-.42.54v1.04c0,.33.06.55.54.55.85,0,3.39-.16,9.2-.16s7.87.16,8.48.16c.54,0,.6-.16.6-.44v-1.14c0-.38-.06-.54-.6-.54ZM356.9,87.63h4.2v11.1h2.35v-11.1h4.2v-2.16h-10.75v2.16ZM381.05,91.34l-3.71-5.87h-2.75l5.26,8.03v5.23h2.35v-5.28l5.27-7.97h-2.67l-3.75,5.87ZM404.37,61.23l-.79-.38c-.18-.06-.42.05-.54.27-1.03,1.8-3.63,3.7-7.33,3.7-4.84,0-8.59-4.03-8.59-9.37,0-1.25.06-2.12.18-2.61h14.95c.97,0,1.7-.11,1.7-.87,0-2.12-1.94-8.01-8.9-8.01-3.03,0-6.05.49-8.65,2.89-3.21,2.89-3.81,6.54-3.81,8.66,0,3.81.54,5.83,2.66,8.61,2.24,2.94,6.05,3.87,9.5,3.87,5.39,0,8.54-3.76,9.62-5.94.3-.6.18-.76,0-.82ZM393.9,45.59c3.94,0,4.66,3.6,4.66,4.85,0,.49-.48.76-1.63.76h-9.38c1.15-4.03,3.69-5.61,6.35-5.61ZM380.97,66.95v-.93c0-.33-.12-.49-.67-.49h-2.72c-1.27,0-1.51-.76-1.57-1.69-.06-1.69-.06-9.92-.06-12.75v-4.85c0-3,.18-14.33.24-17.33.06-.71-.06-.98-.48-.98-.36,0-.73.11-1.27.44-2.24,1.31-4.96,2.29-7.08,3.16-.36.11-.54.22-.54.38v.44c0,.11.06.16.36.27l1.21.38c1.94.55,2.9,1.42,3.03,3.27.12,1.42.18,6.38.18,10.24v3.43c0,3.16,0,12.53-.06,14.22-.06.98-.67,1.36-1.33,1.36h-2.9c-.67,0-.79.11-.79.49v.93c0,.33.12.55.42.55.54,0,2.96-.16,6.84-.16s6.42.16,6.84.16c.24,0,.36-.22.36-.55ZM432.4,44.45c-.67,0-2.06.16-3.69.16-2.9,0-4.18-.16-4.96-.16-.3,0-.36.16-.36.43v1.09c0,.27.06.44.42.44h.97c.91,0,1.39.71,1.03,2.07-.36,1.36-5.63,12.64-6.23,13.51h-.24c-.66-1.2-4.78-13.19-4.96-14.38-.12-.82.12-1.2.79-1.2h1.15c.3,0,.36-.16.36-.44v-1.14c0-.22-.06-.38-.55-.38-.66,0-2.54.16-5.63.16-3.57,0-5.02-.16-5.57-.16-.42,0-.48.16-.48.38v1.09c0,.33.06.49.48.49h1.57c1.58,0,2.12.93,2.85,2.29.49,1.14,6.9,18.14,7.2,19.51-.85,2.12-2.53,5.77-3.44,6.75-.37.33-.85.38-1.27.33-.54-.11-1.64-.6-2.79-.6-1.45,0-2.78.98-2.78,2.12,0,1.64,1.15,2.78,3.45,2.78,3.21,0,4.3-2.12,5.14-3.54,1.09-1.8,2.05-4.29,5.02-10.34,4.18-8.55,8.17-16.84,9.5-18.31.61-.71,1.46-.98,2.12-.98h.97c.3,0,.3-.16.3-.49v-1.04c0-.22,0-.43-.36-.43ZM486.86,65.53h-1.94c-.79,0-1.33-.27-1.33-1.14v-14.05c0-1.36-1.51-4.09-3.33-5.18-1.45-.87-3.33-1.2-5.14-1.2-3.03,0-6.54,2.01-8.29,3.98h-.12l-.42-3.32c-.06-.44-.18-.65-.48-.65-.24,0-.6.16-1.09.38l-5.21,2.61c-.3.11-.54.28-.54.55v.27c0,.16.06.33.48.49l.48.22c1.52.65,2.48,1.58,2.48,3.21v12.75c0,.93-.42,1.09-1.21,1.09h-1.76c-.48,0-.6.16-.6.49v.98c0,.33.12.49.42.49.36,0,2.3-.16,5.39-.16s4.84.16,5.26.16c.3,0,.42-.16.42-.49v-.93c0-.38-.12-.54-.6-.54h-1.51c-1.27,0-1.45-.33-1.45-1.8v-11.28c0-1.04.18-2.51,1.39-3.71,1.82-1.74,3.94-2.12,4.9-2.12,1.51,0,2.97,0,4.42.98,1.76,1.14,1.76,2.72,1.76,4.9v7.19c0,1.42-.06,3.16-.12,4.58-.06.98-.54,1.25-1.21,1.25h-1.76c-.6,0-.79.11-.79.49v.87c0,.44.12.6.48.6.43,0,2.36-.16,5.45-.16,3.45,0,5.33.16,5.75.16.37,0,.48-.22.48-.6v-.87c0-.33-.12-.49-.67-.49ZM456.3,63.9c-.24-.16-.36-.05-.6.22-.3.38-1.15.82-2.12.82-1.09,0-1.82-.98-1.82-4.08v-11.55c0-1.47-.06-2.72-1.33-3.87-.84-.71-2-1.47-4.84-1.47s-4.84.54-7.38,1.91c-2.48,1.31-4.18,3.38-4.18,5.12,0,1.25.49,1.74,1.45,1.74,2.48,0,3.21-1.2,3.21-3.11,0-.98-.55-1.8.3-2.51.85-.71,2.72-1.15,3.94-1.15,1.76,0,2.96.49,3.63,1.2.67.71.73,2.12.85,3.05v3.49c-.97.76-4.12,2.07-6.84,3.16-4.78,1.91-6.05,4.09-6.05,6.59,0,3.43,2.18,4.52,3.63,4.52,1.33,0,2.42,0,3.57-.33,2.72-.82,4.72-1.96,5.99-3.32h.12c.54,2.23,2.12,3.65,4.29,3.65,3.09,0,4.24-1.85,4.72-2.67.36-.55.24-.82.06-.98l-.61-.44ZM447.34,62.05c0,1.47-3.21,3.38-4.96,3.38s-3.15-.98-3.15-3c0-4.52,5.93-5.61,8.11-7.08v6.7ZM363.97,60.79c-.06-4.19-2.85-5.83-7.26-6.97-2.96-.76-5.81-1.36-5.81-4.52,0-2.35,2.36-3.6,4.66-3.6s3.51,1.09,4.24,2.12l2.05,2.51c.18.27.3.33.55.27l.72-.22c.3-.11.43-.28.43-.49l-.91-3.81c-.06-.33-.18-.6-1.09-.98-1.09-.49-2.66-1.14-5.57-1.14-4.54,0-8.47,2.89-8.47,6.65,0,4.3,3.57,5.99,7.14,6.92,4.54,1.14,5.87,2.56,5.87,5.01s-2.66,3.71-4.78,3.71c-3.21,0-4.06-1.36-5.27-3.38l-1.51-2.67c-.12-.27-.3-.38-.54-.33l-.79.16c-.24.05-.42.16-.36.44l1.03,5.18c.06.27.06.6.36.76.73.49,3.15,1.58,6.12,1.58,5.14,0,9.14-2.78,9.2-7.19ZM294.57,93.08h6.65v-2.08h-6.65v-3.45h7.5v-2.08h-9.83v13.26h9.92v-2.08h-7.59v-3.56ZM261.76,98.72h2.33v-13.26h-2.33v13.26ZM278.21,95.66l-3.99-10.19h-2.58l5.51,13.35h2.05l5.51-13.35h-2.52l-3.98,10.19ZM326.45,30.72h1.45c.42,0,.42-.16.42-.38v-1.36c0-.27-.06-.38-.42-.38-.48,0-2.24.16-5.63.16-3.76,0-5.87-.16-6.48-.16-.42,0-.48.16-.48.38v1.25c0,.33.06.49.42.49h1.63c1.63,0,2.12.82,2.12,1.69,0,3.11-8.78,26.1-9.44,27.84h-.12l-9.44-27.35c-.36-.98.18-2.18,1.69-2.18h2.42c.37,0,.42-.16.42-.38v-1.36c0-.22-.06-.38-.42-.38-.61,0-2.91.16-7.99.16-4.72,0-6.84-.16-7.38-.16-.36,0-.42.16-.42.38v1.31c0,.33.06.44.37.44h1.51c1.09,0,1.87.38,2.42,1.04.55.65.97,1.58.91,2.02-.24,2.29-9.26,25.55-9.5,26.48h-.12l-9.74-27.57c-.37-1.2.18-1.96,1.76-1.96h1.03c.42,0,.48-.16.48-.44v-1.36c0-.16-.06-.33-.48-.33-.6,0-3.09.16-7.44.16-4.12,0-5.99-.16-6.48-.16-.42,0-.49.11-.49.38v1.31c0,.22.06.44.36.44h2.06c1.15,0,2,.44,2.61,1.96l13.49,34.87c.24.65.61.87,1.09.87.54,0,.91-.49,1.21-1.04.36-.6,11.38-28.6,11.92-30.08h.12l11.2,29.91c.3.76.61,1.2,1.33,1.2.67,0,.97-.82,1.27-1.42,1.21-2.62,13.86-34.05,14.34-34.81.55-.87,1.39-1.47,2.42-1.47ZM321.21,89.69v-.04c0-1.15-.4-2.14-1.1-2.86-.85-.83-2.16-1.33-3.82-1.33h-5.91v13.26h2.33v-4.62h2.92l3.26,4.62h2.75l-3.58-5.02c1.86-.53,3.16-1.84,3.16-4.02ZM312.71,92.04v-4.45h3.39c1.72,0,2.75.78,2.75,2.2v.04c0,1.35-1.06,2.22-2.73,2.22h-3.41ZM343.09,61.23l-.79-.38c-.18-.06-.42.05-.54.27-1.03,1.8-3.63,3.7-7.32,3.7-4.84,0-8.6-4.03-8.6-9.37,0-1.25.06-2.12.18-2.61h14.95c.97,0,1.7-.11,1.7-.87,0-2.12-1.94-8.01-8.89-8.01-3.03,0-6.06.49-8.66,2.89-3.21,2.89-3.81,6.54-3.81,8.66,0,3.81.54,5.83,2.66,8.61,2.24,2.94,6.05,3.87,9.5,3.87,5.39,0,8.54-3.76,9.62-5.94.3-.6.18-.76,0-.82ZM332.62,45.59c3.94,0,4.66,3.6,4.66,4.85,0,.49-.48.76-1.63.76h-9.38c1.15-4.03,3.69-5.61,6.36-5.61ZM346.92,98.72h2.33v-13.26h-2.33v13.26ZM334.43,91.04c-2.54-.61-3.14-1.06-3.14-2.08v-.04c0-.87.79-1.57,2.16-1.57,1.21,0,2.41.47,3.6,1.36l1.25-1.76c-1.34-1.08-2.88-1.67-4.81-1.67-2.63,0-4.53,1.57-4.53,3.85v.04c0,2.44,1.59,3.28,4.41,3.96,2.46.57,2.99,1.08,2.99,2.03v.04c0,1-.91,1.67-2.35,1.67-1.65,0-2.92-.62-4.18-1.72l-1.4,1.67c1.59,1.42,3.5,2.12,5.53,2.12,2.78,0,4.73-1.48,4.73-3.96v-.04c0-2.2-1.46-3.2-4.26-3.88Z"/>
</svg>