<?xml version="1.0" encoding="UTF-8"?><svg id="Layer_1" xmlns="http://www.w3.org/2000/svg" viewBox="0 0 424.27 100.57"><defs><style>.cls-1{fill:#fff;}.cls-2{fill:#ab0520;}.cls-3{fill:#0c234b;}</style></defs><path class="cls-1" d="M121.51,43.58c0,1.64,.14,2.86,.44,3.65,.29,.78,.78,1.49,1.46,2.12h-8.79c.69-.62,1.19-1.34,1.47-2.12,.29-.79,.43-2.01,.43-3.65V20.36h-2.59c-1.78,0-3.22,.14-4.33,.42-1.1,.28-1.99,.73-2.65,1.35l1.59-5.34h22.88l-1.5,5.25c-.48-.57-1.1-1-1.87-1.27-.78-.27-1.76-.41-2.94-.41h-3.6v23.22h0Z"/><path class="cls-1" d="M138.89,44.25c0,1.46,.13,2.55,.38,3.25,.26,.7,.69,1.34,1.3,1.89h-7.84c.6-.55,1.03-1.19,1.29-1.89,.26-.7,.39-1.79,.39-3.25V25.45c0-1.47-.13-2.55-.39-3.25-.26-.7-.69-1.32-1.29-1.86h7.84c-.61,.54-1.05,1.16-1.3,1.86-.25,.7-.38,1.78-.38,3.25v6.51h15.4v-6.51c0-1.47-.13-2.55-.38-3.25-.25-.7-.69-1.32-1.3-1.86h7.84c-.6,.54-1.03,1.16-1.29,1.86-.26,.7-.39,1.78-.39,3.25v18.8c0,1.46,.12,2.55,.38,3.25,.25,.7,.69,1.34,1.3,1.89h-7.84c.62-.55,1.05-1.19,1.3-1.89,.25-.7,.38-1.79,.38-3.25v-8.95h-15.4v8.95h0Z"/><path class="cls-1" d="M164.25,49.39c.6-.55,1.03-1.19,1.29-1.89,.26-.7,.39-1.79,.39-3.26V25.46c0-1.47-.13-2.55-.39-3.26-.26-.7-.69-1.32-1.29-1.87h15.66v4.59c-.69-.57-1.47-.97-2.3-1.23-.84-.25-1.81-.38-2.9-.38-.57,0-1.2,.04-1.9,.14-.7,.09-1.48,.23-2.37,.41v8.18h7.02v4.22c-.34-.39-.78-.67-1.34-.83-.56-.16-1.6-.24-3.09-.24h-2.59v10.42c1.09,.16,2.07,.29,2.95,.37,.88,.09,1.64,.13,2.28,.13,1.46,0,2.83-.2,4.12-.59,1.29-.39,2.56-1,3.81-1.81l-2,5.68h-17.35Z"/><path class="cls-1" d="M220.12,49.34v-2.45c-1.56,1.13-3.13,1.98-4.71,2.54-1.59,.55-3.2,.84-4.82,.84-1.86,0-3.52-.32-4.97-.93-1.45-.62-2.71-1.55-3.77-2.8-.83-.98-1.42-2.12-1.78-3.42-.36-1.3-.54-3.04-.54-5.24v-15.24c0-1.63-.15-2.84-.42-3.62-.29-.78-.76-1.47-1.44-2.08h8.71c-.67,.61-1.15,1.3-1.43,2.08-.28,.78-.42,1.98-.42,3.62v14.24c0,2.22,.1,3.88,.32,4.95,.21,1.07,.58,1.93,1.08,2.57,.61,.76,1.42,1.33,2.45,1.72,1.01,.38,2.22,.57,3.64,.57,1.16,0,2.27-.17,3.28-.53,1.01-.34,1.9-.86,2.66-1.53,.68-.56,1.16-1.29,1.45-2.18,.29-.89,.43-2.11,.43-3.65V22.63c0-1.7-.14-2.92-.42-3.68-.28-.75-.76-1.43-1.44-2.02h8.78c-.68,.59-1.16,1.3-1.46,2.12-.29,.82-.43,2.01-.43,3.57v20.98c0,1.63,.14,2.84,.43,3.62,.29,.79,.77,1.48,1.46,2.11h-6.65Z"/><path class="cls-1" d="M258.64,20.34c-.62,.54-1.05,1.16-1.3,1.86-.25,.7-.38,1.78-.38,3.24v24.62c-1-.03-1.95-.36-2.85-.98-.89-.63-2.02-1.82-3.37-3.58l-14.77-18.91v17.65c0,1.52,.12,2.62,.37,3.31,.24,.68,.67,1.3,1.28,1.84h-6.5c.61-.55,1.04-1.19,1.29-1.89,.26-.7,.39-1.79,.39-3.26V25.44c0-1.46-.13-2.54-.39-3.24-.25-.7-.69-1.32-1.29-1.86h5.81l16.93,21.82V25.44c0-1.46-.13-2.54-.39-3.24-.26-.7-.69-1.32-1.29-1.86h6.46Z"/><path class="cls-1" d="M269.48,44.24c0,1.46,.12,2.55,.38,3.26,.25,.7,.68,1.34,1.3,1.89h-7.84c.62-.55,1.05-1.19,1.3-1.89,.25-.7,.38-1.79,.38-3.26V25.44c0-1.46-.12-2.54-.38-3.24-.26-.7-.69-1.32-1.3-1.86h7.84c-.62,.54-1.05,1.16-1.3,1.86-.25,.7-.38,1.78-.38,3.24v18.8h0Z"/><path class="cls-1" d="M287.77,50.13c-1.22-.32-2.27-1.02-3.12-2.11-.87-1.08-1.66-2.69-2.39-4.84l-5.79-16.92c-.47-1.4-.91-2.54-1.33-3.41-.41-.88-.89-1.72-1.41-2.51l5.91,.02c.03,.47,.07,.92,.15,1.32,.06,.4,.15,.79,.26,1.15l6.96,20.79,6.59-17.32c.19-.53,.35-1.07,.46-1.6,.11-.53,.18-1.03,.18-1.47,0-.39-.12-.8-.33-1.24-.22-.44-.59-.99-1.11-1.64h6.56l-11.59,29.79h0Z"/><path class="cls-1" d="M301.36,49.39c.6-.55,1.04-1.19,1.29-1.89,.26-.7,.39-1.79,.39-3.26V25.46c0-1.47-.13-2.55-.39-3.26-.25-.7-.69-1.32-1.29-1.87h15.66v4.59c-.7-.57-1.46-.97-2.3-1.23-.84-.25-1.8-.38-2.9-.38-.56,0-1.19,.04-1.88,.14-.71,.09-1.5,.23-2.37,.41v8.18h7.02v4.22c-.33-.39-.78-.67-1.34-.83-.56-.16-1.59-.24-3.09-.24h-2.58v10.42c1.09,.16,2.07,.29,2.95,.37,.88,.09,1.64,.13,2.29,.13,1.45,0,2.82-.2,4.11-.59,1.29-.39,2.56-1,3.81-1.81l-2,5.68h-17.35Z"/><path class="cls-1" d="M328.86,44.25c0,1.46,.12,2.55,.38,3.25,.25,.7,.68,1.34,1.3,1.89h-7.84c.6-.55,1.03-1.19,1.29-1.89,.26-.7,.39-1.79,.39-3.25V25.45c0-1.46-.12-2.55-.39-3.25-.26-.7-.69-1.32-1.29-1.87h9.91c2.82,0,5.1,.68,6.84,2.05,1.73,1.37,2.61,3.15,2.61,5.34,0,1.59-.52,3-1.57,4.2-1.05,1.22-2.66,2.28-4.86,3.21l7.44,10.06c.43,.6,.97,1.24,1.58,1.9,.62,.67,1.33,1.37,2.12,2.09l-2.22,.21h-.35c-1.04,0-2.06-.27-3.05-.84-.99-.55-1.82-1.32-2.51-2.3l-8.52-11.92c2.54-.58,4.38-1.36,5.56-2.36,1.17-1,1.75-2.28,1.75-3.86,0-1.46-.5-2.66-1.51-3.58-1-.92-2.32-1.38-3.95-1.38-.37,0-.82,.03-1.34,.09-.52,.07-1.11,.16-1.77,.29v20.72h0Z"/><path class="cls-1" d="M348.14,48.74l-1.36-5.27c1.66,1.13,3.28,1.97,4.83,2.52,1.57,.55,3.12,.83,4.66,.83,1.96,0,3.54-.43,4.73-1.29,1.19-.86,1.79-1.97,1.79-3.34,0-.39-.06-.78-.19-1.17-.12-.39-.29-.76-.54-1.11-.51-.8-2.26-1.94-5.24-3.41-.75-.36-1.34-.65-1.75-.86-2.78-1.42-4.7-2.74-5.72-3.94-1.04-1.2-1.56-2.62-1.56-4.27,0-2.36,.95-4.23,2.85-5.62,1.89-1.39,4.49-2.08,7.79-2.08,.95,0,1.99,.06,3.13,.19,1.14,.12,2.37,.32,3.71,.58v4.88c-1.18-.91-2.37-1.59-3.56-2.04-1.2-.45-2.44-.67-3.72-.67-1.63,0-2.95,.35-3.95,1.07-.99,.71-1.49,1.64-1.49,2.78,0,1.02,.4,1.92,1.18,2.71,.77,.78,2.53,1.83,5.25,3.14,.15,.07,.39,.18,.71,.33,2.3,1.07,4.02,2.07,5.17,2.97,.84,.67,1.51,1.49,1.98,2.45,.48,.96,.71,1.99,.71,3.08,0,2.5-1.12,4.61-3.37,6.35-2.25,1.73-5.06,2.6-8.44,2.6-1.09,0-2.25-.12-3.5-.36-1.26-.24-2.61-.59-4.08-1.07h0Z"/><path class="cls-1" d="M377.58,44.24c0,1.46,.13,2.55,.38,3.26,.25,.7,.69,1.34,1.3,1.89h-7.85c.62-.55,1.06-1.19,1.31-1.89,.25-.7,.38-1.79,.38-3.26V25.44c0-1.46-.13-2.54-.38-3.24-.25-.7-.69-1.32-1.31-1.86h7.85c-.62,.54-1.05,1.16-1.3,1.86-.26,.7-.38,1.78-.38,3.24v18.8h0Z"/><path class="cls-1" d="M216.8,69.19l-4.74,12.09h9.38l-4.64-12.09h0Zm.55-10.39l2.59,6.3,9.83,24.62c1.09,2.73,1.93,5.42,4.62,6.8v.15h-9.69v-.15c2.32-1.05,1.94-1.57,.67-4.92l-2.55-6.77h-11.99l-2.45,6.77c-1,2.68-1.32,4.07,.94,4.92v.15h-8.69v-.15c2.73-1.38,3.55-4.07,4.58-6.8l12.15-30.73v-.2h0Z"/><path class="cls-1" d="M156.65,70.04c-3.18,0-5.81,1.11-7.87,3.32-2.07,2.22-3.1,5.05-3.1,8.5s1.02,6.51,3.07,8.86c2.04,2.35,4.6,3.52,7.66,3.52s5.79-1.11,7.86-3.34c2.06-2.22,3.09-5.06,3.09-8.52s-1.01-6.5-3.06-8.84c-2.05-2.34-4.59-3.51-7.64-3.51h0Zm-.16,27.33c-2.19,0-4.24-.35-6.17-1.06-1.93-.71-3.59-1.72-4.97-3.04-1.46-1.39-2.58-3.04-3.37-4.93-.79-1.89-1.18-3.88-1.18-5.96,0-1.63,.25-3.21,.75-4.75,.5-1.53,1.23-2.97,2.19-4.3,1.49-2.05,3.34-3.62,5.55-4.72,2.2-1.11,4.61-1.66,7.2-1.66,2.22,0,4.31,.35,6.23,1.06,1.93,.7,3.59,1.71,4.97,3.04,1.48,1.4,2.61,3.04,3.4,4.95,.79,1.9,1.17,3.96,1.17,6.16,0,2.02-.44,4-1.32,5.95-.88,1.94-2.12,3.65-3.71,5.15-1.43,1.35-3.06,2.37-4.88,3.06-1.83,.69-3.78,1.04-5.87,1.04h0Z"/><path class="cls-1" d="M180.83,91.54c0,1.47,.12,2.55,.37,3.25,.26,.7,.69,1.33,1.31,1.88h-7.85c.6-.55,1.04-1.18,1.29-1.88,.26-.7,.39-1.78,.39-3.25v-18.78c0-1.47-.13-2.55-.39-3.26-.26-.7-.69-1.32-1.29-1.87h15.68v4.59c-.7-.57-1.46-.98-2.3-1.23-.84-.25-1.81-.38-2.91-.38-.57,0-1.2,.05-1.9,.14-.7,.09-1.49,.23-2.37,.42v8.18h7.05v4.22c-.33-.39-.78-.67-1.35-.83-.57-.16-1.61-.24-3.12-.24h-2.62v9.05h0Z"/><path class="cls-1" d="M242.65,91.55c0,1.46,.13,2.54,.38,3.24,.25,.7,.69,1.33,1.3,1.88h-7.84c.6-.55,1.04-1.18,1.29-1.88,.26-.7,.39-1.78,.39-3.24v-18.81c0-1.47-.13-2.55-.39-3.25-.26-.7-.69-1.32-1.29-1.86h9.9c2.82,0,5.1,.68,6.84,2.05,1.73,1.37,2.6,3.15,2.6,5.34,0,1.59-.52,2.99-1.56,4.21-1.04,1.21-2.66,2.28-4.86,3.2l7.43,10.06c.44,.6,.96,1.23,1.59,1.9,.62,.66,1.32,1.36,2.12,2.08l-2.22,.21h-.35c-1.04,0-2.05-.27-3.04-.83-.99-.55-1.83-1.32-2.51-2.28l-8.52-11.93c2.53-.57,4.39-1.36,5.56-2.36,1.17-1,1.76-2.29,1.76-3.86,0-1.47-.5-2.66-1.51-3.58-1-.92-2.32-1.39-3.95-1.39-.37,0-.82,.04-1.34,.1-.52,.06-1.11,.16-1.77,.28v20.73h0Z"/><path class="cls-1" d="M269.16,91.54c0,1.47,.12,2.55,.38,3.25,.25,.7,.69,1.33,1.3,1.88h-7.84c.61-.55,1.04-1.18,1.3-1.88,.25-.7,.38-1.78,.38-3.25v-18.81c0-1.47-.13-2.54-.38-3.24-.25-.7-.69-1.32-1.3-1.86h7.84c-.62,.54-1.05,1.16-1.3,1.86-.25,.7-.38,1.77-.38,3.24v18.81h0Z"/><path class="cls-1" d="M298.18,91.23l-2.08,5.43h-22.31l15.23-25.3c-1.13-.29-2.21-.51-3.22-.65-1.01-.14-1.95-.21-2.81-.21-1.26,0-2.48,.16-3.66,.48-1.17,.31-2.37,.81-3.59,1.5l1.97-4.85h18.55l-15.21,25.29c1.69,.2,3.11,.34,4.27,.42,1.14,.09,2.14,.13,2.98,.13,1.97,0,3.79-.19,5.41-.56s3.12-.93,4.47-1.68h0Z"/><path class="cls-1" d="M314.82,70.04c-3.19,0-5.82,1.11-7.88,3.32-2.06,2.22-3.1,5.05-3.1,8.5s1.03,6.51,3.07,8.86c2.04,2.35,4.6,3.52,7.66,3.52s5.79-1.11,7.86-3.34c2.06-2.22,3.09-5.06,3.09-8.52s-1.02-6.5-3.06-8.84c-2.05-2.34-4.59-3.51-7.64-3.51h0Zm-.16,27.33c-2.19,0-4.24-.35-6.17-1.06-1.93-.71-3.59-1.72-4.98-3.04-1.45-1.39-2.58-3.04-3.37-4.93-.79-1.89-1.18-3.88-1.18-5.96,0-1.63,.24-3.21,.75-4.75,.49-1.53,1.23-2.97,2.19-4.3,1.5-2.05,3.36-3.62,5.55-4.72,2.2-1.11,4.61-1.66,7.2-1.66,2.23,0,4.3,.35,6.23,1.06,1.93,.7,3.59,1.71,4.98,3.04,1.48,1.4,2.61,3.04,3.4,4.95,.78,1.9,1.17,3.96,1.17,6.16,0,2.02-.44,4-1.32,5.95-.87,1.94-2.12,3.65-3.7,5.15-1.43,1.35-3.06,2.37-4.88,3.06-1.83,.69-3.79,1.04-5.87,1.04h0Z"/><path class="cls-1" d="M360.28,67.63c-.62,.54-1.05,1.16-1.3,1.86-.26,.7-.38,1.77-.38,3.24v24.6c-1-.03-1.95-.36-2.85-.98-.9-.62-2.02-1.81-3.38-3.56l-14.77-18.91v17.66c0,1.52,.12,2.62,.37,3.3,.24,.68,.67,1.29,1.27,1.83h-6.49c.6-.55,1.03-1.18,1.29-1.88,.26-.7,.39-1.78,.39-3.25v-18.81c0-1.47-.13-2.54-.39-3.24-.26-.7-.69-1.32-1.29-1.86h5.8l16.94,21.82v-16.71c0-1.47-.14-2.54-.4-3.24-.26-.7-.69-1.32-1.29-1.86h6.46Z"/><path class="cls-1" d="M370.84,82.89h8.44l-4.04-11.23-4.39,11.23h0Zm-3.87,9.86c-.13,.29-.23,.6-.29,.91-.06,.31-.09,.63-.09,.96,0,.28,.09,.59,.29,.91,.21,.33,.52,.71,.96,1.12h-6.76c.56-.39,1.06-.92,1.51-1.6,.45-.68,.9-1.61,1.37-2.8l8.05-20.74c.16-.39,.29-.77,.37-1.15s.12-.71,.12-1c0-.34-.08-.65-.23-.92-.16-.28-.42-.56-.78-.84h6.51l9.11,24.35c.42,1.1,.88,2,1.37,2.68,.49,.68,1.12,1.36,1.89,2h-8.21l.1-.11c.76-.8,1.13-1.39,1.13-1.77,0-.45-.16-1.09-.49-1.96-.05-.14-.08-.24-.1-.31l-2.45-6.72h-10.67l-2.73,6.95h0Z"/><path class="cls-1" d="M405.4,20.29l7.45,12.66,5.01-8.25c.3-.5,.54-.96,.7-1.37,.15-.41,.23-.76,.23-1.06,0-.33-.1-.66-.3-.99-.2-.33-.5-.66-.92-1h6.7l-9.83,15.99v7.93c0,1.47,.13,2.55,.39,3.26,.27,.71,.7,1.34,1.3,1.89h-7.89c.62-.55,1.05-1.18,1.3-1.89,.25-.7,.38-1.79,.38-3.26v-8.02l-6.72-11.08c-.68-.99-1.18-1.14-1.83-1.38-.69-.24-1.86-.27-2.93-.27h-3.21v20.75c0,1.46,.12,2.55,.39,3.25,.26,.71,.69,1.34,1.3,1.89h-7.85c.61-.55,1.05-1.18,1.3-1.89,.25-.7,.37-1.79,.37-3.25V23.47h-2.3c-1.59,0-2.89,.12-3.87,.38-.99,.25-1.78,.66-2.37,1.21l1.43-4.77h21.77Z"/><polygon class="cls-1" points="87.77 .01 87.77 32.67 84.46 32.65 97.65 67.88 108.95 67.89 108.95 100.57 0 100.57 0 67.93 11.22 67.95 24.52 32.63 21.15 32.64 21.16 0 87.77 .01 87.77 .01"/><polyline class="cls-3" points="54.48 12.12 75.52 12.12 75.52 20.54 66.78 20.54 89.76 79.77 96.56 79.77 96.56 88.49 68.07 88.49 68.07 80.01 60.07 80.01 60.07 96.63 105.03 96.63 105.03 71.84 94.94 71.86 78.75 28.72 83.84 28.72 83.84 3.94 54.48 3.94 54.48 3.94 25.11 3.94 25.11 28.72 30.2 28.72 14.01 71.81 3.92 71.84 3.92 96.63 48.88 96.63 48.88 80.01 40.88 80.01 40.88 88.49 12.39 88.49 12.39 79.77 19.19 79.77 42.17 20.54 33.43 20.54 33.43 12.12 54.48 12.12"/><path class="cls-1" d="M118.03,89.43c.82,.8,1.23,1.79,1.23,2.95s-.41,2.14-1.23,2.95c-.82,.8-1.82,1.2-3.01,1.2s-2.19-.4-3.01-1.2c-.82-.8-1.23-1.79-1.23-2.95s.41-2.15,1.23-2.95c.82-.8,1.82-1.21,3.01-1.21s2.19,.4,3.01,1.21h0Zm-.6,.5c-.66-.67-1.46-1-2.41-1s-1.75,.33-2.41,1c-.66,.67-.98,1.49-.98,2.45s.33,1.79,.98,2.45c.66,.67,1.46,1,2.41,1s1.75-.33,2.41-1c.66-.67,.99-1.48,.99-2.45s-.33-1.79-.98-2.45h0Zm-4.25,.05h1.92c.52,0,.93,.12,1.22,.34,.29,.23,.44,.55,.44,.96,0,.44-.15,.79-.44,1.04-.22,.19-.5,.31-.85,.35l1.38,2.1h-.87l-1.24-2.08h-.8v2.08h-.75v-4.8h0Zm.75,2.09h1.02c.36,0,.62-.06,.78-.19,.16-.13,.25-.33,.25-.6,0-.24-.08-.41-.25-.53-.16-.11-.42-.17-.78-.17h-1.02v1.48h0Z"/><path class="cls-2" d="M54.45,12.2l23.34,60.51s2.99,7.36,7.85,7.36h-16.99s.85,.12,1.7-1.29c.49-.81,.08-2.02,.08-2.02l-5.25-13.51h-21.39l-5.26,13.51s-.4,1.21,.08,2.02c.85,1.42,1.7,1.29,1.7,1.29H23.31c4.85,0,7.85-7.36,7.85-7.36L54.45,12.2m-.02,44.64h8.22l-8.2-21.23-8.2,21.23h8.18Z"/></svg>