<svg xmlns="http://www.w3.org/2000/svg" viewBox="0 0 400 48"><path d="M246.63 38.55a4.64 4.64 0 011.12.14 5.69 5.69 0 011.13.42 4.69 4.69 0 01.94.66 4.22 4.22 0 01.74.89 4.12 4.12 0 01.48 1.07 3.85 3.85 0 01.18 1.16 5 5 0 01-.35 1.92 4.17 4.17 0 01-1 1.49 4.22 4.22 0 01-1.46 1 4.82 4.82 0 01-1.84.35 5.06 5.06 0 01-1.28-.17 4.17 4.17 0 01-1.12-.45 4 4 0 01-.92-.71 3.83 3.83 0 01-.7-.95 4.28 4.28 0 01-.44-1.16 4.85 4.85 0 01-.16-1.31 4.15 4.15 0 01.66-2.23 4.22 4.22 0 01.74-.89 4.69 4.69 0 01.94-.66 5.69 5.69 0 011.13-.42 5 5 0 011.21-.15zm0 2.16a2.18 2.18 0 00-.91.19 2.32 2.32 0 00-.75.49 2.39 2.39 0 00-.5.72 1.94 1.94 0 00-.18.85 2.53 2.53 0 00.18 1 2.36 2.36 0 002.16 1.55 2.34 2.34 0 001.67-.74A2.76 2.76 0 00249 43a2.1 2.1 0 00-.19-.85 2.7 2.7 0 00-.49-.72 2.36 2.36 0 00-.76-.49 2.22 2.22 0 00-.93-.23zm10.8 0v-1.88h-4.77v8.62h2.17V44h2.37v-1.85h-2.37v-1.43zm6.64 6.73h3.08l1-7 2.68 7H272l2.8-7 .86 7h3l-1.74-12.04h-3l-2.5 6.41L269 35.4h-3zm20.87-2.13l-.8 2.13h-3.21l4.5-12h3.3l4.37 12h-3.23l-.75-2.08zm2.13-6.21l-1.25 3.82h2.51zm8.59 8.34h3v-7.33l5.54 7.34h3V35.4h-3v7.34l-5.55-7.34h-3zm18.23-2.13l-.8 2.13h-3.22l4.5-12h3.31l4.37 12h-3.23l-.76-2.08zm2.11-6.2l-1.25 3.82h2.53zm13.76 1.59V43h2.48a2.37 2.37 0 01-.24 1 2.08 2.08 0 01-.53.65 2.11 2.11 0 01-.74.39 2.89 2.89 0 01-.92.14 2.77 2.77 0 01-1.32-.32 3.2 3.2 0 01-1-.86 3.83 3.83 0 01-.58-1.16 4.6 4.6 0 01-.21-1.37 5.65 5.65 0 01.19-1.36 3.83 3.83 0 01.58-1.16 3.12 3.12 0 01.94-.87 2.57 2.57 0 011.32-.34 3.07 3.07 0 01.85.13 2.17 2.17 0 01.71.4 2.68 2.68 0 01.56.6 3.16 3.16 0 01.39.78l2.89-1.25a5.52 5.52 0 00-2.13-2.56 5.82 5.82 0 00-3.15-.84 6.85 6.85 0 00-2.57.47 5.58 5.58 0 00-1.93 1.3 5.74 5.74 0 00-1.3 2 7.51 7.51 0 00-.46 2.65A7 7 0 00324 44a5.65 5.65 0 003.26 3.3 6.73 6.73 0 002.51.46 7.3 7.3 0 001.4-.14 5.36 5.36 0 001.3-.43 4.59 4.59 0 001.12-.73 5.09 5.09 0 001-1.06 5.62 5.62 0 00.62-1.16 7.44 7.44 0 00.36-1.16 9 9 0 00.16-1.16 8.59 8.59 0 00.06-1.26zm15.62-2.7v-2.6h-6.63v12.05h6.63v-2.69h-3.6v-2.08h3.38v-2.63h-3.38V38zm3.06 9.41h3l1-7 2.68 7h1.21l2.79-7 .86 7h3l-1.76-12.01h-3l-2.5 6.41-2.37-6.41h-3zm24.4-9.41v-2.6h-6.63v12.05h6.63v-2.69h-3.61v-2.08h3.38v-2.63h-3.38V38zm3.77 9.41h3v-7.3l5.55 7.34h3V35.4h-3v7.34l-5.55-7.34h-3zm20-9.41h2.5v-2.6h-8V38h2.5v9.41h3zM69.18 40.67v1.26a7.51 7.51 0 01-.18 1.16 7.67 7.67 0 01-.36 1.15 5.62 5.62 0 01-.62 1.16 6 6 0 01-1 1.05 5 5 0 01-1.13.73 5.73 5.73 0 01-1.29.42 7.25 7.25 0 01-4-.32A5.64 5.64 0 0157.45 44a7 7 0 01-.45-2.56 7.43 7.43 0 01.46-2.65 5.79 5.79 0 011.3-2 5.56 5.56 0 012-1.3 7 7 0 012.51-.49 6 6 0 013.16.83 5.51 5.51 0 012.16 2.51l-2.88 1.24a3.2 3.2 0 00-.4-.78 2.45 2.45 0 00-.56-.6 2.14 2.14 0 00-.71-.39 2.74 2.74 0 00-.85-.13 2.42 2.42 0 00-1.31.34 2.9 2.9 0 00-1 .86 3.59 3.59 0 00-.52 1.12 5.13 5.13 0 00-.2 1.35 4.93 4.93 0 00.17 1.38 3.85 3.85 0 00.59 1.16 3 3 0 001 .85 2.75 2.75 0 001.32.33 3.17 3.17 0 00.87 0 2.18 2.18 0 00.75-.4 1.94 1.94 0 00.53-.64 2.36 2.36 0 00.24-.91h-2.5v-2.45zm8.75 1.76a2.87 2.87 0 001.13-.43 3 3 0 00.8-.76 3.34 3.34 0 00.5-1 4.4 4.4 0 00-.15-2.8 3 3 0 00-.86-1.16 3.63 3.63 0 00-1.28-.66 5.77 5.77 0 00-1.6-.22H72v12h3v-4.63l2.84 4.63h3.78zm-3-4.49h.29a4.69 4.69 0 01.75 0 2.25 2.25 0 01.67.2 1.21 1.21 0 01.5.45 1.54 1.54 0 01.19.79 1.38 1.38 0 01-.19.77 1.15 1.15 0 01-.5.45 2 2 0 01-.67.21 4.69 4.69 0 01-.75 0H75zm16.51 7.39l.77 2.07h3.17L91 35.45h-3.27l-4.5 11.95h3.22l.8-2.13zm-.87-2.44h-2.49l1.28-3.8zm7.19 4.34h4.29a6.3 6.3 0 001.56-.2 6.47 6.47 0 001.41-.59 6 6 0 001.19-.93 5.77 5.77 0 00.94-1.15 6.85 6.85 0 00.61-1.45 6.16 6.16 0 00.21-1.6 6.3 6.3 0 00-.21-1.61 6.69 6.69 0 00-.61-1.43 5.72 5.72 0 00-.93-1.15 6 6 0 00-1.2-.93 6.47 6.47 0 00-1.41-.59 5.87 5.87 0 00-1.56-.21h-4.26zm3.06-9.2h.72a3.81 3.81 0 011.34.22 2.78 2.78 0 011 .64 2.84 2.84 0 01.68 1.06 3.61 3.61 0 01.25 1.42 3.92 3.92 0 01-.27 1.51 2.84 2.84 0 01-1.83 1.64 4.41 4.41 0 01-1.3.2h-.69zm17-2.64v7.07a6.7 6.7 0 01-.08.77 2.74 2.74 0 01-.21.67 1.6 1.6 0 01-.36.54 1.44 1.44 0 01-.57.37 2.3 2.3 0 01-.82.12 2.41 2.41 0 01-.84-.12 1.61 1.61 0 01-.56-.37 1.76 1.76 0 01-.36-.54 3.22 3.22 0 01-.2-.67 5 5 0 01-.08-.77v-7.07h-3v7.88a6.77 6.77 0 00.15 1.1 4.74 4.74 0 00.36 1 3.52 3.52 0 00.69.93 3.58 3.58 0 00.82.63 5.5 5.5 0 001 .4 5 5 0 001 .23 7.41 7.41 0 001 .07 7.13 7.13 0 001-.07 5.38 5.38 0 001-.23 5.83 5.83 0 001-.4 3.58 3.58 0 00.82-.63 3.14 3.14 0 00.68-.93 5.36 5.36 0 00.37-1 8.07 8.07 0 00.14-1.1v-7.88zM131 45.33l.77 2.07h3.22l-4.42-11.95h-3.27l-4.5 11.95h3.2l.76-2.13zm-.78-2.44h-2.52l1.25-3.8zm11-4.86h2.51v-2.64h-8V38h2.51v9.4h3zm11.79 0v-2.64h-6.63v12h6.61v-2.67h-3.61v-2.07h3.38V40h-3.38v-2zm17.78-2a5.43 5.43 0 00-.84-.41 6.46 6.46 0 00-.94-.31 7.42 7.42 0 00-1-.2 9.06 9.06 0 00-.91-.07 4.66 4.66 0 00-1.61.28 3.87 3.87 0 00-1.27.81 3.46 3.46 0 00-.83 1.27A4.24 4.24 0 00163 39a3.78 3.78 0 00.23 1.42 2.5 2.5 0 00.64.93 3.42 3.42 0 001 .59c.38.15.82.3 1.29.44l.57.16a4.41 4.41 0 01.59.26 1.84 1.84 0 01.49.38.88.88 0 01.19.56 1.25 1.25 0 01-.12.54 1.2 1.2 0 01-.34.37 1.44 1.44 0 01-.47.22 2 2 0 01-.53.07 3.2 3.2 0 01-.75-.09 4.71 4.71 0 01-.71-.27c-.22-.12-.43-.25-.64-.39a5.58 5.58 0 01-.6-.49l-1.29 2.51a7.29 7.29 0 001.94 1 6.56 6.56 0 002.15.36 6.13 6.13 0 001.75-.26 4.51 4.51 0 001.56-.86 2.68 2.68 0 00.57-.68 3.31 3.31 0 00.38-.78 4.55 4.55 0 00.2-.87 8.85 8.85 0 000-.89A3.38 3.38 0 00171 42a2.8 2.8 0 00-.61-.91 3.18 3.18 0 00-.9-.65 7.82 7.82 0 00-1.13-.45l-.77-.23-.43-.15a2.3 2.3 0 01-.44-.23 1.26 1.26 0 01-.34-.31.72.72 0 01-.13-.45.75.75 0 01.12-.44 1 1 0 01.31-.31 1.82 1.82 0 01.43-.19h.43a3.1 3.1 0 011.13.21 3.91 3.91 0 01.93.58zm11.63-.32a10.83 10.83 0 00-1.36-.45 6.62 6.62 0 00-1.41-.15 5.47 5.47 0 00-1.21.13 6.26 6.26 0 00-1.13.38 7.26 7.26 0 00-1.13.61 6.25 6.25 0 00-2.34 2.77 6.76 6.76 0 00-.44 2.31 6.89 6.89 0 00.45 2.47 5.68 5.68 0 001.42 2 6.72 6.72 0 002 1.29 5.88 5.88 0 002.34.46 3.86 3.86 0 00.68 0 4.62 4.62 0 00.63-.11l.65-.17.71-.22v-3.65a3.38 3.38 0 01-.54.53 5.16 5.16 0 01-.63.4 5.89 5.89 0 01-.7.26 3.52 3.52 0 01-2-.17 2.89 2.89 0 01-1-.67 3.09 3.09 0 01-.64-1 3.64 3.64 0 01-.22-1.31 3.42 3.42 0 01.86-2.36 2.94 2.94 0 011-.7 3 3 0 011.26-.25 3.31 3.31 0 01.77.09 2.94 2.94 0 011.36.66 2.82 2.82 0 01.53.56zm6.4 4.32v-4.64h-3v12h3v-5h4.38v5h3v-12h-3V40zm14.49-4.8a6.36 6.36 0 00-1.52.58 6.65 6.65 0 00-1.32.92 6.13 6.13 0 00-2 4.44 7.44 7.44 0 00.23 1.82 6.7 6.7 0 00.62 1.61 5.88 5.88 0 002.25 2.31 6.31 6.31 0 001.55.63 7.17 7.17 0 001.78.22 6.52 6.52 0 002.58-.5 6 6 0 003.38-3.43 7.08 7.08 0 00.48-2.66 6.14 6.14 0 00-.24-1.71 6.49 6.49 0 00-.68-1.49 6.17 6.17 0 00-1-1.24 6.6 6.6 0 00-2.85-1.5 6.39 6.39 0 00-3.25 0zm2.89 3.06a3.36 3.36 0 011 .69 3.93 3.93 0 01.71 1 2.84 2.84 0 01.26 1.15 4 4 0 01-.26 1.44 4 4 0 01-.71 1.15 3 3 0 01-1 .74 3.08 3.08 0 01-1.27.27 3.17 3.17 0 01-2.32-1 3.51 3.51 0 01-.71-1.15 4 4 0 01-.26-1.44 2.69 2.69 0 01.26-1.15 3.61 3.61 0 01.71-1 3.31 3.31 0 011-.69 3.14 3.14 0 011.28-.25 3.06 3.06 0 011.22.22zm11.95-3a7.17 7.17 0 00-1.52.57 7.49 7.49 0 00-1.32.93 6.41 6.41 0 00-1 1.23 6 6 0 00-.92 3.2 7 7 0 00.21 1.83 6.5 6.5 0 00.63 1.6 6.05 6.05 0 003.81 2.95 7.59 7.59 0 001.77.22 6.52 6.52 0 002.58-.5 6 6 0 002-1.35 6.1 6.1 0 001.34-2.08 7.13 7.13 0 00.48-2.67 6 6 0 00-.93-3.2 6.06 6.06 0 00-1-1.23 7.49 7.49 0 00-1.32-.93 7.36 7.36 0 00-1.57-.63 6.47 6.47 0 00-1.64-.21 6.62 6.62 0 00-1.69.25zm2.85 3a3.5 3.5 0 011 .69 3.61 3.61 0 01.71 1 3.06 3.06 0 01.26 1.15 4.17 4.17 0 01-.26 1.44 3.41 3.41 0 01-.71 1.15 3.17 3.17 0 01-3.6.74 3.37 3.37 0 01-1.73-1.9 4.17 4.17 0 01-.26-1.44 3 3 0 01.26-1.15 3.42 3.42 0 01.71-1 3.68 3.68 0 011-.69 3.06 3.06 0 011.27-.25 3.23 3.23 0 011.26.25zm10.61-2.89h-3v12h6.64v-2.68h-3.62zM57 29h343v1H57zm128-6.88l2.33-6.18.4.35a9.18 9.18 0 005.21 2.26c1.64 0 2.44-.39 2.25-1.79-.15-1-1.33-1.22-2.05-1.37l-1.6-.31c-3.12-.59-5.75-2.52-5.75-6.17 0-5.52 4.75-8.63 9.53-8.63a12.52 12.52 0 017 2.05l-2 5.48a9 9 0 00-4.95-2.06c-.7 0-2.26.34-1.79 2 .22.69 1.21 1 1.82 1.13l1.81.44c3.39.78 5.82 2.72 5.82 6.66 0 5.56-4.77 8.31-9.51 8.31a18.75 18.75 0 01-8.52-2.17m-9.86 1.79h8.14V.61h-8.18zm-12.73-9.24L158.82.61h-8.3l8.48 23.3h6.76l8.5-23.3h-8.33zm-24-14.1h8.87l7.91 23.29h-8.46l-.8-2.93h-6l-.65 2.93h-8.45zm2.92 14.88h3.2s-1.46-7.12-1.61-8.11zm-23.24-8h.51c3 0 4.71 1.83 4.71 5.1a4.09 4.09 0 010 .7 4.35 4.35 0 01-4.68 4h-.54zm-8.19 16.47h10.31c6.51 0 11.14-4.42 11.14-11.32 0-8.58-5.68-12-13.11-12h-8.34zm-4.84-22.58A21.47 21.47 0 0098.29 0c-9.1-.37-15 3.64-15 13.21 0 5.53 3.26 11.05 12.71 11.05a20.64 20.64 0 009-1.77c.23-.11.26-1 1-3.72.15-.59.54-1.57.21-1.94s-.77.84-1.26 2.2c-1.1 3-5.12 3.66-7.22 3.66-5.9 0-8.16-5.79-8.16-10.61 0-6.72 3.39-10.49 8.51-10.49a10.84 10.84 0 015.19 1.59 20.67 20.67 0 011.13 2.71c.32.92.65 1.87 1.06 2.05.61.29.1-1.89 0-2.8l-.46-3.8m-27.93.43c1 .44 1.2.13 1.13 1.26v12.29c0 1.29-.1 7.07-6.77 7.07-4.91 0-6.48-3.76-6.48-6.79V3.15c0-1.43-.14-.95 1.24-1.58l1.81-.5c.35-.39-.18-.51-.18-.51a62.75 62.75 0 01-10.42 0c-.67 0-.3.49-.3.49l2.18.82c.74.26.5.2.5 2.4v12.55c0 7.45 8.64 7.45 9.52 7.45 1.87 0 11.29.22 11.29-9.06V3.37c0-1.27 0-1 1.13-1.49l1.79-.77c.32-.38-.15-.48-.15-.48a32.46 32.46 0 01-7.63 0s-.63.14-.12.59l1.52.55M0 0h48v48H0z" fill="#fff"/><path d="M48 2.83L28.36 48H7.22L48 0zM43.42 0L0 32.2V48h.1L47 0zm-5.69 0L0 16.44v11.15L42.15 0z" fill="#daaa00"/><path d="M48 48H34.66L48 5.38zM0 0v13.56L35.85 0z" fill="#012855"/></svg>