<?xml version="1.0" encoding="UTF-8"?><svg id="Boxed_Black" xmlns="http://www.w3.org/2000/svg" viewBox="0 0 228.75 44"><defs><style>.cls-1{fill:#fff;}.cls-2{fill:#0f7bb6;}</style></defs><g><path class="cls-1" d="M101.5,5.41h12.41v2.98h-8.9v4.17h7.54v3.01h-7.54v7.18h-3.52V5.41Z"/><path class="cls-1" d="M115.22,5.41h3.3v2.96h-3.3v-2.96Zm0,4.9h3.3v12.44h-3.3V10.31Z"/><path class="cls-1" d="M120,16.51c0-3.69,2.5-6.55,6.13-6.55,4,0,6.13,3.05,6.13,7.49h-9.02c.24,1.92,1.31,3.1,3.18,3.1,1.29,0,2.04-.58,2.4-1.53h3.25c-.46,2.21-2.42,4.07-5.62,4.07-4.12,0-6.45-2.88-6.45-6.59Zm3.3-1.33h5.53c-.1-1.58-1.14-2.67-2.64-2.67-1.75,0-2.59,1.04-2.89,2.67Z"/><path class="cls-1" d="M133.8,5.41h3.3V22.74h-3.3V5.41Z"/><path class="cls-1" d="M138.65,16.54c0-3.88,2.21-6.57,5.31-6.57,1.75,0,2.84,.8,3.52,1.84h.07V5.41h3.3V22.74h-3.18v-1.62h-.05c-.73,1.19-1.96,1.99-3.71,1.99-3.13,0-5.26-2.55-5.26-6.57Zm8.97,.07c0-2.38-.78-3.98-2.89-3.98-1.82,0-2.74,1.6-2.74,3.9s.95,3.81,2.64,3.81c1.96,0,2.98-1.46,2.98-3.73Z"/><path class="cls-1" d="M152.93,5.41h3.3v2.96h-3.3v-2.96Zm0,4.9h3.3v12.44h-3.3V10.31Z"/><path class="cls-1" d="M161.52,12h.07c.85-1.33,1.99-2.04,3.69-2.04,2.57,0,4.29,1.94,4.29,4.66v8.12h-3.3v-7.64c0-1.33-.78-2.28-2.16-2.28-1.45,0-2.52,1.16-2.52,2.86v7.06h-3.3V10.31h3.22v1.7Z"/><path class="cls-1" d="M171.19,23.11h3.27c.27,.78,.97,1.38,2.5,1.38,1.87,0,2.76-.9,2.76-2.59v-1.36h-.07c-.73,.82-1.67,1.45-3.25,1.45-2.76,0-5.48-2.18-5.48-5.94s2.23-6.08,5.38-6.08c1.55,0,2.69,.61,3.44,1.65h.05v-1.31h3.18v11.49c0,1.75-.56,2.93-1.48,3.78-1.04,.97-2.64,1.41-4.49,1.41-3.39,0-5.48-1.46-5.82-3.88Zm8.7-7.13c0-1.82-.97-3.37-2.96-3.37-1.67,0-2.79,1.31-2.79,3.39s1.12,3.35,2.81,3.35c2.08,0,2.93-1.53,2.93-3.37Z"/></g><g><path class="cls-1" d="M100.46,34.51h1.19c.16,1.63,1.16,2.48,2.98,2.48,1.34,0,2.3-.61,2.3-1.81,0-1.32-1.16-1.63-2.89-2.01-1.7-.38-3.16-.86-3.16-2.69,0-1.59,1.32-2.55,3.28-2.55,2.42,0,3.42,1.23,3.66,3.01h-1.15c-.18-1.38-1.07-2.07-2.48-2.07-1.31,0-2.17,.55-2.17,1.55,0,1.09,1.08,1.42,2.53,1.7,1.88,.38,3.59,.84,3.59,3.01,0,1.81-1.47,2.82-3.55,2.82-2.71,0-4.01-1.51-4.12-3.46Z"/><path class="cls-1" d="M108.99,34.29c0-2.03,1.3-3.67,3.38-3.67,1.65,0,2.74,.95,2.98,2.43h-1.11c-.16-.95-.82-1.53-1.88-1.53-1.49,0-2.25,1.23-2.25,2.77s.77,2.75,2.25,2.75c1.13,0,1.81-.65,1.9-1.73h1.08c-.15,1.67-1.24,2.65-2.98,2.65-2.08,0-3.38-1.65-3.38-3.67Z"/><path class="cls-1" d="M117.49,31.71h.03c.5-.66,1.2-1.08,2.21-1.08,1.46,0,2.35,.8,2.35,2.24v4.9h-1.09v-4.81c0-.9-.59-1.42-1.58-1.42-1.11,0-1.92,.78-1.92,1.93v4.29h-1.09v-9.66h1.09v3.59Z"/><path class="cls-1" d="M123.11,34.29c0-2.03,1.3-3.67,3.38-3.67s3.36,1.65,3.36,3.67-1.27,3.67-3.36,3.67-3.38-1.65-3.38-3.67Zm5.62,0c0-1.54-.76-2.77-2.24-2.77s-2.25,1.23-2.25,2.77,.77,2.75,2.25,2.75,2.24-1.21,2.24-2.75Z"/><path class="cls-1" d="M130.55,34.29c0-2.03,1.3-3.67,3.38-3.67s3.36,1.65,3.36,3.67-1.27,3.67-3.36,3.67-3.38-1.65-3.38-3.67Zm5.62,0c0-1.54-.76-2.77-2.24-2.77s-2.25,1.23-2.25,2.77,.77,2.75,2.25,2.75,2.24-1.21,2.24-2.75Z"/><path class="cls-1" d="M138.39,28.12h1.09v9.66h-1.09v-9.66Z"/><path class="cls-1" d="M142.77,34.29c0-2.03,1.3-3.67,3.38-3.67s3.36,1.65,3.36,3.67-1.27,3.67-3.36,3.67-3.38-1.65-3.38-3.67Zm5.62,0c0-1.54-.76-2.77-2.24-2.77s-2.25,1.23-2.25,2.77,.77,2.75,2.25,2.75,2.24-1.21,2.24-2.75Z"/><path class="cls-1" d="M149.88,30.79h.96v-1.12c0-1.2,.69-1.63,1.85-1.63,.23,0,.41,.01,.55,.03v.93c-.19-.01-.24-.01-.35-.01-.7,0-.96,.18-.96,.74v1.07h1.3v.89h-1.3v6.09h-1.09v-6.09h-.96v-.89Z"/><path class="cls-1" d="M156.6,28.12h4.02c1.01,0,1.8,.34,2.3,.93,.41,.47,.65,1.11,.65,1.84,0,1.77-1.01,2.84-3.12,2.84h-2.63v4.05h-1.22v-9.66Zm1.22,4.62h2.54c1.36,0,2.01-.69,2.01-1.8s-.72-1.77-1.94-1.77h-2.61v3.57Z"/><path class="cls-1" d="M168.97,37.77v-.96h-.03c-.5,.68-1.09,1.12-2.11,1.12-1.43,0-2.35-.86-2.35-2.31v-4.83h1.09v4.81c0,.9,.58,1.43,1.57,1.43,1.11,0,1.82-.84,1.82-1.94v-4.29h1.09v6.98h-1.09Z"/><path class="cls-1" d="M172.63,36.86h-.03v.92h-1.09v-9.66h1.09v3.67h.03c.53-.72,1.23-1.16,2.24-1.16,1.77,0,2.97,1.35,2.97,3.67s-1.12,3.67-3.01,3.67c-.95,0-1.63-.34-2.2-1.12Zm4.09-2.54c0-1.57-.63-2.75-1.96-2.75-1.53,0-2.23,1.24-2.23,2.75s.73,2.74,2.21,2.74c1.34,0,1.97-1.16,1.97-2.74Z"/><path class="cls-1" d="M178.97,28.12h1.09v9.66h-1.09v-9.66Z"/><path class="cls-1" d="M181.51,28.12h1.09v1.35h-1.09v-1.35Zm0,2.67h1.09v6.98h-1.09v-6.98Z"/><path class="cls-1" d="M183.67,34.29c0-2.03,1.3-3.67,3.38-3.67,1.65,0,2.74,.95,2.98,2.43h-1.11c-.16-.95-.82-1.53-1.88-1.53-1.49,0-2.26,1.23-2.26,2.77s.77,2.75,2.26,2.75c1.13,0,1.81-.65,1.9-1.73h1.08c-.15,1.67-1.24,2.65-2.98,2.65-2.08,0-3.38-1.65-3.38-3.67Z"/><path class="cls-1" d="M193.38,28.12h1.22v4.11h5.16v-4.11h1.22v9.66h-1.22v-4.56h-5.16v4.56h-1.22v-9.66Z"/><path class="cls-1" d="M202.28,34.29c0-2.03,1.32-3.67,3.31-3.67,2.09,0,3.21,1.62,3.21,3.93h-5.4c.08,1.42,.85,2.5,2.26,2.5,1.01,0,1.69-.49,1.93-1.43h1.07c-.32,1.5-1.42,2.35-3,2.35-2.13,0-3.38-1.65-3.38-3.67Zm1.15-.57h4.2c-.07-1.39-.78-2.24-2.04-2.24s-2,.97-2.16,2.24Z"/><path class="cls-1" d="M214.1,36.8h-.01c-.42,.54-1.13,1.11-2.32,1.11-1.32,0-2.36-.62-2.36-1.94,0-1.65,1.3-1.99,3.04-2.25,.99-.15,1.67-.24,1.67-1s-.57-1.23-1.57-1.23c-1.13,0-1.7,.49-1.74,1.54h-1.05c.04-1.35,.93-2.36,2.78-2.36,1.49,0,2.58,.55,2.58,2.21v3.32c0,.57,.13,.88,.74,.74h.04v.8c-.13,.05-.31,.11-.59,.11-.72,0-1.09-.32-1.2-1.04Zm.03-1.61v-1.19c-.37,.23-1,.41-1.59,.51-1.09,.2-1.97,.39-1.97,1.42,0,.93,.73,1.13,1.45,1.13,1.46,0,2.12-1.07,2.12-1.88Z"/><path class="cls-1" d="M216.72,28.12h1.09v9.66h-1.09v-9.66Z"/><path class="cls-1" d="M218.68,30.79h1.01v-2.2h1.09v2.2h1.35v.89h-1.35v4.54c0,.49,.26,.65,.7,.65,.22,0,.46-.05,.58-.09h.04v.95c-.26,.05-.55,.09-.88,.09-.89,0-1.54-.36-1.54-1.35v-4.78h-1.01v-.89Z"/><path class="cls-1" d="M224.15,31.71h.03c.5-.66,1.2-1.08,2.21-1.08,1.46,0,2.35,.8,2.35,2.24v4.9h-1.09v-4.81c0-.9-.59-1.42-1.58-1.42-1.11,0-1.92,.78-1.92,1.93v4.29h-1.09v-9.66h1.09v3.59Z"/></g><rect class="cls-2" width="92" height="44"/><g><path class="cls-1" d="M14.71,26.23c-.09-.7-.05-1.72-.05-2.22l1.04-11.99h3.85l-1.06,12.1c-.23,2.62,.78,4.49,3.34,4.49s4.01-1.9,4.23-4.22l1.09-12.36h3.85l-1.06,12.21c-.43,4.7-3.49,8.22-8.43,8.22-3.86,0-6.34-2.54-6.81-6.22"/><path class="cls-1" d="M31.9,22.17c.5-5.76,4.31-10.53,10.89-10.53,1.73,0,3.4,.4,5.06,1.49l-.44,4.76c-1.52-2.04-3.32-2.37-4.98-2.37-4.09,0-6.34,2.9-6.66,6.57-.31,3.57,1.5,6.48,5.47,6.48,1.73,0,3.57-.51,5.49-2.47l-.43,4.88c-1.87,1.04-3.61,1.51-5.37,1.51-6.51,0-9.49-4.93-9.03-10.32"/><path class="cls-1" d="M50.93,12.02h3.84l-1.4,16.29h5.5c.39,0,1.7-.02,2.05-.04-.02,.2-.35,3.76-.35,3.76h-11.39l1.74-20.01Z"/><path class="cls-1" d="M70.93,19.49c.13-.28,.24-.64,.28-.84h.06c.02,.25,.07,.55,.15,.84,.21,.91,1.71,5.98,1.71,5.98h-4.85s2.6-5.85,2.65-5.98m.98-8.39h-.27l-10.52,20.93h4.08l1.48-3.17h7.41l.92,3.17h4.07l-7.18-20.93Z"/></g></svg>