<?xml version="1.0" encoding="UTF-8"?><svg id="blue_orange_signature_w_themeline" xmlns="http://www.w3.org/2000/svg" viewBox="0 0 225.35 43.63"><defs><style>.cls-1{fill:#fff;}.cls-2{fill:#0f7bb6;}</style></defs><g><path class="cls-1" d="M101.8,17.57h3.48c.24,2.11,1.45,2.94,3.95,2.94,1.81,0,3.41-.64,3.41-2.25,0-1.72-1.67-2.06-4.34-2.67-3.14-.71-6-1.54-6-5.2,0-3.45,2.82-5.24,6.71-5.24s6.49,1.94,6.76,5.46h-3.41c-.2-1.76-1.57-2.65-3.38-2.65-1.91,0-3.16,.81-3.16,2.06,0,1.42,1.23,1.84,3.82,2.4,3.6,.78,6.54,1.64,6.54,5.42,0,3.55-2.87,5.54-6.81,5.54-4.75,0-7.45-2.11-7.57-5.81Z"/><path class="cls-1" d="M125.4,21.59h-.05c-.64,.96-1.54,1.69-3.7,1.69-2.57,0-4.39-1.35-4.39-3.85,0-2.77,2.26-3.65,5.05-4.04,2.08-.29,3.04-.46,3.04-1.42,0-.91-.71-1.49-2.11-1.49-1.57,0-2.33,.56-2.43,1.76h-2.97c.1-2.2,1.74-4.14,5.42-4.14s5.29,1.69,5.29,4.63v6.4c0,.96,.15,1.52,.44,1.74v.12h-3.21c-.2-.24-.32-.83-.39-1.4Zm.02-3.04v-1.89c-.59,.34-1.49,.54-2.33,.74-1.74,.39-2.6,.78-2.6,1.96s.78,1.59,1.96,1.59c1.91,0,2.96-1.18,2.96-2.4Z"/><path class="cls-1" d="M130.64,10.42h3.21v1.69h.07c.69-1.15,1.91-2.03,3.65-2.03,1.59,0,2.87,.88,3.48,2.2h.05c.86-1.37,2.18-2.2,3.77-2.2,2.65,0,4.14,1.72,4.14,4.46v8.45h-3.33v-7.89c0-1.42-.71-2.16-1.94-2.16-1.4,0-2.25,1.08-2.25,2.74v7.3h-3.33v-7.89c0-1.42-.71-2.16-1.94-2.16-1.35,0-2.25,1.08-2.25,2.74v7.3h-3.33V10.42Z"/><path class="cls-1" d="M159.03,22.99v-1.47h-.07c-.86,1.15-1.84,1.81-3.6,1.81-2.79,0-4.36-1.79-4.36-4.53V10.42h3.31v7.82c0,1.47,.66,2.28,2.08,2.28,1.57,0,2.52-1.18,2.52-2.84v-7.25h3.33v12.57h-3.21Z"/><path class="cls-1" d="M163.74,16.69c0-3.72,2.52-6.62,6.2-6.62,4.04,0,6.2,3.09,6.2,7.57h-9.12c.24,1.94,1.32,3.14,3.21,3.14,1.3,0,2.06-.59,2.43-1.54h3.28c-.46,2.23-2.45,4.12-5.69,4.12-4.17,0-6.52-2.92-6.52-6.67Zm3.33-1.35h5.59c-.1-1.59-1.15-2.7-2.67-2.7-1.76,0-2.62,1.05-2.92,2.7Z"/><path class="cls-1" d="M177.69,5.47h3.33V22.99h-3.33V5.47Z"/><path class="cls-1" d="M183.13,5.47h3.33v2.99h-3.33v-2.99Zm0,4.95h3.33v12.57h-3.33V10.42Z"/></g><g><rect class="cls-2" width="93.04" height="43.63"/><g><path class="cls-1" d="M14.88,26.01c-.09-.7-.05-1.71-.05-2.2l1.05-11.9h3.89l-1.07,12c-.23,2.6,.79,4.45,3.38,4.45s4.05-1.88,4.28-4.19l1.1-12.26h3.89l-1.08,12.11c-.43,4.66-3.53,8.15-8.53,8.15-3.9,0-6.41-2.52-6.89-6.16"/><path class="cls-1" d="M32.26,21.98c.51-5.71,4.36-10.44,11.01-10.44,1.75,0,3.43,.4,5.11,1.48l-.44,4.72c-1.54-2.02-3.36-2.35-5.04-2.35-4.14,0-6.41,2.88-6.74,6.52-.31,3.54,1.52,6.43,5.53,6.43,1.75,0,3.61-.5,5.55-2.45l-.43,4.84c-1.89,1.03-3.65,1.49-5.43,1.49-6.59,0-9.6-4.89-9.13-10.24"/><path class="cls-1" d="M51.5,11.92h3.88l-1.42,16.15h5.56c.39,0,1.72-.02,2.08-.04-.02,.19-.35,3.73-.35,3.73h-11.52l1.76-19.84Z"/><path class="cls-1" d="M71.73,19.32c.13-.28,.24-.63,.29-.83,0,0,.06,0,.06,0,.02,.25,.07,.55,.15,.84,.21,.91,1.73,5.93,1.73,5.93h-4.9s2.63-5.8,2.68-5.93m1-8.32h-.27s-10.63,20.75-10.63,20.75h4.13l1.49-3.15h7.49l.94,3.15h4.12l-7.26-20.75Z"/></g></g><g><path class="cls-1" d="M101.53,34.87h1.2c.16,1.65,1.17,2.51,3.02,2.51,1.35,0,2.32-.61,2.32-1.83,0-1.34-1.17-1.65-2.92-2.03-1.72-.38-3.19-.87-3.19-2.72,0-1.61,1.34-2.58,3.32-2.58,2.44,0,3.45,1.24,3.7,3.04h-1.16c-.18-1.39-1.08-2.09-2.51-2.09-1.32,0-2.2,.56-2.2,1.57,0,1.11,1.09,1.43,2.55,1.72,1.9,.38,3.63,.84,3.63,3.04,0,1.83-1.49,2.85-3.59,2.85-2.74,0-4.05-1.53-4.16-3.5Z"/><path class="cls-1" d="M110.15,34.65c0-2.05,1.31-3.71,3.41-3.71,1.67,0,2.77,.95,3.02,2.46h-1.12c-.16-.96-.83-1.54-1.9-1.54-1.5,0-2.28,1.24-2.28,2.8s.78,2.78,2.28,2.78c1.15,0,1.83-.65,1.92-1.75h1.09c-.15,1.69-1.26,2.68-3.02,2.68-2.1,0-3.41-1.67-3.41-3.71Z"/><path class="cls-1" d="M118.75,32.05h.03c.51-.67,1.21-1.09,2.24-1.09,1.47,0,2.37,.8,2.37,2.27v4.95h-1.11v-4.86c0-.91-.6-1.43-1.6-1.43-1.12,0-1.94,.79-1.94,1.95v4.34h-1.11v-9.76h1.11v3.63Z"/><path class="cls-1" d="M124.43,34.65c0-2.05,1.31-3.71,3.41-3.71s3.4,1.66,3.4,3.71-1.28,3.71-3.4,3.71-3.41-1.67-3.41-3.71Zm5.68,0c0-1.55-.76-2.8-2.27-2.8s-2.28,1.24-2.28,2.8,.78,2.78,2.28,2.78,2.27-1.23,2.27-2.78Z"/><path class="cls-1" d="M131.94,34.65c0-2.05,1.31-3.71,3.41-3.71s3.4,1.66,3.4,3.71-1.28,3.71-3.4,3.71-3.41-1.67-3.41-3.71Zm5.68,0c0-1.55-.76-2.8-2.27-2.8s-2.28,1.24-2.28,2.8,.78,2.78,2.28,2.78,2.27-1.23,2.27-2.78Z"/><path class="cls-1" d="M139.87,28.42h1.11v9.76h-1.11v-9.76Z"/><path class="cls-1" d="M144.29,34.65c0-2.05,1.31-3.71,3.41-3.71s3.4,1.66,3.4,3.71-1.28,3.71-3.4,3.71-3.41-1.67-3.41-3.71Zm5.68,0c0-1.55-.76-2.8-2.27-2.8s-2.28,1.24-2.28,2.8,.78,2.78,2.28,2.78,2.27-1.23,2.27-2.78Z"/><path class="cls-1" d="M151.48,31.12h.97v-1.13c0-1.22,.7-1.65,1.87-1.65,.23,0,.41,.01,.56,.03v.94c-.19-.01-.25-.01-.35-.01-.71,0-.97,.18-.97,.75v1.08h1.31v.9h-1.31v6.15h-1.11v-6.15h-.97v-.9Z"/><path class="cls-1" d="M158.27,28.42h6.89v1.08h-5.66v3.09h5.15v1.04h-5.15v3.42h5.83v1.13h-7.06v-9.76Z"/><path class="cls-1" d="M167.51,32.05h.03c.51-.67,1.21-1.09,2.24-1.09,1.47,0,2.37,.8,2.37,2.27v4.95h-1.11v-4.86c0-.91-.6-1.43-1.6-1.43-1.12,0-1.94,.79-1.94,1.95v4.34h-1.11v-7.05h1.11v.93Z"/><path class="cls-1" d="M173.41,38.57h1.02c.11,.78,.85,1.08,1.94,1.08,1.3,0,2.02-.59,2.02-1.82v-.99h-.03c-.52,.67-1.08,1.09-2.09,1.09-1.83,0-3.08-1.46-3.08-3.49,0-2.2,1.38-3.48,3.02-3.48,1.02,0,1.68,.4,2.16,1.07h.03v-.9h1.11v6.67c0,1.86-1.23,2.73-3.1,2.73s-2.87-.74-2.99-1.95Zm5.06-4.19c0-1.54-.65-2.5-2.16-2.5-1.32,0-1.99,1.04-1.99,2.57s.7,2.55,2.01,2.55c1.62,0,2.14-1.13,2.14-2.62Z"/><path class="cls-1" d="M180.95,28.42h1.11v1.36h-1.11v-1.36Zm0,2.7h1.11v7.05h-1.11v-7.05Z"/><path class="cls-1" d="M184.59,32.05h.03c.51-.67,1.21-1.09,2.24-1.09,1.47,0,2.37,.8,2.37,2.27v4.95h-1.11v-4.86c0-.91-.6-1.43-1.6-1.43-1.12,0-1.94,.79-1.94,1.95v4.34h-1.11v-7.05h1.11v.93Z"/><path class="cls-1" d="M190.27,34.65c0-2.05,1.34-3.71,3.34-3.71,2.12,0,3.25,1.64,3.25,3.97h-5.46c.08,1.43,.86,2.52,2.28,2.52,1.02,0,1.71-.49,1.95-1.44h1.08c-.33,1.51-1.43,2.37-3.03,2.37-2.16,0-3.41-1.67-3.41-3.71Zm1.16-.57h4.24c-.07-1.41-.79-2.27-2.06-2.27s-2.02,.98-2.18,2.27Z"/><path class="cls-1" d="M197.55,34.65c0-2.05,1.34-3.71,3.34-3.71,2.12,0,3.25,1.64,3.25,3.97h-5.46c.08,1.43,.86,2.52,2.28,2.52,1.02,0,1.71-.49,1.95-1.44h1.08c-.33,1.51-1.43,2.37-3.03,2.37-2.16,0-3.41-1.67-3.41-3.71Zm1.16-.57h4.24c-.07-1.41-.79-2.27-2.06-2.27s-2.02,.98-2.18,2.27Z"/><path class="cls-1" d="M206.3,32.29h.03c.42-.68,1.16-1.26,2.1-1.26,.2,0,.31,.03,.45,.08v1.06h-.04c-.16-.05-.27-.07-.49-.07-1.09,0-2.05,.82-2.05,2.14v3.92h-1.11v-7.05h1.11v1.17Z"/><path class="cls-1" d="M209.72,28.42h1.11v1.36h-1.11v-1.36Zm0,2.7h1.11v7.05h-1.11v-7.05Z"/><path class="cls-1" d="M213.36,32.05h.03c.51-.67,1.21-1.09,2.24-1.09,1.47,0,2.37,.8,2.37,2.27v4.95h-1.11v-4.86c0-.91-.6-1.43-1.6-1.43-1.12,0-1.94,.79-1.94,1.95v4.34h-1.11v-7.05h1.11v.93Z"/><path class="cls-1" d="M219.26,38.57h1.02c.11,.78,.85,1.08,1.94,1.08,1.3,0,2.02-.59,2.02-1.82v-.99h-.03c-.52,.67-1.08,1.09-2.09,1.09-1.83,0-3.08-1.46-3.08-3.49,0-2.2,1.38-3.48,3.02-3.48,1.02,0,1.68,.4,2.16,1.07h.03v-.9h1.11v6.67c0,1.86-1.23,2.73-3.1,2.73s-2.87-.74-2.99-1.95Zm5.06-4.19c0-1.54-.66-2.5-2.16-2.5-1.32,0-1.99,1.04-1.99,2.57s.7,2.55,2.01,2.55c1.62,0,2.14-1.13,2.14-2.62Z"/></g></svg>