<?xml version="1.0" encoding="UTF-8"?><svg id="blue_orange_signature_w__themeline" xmlns="http://www.w3.org/2000/svg" viewBox="0 0 194.84 53.87"><defs><style>.cls-1{fill:#00539b;}.cls-2{fill:#fff;}.cls-3{fill:#f37021;}</style></defs><polygon class="cls-1" points="56.07 1.45 56.07 35.34 57.57 35.34 57.57 1.45 56.07 1.45 56.07 1.45"/><path class="cls-2" d="M169.08,10.24c.13,.36,.37,.64,.71,.85,.34,.21,.8,.31,1.38,.31,.49,0,.94-.07,1.33-.22,.39-.15,.8-.37,1.23-.65,.43-.29,.74-.54,.94-.78,.28-.34,.52-.82,.74-1.46,.21-.64,.32-1.28,.32-1.92,0-.34-.04-.65-.12-.93s-.21-.53-.39-.73c-.18-.2-.44-.37-.79-.49-.35-.13-.73-.19-1.15-.19-.5,0-.98,.1-1.42,.29-.45,.19-.86,.44-1.23,.73-.37,.29-.63,.53-.78,.71-.24,.29-.45,.76-.66,1.41-.2,.65-.3,1.28-.3,1.89,0,.43,.07,.82,.2,1.18h0Zm1.86-3.47c.22-.82,.46-1.37,.74-1.66,.28-.29,.61-.44,1-.44s.69,.13,.93,.4c.24,.27,.36,.7,.36,1.29,0,.7-.1,1.44-.31,2.21-.14,.53-.3,.94-.47,1.24-.17,.3-.35,.52-.56,.65-.2,.13-.44,.2-.72,.2-.42,0-.74-.13-.96-.39-.23-.26-.34-.69-.34-1.29,0-.67,.11-1.41,.33-2.23h0Zm6.73-1.72c.35,0,.67,0,.96,0l-1.06,5.47c-.28,1.5-.5,2.48-.67,2.95-.09,.23-.19,.39-.31,.49-.12,.09-.25,.13-.39,.13s-.28-.05-.4-.15c-.12-.1-.23-.27-.33-.5l-.23,.04c-.05,.26-.11,.51-.18,.73-.07,.22-.17,.51-.3,.88,.2,.08,.39,.12,.56,.12,.23,0,.47-.07,.72-.2,.47-.25,.94-.64,1.4-1.18,.46-.54,.83-1.15,1.11-1.85,.28-.7,.61-1.84,1-3.42l.81-3.52c.16,0,.41,0,.73,0,.52,0,.9,0,1.13,0,.05-.24,.12-.49,.23-.76l-.07-.12c-.16,.03-.4,.05-.71,.07-.52,.03-.85,.05-.98,.04h-.17c.11-.65,.26-1.3,.43-1.95,.07-.24,.14-.42,.2-.54,.07-.12,.16-.21,.27-.28,.11-.07,.23-.1,.35-.1,.16,0,.33,.06,.53,.19,.2,.13,.4,.34,.6,.65l.22-.04c.08-.59,.22-1.21,.41-1.87-.21-.08-.4-.12-.6-.12-.3,0-.53,.04-.69,.11-.16,.07-.51,.29-1.03,.67-.52,.38-.99,.76-1.42,1.16-.27,.26-.48,.51-.61,.75-.08,.16-.17,.45-.26,.86-.04,.19-.07,.32-.1,.39-.2,.09-.47,.19-.79,.28-.32,.09-.56,.17-.72,.22l-.07,.37c.12,0,.26,0,.44,0h0Z"/><path class="cls-2" d="M76.06,21.55h-1.33c-.02,.89-.08,1.47-.17,1.72-.06,.19-.16,.31-.29,.35-.34,.12-1.16,.18-2.47,.18-.45,0-1.32-.04-2.61-.11v-2.11c0-2.62,.06-4.43,.17-5.43,.28-.02,.81-.04,1.59-.07,.78-.03,1.26-.04,1.43-.04,.89,0,1.66,.06,2.32,.17,.66,.12,1.08,.23,1.26,.35,.06,.03,.11,.08,.14,.15,.04,.09,.07,.36,.09,.8,.05,.84,.08,1.38,.08,1.62h1.23c.01-.67,.06-1.44,.14-2.33,.08-.89,.18-1.62,.29-2.2l-.14-.21c-.91-.1-1.87-.15-2.89-.15l-7.28,.14-5.38-.11v1.27c.98,.06,1.57,.12,1.79,.17,.22,.05,.36,.1,.43,.16,.07,.06,.11,.14,.15,.25,.09,.32,.15,.88,.17,1.65,.09,2.69,.14,4.1,.14,4.24v6.28c0,.54-.03,1.42-.08,2.64-.05,1.23-.09,1.96-.12,2.19-.05,.4-.12,.67-.21,.79-.06,.08-.14,.14-.23,.17-.18,.07-.86,.12-2.03,.13v1.25c1.86-.07,3.22-.11,4.08-.11l5.95,.11v-1.2c-1.4-.1-2.19-.18-2.38-.25-.18-.07-.31-.15-.38-.27-.1-.16-.18-.72-.24-1.69-.06-.96-.09-2.64-.09-5.03v-1.68c.57,0,.98-.02,1.21-.02,1.61,0,2.78,.07,3.53,.2,.29,.06,.47,.16,.54,.29,.14,.26,.23,1.02,.26,2.28h1.33v-6.56h0Zm8.43,13.78c.65,0,1.81,.02,3.48,.06,2.19,.05,3.37,.08,3.56,.08,1.29,0,2.24-.03,2.86-.08,.29-.03,.58-.09,.88-.17,.01-.19,.06-.77,.14-1.72l.38-3.06c0-.05,.01-.22,.05-.5h-1.25c-.19,.99-.39,1.88-.59,2.65-.09,.3-.18,.49-.26,.56-.08,.07-.33,.14-.74,.2-1.14,.18-2.48,.27-4.01,.27-.5,0-1.45-.04-2.85-.11-.01-.3-.02-1.16-.02-2.58,0-1.42-.01-2.85-.02-4.29,0-2.73-.02-4.19-.02-4.37,0-1.7,.02-3.1,.07-4.21,.05-1.11,.09-1.73,.15-1.87,.05-.14,.13-.23,.24-.29,.25-.13,.95-.22,2.09-.27v-1.33c-1.64,.07-3.39,.11-5.22,.11-1.64,0-3.11-.04-4.39-.11v1.33c1.32,.05,2.09,.15,2.32,.3,.11,.06,.19,.15,.23,.27,.09,.27,.15,1.36,.19,3.26,.02,.75,.03,2.71,.03,5.91,0,2.17-.02,4.03-.06,5.58-.04,1.55-.09,2.45-.14,2.7,0,.06-.03,.12-.07,.17-.06,.08-.2,.18-.41,.3-.47,.28-.84,.48-1.1,.59v.78c2.02-.09,3.52-.14,4.51-.14h0Zm13.06-4.21c.93,1.61,2.21,2.82,3.84,3.64,1.63,.82,3.58,1.24,5.85,1.24,2.1,0,3.96-.34,5.6-1.02,1.19-.51,2.25-1.23,3.19-2.17,.93-.94,1.64-2.01,2.13-3.22,.66-1.62,.98-3.39,.98-5.29,0-1.12-.11-2.14-.34-3.07-.23-.93-.56-1.78-1.01-2.56-.44-.78-1.09-1.54-1.95-2.28-.85-.74-1.83-1.31-2.94-1.7-1.49-.52-3.16-.77-5-.77s-3.55,.27-5.11,.8c-1.22,.42-2.35,1.12-3.39,2.08-1.04,.96-1.84,2.12-2.4,3.5-.56,1.37-.84,2.98-.84,4.83,0,2.39,.46,4.39,1.39,6h0Zm3.97-11.39c.47-1.36,1.22-2.38,2.26-3.07,1.03-.69,2.29-1.04,3.76-1.04,1.29,0,2.33,.22,3.11,.65,.78,.44,1.46,1.06,2.04,1.89,.57,.82,1.02,1.82,1.32,3,.31,1.17,.46,2.47,.46,3.88,0,2.06-.28,3.82-.85,5.26-.57,1.45-1.36,2.47-2.36,3.08-1,.61-2.14,.91-3.41,.91-1.37,0-2.56-.32-3.57-.96-1.01-.64-1.83-1.73-2.48-3.27-.65-1.54-.97-3.49-.97-5.85,0-1.64,.23-3.13,.7-4.49h0Zm19.81-3.89c.1,.06,.17,.15,.22,.26,.1,.25,.16,1.01,.18,2.27l.08,3.2v5.62l-.12,4.42c-.03,.8-.08,1.39-.15,1.79-.03,.21-.07,.36-.13,.42-.05,.07-.14,.12-.26,.15-.21,.07-.89,.13-2.04,.17v1.33c1.34-.07,2.8-.11,4.37-.11,1.76,0,3.51,.04,5.23,.11v-1.33c-.97-.02-1.55-.05-1.76-.09-.2-.04-.35-.09-.44-.16-.09-.07-.16-.14-.2-.22-.08-.17-.14-.54-.17-1.1-.02-.28-.05-1.46-.09-3.54-.03-1.69-.05-3.3-.05-4.81,0-.96,.03-2.86,.09-5.72,.03-1.27,.06-2.09,.09-2.46,.47-.08,.96-.12,1.44-.12,1.09,0,1.85,.08,2.27,.23,.66,.24,1.21,.67,1.65,1.29,.44,.62,.67,1.39,.67,2.32s-.21,1.75-.64,2.49c-.43,.74-.95,1.26-1.56,1.54-.62,.29-1.53,.41-2.74,.37l-.17,.5c.3,.22,.62,.55,.94,1,.65,.88,1.43,2.08,2.36,3.62l3.24,5.34c.19,.35,.31,.64,.36,.86,.8-.04,1.6-.06,2.41-.06,.7,0,1.82,.02,3.37,.06v-1.33c-.47,0-.79-.05-.95-.12-.16-.07-.33-.2-.5-.38-.17-.18-.64-.77-1.39-1.77-.05-.07-.39-.57-1.01-1.5l-2.35-3.5c-.06-.09-.12-.19-.17-.29-.06-.1-.24-.38-.57-.86-.32-.47-.61-.93-.86-1.38,1.58-.59,2.75-1.38,3.5-2.38,.76-1,1.14-2.11,1.14-3.33,0-1.03-.28-1.9-.83-2.62-.56-.72-1.23-1.19-2.01-1.42-.79-.23-1.97-.34-3.56-.34-.82,0-1.85,.03-3.1,.09-.76,.05-1.66,.07-2.72,.07-1.24,0-2.2-.01-2.88-.04-1.38-.05-2.19-.07-2.42-.07v1.23c1.24,.08,1.98,.18,2.22,.3h0Zm24.15-1.46c-1.65,0-3.11-.04-4.38-.11v1.33c1.1,.04,1.74,.08,1.92,.13,.18,.05,.3,.1,.36,.18,.07,.07,.11,.17,.15,.3,.07,.32,.13,1.13,.18,2.41,.02,.58,.03,1.87,.03,3.88v6.33c0,1.03-.04,2.15-.12,3.37-.05,.83-.09,1.3-.12,1.42-.02,.09-.07,.17-.14,.24-.08,.07-.22,.13-.43,.17-.16,.03-.77,.07-1.82,.11v1.33c1.27-.07,2.72-.11,4.35-.11,1.87,0,3.63,.04,5.27,.11v-1.33c-1-.02-1.6-.05-1.81-.1-.21-.05-.36-.11-.46-.18-.1-.08-.17-.18-.21-.33-.1-.31-.15-.99-.15-2.03l-.05-2.77v-6.11c0-.19,.02-1.53,.06-4.02,0-.73,.03-1.22,.05-1.49,.03-.48,.08-.81,.15-.98,.03-.1,.09-.18,.17-.25,.08-.07,.22-.12,.41-.17,.19-.05,.8-.08,1.83-.12v-1.33c-1.65,.07-3.39,.11-5.24,.11h0Zm11.71,20.97l4.49,.11c2.04,0,3.78-.22,5.22-.67,1.44-.45,2.78-1.19,4.02-2.21,1.24-1.02,2.21-2.29,2.91-3.8,.71-1.52,1.06-3.24,1.06-5.16,0-1.52-.24-2.91-.71-4.18-.28-.76-.7-1.46-1.25-2.12-.55-.66-1.22-1.22-2.02-1.71-.8-.48-1.73-.83-2.81-1.04-1.08-.22-2.5-.33-4.29-.33-.78,0-1.81,.02-3.1,.05-1.79,.06-3,.09-3.65,.09l-5.49-.11v1.22c1.1,.14,1.73,.23,1.9,.27,.17,.04,.3,.1,.38,.18,.05,.05,.09,.12,.12,.21,.1,.39,.17,1.3,.2,2.73,.05,2.57,.08,4.53,.08,5.86v2.48c0,3.04-.06,5.24-.17,6.59-.32,.23-.67,.46-1.05,.67-.2,.11-.34,.19-.42,.24v.73l4.58-.11h0Zm1.31-7.71v-3.47c0-3.96,.05-6.65,.16-8.09,.94-.13,1.8-.2,2.57-.2,2.07,0,3.61,.18,4.63,.54,1.02,.36,1.86,.95,2.53,1.76,.67,.81,1.15,1.75,1.44,2.82,.29,1.07,.44,2.19,.44,3.34,0,1.26-.15,2.44-.44,3.53-.29,1.09-.7,2.03-1.23,2.81-.53,.79-1.08,1.38-1.66,1.79-.58,.4-1.25,.71-2.01,.92-1.04,.28-2.23,.43-3.57,.43-.86,0-1.76-.08-2.69-.24-.1-.96-.16-2.94-.16-5.94h0Zm17.17,7.71l3.49,.11v-1.25c-1.2-.04-1.92-.13-2.16-.27-.16-.1-.24-.27-.24-.51,0-.34,.25-1.21,.75-2.59l.66-1.81h7.81l1.3,3.32c.23,.57,.35,.99,.35,1.24,0,.2-.08,.34-.23,.43-.16,.09-.85,.15-2.07,.2v1.25l5.31-.11,4.2,.11v-1.25c-.29-.03-.51-.05-.67-.07-.47-.03-.77-.07-.88-.11-.12-.04-.22-.1-.31-.18-.09-.08-.19-.21-.29-.39l-.61-1.39-.94-2.07-6.76-15.81h-2.16l-1.33,3.44-3.95,9.75c-.75,1.85-1.25,3.08-1.51,3.71-.58,1.33-.92,2.1-1.04,2.31-.12,.21-.23,.36-.34,.46-.11,.09-.25,.17-.4,.21-.16,.05-.64,.1-1.46,.16v1.25l3.47-.11h0Zm6.32-15.91l3.24,7.83c-.92,.03-1.96,.05-3.12,.05s-2.28-.02-3.23-.05l3.12-7.83h0Z"/><path class="cls-2" d="M63.08,2.06c.09,.06,.14,.12,.16,.17,.04,.08,.06,.22,.08,.41,.02,.47,.03,1.01,.03,1.6v2.83c0,.67,0,1.08,.03,1.23,.03,.25,.11,.5,.25,.77,.14,.26,.33,.5,.59,.72,.26,.21,.59,.38,1,.51,.56,.17,1.16,.26,1.8,.26,.55,0,1.04-.06,1.45-.18,.42-.12,.78-.29,1.09-.53,.3-.23,.54-.49,.71-.78,.17-.29,.28-.63,.33-1.04,.06-.41,.08-.8,.08-1.18v-1.49c0-.44,.01-1.04,.04-1.8,.03-.76,.06-1.19,.09-1.29,.03-.1,.07-.16,.12-.19,.1-.06,.35-.1,.74-.1v-.52l-1.41,.04c-.08,0-.13,0-.17,0-.14,0-.6-.02-1.36-.05v.52c.47,.01,.77,.05,.91,.13,.07,.03,.12,.08,.15,.15,.05,.11,.08,.43,.09,.96,0,.25,0,.93,0,2.04v1.3c0,.9-.07,1.51-.22,1.84-.15,.32-.4,.58-.75,.78-.35,.2-.82,.3-1.41,.3-.51,0-.94-.08-1.27-.23s-.58-.35-.74-.59c-.16-.24-.26-.56-.3-.96-.02-.18-.02-.66-.02-1.44v-2.22c0-.89,.02-1.47,.08-1.73,.02-.11,.06-.18,.13-.22,.12-.08,.41-.12,.87-.12v-.52h-.24l-.86,.03-.86,.02-2.06-.05v.52l.83,.09h0Zm11.29,8.27c.71-.03,1.27-.05,1.68-.05,.11,0,.57,0,1.37,.02v-.52c-.06,0-.1,0-.13,0-.13,0-.33-.02-.6-.05-.1-.01-.17-.04-.21-.07-.04-.03-.07-.07-.09-.12-.03-.11-.06-.4-.08-.9-.03-.71-.05-1.39-.05-2.05V3.44c2.51,3.06,4.45,5.35,5.81,6.88,.37,.05,.73,.11,1.09,.16l.08-.06c-.06-.6-.09-2.31-.09-5.12,0-.36,0-.92,.03-1.67,.02-.76,.06-1.24,.12-1.45,.01-.04,.04-.07,.07-.1,.1-.06,.4-.1,.92-.11v-.53c-.66,.03-1.2,.05-1.62,.05s-.9-.02-1.42-.05v.53c.56,0,.89,.05,.99,.13,.06,.05,.1,.15,.11,.3,.05,.4,.08,1.74,.08,4.02v1.47c-.59-.61-1.33-1.44-2.22-2.51-1.24-1.49-2.29-2.8-3.17-3.94l-.58,.02-.92,.02c-.25,0-.65-.02-1.19-.05v.53c.45,.03,.72,.06,.81,.08,.09,.03,.16,.06,.2,.11,.04,.04,.07,.11,.09,.2,.02,.09,.03,.3,.04,.6l.03,1.85v2.04c0,.56,0,1.02-.03,1.37-.04,.62-.06,1.01-.09,1.17-.02,.12-.05,.2-.08,.24-.03,.04-.07,.06-.12,.08-.07,.02-.36,.05-.86,.07v.54h0ZM89,1.49c-.69,0-1.3-.02-1.84-.05v.56c.46,.02,.73,.04,.8,.05,.07,.02,.12,.05,.15,.07,.03,.03,.05,.07,.06,.13,.03,.13,.05,.47,.08,1.01,.01,.24,.02,.78,.02,1.62v2.65c0,.43-.02,.9-.06,1.41-.02,.35-.04,.54-.05,.6,0,.04-.03,.07-.06,.1-.03,.03-.09,.05-.18,.07-.07,.01-.32,.03-.76,.04v.56c.53-.03,1.14-.05,1.82-.05,.78,0,1.52,.02,2.21,.05v-.56c-.42,0-.67-.02-.76-.04-.09-.02-.15-.04-.19-.08-.04-.03-.07-.08-.09-.14-.04-.13-.06-.41-.06-.85l-.02-1.16v-2.55c0-.08,0-.64,.03-1.68,0-.3,.01-.51,.02-.62,.01-.2,.03-.34,.06-.41,.01-.04,.04-.08,.07-.11,.03-.03,.09-.05,.17-.07s.34-.04,.77-.05v-.56c-.69,.03-1.42,.05-2.2,.05h0Zm10.14,8.88c.26-.72,.75-1.96,1.48-3.7l.86-2.04,.45-1.05c.36-.87,.6-1.35,.72-1.44,.07-.05,.31-.1,.72-.13v-.56l-1.37,.05-1.61-.05v.56c.19,0,.42,.02,.7,.04,.12,0,.2,.02,.23,.03,.04,.02,.07,.04,.09,.08,.02,.04,.04,.09,.04,.16,0,.05,0,.1-.01,.15-.04,.17-.16,.51-.35,1.02-.27,.72-.42,1.12-.45,1.2l-1.41,3.49-1.61-3.92s-.03-.09-.04-.12c-.01-.03-.1-.24-.26-.63-.28-.68-.42-1.08-.42-1.2,0-.06,.02-.12,.05-.16,.04-.04,.1-.07,.19-.09,.16-.04,.42-.06,.77-.06v-.56l-2.28,.05c-.22,0-.84-.02-1.85-.05v.56c.4,0,.66,.05,.79,.11,.08,.05,.21,.23,.37,.56,.16,.32,.6,1.33,1.3,3.02l.9,2.15c.33,.8,.67,1.64,1.03,2.53h.97Zm9.18-.1c.38,0,1.07,0,2.08,.02l1.02,.02c.5,0,.88-.02,1.15-.05l.08-.08c0-.54,.04-1.23,.14-2.07h-.52c-.08,.56-.16,.95-.24,1.15-.03,.06-.05,.1-.08,.11-.09,.05-.33,.1-.71,.13-.38,.03-.81,.04-1.26,.04s-.87-.02-1.21-.05c-.01-.21-.02-.47-.02-.77v-2.66c.27-.03,.61-.05,1.02-.05,.46,0,.84,.02,1.13,.07,.13,.02,.22,.07,.27,.16,.07,.12,.1,.42,.1,.91h.51l-.03-1.39,.03-1.39h-.51c0,.38-.04,.64-.09,.8-.02,.06-.05,.11-.09,.13-.04,.03-.17,.04-.4,.05-.6,.02-.95,.03-1.05,.03-.31,0-.61,0-.9-.03v-1.31c0-.74,.03-1.35,.09-1.83,.39-.03,.78-.05,1.15-.05,.4,0,.81,.02,1.23,.07,.28,.03,.45,.06,.51,.1,.03,.03,.06,.07,.08,.13,.03,.11,.05,.42,.06,.92h.49c.04-.55,.06-.85,.06-.92l.12-.92-.04-.08c-.1-.03-.17-.04-.21-.04-.46-.02-.77-.03-.93-.03l-1.29,.03c-.71,.01-1.36,.02-1.93,.02-.27,0-.54,0-.84,0h-1.47v.51c.5,.03,.8,.06,.92,.11,.04,.02,.08,.05,.1,.1,.05,.11,.08,.4,.09,.88,0,.71,.02,1.13,.02,1.24v2.85c0,.33-.02,.86-.05,1.59-.02,.4-.04,.69-.06,.86-.16,.13-.37,.25-.62,.37v.34c1.31-.03,2.02-.05,2.12-.05h0Zm8.35-8.18s.07,.06,.09,.11c.04,.11,.07,.42,.08,.95l.03,1.34v2.36l-.05,1.85c-.01,.33-.03,.58-.06,.75-.01,.09-.03,.15-.05,.18-.02,.03-.06,.05-.11,.06-.09,.03-.37,.05-.85,.07v.56c.56-.03,1.17-.05,1.83-.05,.74,0,1.47,.02,2.19,.05v-.56c-.41,0-.65-.02-.74-.04-.08-.02-.15-.04-.18-.07-.04-.03-.07-.06-.08-.09-.03-.07-.06-.23-.07-.46,0-.12-.02-.61-.04-1.49-.01-.71-.02-1.38-.02-2.02,0-.4,.01-1.2,.04-2.4,.01-.53,.03-.88,.04-1.03,.2-.03,.4-.05,.6-.05,.46,0,.77,.03,.95,.1,.27,.1,.5,.28,.69,.54,.19,.26,.28,.58,.28,.97s-.09,.73-.27,1.05c-.18,.31-.39,.53-.65,.65-.26,.12-.64,.17-1.15,.16l-.07,.21c.13,.09,.26,.23,.39,.42,.27,.37,.6,.87,.99,1.52l1.36,2.24c.08,.15,.13,.27,.15,.36,.33-.02,.67-.02,1.01-.02,.29,0,.76,0,1.42,.02v-.56c-.2,0-.33-.02-.4-.05-.07-.03-.14-.08-.21-.16-.07-.07-.27-.32-.58-.74-.02-.03-.16-.24-.43-.63l-.98-1.47s-.05-.08-.07-.12c-.02-.04-.1-.16-.24-.36-.13-.2-.26-.39-.36-.58,.66-.25,1.15-.58,1.46-1,.32-.42,.48-.88,.48-1.4,0-.43-.12-.8-.35-1.1-.23-.3-.51-.5-.84-.59-.33-.1-.83-.14-1.49-.14-.34,0-.78,.01-1.3,.04-.32,.02-.7,.03-1.14,.03-.52,0-.92,0-1.2-.02-.58-.02-.92-.03-1.01-.03v.52c.52,.03,.83,.08,.93,.13h0Zm16.39,.63c.03-.26,.07-.53,.13-.81l-.05-.15c-.31-.15-.67-.27-1.1-.35-.42-.08-.86-.12-1.3-.12s-.85,.05-1.26,.14c-.41,.1-.78,.25-1.1,.47s-.59,.53-.79,.93-.3,.84-.3,1.31c0,.34,.05,.65,.16,.95,.11,.29,.28,.54,.5,.75,.22,.21,.51,.37,.88,.48,.24,.07,.75,.19,1.51,.35,.53,.12,.91,.24,1.12,.36s.37,.27,.47,.46c.1,.19,.15,.42,.15,.69,0,.32-.07,.6-.21,.85s-.37,.45-.69,.59c-.31,.14-.67,.21-1.08,.21-.46,0-.89-.1-1.28-.3-.39-.2-.67-.43-.83-.7-.05-.45-.08-.83-.07-1.14h-.53c0,.99-.07,1.72-.2,2.2,.49,.24,.93,.4,1.34,.5,.41,.1,.87,.15,1.39,.15,.71,0,1.32-.1,1.83-.3,.32-.13,.63-.32,.93-.57,.3-.26,.54-.54,.71-.85,.22-.41,.34-.89,.34-1.43,0-.31-.04-.59-.12-.83-.08-.25-.18-.45-.31-.62-.12-.16-.29-.31-.5-.43-.21-.12-.49-.23-.83-.32-.13-.03-.42-.08-.85-.16-.44-.08-.78-.14-1.02-.19-.32-.08-.57-.18-.73-.28-.17-.1-.29-.24-.38-.41-.09-.17-.14-.4-.14-.68,0-.39,.16-.73,.47-1.02,.32-.29,.76-.44,1.34-.44,.4,0,.77,.07,1.09,.21,.32,.14,.55,.31,.68,.49,.03,.2,.05,.55,.06,1.04h.53c.01-.43,.03-.78,.06-1.04h0Zm5.64-1.23c-.69,0-1.3-.02-1.83-.05v.56c.46,.02,.72,.04,.8,.05,.07,.02,.12,.05,.15,.07,.03,.03,.05,.07,.06,.13,.03,.13,.05,.47,.08,1.01,0,.24,.02,.78,.02,1.62v2.65c0,.43-.02,.9-.05,1.41-.02,.35-.04,.54-.05,.6,0,.04-.03,.07-.06,.1-.03,.03-.09,.05-.18,.07-.07,.01-.32,.03-.76,.04v.56c.53-.03,1.14-.05,1.82-.05,.78,0,1.52,.02,2.21,.05v-.56c-.42,0-.67-.02-.76-.04-.09-.02-.15-.04-.19-.08-.04-.03-.07-.08-.09-.14-.04-.13-.06-.41-.06-.85l-.02-1.16v-2.55c0-.08,0-.64,.03-1.68,0-.3,.01-.51,.02-.62,.01-.2,.03-.34,.06-.41,.01-.04,.04-.08,.07-.11,.03-.03,.09-.05,.17-.07,.08-.02,.33-.04,.76-.05v-.56c-.69,.03-1.42,.05-2.2,.05h0Zm8.82,8.78c.56,0,1.26,.02,2.08,.05v-.52c-.51-.02-.81-.05-.91-.11-.1-.05-.16-.13-.19-.24-.05-.19-.07-.74-.07-1.65v-3.8c0-1.01,0-1.59,.02-1.74h.91c.49,0,.9,.02,1.25,.05,.11,0,.18,.02,.2,.04,.03,.03,.06,.12,.08,.27,.05,.3,.07,.62,.08,.95h.52c.01-.89,.02-1.36,.03-1.39,0-.2,.03-.42,.07-.68l-.06-.06c-.2,.02-.4,.04-.59,.04-.36,.01-1.07,.02-2.14,.02h-2.56c-1.04,0-1.74,0-2.1-.02-.22,0-.43-.02-.63-.04l-.06,.06c.03,.22,.05,.42,.06,.6,0,.11,.01,.6,.03,1.47h.52c0-.37,.04-.7,.1-1,.02-.12,.05-.2,.08-.22,.02-.02,.1-.04,.24-.05,.35-.03,.75-.04,1.21-.04h.91c.01,.12,.02,.7,.02,1.74v3.8c0,.91-.02,1.46-.07,1.64-.03,.12-.1,.2-.19,.25s-.4,.08-.91,.1v.52c.78-.04,1.48-.05,2.08-.05h0Zm10.4-6.38c-.3-.6-.61-1.12-.92-1.58-.21-.31-.37-.52-.49-.63-.12-.11-.31-.24-.56-.38-.24,.06-.48,.12-.7,.17l-1.35,.27v.48c.32,0,.5,.01,.56,.04,.09,.05,.24,.19,.45,.41,.32,.35,.66,.81,1.03,1.38,.45,.71,.88,1.42,1.28,2.15,.16,.3,.24,.51,.24,.6v1.21c0,.34-.01,.75-.03,1.23-.01,.21-.04,.34-.07,.38-.03,.04-.09,.07-.17,.1-.08,.02-.36,.04-.85,.06v.56c.65-.03,1.29-.05,1.93-.05s1.38,.02,2.19,.05v-.56c-.47,0-.75-.03-.84-.05-.09-.03-.15-.06-.19-.12-.04-.05-.07-.2-.1-.44-.03-.25-.04-.64-.04-1.17v-1.07c0-.22,0-.38,.03-.47,.03-.14,.09-.29,.18-.48,.14-.27,.51-.87,1.1-1.8,.59-.93,1.15-1.74,1.66-2.43v-.29h-1c-.06,.12-.21,.39-.44,.79-.67,1.18-1.07,1.89-1.2,2.12l-.8,1.29c-.1-.22-.4-.81-.89-1.76h0Z"/><g><polygon class="cls-2" points="36.21 29.63 36.21 20.96 44.2 20.96 44.2 15.24 36.21 15.24 36.21 7.14 44.98 7.14 44.98 10.28 50.77 10.28 50.77 1.46 27.59 1.46 27.59 7.14 29.76 7.14 29.76 29.63 27.6 29.63 27.6 35.35 38.3 35.35 38.3 29.63 36.21 29.63 36.21 29.63"/><path class="cls-2" d="M24.58,22.54V7.13h2.14V1.46h-10.72V7.13h2.09v13.49c0,5.66-.65,8.37-4.71,8.37s-4.71-2.72-4.71-8.37V7.13h2.07V1.46H0V7.13H2.13v15.41c0,3.37,0,6.12,1.59,8.6,1.77,2.8,4.99,4.59,9.66,4.59,8.26,0,11.2-4.31,11.2-13.19h0Z"/></g><polygon class="cls-3" points="56.07 1.45 56.07 35.34 57.57 35.34 57.57 1.45 56.07 1.45 56.07 1.45"/><path class="cls-2" d="M169.08,10.24c.13,.36,.37,.64,.71,.85,.34,.21,.8,.31,1.38,.31,.49,0,.94-.07,1.33-.22,.39-.15,.8-.37,1.23-.65,.43-.29,.74-.54,.94-.78,.28-.34,.52-.82,.74-1.46,.21-.64,.32-1.28,.32-1.92,0-.34-.04-.65-.12-.93s-.21-.53-.39-.73c-.18-.2-.44-.37-.79-.49-.35-.13-.73-.19-1.15-.19-.5,0-.98,.1-1.42,.29-.45,.19-.86,.44-1.23,.73-.37,.29-.63,.53-.78,.71-.24,.29-.45,.76-.66,1.41-.2,.65-.3,1.28-.3,1.89,0,.43,.07,.82,.2,1.18h0Zm1.86-3.47c.22-.82,.46-1.37,.74-1.66,.28-.29,.61-.44,1-.44s.69,.13,.93,.4c.24,.27,.36,.7,.36,1.29,0,.7-.1,1.44-.31,2.21-.14,.53-.3,.94-.47,1.24-.17,.3-.35,.52-.56,.65-.2,.13-.44,.2-.72,.2-.42,0-.74-.13-.96-.39-.23-.26-.34-.69-.34-1.29,0-.67,.11-1.41,.33-2.23h0Zm6.73-1.72c.35,0,.67,0,.96,0l-1.06,5.47c-.28,1.5-.5,2.48-.67,2.95-.09,.23-.19,.39-.31,.49-.12,.09-.25,.13-.39,.13s-.28-.05-.4-.15c-.12-.1-.23-.27-.33-.5l-.23,.04c-.05,.26-.11,.51-.18,.73-.07,.22-.17,.51-.3,.88,.2,.08,.39,.12,.56,.12,.23,0,.47-.07,.72-.2,.47-.25,.94-.64,1.4-1.18,.46-.54,.83-1.15,1.11-1.85,.28-.7,.61-1.84,1-3.42l.81-3.52c.16,0,.41,0,.73,0,.52,0,.9,0,1.13,0,.05-.24,.12-.49,.23-.76l-.07-.12c-.16,.03-.4,.05-.71,.07-.52,.03-.85,.05-.98,.04h-.17c.11-.65,.26-1.3,.43-1.95,.07-.24,.14-.42,.2-.54,.07-.12,.16-.21,.27-.28,.11-.07,.23-.1,.35-.1,.16,0,.33,.06,.53,.19,.2,.13,.4,.34,.6,.65l.22-.04c.08-.59,.22-1.21,.41-1.87-.21-.08-.4-.12-.6-.12-.3,0-.53,.04-.69,.11-.16,.07-.51,.29-1.03,.67-.52,.38-.99,.76-1.42,1.16-.27,.26-.48,.51-.61,.75-.08,.16-.17,.45-.26,.86-.04,.19-.07,.32-.1,.39-.2,.09-.47,.19-.79,.28-.32,.09-.56,.17-.72,.22l-.07,.37c.12,0,.26,0,.44,0h0Z"/><path class="cls-2" d="M76.06,21.55h-1.33c-.02,.89-.08,1.47-.17,1.72-.06,.19-.16,.31-.29,.35-.34,.12-1.16,.18-2.47,.18-.45,0-1.32-.04-2.61-.11v-2.11c0-2.62,.06-4.43,.17-5.43,.28-.02,.81-.04,1.59-.07,.78-.03,1.26-.04,1.43-.04,.89,0,1.66,.06,2.32,.17,.66,.12,1.08,.23,1.26,.35,.06,.03,.11,.08,.14,.15,.04,.09,.07,.36,.09,.8,.05,.84,.08,1.38,.08,1.62h1.23c.01-.67,.06-1.44,.14-2.33,.08-.89,.18-1.62,.29-2.2l-.14-.21c-.91-.1-1.87-.15-2.89-.15l-7.28,.14-5.38-.11v1.27c.98,.06,1.57,.12,1.79,.17,.22,.05,.36,.1,.43,.16,.07,.06,.11,.14,.15,.25,.09,.32,.15,.88,.17,1.65,.09,2.69,.14,4.1,.14,4.24v6.28c0,.54-.03,1.42-.08,2.64-.05,1.23-.09,1.96-.12,2.19-.05,.4-.12,.67-.21,.79-.06,.08-.14,.14-.23,.17-.18,.07-.86,.12-2.03,.13v1.25c1.86-.07,3.22-.11,4.08-.11l5.95,.11v-1.2c-1.4-.1-2.19-.18-2.38-.25-.18-.07-.31-.15-.38-.27-.1-.16-.18-.72-.24-1.69-.06-.96-.09-2.64-.09-5.03v-1.68c.57,0,.98-.02,1.21-.02,1.61,0,2.78,.07,3.53,.2,.29,.06,.47,.16,.54,.29,.14,.26,.23,1.02,.26,2.28h1.33v-6.56h0Zm8.43,13.78c.65,0,1.81,.02,3.48,.06,2.19,.05,3.37,.08,3.56,.08,1.29,0,2.24-.03,2.86-.08,.29-.03,.58-.09,.88-.17,.01-.19,.06-.77,.14-1.72l.38-3.06c0-.05,.01-.22,.05-.5h-1.25c-.19,.99-.39,1.88-.59,2.65-.09,.3-.18,.49-.26,.56-.08,.07-.33,.14-.74,.2-1.14,.18-2.48,.27-4.01,.27-.5,0-1.45-.04-2.85-.11-.01-.3-.02-1.16-.02-2.58,0-1.42-.01-2.85-.02-4.29,0-2.73-.02-4.19-.02-4.37,0-1.7,.02-3.1,.07-4.21,.05-1.11,.09-1.73,.15-1.87,.05-.14,.13-.23,.24-.29,.25-.13,.95-.22,2.09-.27v-1.33c-1.64,.07-3.39,.11-5.22,.11-1.64,0-3.11-.04-4.39-.11v1.33c1.32,.05,2.09,.15,2.32,.3,.11,.06,.19,.15,.23,.27,.09,.27,.15,1.36,.19,3.26,.02,.75,.03,2.71,.03,5.91,0,2.17-.02,4.03-.06,5.58-.04,1.55-.09,2.45-.14,2.7,0,.06-.03,.12-.07,.17-.06,.08-.2,.18-.41,.3-.47,.28-.84,.48-1.1,.59v.78c2.02-.09,3.52-.14,4.51-.14h0Zm13.06-4.21c.93,1.61,2.21,2.82,3.84,3.64,1.63,.82,3.58,1.24,5.85,1.24,2.1,0,3.96-.34,5.6-1.02,1.19-.51,2.25-1.23,3.19-2.17,.93-.94,1.64-2.01,2.13-3.22,.66-1.62,.98-3.39,.98-5.29,0-1.12-.11-2.14-.34-3.07-.23-.93-.56-1.78-1.01-2.56-.44-.78-1.09-1.54-1.95-2.28-.85-.74-1.83-1.31-2.94-1.7-1.49-.52-3.16-.77-5-.77s-3.55,.27-5.11,.8c-1.22,.42-2.35,1.12-3.39,2.08-1.04,.96-1.84,2.12-2.4,3.5-.56,1.37-.84,2.98-.84,4.83,0,2.39,.46,4.39,1.39,6h0Zm3.97-11.39c.47-1.36,1.22-2.38,2.26-3.07,1.03-.69,2.29-1.04,3.76-1.04,1.29,0,2.33,.22,3.11,.65,.78,.44,1.46,1.06,2.04,1.89,.57,.82,1.02,1.82,1.32,3,.31,1.17,.46,2.47,.46,3.88,0,2.06-.28,3.82-.85,5.26-.57,1.45-1.36,2.47-2.36,3.08-1,.61-2.14,.91-3.41,.91-1.37,0-2.56-.32-3.57-.96-1.01-.64-1.83-1.73-2.48-3.27-.65-1.54-.97-3.49-.97-5.85,0-1.64,.23-3.13,.7-4.49h0Zm19.81-3.89c.1,.06,.17,.15,.22,.26,.1,.25,.16,1.01,.18,2.27l.08,3.2v5.62l-.12,4.42c-.03,.8-.08,1.39-.15,1.79-.03,.21-.07,.36-.13,.42-.05,.07-.14,.12-.26,.15-.21,.07-.89,.13-2.04,.17v1.33c1.34-.07,2.8-.11,4.37-.11,1.76,0,3.51,.04,5.23,.11v-1.33c-.97-.02-1.55-.05-1.76-.09-.2-.04-.35-.09-.44-.16-.09-.07-.16-.14-.2-.22-.08-.17-.14-.54-.17-1.1-.02-.28-.05-1.46-.09-3.54-.03-1.69-.05-3.3-.05-4.81,0-.96,.03-2.86,.09-5.72,.03-1.27,.06-2.09,.09-2.46,.47-.08,.96-.12,1.44-.12,1.09,0,1.85,.08,2.27,.23,.66,.24,1.21,.67,1.65,1.29,.44,.62,.67,1.39,.67,2.32s-.21,1.75-.64,2.49c-.43,.74-.95,1.26-1.56,1.54-.62,.29-1.53,.41-2.74,.37l-.17,.5c.3,.22,.62,.55,.94,1,.65,.88,1.43,2.08,2.36,3.62l3.24,5.34c.19,.35,.31,.64,.36,.86,.8-.04,1.6-.06,2.41-.06,.7,0,1.82,.02,3.37,.06v-1.33c-.47,0-.79-.05-.95-.12-.16-.07-.33-.2-.5-.38-.17-.18-.64-.77-1.39-1.77-.05-.07-.39-.57-1.01-1.5l-2.35-3.5c-.06-.09-.12-.19-.17-.29-.06-.1-.24-.38-.57-.86-.32-.47-.61-.93-.86-1.38,1.58-.59,2.75-1.38,3.5-2.38,.76-1,1.14-2.11,1.14-3.33,0-1.03-.28-1.9-.83-2.62-.56-.72-1.23-1.19-2.01-1.42-.79-.23-1.97-.34-3.56-.34-.82,0-1.85,.03-3.1,.09-.76,.05-1.66,.07-2.72,.07-1.24,0-2.2-.01-2.88-.04-1.38-.05-2.19-.07-2.42-.07v1.23c1.24,.08,1.98,.18,2.22,.3h0Zm24.15-1.46c-1.65,0-3.11-.04-4.38-.11v1.33c1.1,.04,1.74,.08,1.92,.13,.18,.05,.3,.1,.36,.18,.07,.07,.11,.17,.15,.3,.07,.32,.13,1.13,.18,2.41,.02,.58,.03,1.87,.03,3.88v6.33c0,1.03-.04,2.15-.12,3.37-.05,.83-.09,1.3-.12,1.42-.02,.09-.07,.17-.14,.24-.08,.07-.22,.13-.43,.17-.16,.03-.77,.07-1.82,.11v1.33c1.27-.07,2.72-.11,4.35-.11,1.87,0,3.63,.04,5.27,.11v-1.33c-1-.02-1.6-.05-1.81-.1-.21-.05-.36-.11-.46-.18-.1-.08-.17-.18-.21-.33-.1-.31-.15-.99-.15-2.03l-.05-2.77v-6.11c0-.19,.02-1.53,.06-4.02,0-.73,.03-1.22,.05-1.49,.03-.48,.08-.81,.15-.98,.03-.1,.09-.18,.17-.25,.08-.07,.22-.12,.41-.17,.19-.05,.8-.08,1.83-.12v-1.33c-1.65,.07-3.39,.11-5.24,.11h0Zm11.71,20.97l4.49,.11c2.04,0,3.78-.22,5.22-.67,1.44-.45,2.78-1.19,4.02-2.21,1.24-1.02,2.21-2.29,2.91-3.8,.71-1.52,1.06-3.24,1.06-5.16,0-1.52-.24-2.91-.71-4.18-.28-.76-.7-1.46-1.25-2.12-.55-.66-1.22-1.22-2.02-1.71-.8-.48-1.73-.83-2.81-1.04-1.08-.22-2.5-.33-4.29-.33-.78,0-1.81,.02-3.1,.05-1.79,.06-3,.09-3.65,.09l-5.49-.11v1.22c1.1,.14,1.73,.23,1.9,.27,.17,.04,.3,.1,.38,.18,.05,.05,.09,.12,.12,.21,.1,.39,.17,1.3,.2,2.73,.05,2.57,.08,4.53,.08,5.86v2.48c0,3.04-.06,5.24-.17,6.59-.32,.23-.67,.46-1.05,.67-.2,.11-.34,.19-.42,.24v.73l4.58-.11h0Zm1.31-7.71v-3.47c0-3.96,.05-6.65,.16-8.09,.94-.13,1.8-.2,2.57-.2,2.07,0,3.61,.18,4.63,.54,1.02,.36,1.86,.95,2.53,1.76,.67,.81,1.15,1.75,1.44,2.82,.29,1.07,.44,2.19,.44,3.34,0,1.26-.15,2.44-.44,3.53-.29,1.09-.7,2.03-1.23,2.81-.53,.79-1.08,1.38-1.66,1.79-.58,.4-1.25,.71-2.01,.92-1.04,.28-2.23,.43-3.57,.43-.86,0-1.76-.08-2.69-.24-.1-.96-.16-2.94-.16-5.94h0Zm17.17,7.71l3.49,.11v-1.25c-1.2-.04-1.92-.13-2.16-.27-.16-.1-.24-.27-.24-.51,0-.34,.25-1.21,.75-2.59l.66-1.81h7.81l1.3,3.32c.23,.57,.35,.99,.35,1.24,0,.2-.08,.34-.23,.43-.16,.09-.85,.15-2.07,.2v1.25l5.31-.11,4.2,.11v-1.25c-.29-.03-.51-.05-.67-.07-.47-.03-.77-.07-.88-.11-.12-.04-.22-.1-.31-.18-.09-.08-.19-.21-.29-.39l-.61-1.39-.94-2.07-6.76-15.81h-2.16l-1.33,3.44-3.95,9.75c-.75,1.85-1.25,3.08-1.51,3.71-.58,1.33-.92,2.1-1.04,2.31-.12,.21-.23,.36-.34,.46-.11,.09-.25,.17-.4,.21-.16,.05-.64,.1-1.46,.16v1.25l3.47-.11h0Zm6.32-15.91l3.24,7.83c-.92,.03-1.96,.05-3.12,.05s-2.28-.02-3.23-.05l3.12-7.83h0Z"/><path class="cls-2" d="M63.08,2.06c.09,.06,.14,.12,.16,.17,.04,.08,.06,.22,.08,.41,.02,.47,.03,1.01,.03,1.6v2.83c0,.67,0,1.08,.03,1.23,.03,.25,.11,.5,.25,.77,.14,.26,.33,.5,.59,.72,.26,.21,.59,.38,1,.51,.56,.17,1.16,.26,1.8,.26,.55,0,1.04-.06,1.45-.18,.42-.12,.78-.29,1.09-.53,.3-.23,.54-.49,.71-.78,.17-.29,.28-.63,.33-1.04,.06-.41,.08-.8,.08-1.18v-1.49c0-.44,.01-1.04,.04-1.8,.03-.76,.06-1.19,.09-1.29,.03-.1,.07-.16,.12-.19,.1-.06,.35-.1,.74-.1v-.52l-1.41,.04c-.08,0-.13,0-.17,0-.14,0-.6-.02-1.36-.05v.52c.47,.01,.77,.05,.91,.13,.07,.03,.12,.08,.15,.15,.05,.11,.08,.43,.09,.96,0,.25,0,.93,0,2.04v1.3c0,.9-.07,1.51-.22,1.84-.15,.32-.4,.58-.75,.78-.35,.2-.82,.3-1.41,.3-.51,0-.94-.08-1.27-.23s-.58-.35-.74-.59c-.16-.24-.26-.56-.3-.96-.02-.18-.02-.66-.02-1.44v-2.22c0-.89,.02-1.47,.08-1.73,.02-.11,.06-.18,.13-.22,.12-.08,.41-.12,.87-.12v-.52h-.24l-.86,.03-.86,.02-2.06-.05v.52l.83,.09h0Zm11.29,8.27c.71-.03,1.27-.05,1.68-.05,.11,0,.57,0,1.37,.02v-.52c-.06,0-.1,0-.13,0-.13,0-.33-.02-.6-.05-.1-.01-.17-.04-.21-.07-.04-.03-.07-.07-.09-.12-.03-.11-.06-.4-.08-.9-.03-.71-.05-1.39-.05-2.05V3.44c2.51,3.06,4.45,5.35,5.81,6.88,.37,.05,.73,.11,1.09,.16l.08-.06c-.06-.6-.09-2.31-.09-5.12,0-.36,0-.92,.03-1.67,.02-.76,.06-1.24,.12-1.45,.01-.04,.04-.07,.07-.1,.1-.06,.4-.1,.92-.11v-.53c-.66,.03-1.2,.05-1.62,.05s-.9-.02-1.42-.05v.53c.56,0,.89,.05,.99,.13,.06,.05,.1,.15,.11,.3,.05,.4,.08,1.74,.08,4.02v1.47c-.59-.61-1.33-1.44-2.22-2.51-1.24-1.49-2.29-2.8-3.17-3.94l-.58,.02-.92,.02c-.25,0-.65-.02-1.19-.05v.53c.45,.03,.72,.06,.81,.08,.09,.03,.16,.06,.2,.11,.04,.04,.07,.11,.09,.2,.02,.09,.03,.3,.04,.6l.03,1.85v2.04c0,.56,0,1.02-.03,1.37-.04,.62-.06,1.01-.09,1.17-.02,.12-.05,.2-.08,.24-.03,.04-.07,.06-.12,.08-.07,.02-.36,.05-.86,.07v.54h0ZM89,1.49c-.69,0-1.3-.02-1.84-.05v.56c.46,.02,.73,.04,.8,.05,.07,.02,.12,.05,.15,.07,.03,.03,.05,.07,.06,.13,.03,.13,.05,.47,.08,1.01,.01,.24,.02,.78,.02,1.62v2.65c0,.43-.02,.9-.06,1.41-.02,.35-.04,.54-.05,.6,0,.04-.03,.07-.06,.1-.03,.03-.09,.05-.18,.07-.07,.01-.32,.03-.76,.04v.56c.53-.03,1.14-.05,1.82-.05,.78,0,1.52,.02,2.21,.05v-.56c-.42,0-.67-.02-.76-.04-.09-.02-.15-.04-.19-.08-.04-.03-.07-.08-.09-.14-.04-.13-.06-.41-.06-.85l-.02-1.16v-2.55c0-.08,0-.64,.03-1.68,0-.3,.01-.51,.02-.62,.01-.2,.03-.34,.06-.41,.01-.04,.04-.08,.07-.11,.03-.03,.09-.05,.17-.07s.34-.04,.77-.05v-.56c-.69,.03-1.42,.05-2.2,.05h0Zm10.14,8.88c.26-.72,.75-1.96,1.48-3.7l.86-2.04,.45-1.05c.36-.87,.6-1.35,.72-1.44,.07-.05,.31-.1,.72-.13v-.56l-1.37,.05-1.61-.05v.56c.19,0,.42,.02,.7,.04,.12,0,.2,.02,.23,.03,.04,.02,.07,.04,.09,.08,.02,.04,.04,.09,.04,.16,0,.05,0,.1-.01,.15-.04,.17-.16,.51-.35,1.02-.27,.72-.42,1.12-.45,1.2l-1.41,3.49-1.61-3.92s-.03-.09-.04-.12c-.01-.03-.1-.24-.26-.63-.28-.68-.42-1.08-.42-1.2,0-.06,.02-.12,.05-.16,.04-.04,.1-.07,.19-.09,.16-.04,.42-.06,.77-.06v-.56l-2.28,.05c-.22,0-.84-.02-1.85-.05v.56c.4,0,.66,.05,.79,.11,.08,.05,.21,.23,.37,.56,.16,.32,.6,1.33,1.3,3.02l.9,2.15c.33,.8,.67,1.64,1.03,2.53h.97Zm9.18-.1c.38,0,1.07,0,2.08,.02l1.02,.02c.5,0,.88-.02,1.15-.05l.08-.08c0-.54,.04-1.23,.14-2.07h-.52c-.08,.56-.16,.95-.24,1.15-.03,.06-.05,.1-.08,.11-.09,.05-.33,.1-.71,.13-.38,.03-.81,.04-1.26,.04s-.87-.02-1.21-.05c-.01-.21-.02-.47-.02-.77v-2.66c.27-.03,.61-.05,1.02-.05,.46,0,.84,.02,1.13,.07,.13,.02,.22,.07,.27,.16,.07,.12,.1,.42,.1,.91h.51l-.03-1.39,.03-1.39h-.51c0,.38-.04,.64-.09,.8-.02,.06-.05,.11-.09,.13-.04,.03-.17,.04-.4,.05-.6,.02-.95,.03-1.05,.03-.31,0-.61,0-.9-.03v-1.31c0-.74,.03-1.35,.09-1.83,.39-.03,.78-.05,1.15-.05,.4,0,.81,.02,1.23,.07,.28,.03,.45,.06,.51,.1,.03,.03,.06,.07,.08,.13,.03,.11,.05,.42,.06,.92h.49c.04-.55,.06-.85,.06-.92l.12-.92-.04-.08c-.1-.03-.17-.04-.21-.04-.46-.02-.77-.03-.93-.03l-1.29,.03c-.71,.01-1.36,.02-1.93,.02-.27,0-.54,0-.84,0h-1.47v.51c.5,.03,.8,.06,.92,.11,.04,.02,.08,.05,.1,.1,.05,.11,.08,.4,.09,.88,0,.71,.02,1.13,.02,1.24v2.85c0,.33-.02,.86-.05,1.59-.02,.4-.04,.69-.06,.86-.16,.13-.37,.25-.62,.37v.34c1.31-.03,2.02-.05,2.12-.05h0Zm8.35-8.18s.07,.06,.09,.11c.04,.11,.07,.42,.08,.95l.03,1.34v2.36l-.05,1.85c-.01,.33-.03,.58-.06,.75-.01,.09-.03,.15-.05,.18-.02,.03-.06,.05-.11,.06-.09,.03-.37,.05-.85,.07v.56c.56-.03,1.17-.05,1.83-.05,.74,0,1.47,.02,2.19,.05v-.56c-.41,0-.65-.02-.74-.04-.08-.02-.15-.04-.18-.07-.04-.03-.07-.06-.08-.09-.03-.07-.06-.23-.07-.46,0-.12-.02-.61-.04-1.49-.01-.71-.02-1.38-.02-2.02,0-.4,.01-1.2,.04-2.4,.01-.53,.03-.88,.04-1.03,.2-.03,.4-.05,.6-.05,.46,0,.77,.03,.95,.1,.27,.1,.5,.28,.69,.54,.19,.26,.28,.58,.28,.97s-.09,.73-.27,1.05c-.18,.31-.39,.53-.65,.65-.26,.12-.64,.17-1.15,.16l-.07,.21c.13,.09,.26,.23,.39,.42,.27,.37,.6,.87,.99,1.52l1.36,2.24c.08,.15,.13,.27,.15,.36,.33-.02,.67-.02,1.01-.02,.29,0,.76,0,1.42,.02v-.56c-.2,0-.33-.02-.4-.05-.07-.03-.14-.08-.21-.16-.07-.07-.27-.32-.58-.74-.02-.03-.16-.24-.43-.63l-.98-1.47s-.05-.08-.07-.12c-.02-.04-.1-.16-.24-.36-.13-.2-.26-.39-.36-.58,.66-.25,1.15-.58,1.46-1,.32-.42,.48-.88,.48-1.4,0-.43-.12-.8-.35-1.1-.23-.3-.51-.5-.84-.59-.33-.1-.83-.14-1.49-.14-.34,0-.78,.01-1.3,.04-.32,.02-.7,.03-1.14,.03-.52,0-.92,0-1.2-.02-.58-.02-.92-.03-1.01-.03v.52c.52,.03,.83,.08,.93,.13h0Zm16.39,.63c.03-.26,.07-.53,.13-.81l-.05-.15c-.31-.15-.67-.27-1.1-.35-.42-.08-.86-.12-1.3-.12s-.85,.05-1.26,.14c-.41,.1-.78,.25-1.1,.47s-.59,.53-.79,.93-.3,.84-.3,1.31c0,.34,.05,.65,.16,.95,.11,.29,.28,.54,.5,.75,.22,.21,.51,.37,.88,.48,.24,.07,.75,.19,1.51,.35,.53,.12,.91,.24,1.12,.36s.37,.27,.47,.46c.1,.19,.15,.42,.15,.69,0,.32-.07,.6-.21,.85s-.37,.45-.69,.59c-.31,.14-.67,.21-1.08,.21-.46,0-.89-.1-1.28-.3-.39-.2-.67-.43-.83-.7-.05-.45-.08-.83-.07-1.14h-.53c0,.99-.07,1.72-.2,2.2,.49,.24,.93,.4,1.34,.5,.41,.1,.87,.15,1.39,.15,.71,0,1.32-.1,1.83-.3,.32-.13,.63-.32,.93-.57,.3-.26,.54-.54,.71-.85,.22-.41,.34-.89,.34-1.43,0-.31-.04-.59-.12-.83-.08-.25-.18-.45-.31-.62-.12-.16-.29-.31-.5-.43-.21-.12-.49-.23-.83-.32-.13-.03-.42-.08-.85-.16-.44-.08-.78-.14-1.02-.19-.32-.08-.57-.18-.73-.28-.17-.1-.29-.24-.38-.41-.09-.17-.14-.4-.14-.68,0-.39,.16-.73,.47-1.02,.32-.29,.76-.44,1.34-.44,.4,0,.77,.07,1.09,.21,.32,.14,.55,.31,.68,.49,.03,.2,.05,.55,.06,1.04h.53c.01-.43,.03-.78,.06-1.04h0Zm5.64-1.23c-.69,0-1.3-.02-1.83-.05v.56c.46,.02,.72,.04,.8,.05,.07,.02,.12,.05,.15,.07,.03,.03,.05,.07,.06,.13,.03,.13,.05,.47,.08,1.01,0,.24,.02,.78,.02,1.62v2.65c0,.43-.02,.9-.05,1.41-.02,.35-.04,.54-.05,.6,0,.04-.03,.07-.06,.1-.03,.03-.09,.05-.18,.07-.07,.01-.32,.03-.76,.04v.56c.53-.03,1.14-.05,1.82-.05,.78,0,1.52,.02,2.21,.05v-.56c-.42,0-.67-.02-.76-.04-.09-.02-.15-.04-.19-.08-.04-.03-.07-.08-.09-.14-.04-.13-.06-.41-.06-.85l-.02-1.16v-2.55c0-.08,0-.64,.03-1.68,0-.3,.01-.51,.02-.62,.01-.2,.03-.34,.06-.41,.01-.04,.04-.08,.07-.11,.03-.03,.09-.05,.17-.07,.08-.02,.33-.04,.76-.05v-.56c-.69,.03-1.42,.05-2.2,.05h0Zm8.82,8.78c.56,0,1.26,.02,2.08,.05v-.52c-.51-.02-.81-.05-.91-.11-.1-.05-.16-.13-.19-.24-.05-.19-.07-.74-.07-1.65v-3.8c0-1.01,0-1.59,.02-1.74h.91c.49,0,.9,.02,1.25,.05,.11,0,.18,.02,.2,.04,.03,.03,.06,.12,.08,.27,.05,.3,.07,.62,.08,.95h.52c.01-.89,.02-1.36,.03-1.39,0-.2,.03-.42,.07-.68l-.06-.06c-.2,.02-.4,.04-.59,.04-.36,.01-1.07,.02-2.14,.02h-2.56c-1.04,0-1.74,0-2.1-.02-.22,0-.43-.02-.63-.04l-.06,.06c.03,.22,.05,.42,.06,.6,0,.11,.01,.6,.03,1.47h.52c0-.37,.04-.7,.1-1,.02-.12,.05-.2,.08-.22,.02-.02,.1-.04,.24-.05,.35-.03,.75-.04,1.21-.04h.91c.01,.12,.02,.7,.02,1.74v3.8c0,.91-.02,1.46-.07,1.64-.03,.12-.1,.2-.19,.25s-.4,.08-.91,.1v.52c.78-.04,1.48-.05,2.08-.05h0Zm10.4-6.38c-.3-.6-.61-1.12-.92-1.58-.21-.31-.37-.52-.49-.63-.12-.11-.31-.24-.56-.38-.24,.06-.48,.12-.7,.17l-1.35,.27v.48c.32,0,.5,.01,.56,.04,.09,.05,.24,.19,.45,.41,.32,.35,.66,.81,1.03,1.38,.45,.71,.88,1.42,1.28,2.15,.16,.3,.24,.51,.24,.6v1.21c0,.34-.01,.75-.03,1.23-.01,.21-.04,.34-.07,.38-.03,.04-.09,.07-.17,.1-.08,.02-.36,.04-.85,.06v.56c.65-.03,1.29-.05,1.93-.05s1.38,.02,2.19,.05v-.56c-.47,0-.75-.03-.84-.05-.09-.03-.15-.06-.19-.12-.04-.05-.07-.2-.1-.44-.03-.25-.04-.64-.04-1.17v-1.07c0-.22,0-.38,.03-.47,.03-.14,.09-.29,.18-.48,.14-.27,.51-.87,1.1-1.8,.59-.93,1.15-1.74,1.66-2.43v-.29h-1c-.06,.12-.21,.39-.44,.79-.67,1.18-1.07,1.89-1.2,2.12l-.8,1.29c-.1-.22-.4-.81-.89-1.76h0Z"/><g><polygon class="cls-2" points="36.21 29.63 36.21 20.96 44.2 20.96 44.2 15.24 36.21 15.24 36.21 7.14 44.98 7.14 44.98 10.28 50.77 10.28 50.77 1.46 27.59 1.46 27.59 7.14 29.76 7.14 29.76 29.63 27.6 29.63 27.6 35.35 38.3 35.35 38.3 29.63 36.21 29.63 36.21 29.63"/><path class="cls-2" d="M24.58,22.54V7.13h2.14V1.46h-10.72V7.13h2.09v13.49c0,5.66-.65,8.37-4.71,8.37s-4.71-2.72-4.71-8.37V7.13h2.07V1.46H0V7.13H2.13v15.41c0,3.37,0,6.12,1.59,8.6,1.77,2.8,4.99,4.59,9.66,4.59,8.26,0,11.2-4.31,11.2-13.19h0Z"/></g></svg>