<?xml version="1.0" encoding="UTF-8"?><svg id="Layer_1" xmlns="http://www.w3.org/2000/svg" viewBox="0 0 444.35 179.64"><defs><style>.cls-1{fill:#d1d3d4;}.cls-2{fill:#fff;}</style></defs><path class="cls-2" d="M12,177.81c-1.24,1.13-2.93,1.69-5.1,1.69s-3.8-.53-5.02-1.64c-1.27-1.12-1.89-2.73-1.89-4.85v-9.75h3.75v9.27c0,2.34,1.04,3.52,3.16,3.52s3.18-1.19,3.18-3.52v-9.27h3.77v9.72c0,2.11-.62,3.72-1.86,4.82Z"/><path class="cls-2" d="M27.53,179.45l-6.88-11.1v11.1h-3.66v-16.18h4.65l5.92,9.22v-9.22h3.66v16.18h-3.69Z"/><path class="cls-2" d="M34.69,179.45v-16.18h3.44v16.18h-3.44Z"/><path class="cls-2" d="M50.55,179.45h-4.4l-5.77-16.18h4.06l3.97,10.74,3.97-10.74h3.97l-5.81,16.18Z"/><path class="cls-2" d="M58.16,179.45v-16.18h10.85v2.88h-7.27v3.15h4.45v2.88h-4.45v4.39h7.27v2.88h-10.85Z"/><path class="cls-2" d="M83.88,171.19c-.53.93-1.24,1.58-2.17,2l2.96,6.26h-4.11l-2.76-5.86h-2.71v5.86h-3.69v-16.18h8.37c1.41,0,2.56.48,3.49,1.44.93.99,1.41,2.17,1.41,3.58,0,1.04-.25,2-.79,2.9ZM80.36,166.93c-.42-.37-.96-.53-1.58-.53h-3.69v4.03h3.69c.62,0,1.16-.2,1.58-.56.42-.39.65-.9.65-1.5s-.23-1.07-.65-1.44Z"/><path class="cls-2" d="M97.78,178.35c-1.1.87-2.59,1.3-4.45,1.3-2.17,0-4.2-.48-6.09-1.44l1.27-2.9c.48.37,1.24.65,2.28.9.9.2,1.72.31,2.45.31.9,0,1.58-.11,2-.34.59-.31.9-.9.9-1.72,0-.99-.76-1.69-2.31-2.17-2.82-.87-4.23-1.32-4.25-1.35-1.52-.76-2.28-1.97-2.28-3.63,0-1.44.76-2.57,2.31-3.32,1.24-.62,2.65-.93,4.25-.93,2.03,0,3.72.45,5.04,1.35l-1.01,2.93c-.42-.36-1.18-.7-2.23-.93-.88-.2-1.69-.28-2.45-.28-1.41,0-2.11.45-2.11,1.38,0,.65.73,1.15,2.23,1.6,2.2.65,3.55,1.13,4.09,1.44,1.49.84,2.23,2.08,2.23,3.69,0,1.78-.62,3.16-1.86,4.11Z"/><path class="cls-2" d="M102.11,179.45v-16.18h3.44v16.18h-3.44Z"/><path class="cls-2" d="M117.19,166.51v12.94h-3.72v-12.94h-5.02v-3.24h13.72v3.24h-4.99Z"/><path class="cls-2" d="M133.93,173.19v6.26h-3.78v-6.06l-5.92-10.12h4.28l3.61,6.62,3.49-6.62h4.11l-5.8,9.92Z"/><path class="cls-2" d="M159.55,177.3c-1.38,1.5-3.36,2.23-5.88,2.23s-4.44-.79-5.88-2.32c-1.42-1.5-2.12-3.48-2.12-5.99s.7-4.55,2.09-6.05c1.39-1.5,3.36-2.23,5.91-2.23s4.5.74,5.91,2.26c1.39,1.47,2.06,3.5,2.06,6.02s-.71,4.58-2.09,6.08ZM156.22,167.01c-.62-.51-1.47-.79-2.54-.79-1.33,0-2.32.39-2.97,1.21-.67.82-1.01,2.06-1.01,3.79,0,2.03.48,3.45,1.44,4.24.62.51,1.5.76,2.54.76,1.3,0,2.29-.39,2.97-1.21.68-.82,1.02-2.06,1.02-3.79,0-2.01-.48-3.42-1.44-4.21Z"/><path class="cls-2" d="M168.06,165.99v3.4h4.61v2.88h-4.61v7.07h-3.59v-16.22h10.77v2.88h-7.18Z"/><path class="cls-2" d="M191.57,179.39l-6.85-11.06v11.06h-3.65v-16.11h4.63l5.9,9.18v-9.18h3.65v16.11h-3.68Z"/><path class="cls-2" d="M212.12,177.37c-1.38,1.49-3.34,2.22-5.84,2.22s-4.41-.79-5.84-2.3c-1.4-1.49-2.1-3.45-2.1-5.95s.7-4.52,2.08-6.01c1.38-1.49,3.34-2.22,5.87-2.22s4.46.73,5.87,2.24c1.37,1.46,2.05,3.48,2.05,5.98s-.7,4.55-2.08,6.04ZM208.81,167.15c-.62-.5-1.46-.79-2.53-.79-1.32,0-2.3.39-2.95,1.21-.67.82-1.01,2.05-1.01,3.76,0,2.02.48,3.43,1.43,4.21.62.5,1.49.76,2.53.76,1.29,0,2.27-.39,2.95-1.21.67-.82,1.01-2.05,1.01-3.76,0-1.99-.48-3.4-1.43-4.18Z"/><path class="cls-2" d="M229.36,171.16c-.53.93-1.23,1.57-2.16,1.99l2.95,6.23h-4.1l-2.75-5.84h-2.7v5.84h-3.68v-16.11h8.34c1.4,0,2.55.48,3.48,1.43.93.98,1.4,2.16,1.4,3.57,0,1.04-.25,1.99-.79,2.89ZM225.85,166.92c-.42-.37-.96-.53-1.57-.53h-3.68v4.01h3.68c.62,0,1.15-.2,1.57-.56.42-.39.64-.9.64-1.49s-.22-1.07-.64-1.43Z"/><path class="cls-2" d="M241.24,166.5v12.88h-3.71v-12.88h-5v-3.23h13.67v3.23h-4.97Z"/><path class="cls-2" d="M258.98,179.39v-6.63h-6.49v6.63h-3.71v-16.11h3.71v6.26h6.49v-6.26h3.73v16.11h-3.73Z"/><path class="cls-2" d="M283.35,179.39h-4.49l-2.5-9.82-2.44,9.82h-4.49l-4.41-16.11h3.87l2.81,10.92,3.03-10.92h3.46l3.03,10.92,2.81-10.92h3.74l-4.41,16.11Z"/><path class="cls-2" d="M290.12,179.39v-16.11h10.81v2.86h-7.24v3.14h4.44v2.87h-4.44v4.38h7.24v2.86h-10.81Z"/><path class="cls-2" d="M313.73,178.29c-1.09.87-2.58,1.29-4.44,1.29-2.16,0-4.18-.48-6.06-1.43l1.26-2.89c.48.37,1.24.65,2.28.9.9.2,1.71.31,2.44.31.9,0,1.57-.11,1.99-.34.59-.31.9-.9.9-1.71,0-.98-.76-1.68-2.3-2.16-2.81-.87-4.21-1.32-4.24-1.35-1.52-.76-2.27-1.97-2.27-3.62,0-1.43.76-2.55,2.3-3.31,1.24-.62,2.64-.93,4.24-.93,2.02,0,3.71.45,5.03,1.35l-1.01,2.92c-.42-.37-1.18-.7-2.22-.93-.87-.2-1.69-.28-2.44-.28-1.4,0-2.11.45-2.11,1.37,0,.65.73,1.15,2.22,1.6,2.19.65,3.54,1.12,4.07,1.43,1.49.84,2.22,2.08,2.22,3.68,0,1.77-.62,3.15-1.85,4.1Z"/><path class="cls-2" d="M325.68,166.5v12.88h-3.71v-12.88h-5v-3.23h13.67v3.23h-4.97Z"/><path class="cls-2" d="M333.07,179.39v-16.11h10.81v2.86h-7.25v3.14h4.44v2.87h-4.44v4.38h7.25v2.86h-10.81Z"/><path class="cls-2" d="M358.7,171.16c-.53.93-1.24,1.57-2.16,1.99l2.95,6.23h-4.1l-2.75-5.84h-2.7v5.84h-3.68v-16.11h8.34c1.4,0,2.55.48,3.48,1.43.93.98,1.41,2.16,1.41,3.57,0,1.04-.25,1.99-.79,2.89ZM355.19,166.92c-.42-.37-.96-.53-1.57-.53h-3.68v4.01h3.68c.62,0,1.15-.2,1.57-.56.42-.39.65-.9.65-1.49s-.23-1.07-.65-1.43Z"/><path class="cls-2" d="M372.54,179.39l-6.85-11.06v11.06h-3.65v-16.11h4.63l5.9,9.18v-9.18h3.65v16.11h-3.68Z"/><path class="cls-2" d="M399.15,177.37c-1.37,1.49-3.34,2.22-5.84,2.22s-4.41-.79-5.84-2.3c-1.4-1.49-2.1-3.45-2.1-5.95s.7-4.52,2.08-6.01c1.37-1.49,3.34-2.22,5.87-2.22s4.46.73,5.87,2.24c1.37,1.46,2.05,3.48,2.05,5.98s-.7,4.55-2.08,6.04ZM395.84,167.15c-.62-.5-1.46-.79-2.53-.79-1.32,0-2.3.39-2.95,1.21-.68.82-1.01,2.05-1.01,3.76,0,2.02.47,3.43,1.43,4.21.62.5,1.49.76,2.53.76,1.29,0,2.28-.39,2.95-1.21.67-.82,1.01-2.05,1.01-3.76,0-1.99-.48-3.4-1.43-4.18Z"/><path class="cls-2" d="M414.15,179.39v-6.63h-6.49v6.63h-3.71v-16.11h3.71v6.26h6.49v-6.26h3.73v16.11h-3.73Z"/><path class="cls-2" d="M421.71,179.39v-16.11h3.43v16.11h-3.43Z"/><path class="cls-2" d="M441.81,177.37c-1.37,1.49-3.34,2.22-5.84,2.22s-4.41-.79-5.84-2.3c-1.41-1.49-2.1-3.45-2.1-5.95s.7-4.52,2.08-6.01c1.37-1.49,3.34-2.22,5.87-2.22s4.47.73,5.87,2.24c1.38,1.46,2.05,3.48,2.05,5.98s-.7,4.55-2.08,6.04ZM438.5,167.15c-.62-.5-1.46-.79-2.53-.79-1.32,0-2.3.39-2.95,1.21-.68.82-1.01,2.05-1.01,3.76,0,2.02.48,3.43,1.44,4.21.62.5,1.49.76,2.53.76,1.29,0,2.28-.39,2.95-1.21.68-.82,1.01-2.05,1.01-3.76,0-1.99-.48-3.4-1.43-4.18Z"/><path class="cls-2" d="M109.83,150.19h26.67v-48.23l-26.67-48.06v96.28ZM186.86,32.26v67.19L79.9,0l133.63,150.19V32.26h-26.67Z"/><path class="cls-2" d="M279.25,31.63c-33.32,0-60.32,27-60.32,60.32s27,60.33,60.32,60.33,60.32-27.01,60.32-60.33-27-60.32-60.32-60.32ZM279.25,125.51c-18.54,0-33.56-15.03-33.56-33.56s15.02-33.56,33.56-33.56,33.54,15.03,33.54,33.56-15.01,33.56-33.54,33.56Z"/><polygon class="cls-2" points="419.11 33.32 419.11 79.51 371.33 79.51 371.33 33.32 346.1 33.32 346.1 151.42 371.33 151.42 371.33 104.76 419.11 104.76 419.11 151.42 444.35 151.42 444.35 33.32 419.11 33.32"/><path class="cls-2" d="M97.12,31.02h-22.89v70.37c0,17.05-7.81,25.68-23.22,25.68s-23.01-8.63-23.01-25.68V31.01H.69v73.87c0,15.42,4.51,27.12,13.75,35.35,8.85,8,20.96,11.9,36.57,11.9s28.15-4.09,37.18-12.32c9.06-8.01,13.57-19.73,13.57-35.13V39.4l-4.64-8.38Z"/><polygon class="cls-1" points="79.9 0 213.53 150.19 177.65 150.19 79.9 0"/></svg>