<?xml version="1.0" encoding="utf-8"?>
<!-- Generator: Adobe Illustrator 16.0.0, SVG Export Plug-In . SVG Version: 6.00 Build 0)  -->
<!DOCTYPE svg PUBLIC "-//W3C//DTD SVG 1.1//EN" "http://www.w3.org/Graphics/SVG/1.1/DTD/svg11.dtd">
<svg version="1.1" id="Layer_1" xmlns="http://www.w3.org/2000/svg" xmlns:xlink="http://www.w3.org/1999/xlink" x="0px" y="0px"
	 width="25px" height="19px" viewBox="0 0 25 19" enable-background="new 0 0 25 19" xml:space="preserve">
<g>
	<path fill="none" d="M12.513,9.254c1.802,0,3.267-1.466,3.267-3.269s-1.465-3.269-3.267-3.269S9.245,4.183,9.245,5.985
		S10.711,9.254,12.513,9.254z"/>
	<path fill="#FABA49" d="M12.513,11.166c2.855,0,5.18-2.324,5.18-5.18s-2.324-5.18-5.18-5.18s-5.179,2.324-5.179,5.18
		S9.657,11.166,12.513,11.166z M12.513,2.717c1.802,0,3.267,1.466,3.267,3.269s-1.465,3.269-3.267,3.269S9.245,7.788,9.245,5.985
		S10.711,2.717,12.513,2.717z"/>
	<path fill="#FABA49" d="M20.162,14.327c-0.106-0.102-2.655-2.478-7.649-2.478c-4.954,0-7.873,2.327-7.995,2.427l-0.352,0.287v4.175
		h1.912v-3.226c0.866-0.561,3.099-1.751,6.436-1.751c2.389,0,4.105,0.617,5.186,1.192c-0.982,0.397-2.626,0.817-5.186,0.817h-0.15
		v1.912h0.15c5.516,0,7.46-1.786,7.664-1.989l0.691-0.691L20.162,14.327z"/>
</g>
</svg>
