<?xml version="1.0" encoding="UTF-8"?><svg id="Layer_1" xmlns="http://www.w3.org/2000/svg" viewBox="0 0 396.77 88.63"><defs><style>.cls-1{fill:#fff;}.cls-2{fill:#ff8200;}</style></defs><path class="cls-1" d="M132.27,28.42c.53,.39,.91,1.23,1.14,2.51,.11,.58,.33,.86,.65,.84,.4-.04,.59-.32,.57-.86-.02-.27-.07-.71-.16-1.32-.09-.49-.14-1.26-.14-2.32s-.1-1.7-.31-1.92c-.21-.22-.81-.32-1.81-.32h-29.23c-.62,0-1.02,.13-1.21,.39-.19,.26-.29,.81-.29,1.64s-.14,1.92-.41,3.22c-.22,1.01-.33,1.7-.33,2.08,0,.47,.16,.71,.49,.73,.33,.02,.57-.33,.73-1.03,.36-1.63,.87-2.74,1.53-3.32,.66-.59,1.72-.88,3.19-.88h7.19c.69,0,1.13,.09,1.32,.27,.19,.18,.29,.6,.29,1.25l.03,.71v26.94c0,1.52-.24,2.58-.73,3.17-.49,.59-1.43,.97-2.82,1.16-.6,.07-.89,.25-.89,.53,0,.39,.27,.58,.81,.58,.18,0,.79-.05,1.82-.16,.53-.05,1.17-.08,1.93-.08l2.12-.03,1.98,.03c1.29,0,2.1,.03,2.45,.08,.67,.11,1.11,.16,1.33,.16,.51,0,.76-.2,.76-.58,0-.3-.32-.5-.95-.61-2.28-.4-3.46-1.66-3.56-3.78l-.03-1.06V29.76c0-.85,.1-1.39,.31-1.6,.21-.22,.71-.33,1.51-.33h7.63c1.52,0,2.54,.19,3.07,.58h0Zm14.72-1.03c.32-.28,1.05-.42,2.17-.42h4.25c2.8,0,4.72,.14,5.77,.41,1.05,.27,1.74,.81,2.09,1.63,.22,.52,.33,1.08,.33,1.66v.71c0,.56,.17,.83,.53,.81,.31-.02,.52-.16,.61-.42,.09-.26,.18-.92,.28-1.96l.11-1.6c.09-1.19,.16-1.91,.22-2.16,.05-.25,.08-.46,.08-.62,0-.52-.3-.78-.9-.78-.24,0-.6,.04-1.09,.11-.24,.04-.89,.07-1.95,.11l-3.85,.19c-1.7,.07-3.65,.11-5.86,.11-3.64,0-6.75-.14-9.34-.43-.76-.09-1.37-.14-1.82-.14-.81,0-1.22,.25-1.22,.74,0,.34,.26,.5,.79,.5,1.65,0,2.75,.45,3.33,1.35,.57,.9,.85,2.64,.85,5.23v22.97l-.03,1.77c0,2.17-.65,3.44-1.95,3.81l-1.03,.3c-.47,.12-.71,.34-.71,.64,0,.39,.29,.58,.87,.58,.25,0,.72-.06,1.41-.19,1.3-.22,3.54-.33,6.7-.33,2.26,0,5.12,.16,8.58,.49,.89,.07,1.59,.11,2.12,.11,2.42,0,4.43-.97,6.02-2.92,1.32-1.62,1.98-3.02,1.98-4.19,0-.49-.17-.72-.5-.7-.2,.02-.41,.18-.61,.49-2.02,3.2-6.59,4.8-13.69,4.8-2.24,0-3.64-.19-4.19-.57s-.83-1.34-.83-2.88v-10l-.03-.9c0-.54,.15-.91,.45-1.09,.3-.18,.89-.27,1.77-.27h5.99c1.55,0,2.65,.22,3.3,.65,.65,.43,1.08,1.26,1.3,2.47l.16,.76c.07,.4,.31,.6,.69,.6,.35,0,.53-.23,.53-.68,0-.16-.02-.42-.05-.78-.11-1.08-.16-2.17-.16-3.28,0-1.44,.08-3.04,.24-4.79,.02-.27,.03-.47,.03-.6,0-.47-.18-.71-.53-.73-.37-.02-.6,.2-.69,.65-.24,1.19-.5,1.95-.79,2.28-.29,.33-.92,.59-1.9,.79-1.1,.22-2.61,.33-4.51,.33h-4.18c-.78,0-1.24-.09-1.4-.26-.15-.17-.23-.68-.23-1.51v-10.95c0-.96,.16-1.58,.49-1.87h0Zm55.06,6.23v-2.93c0-1.74,.18-2.92,.53-3.56,.35-.63,1.08-1.09,2.19-1.36,.38-.11,.56-.28,.54-.52-.04-.38-.29-.57-.76-.57-.31,0-.75,.05-1.33,.16-.67,.11-1.57,.16-2.69,.16-2.1,0-3.77-.07-5.02-.2-.53-.05-.91-.07-1.14-.07-.52,0-.79,.17-.79,.5,0,.35,.26,.57,.79,.66,1.86,.31,3.15,.78,3.87,1.42,.71,.64,1.16,1.73,1.34,3.27l.33,6.24-.03,3.66v13.43c-.02,.33-.12,.5-.3,.52-.11,.02-.36-.2-.76-.65l-24.97-28.28c-.45-.52-.91-.79-1.36-.79-.24,0-.57,0-1,.03l-.43,.03-1.82-.05-1.11-.03c-.2-.02-.34-.03-.43-.03-.4,0-.6,.17-.6,.5s.24,.54,.73,.61c1.88,.25,3.32,1.28,4.32,3.08,.99,1.8,1.49,4.27,1.49,7.4v18.47c0,1.96-.27,3.37-.8,4.25-.53,.88-1.56,1.58-3.08,2.1-.52,.18-.78,.4-.76,.66,.04,.34,.29,.5,.76,.5,.2,0,.53-.03,1-.1,.63-.08,1.3-.12,2.01-.12l1.3-.05,2.77,.14c1.38,.07,2.16,.13,2.36,.16,.29,.04,.56,.05,.81,.05,.38,0,.57-.18,.57-.53,0-.39-.3-.62-.9-.69-1.43-.22-2.39-.55-2.88-1-.49-.45-.8-1.28-.92-2.47l-.08-1.93,.03-1.14v-18.42c0-.82,.17-1.22,.52-1.22,.14,0,.27,.05,.38,.16l.27,.3,22.88,26.16,.6,.71c.14,.14,.35,.23,.62,.24,.42,.02,.67-.2,.76-.64,.09-.44,.14-1.69,.14-3.73v-22.74l.05-1.79h0Zm39.36,0v-2.93c0-1.74,.18-2.92,.53-3.56,.35-.63,1.08-1.09,2.19-1.36,.38-.11,.56-.28,.54-.52-.04-.38-.29-.57-.76-.57-.31,0-.75,.05-1.33,.16-.67,.11-1.57,.16-2.69,.16-2.1,0-3.77-.07-5.02-.2-.53-.05-.91-.07-1.14-.07-.52,0-.79,.17-.79,.5,0,.35,.26,.57,.79,.66,1.86,.31,3.15,.78,3.87,1.42,.71,.64,1.16,1.73,1.34,3.27l.33,6.24-.03,3.66v13.43c-.02,.33-.12,.5-.3,.52-.11,.02-.36-.2-.76-.65l-24.97-28.28c-.45-.52-.91-.79-1.36-.79-.24,0-.57,0-1,.03l-.43,.03-1.82-.05-1.11-.03c-.2-.02-.34-.03-.43-.03-.4,0-.6,.17-.6,.5s.24,.54,.73,.61c1.88,.25,3.32,1.28,4.32,3.08,.99,1.8,1.49,4.27,1.49,7.4v18.47c0,1.96-.27,3.37-.8,4.25-.53,.88-1.56,1.58-3.08,2.1-.52,.18-.78,.4-.76,.66,.04,.34,.29,.5,.76,.5,.2,0,.53-.03,1-.1,.63-.08,1.3-.12,2.01-.12l1.3-.05,2.77,.14c1.38,.07,2.16,.13,2.36,.16,.29,.04,.56,.05,.81,.05,.38,0,.57-.18,.57-.53,0-.39-.3-.62-.9-.69-1.43-.22-2.39-.55-2.88-1-.49-.45-.8-1.28-.92-2.47l-.08-1.93,.03-1.14v-18.42c0-.82,.17-1.22,.52-1.22,.14,0,.27,.05,.38,.16l.27,.3,22.88,26.16,.6,.71c.14,.14,.35,.23,.62,.24,.42,.02,.67-.2,.76-.64,.09-.44,.14-1.69,.14-3.73v-22.74l.05-1.79h0Zm14.86-6.23c.33-.28,1.05-.42,2.17-.42h4.25c2.8,0,4.72,.14,5.77,.41,1.05,.27,1.74,.81,2.09,1.63,.22,.52,.33,1.08,.33,1.66v.71c0,.56,.18,.83,.53,.81,.31-.02,.52-.16,.61-.42,.09-.26,.18-.92,.28-1.96l.11-1.6c.09-1.19,.16-1.91,.22-2.16,.05-.25,.08-.46,.08-.62,0-.52-.3-.78-.89-.78-.24,0-.6,.04-1.09,.11-.24,.04-.89,.07-1.95,.11l-3.85,.19c-1.7,.07-3.65,.11-5.86,.11-3.64,0-6.75-.14-9.34-.43-.76-.09-1.37-.14-1.82-.14-.81,0-1.22,.25-1.22,.74,0,.34,.26,.5,.79,.5,1.65,0,2.75,.45,3.32,1.35,.57,.9,.85,2.64,.85,5.23v22.97l-.03,1.77c0,2.17-.65,3.44-1.95,3.81l-1.03,.3c-.47,.12-.71,.34-.71,.64,0,.39,.29,.58,.87,.58,.25,0,.72-.06,1.41-.19,1.3-.22,3.54-.33,6.7-.33,2.26,0,5.12,.16,8.58,.49,.89,.07,1.59,.11,2.12,.11,2.42,0,4.43-.97,6.03-2.92,1.32-1.62,1.98-3.02,1.98-4.19,0-.49-.17-.72-.5-.7-.2,.02-.41,.18-.61,.49-2.02,3.2-6.58,4.8-13.69,4.8-2.24,0-3.64-.19-4.19-.57-.55-.38-.83-1.34-.83-2.88v-10l-.03-.9c0-.54,.15-.91,.45-1.09,.3-.18,.89-.27,1.77-.27h5.99c1.55,0,2.65,.22,3.3,.65,.65,.43,1.08,1.26,1.3,2.47l.16,.76c.07,.4,.3,.6,.69,.6,.35,0,.53-.23,.53-.68,0-.16-.02-.42-.05-.78-.11-1.08-.16-2.17-.16-3.28,0-1.44,.08-3.04,.24-4.79,.02-.27,.03-.47,.03-.6,0-.47-.18-.71-.53-.73-.37-.02-.6,.2-.69,.65-.24,1.19-.5,1.95-.79,2.28-.29,.33-.92,.59-1.9,.79-1.1,.22-2.6,.33-4.5,.33h-4.18c-.78,0-1.24-.09-1.4-.26-.15-.17-.23-.68-.23-1.51v-10.95c0-.96,.16-1.58,.49-1.87h0Zm27.85-.34c-2.18,1.84-3.27,4.23-3.27,7.16,0,2.62,.84,4.76,2.51,6.4,1.67,1.65,4.51,3.15,8.52,4.5,3.88,1.3,6.23,2.31,7.05,3.02,1.59,1.38,2.39,3.07,2.39,5.08s-.86,3.88-2.59,5.35c-1.72,1.47-3.83,2.2-6.32,2.2s-4.73-.76-6.82-2.29-3.46-3.41-4.11-5.66c-.26-.87-.55-1.32-.88-1.33-.37-.02-.55,.24-.55,.79,0,.69,.24,1.85,.71,3.47,.42,1.5,.64,2.33,.68,2.47,.22,1.01,.38,1.64,.49,1.89s.33,.48,.65,.69c.78,.53,2,.99,3.68,1.38s3.21,.6,4.6,.6c3.85,0,7.01-1.07,9.47-3.23,2.46-2.15,3.69-4.92,3.69-8.3,0-4.99-3.34-8.58-10.03-10.77-3.43-1.14-5.59-1.93-6.46-2.36-.88-.43-1.69-1.12-2.43-2.06-.85-1.11-1.27-2.42-1.27-3.94,0-1.72,.65-3.16,1.96-4.31,1.31-1.15,2.94-1.73,4.88-1.73,2.45,0,4.67,.64,6.67,1.91,1.99,1.27,3.31,2.89,3.96,4.85,.29,.87,.59,1.31,.88,1.31,.39,0,.58-.28,.58-.84,0-.14-.05-.52-.14-1.11l-.43-2.8c-.24-1.52-.35-2.43-.35-2.74,0-.9-.23-1.35-.68-1.33-.14,0-.24,.04-.3,.11l-.38,.33c-.22,.18-.44,.27-.65,.27-.16,0-.33-.04-.49-.11l-1.87-.79c-1.34-.56-2.98-.84-4.91-.84-3.44,0-6.25,.92-8.43,2.77h0Zm29.23,0c-2.18,1.84-3.27,4.23-3.27,7.16,0,2.62,.84,4.76,2.51,6.4,1.67,1.65,4.51,3.15,8.52,4.5,3.88,1.3,6.23,2.31,7.05,3.02,1.59,1.38,2.39,3.07,2.39,5.08s-.86,3.88-2.58,5.35c-1.72,1.47-3.83,2.2-6.32,2.2s-4.73-.76-6.82-2.29-3.46-3.41-4.11-5.66c-.26-.87-.55-1.32-.88-1.33-.37-.02-.55,.24-.55,.79,0,.69,.24,1.85,.71,3.47,.42,1.5,.64,2.33,.68,2.47,.22,1.01,.38,1.64,.49,1.89,.11,.24,.33,.48,.65,.69,.78,.53,2,.99,3.68,1.38s3.21,.6,4.6,.6c3.85,0,7.01-1.07,9.47-3.23,2.46-2.15,3.69-4.92,3.69-8.3,0-4.99-3.34-8.58-10.03-10.77-3.43-1.14-5.59-1.93-6.46-2.36-.88-.43-1.69-1.12-2.43-2.06-.85-1.11-1.27-2.42-1.27-3.94,0-1.72,.65-3.16,1.96-4.31,1.31-1.15,2.94-1.73,4.88-1.73,2.45,0,4.68,.64,6.67,1.91,1.99,1.27,3.31,2.89,3.96,4.85,.3,.87,.59,1.31,.89,1.31,.39,0,.58-.28,.58-.84,0-.14-.05-.52-.14-1.11l-.43-2.8c-.24-1.52-.35-2.43-.35-2.74,0-.9-.23-1.35-.68-1.33-.14,0-.24,.04-.3,.11l-.38,.33c-.22,.18-.43,.27-.65,.27-.16,0-.33-.04-.49-.11l-1.87-.79c-1.34-.56-2.98-.84-4.91-.84-3.44,0-6.25,.92-8.43,2.77h0Zm32.99,.34c.33-.28,1.05-.42,2.17-.42h4.25c2.8,0,4.72,.14,5.77,.41,1.05,.27,1.74,.81,2.09,1.63,.22,.52,.33,1.08,.33,1.66v.71c0,.56,.18,.83,.53,.81,.31-.02,.52-.16,.61-.42,.09-.26,.18-.92,.28-1.96l.11-1.6c.09-1.19,.16-1.91,.22-2.16,.05-.25,.08-.46,.08-.62,0-.52-.3-.78-.89-.78-.24,0-.6,.04-1.09,.11-.24,.04-.89,.07-1.95,.11l-3.85,.19c-1.7,.07-3.65,.11-5.86,.11-3.64,0-6.75-.14-9.34-.43-.76-.09-1.37-.14-1.82-.14-.81,0-1.22,.25-1.22,.74,0,.34,.26,.5,.79,.5,1.65,0,2.75,.45,3.32,1.35,.57,.9,.85,2.64,.85,5.23v22.97l-.03,1.77c0,2.17-.65,3.44-1.95,3.81l-1.03,.3c-.47,.12-.71,.34-.71,.64,0,.39,.29,.58,.87,.58,.25,0,.72-.06,1.41-.19,1.3-.22,3.54-.33,6.7-.33,2.26,0,5.12,.16,8.58,.49,.89,.07,1.59,.11,2.12,.11,2.43,0,4.43-.97,6.03-2.92,1.32-1.62,1.98-3.02,1.98-4.19,0-.49-.17-.72-.5-.7-.2,.02-.41,.18-.61,.49-2.02,3.2-6.58,4.8-13.69,4.8-2.24,0-3.64-.19-4.19-.57-.55-.38-.83-1.34-.83-2.88v-10l-.03-.9c0-.54,.15-.91,.45-1.09,.3-.18,.89-.27,1.77-.27h5.99c1.55,0,2.65,.22,3.3,.65,.65,.43,1.08,1.26,1.3,2.47l.16,.76c.07,.4,.3,.6,.69,.6,.35,0,.53-.23,.53-.68,0-.16-.02-.42-.05-.78-.11-1.08-.16-2.17-.16-3.28,0-1.44,.08-3.04,.24-4.79,.02-.27,.03-.47,.03-.6,0-.47-.18-.71-.53-.73-.37-.02-.6,.2-.69,.65-.24,1.19-.5,1.95-.79,2.28-.29,.33-.92,.59-1.9,.79-1.1,.22-2.61,.33-4.51,.33h-4.18c-.78,0-1.24-.09-1.4-.26-.15-.17-.23-.68-.23-1.51v-10.95c0-.96,.16-1.58,.49-1.87h0Zm31.11,0c.32-.28,1.05-.42,2.17-.42h4.25c2.8,0,4.72,.14,5.77,.41,1.05,.27,1.74,.81,2.09,1.63,.22,.52,.32,1.08,.32,1.66v.71c0,.56,.18,.83,.53,.81,.31-.02,.52-.16,.61-.42,.09-.26,.18-.92,.28-1.96l.11-1.6c.09-1.19,.16-1.91,.22-2.16,.06-.25,.08-.46,.08-.62,0-.52-.3-.78-.9-.78-.24,0-.6,.04-1.09,.11-.24,.04-.89,.07-1.95,.11l-3.85,.19c-1.7,.07-3.65,.11-5.86,.11-3.64,0-6.75-.14-9.34-.43-.76-.09-1.37-.14-1.82-.14-.81,0-1.22,.25-1.22,.74,0,.34,.26,.5,.79,.5,1.65,0,2.75,.45,3.33,1.35,.57,.9,.85,2.64,.85,5.23v22.97l-.03,1.77c0,2.17-.65,3.44-1.96,3.81l-1.03,.3c-.47,.12-.71,.34-.71,.64,0,.39,.29,.58,.87,.58,.25,0,.72-.06,1.41-.19,1.3-.22,3.54-.33,6.7-.33,2.26,0,5.12,.16,8.57,.49,.89,.07,1.59,.11,2.12,.11,2.42,0,4.43-.97,6.02-2.92,1.32-1.62,1.98-3.02,1.98-4.19,0-.49-.17-.72-.5-.7-.2,.02-.41,.18-.61,.49-2.02,3.2-6.59,4.8-13.69,4.8-2.24,0-3.64-.19-4.19-.57s-.83-1.34-.83-2.88v-10l-.03-.9c0-.54,.15-.91,.45-1.09,.3-.18,.89-.27,1.77-.27h5.98c1.55,0,2.65,.22,3.3,.65,.65,.43,1.08,1.26,1.3,2.47l.16,.76c.07,.4,.31,.6,.69,.6,.35,0,.53-.23,.53-.68,0-.16-.02-.42-.05-.78-.11-1.08-.16-2.17-.16-3.28,0-1.44,.08-3.04,.24-4.79,.02-.27,.03-.47,.03-.6,0-.47-.18-.71-.53-.73-.37-.02-.6,.2-.69,.65-.24,1.19-.5,1.95-.79,2.28-.29,.33-.92,.59-1.9,.79-1.1,.22-2.61,.33-4.51,.33h-4.18c-.78,0-1.24-.09-1.4-.26-.15-.17-.23-.68-.23-1.51v-10.95c0-.96,.16-1.58,.49-1.87h0Z"/><path class="cls-1" d="M111.4,2.02c.3-.19,1.07-.28,2.29-.28,.91,0,1.61,.17,2.09,.5s.8,.88,.97,1.63c.07,.31,.2,.46,.39,.46,.22,0,.33-.13,.33-.4s-.03-.6-.08-1.03c-.07-.52-.11-.84-.12-.98l-.06-.87c-.02-.37-.26-.56-.7-.56-.12,0-.39,0-.81,.02-2.12,.1-4.13,.16-6.03,.16l-2.94-.04-2.47-.02c-.58,0-1.03-.01-1.34-.04-.19-.02-.33-.02-.41-.02-.31,0-.48,.16-.51,.47l-.09,.74-.14,1.08-.12,1.05c-.07,.4-.11,.72-.12,.94-.02,.25,.11,.38,.38,.38,.19,0,.32-.17,.41-.5l.1-.34c.24-.88,.43-1.44,.57-1.66,.14-.22,.42-.42,.85-.6,.59-.23,1.69-.35,3.3-.35,.69,0,1.03,.32,1.03,.96V14.03c.01,.72-.16,1.28-.5,1.7-.34,.42-.83,.64-1.46,.68-.24,.02-.4,.05-.47,.1s-.11,.17-.12,.35c0,.21,.11,.32,.36,.32,.1,0,.3-.02,.58-.05l2.67-.16c.37-.02,.79-.04,1.26-.04,.2,0,.36,0,.48,.01l1.51,.1,.91,.04c.15,0,.25,.01,.3,.01,.25,0,.38-.09,.38-.28,0-.26-.15-.41-.44-.43-1-.06-1.7-.38-2.09-.95-.4-.57-.59-1.53-.59-2.9V3.43c0-.75,.15-1.22,.45-1.41h0Zm23.19,7.04c.1,.17,.16,.64,.16,1.43v3.31c-.01,.84-.13,1.46-.37,1.87-.24,.41-.63,.66-1.18,.75-.2,.02-.3,.12-.3,.3,0,.27,.13,.41,.39,.41,.13,0,.44-.03,.93-.08,.83-.09,1.5-.13,2.01-.13,.79,0,1.67,.06,2.63,.17,.42,.05,.7,.07,.85,.07,.42,0,.63-.13,.63-.38,0-.21-.15-.32-.45-.32-.83,0-1.43-.25-1.8-.76-.37-.5-.55-1.33-.55-2.47V2.85c0-1.04,.48-1.64,1.43-1.8,.23-.04,.35-.15,.35-.33,0-.22-.15-.33-.44-.33s-.74,.03-1.32,.08c-.97,.1-1.61,.16-1.91,.16-.88,0-1.65-.05-2.31-.15-.39-.06-.65-.09-.8-.09-.26,0-.39,.12-.39,.36,0,.2,.11,.32,.34,.36l.56,.11c1.14,.21,1.71,.83,1.71,1.86v2.6c0,.9-.06,1.44-.16,1.64s-.41,.3-.9,.3h-5.65c-.66,0-1.05-.07-1.17-.21-.12-.14-.18-.62-.18-1.44V2.85c0-1.04,.48-1.64,1.43-1.8,.23-.04,.35-.15,.35-.33,0-.22-.15-.33-.44-.33s-.74,.03-1.32,.08c-.98,.1-1.61,.16-1.91,.16-.88,0-1.65-.05-2.3-.15-.39-.06-.65-.09-.8-.09-.26,0-.39,.12-.39,.36,0,.19,.11,.31,.34,.36,.86,.17,1.45,.39,1.77,.67,.32,.28,.48,.71,.48,1.3V13.8c-.01,.84-.13,1.46-.37,1.87-.24,.41-.63,.66-1.18,.75-.2,.02-.3,.12-.3,.3,0,.27,.13,.41,.39,.41,.13,0,.44-.03,.93-.08,.83-.09,1.5-.13,2-.13,.8,0,1.67,.06,2.63,.17,.43,.05,.71,.07,.86,.07,.42,0,.63-.13,.63-.38,0-.21-.14-.32-.41-.32-.85,0-1.46-.25-1.83-.76-.37-.5-.56-1.33-.56-2.47v-3.01c0-.64,.07-1.03,.2-1.18s.49-.22,1.06-.22h5.74c.5,0,.8,.08,.91,.25h0Zm14.77-6.26c0-.69,.21-1.09,.62-1.22l.82-.1h1.48c1.31,0,2.25,.18,2.84,.54,.59,.36,.88,.94,.88,1.74,0,.36,.08,.54,.23,.53,.31-.02,.47-.33,.47-.94,0-.31-.03-.81-.1-1.51-.05-.48-.07-.81-.07-.99,0-.27-.12-.4-.35-.4-.05,0-.1,0-.17,.01-.61,.07-2.24,.11-4.88,.11l-4.59-.05-1.22-.05c-.25,0-.45,0-.59-.01-.19-.02-.31-.02-.36-.02-.27,0-.4,.09-.4,.28,0,.21,.11,.32,.33,.36,.93,.13,1.54,.35,1.83,.68s.44,.93,.44,1.84V13.18c0,.73-.04,1.31-.13,1.74-.1,.51-.23,.86-.39,1.06s-.48,.38-.94,.56c-.19,.07-.27,.19-.27,.33,.02,.18,.12,.27,.32,.27,.14,0,.38-.01,.71-.04,1.2-.07,2.1-.11,2.69-.11,.88,0,1.58,.02,2.09,.07l1.4,.13c.63,.06,1.2,.1,1.72,.1,.88,0,1.59-.14,2.12-.41,.53-.27,.98-.72,1.33-1.35,.43-.74,.64-1.51,.64-2.31,0-.11-.03-.19-.1-.26-.07-.07-.14-.1-.22-.08-.04,0-.09,.06-.15,.16-1.01,1.99-3.15,2.99-6.43,2.99-.39,0-.67-.06-.86-.19-.19-.13-.35-.37-.48-.74-.18-.5-.27-1.32-.27-2.45v-1.09c0-.87,.02-1.51,.07-1.91,.05-.35,.14-.59,.28-.71s.41-.18,.79-.18h.82c.83,0,1.4,.03,1.7,.08,.3,.06,.56,.18,.77,.38,.38,.36,.62,.88,.73,1.56,.05,.32,.17,.48,.38,.46,.1,0,.16-.04,.19-.08,.02-.04,.04-.12,.04-.23v-.62c-.01-.46-.04-1-.09-1.63-.07-.95-.11-1.56-.11-1.82,0-.15,0-.32,.02-.53,.02-.29,.04-.47,.04-.53,0-.23-.09-.34-.27-.33-.17,0-.29,.08-.36,.23l-.28,.59c-.44,.88-1.05,1.32-1.85,1.32h-1.56l-.36,.02c-.42,0-.68-.1-.79-.3-.11-.2-.16-.68-.16-1.43V2.8h.01ZM183.7,.68c0,.24,.16,.36,.47,.36,.72,0,1.29,.21,1.71,.62,.42,.42,.65,1,.7,1.75l.06,2.48v.98c0,2.24-.14,3.95-.41,5.14-.27,1.19-.73,2.1-1.37,2.72-.96,.92-2.22,1.38-3.78,1.38s-2.78-.45-3.75-1.34c-.65-.59-1.07-1.3-1.28-2.12-.21-.83-.31-2.22-.31-4.17l-.02-2.14,.19-3.05c.04-.78,.14-1.31,.31-1.58,.17-.27,.5-.45,.99-.55,.24-.05,.4-.1,.46-.15,.06-.05,.1-.14,.1-.27,0-.24-.21-.36-.63-.36-.17,0-.45,.02-.83,.05-.96,.09-1.83,.13-2.62,.13-.56,0-1.34-.05-2.37-.15-.24-.02-.41-.04-.49-.04-.27,0-.41,.11-.41,.32,0,.2,.16,.32,.47,.37,.49,.07,.94,.2,1.33,.39,.34,.16,.56,.35,.67,.58,.11,.23,.16,.61,.16,1.16l.04,2.2-.13,4.68c0,3.04,.77,5.09,2.31,6.14,1.14,.77,2.74,1.16,4.79,1.16,2.91,0,4.98-.94,6.2-2.82,.51-.77,.88-1.87,1.11-3.3,.23-1.43,.34-3.31,.34-5.64l.02-1.49v-1.05c-.01-1.24,.3-1.91,.93-2.02l.46-.08c.2-.03,.3-.13,.3-.3,0-.21-.11-.32-.33-.32-.12,0-.25,0-.4,.02-.31,.04-.66,.08-1.07,.11l-1.19,.05-1.29-.06c-.5-.02-.82-.05-.96-.07-.13-.03-.22-.04-.28-.04-.15,0-.23,.11-.23,.3h0Zm16.34,1.88l-.83-.98c-.47-.56-.77-.89-.92-1-.14-.11-.34-.16-.59-.16-.18,0-.4,.01-.67,.04-.72,.07-1.4,.11-2.03,.11h-.51l-.84-.02c-.28,0-.41,.12-.41,.35,0,.19,.13,.29,.38,.31,1.83,.13,2.75,1.43,2.75,3.91v5.24l-.08,2.87c0,.99-.14,1.75-.41,2.28-.27,.53-.7,.88-1.29,1.04-.24,.07-.35,.18-.35,.35,0,.2,.11,.3,.33,.3,.13,0,.34-.02,.62-.07,.64-.12,1.37-.17,2.18-.17s1.58,.06,2.26,.17c.22,.03,.38,.05,.47,.05,.25,0,.38-.12,.38-.37,0-.18-.12-.28-.36-.31-1.31-.12-2.09-.63-2.36-1.54-.25-.85-.38-2.52-.38-5.03V4.87c.01-.36,.11-.54,.3-.54,.07,0,.21,.1,.4,.31l11.01,12.24c.15,.17,.3,.26,.45,.27,.16,0,.25-.1,.25-.33l-.05-1.51v-2.26l.05-1.04,.17-7.56v-.59c0-1.65,.52-2.58,1.56-2.77,.26-.04,.39-.16,.39-.37,0-.23-.13-.34-.39-.34-.07,0-.19,0-.35,.02-1.21,.15-2.1,.23-2.66,.23-.28,0-.62-.02-1.04-.07-.65-.08-1.12-.12-1.41-.12-.23,0-.35,.11-.35,.32,0,.17,.13,.27,.4,.28,1.12,.08,1.87,.46,2.26,1.12,.38,.67,.57,1.95,.57,3.84,0,1.61-.04,3.31-.11,5.09-.02,.49-.11,.74-.28,.74-.19,0-.55-.31-1.1-.92l-.41-.46-6.4-7.19c-.06-.08-.26-.31-.59-.7h0Zm21.49,.45c0-.69,.08-1.15,.25-1.38,.17-.23,.54-.39,1.12-.48,.16-.02,.26-.06,.3-.11,.04-.05,.06-.15,.06-.3,0-.2-.13-.3-.4-.3-.44,0-1.08,.03-1.91,.09l-.88,.07c-.67,.05-1.23,.08-1.68,.08-.69,0-1.17-.03-1.46-.1-.29-.06-.51-.09-.65-.1-.19,0-.29,.1-.29,.33,0,.15,.06,.25,.18,.31,.12,.06,.38,.13,.79,.19,.69,.1,1.16,.31,1.42,.63,.26,.31,.39,.84,.39,1.58V14.24c-.01,.7-.11,1.2-.3,1.5s-.57,.56-1.16,.77l-.35,.28,.02,.1c.05,.17,.16,.26,.34,.26s.47-.04,.87-.12c.47-.08,1.11-.13,1.91-.13,.65,0,1.5,.06,2.55,.18,.42,.04,.74,.06,.97,.06,.52,0,.79-.12,.79-.36s-.2-.37-.59-.37c-.61,0-1.1-.17-1.47-.5-.37-.33-.61-.81-.71-1.43l-.1-1.21V3h0Zm11.4-.83c0-.59,.3-.94,.89-1.04,.34-.07,.51-.19,.51-.38,0-.22-.11-.33-.34-.33-.16,0-.51,.02-1.05,.05l-1.27,.06-2.03-.06c-.55,0-1.03-.02-1.44-.07-.18-.02-.3-.02-.36-.02-.22,0-.34,.11-.34,.33,0,.21,.16,.34,.48,.41,.56,.12,1.01,.42,1.34,.9s.77,1.46,1.32,2.94c.47,1.27,1.05,2.7,1.76,4.29l2.87,6.51,.3,.74,.28,.62c.09,.19,.21,.29,.37,.29,.23,0,.42-.18,.58-.54,.06-.14,.3-.65,.74-1.55,.06-.1,.42-.9,1.09-2.39l2.07-4.56,1.8-4.17c.55-1.23,.97-2.05,1.26-2.44,.29-.39,.68-.63,1.14-.72,.24-.05,.36-.17,.36-.36,0-.21-.07-.31-.22-.31-.11,0-.27,.02-.48,.05-.54,.1-1.18,.15-1.91,.15-.24,0-.65-.02-1.22-.05l-1.27-.07c-.35-.02-.57-.02-.68-.02-.2,0-.3,.09-.3,.28s.14,.3,.42,.33c.65,.1,1.16,.3,1.51,.62,.35,.32,.53,.73,.53,1.23,0,.88-.45,2.31-1.35,4.29l-2.73,6.05c-.11,.23-.2,.35-.29,.34-.1,0-.21-.16-.33-.45l-2.7-6.61c-.88-2.14-1.33-3.58-1.33-4.3h0Zm20.81,.63c0-.69,.21-1.09,.62-1.22l.82-.1h1.48c1.31,0,2.25,.18,2.84,.54,.59,.36,.88,.94,.88,1.74,0,.36,.08,.54,.23,.53,.32-.02,.47-.33,.47-.94,0-.31-.03-.81-.1-1.51-.05-.48-.07-.81-.07-.99,0-.27-.12-.4-.35-.4-.05,0-.1,0-.17,.01-.61,.07-2.24,.11-4.88,.11l-4.59-.05-1.22-.05c-.25,0-.45,0-.59-.01-.19-.02-.31-.02-.36-.02-.27,0-.4,.09-.4,.28,0,.21,.11,.32,.33,.36,.93,.13,1.54,.35,1.83,.68s.44,.93,.44,1.84V13.18c0,.73-.04,1.31-.13,1.74-.1,.51-.23,.86-.39,1.06-.17,.2-.48,.38-.94,.56-.19,.07-.27,.19-.27,.33,.02,.18,.12,.27,.32,.27,.14,0,.38-.01,.71-.04,1.2-.07,2.1-.11,2.69-.11,.88,0,1.58,.02,2.09,.07l1.4,.13c.63,.06,1.2,.1,1.72,.1,.88,0,1.59-.14,2.12-.41,.53-.27,.98-.72,1.33-1.35,.43-.74,.64-1.51,.64-2.31,0-.11-.03-.19-.1-.26-.07-.07-.14-.1-.22-.08-.04,0-.09,.06-.14,.16-1.01,1.99-3.15,2.99-6.43,2.99-.39,0-.67-.06-.86-.19-.19-.13-.35-.37-.48-.74-.18-.5-.27-1.32-.27-2.45v-1.09c0-.87,.02-1.51,.07-1.91,.05-.35,.14-.59,.28-.71s.41-.18,.79-.18h.82c.83,0,1.4,.03,1.7,.08,.3,.06,.56,.18,.77,.38,.38,.36,.62,.88,.73,1.56,.05,.32,.17,.48,.38,.46,.1,0,.16-.04,.19-.08,.02-.04,.04-.12,.04-.23v-.62c-.01-.46-.04-1-.09-1.63-.07-.95-.11-1.56-.11-1.82,0-.15,0-.32,.02-.53,.02-.29,.04-.47,.04-.53,0-.23-.09-.34-.27-.33-.17,0-.29,.08-.36,.23l-.28,.59c-.44,.88-1.05,1.32-1.85,1.32h-1.56l-.36,.02c-.42,0-.68-.1-.79-.3-.11-.2-.16-.68-.16-1.43V2.8h.01Zm17.47,7.09c0-.32,.06-.52,.18-.58l.54-.1h.75c.64,0,1.1,.12,1.38,.36,.28,.24,.64,.8,1.08,1.7,1.12,2.27,2.03,3.81,2.73,4.62,.7,.82,1.47,1.22,2.29,1.22,.51,0,1.1-.15,1.76-.45,.66-.3,.99-.56,.99-.8,0-.19-.07-.28-.22-.28-.08,0-.17,.01-.27,.04-.16,.03-.34,.05-.52,.05-.45,0-.85-.15-1.18-.44-.33-.29-.72-.81-1.14-1.56l-1.25-2.21-1.08-1.91c-.14-.27-.25-.46-.33-.57-.07-.11-.11-.21-.12-.29,0-.1,.07-.18,.23-.24,.78-.34,1.4-.84,1.85-1.49,.45-.65,.67-1.38,.67-2.18,0-1.27-.5-2.32-1.51-3.16-1.01-.84-2.28-1.25-3.81-1.25-.52,0-1.46,.05-2.82,.16-1.16,.09-2.15,.13-2.97,.13-.74,0-1.42-.03-2.05-.1-.2-.02-.35-.04-.44-.04-.23,0-.34,.11-.34,.34s.17,.37,.5,.42c.89,.11,1.54,.44,1.94,.98,.24,.33,.36,.98,.36,1.94V14.58c-.01,.59-.12,1.02-.33,1.31-.21,.29-.59,.51-1.14,.68-.16,.05-.24,.16-.24,.35,0,.22,.15,.33,.44,.33,.09,0,.25-.01,.47-.03l.81-.07,1.02-.09c.42-.03,.9-.05,1.44-.05,.65,0,1.32,.03,2.01,.08,.24,.02,.41,.04,.5,.04,.28,0,.41-.11,.41-.34s-.17-.36-.51-.39c-.83-.08-1.39-.39-1.67-.94s-.42-1.58-.42-3.11v-2.45h0Zm.31-8.26c.21-.23,.58-.34,1.13-.34,1.23,0,2.24,.4,3.04,1.19,.8,.79,1.19,1.8,1.19,3.02,0,.94-.29,1.67-.88,2.2-.3,.27-.62,.44-.96,.49-.34,.05-1.23,.08-2.67,.08-.5,0-.82-.07-.95-.21-.13-.14-.2-.46-.2-.98V2.9c0-.61,.1-1.03,.31-1.26h0Zm16.58-.08c-.87,.9-1.3,2.01-1.3,3.34,0,1.15,.31,2.06,.93,2.75,.62,.69,1.8,1.42,3.54,2.2l1.84,.82c.83,.36,1.4,.75,1.74,1.16,.34,.41,.5,.93,.5,1.57,0,.8-.32,1.52-.96,2.14-.64,.62-1.37,.94-2.19,.94-1.05,0-2.06-.47-3.04-1.41-.98-.94-1.66-2.11-2.06-3.49-.05-.19-.13-.29-.24-.29-.25,0-.38,.19-.38,.58,0,.31,.15,1.01,.46,2.11,.2,.72,.32,1.27,.36,1.65,.04,.35,.09,.55,.15,.62,.06,.07,.28,.14,.65,.21,.27,.06,.68,.18,1.25,.36,1.21,.38,2.09,.57,2.65,.57,1.36,0,2.55-.52,3.57-1.56,1.02-1.04,1.53-2.26,1.53-3.67,0-1.28-.37-2.37-1.1-3.27-.62-.75-1.89-1.52-3.81-2.3-1.61-.65-2.56-1.12-2.87-1.42-.48-.45-.72-.98-.72-1.6,0-.67,.27-1.25,.81-1.74,.54-.49,1.18-.74,1.9-.74,1.06,0,2.06,.41,3.01,1.23,.95,.82,1.54,1.79,1.77,2.92,.06,.31,.17,.46,.32,.46,.2,0,.3-.17,.3-.52,0-.06,0-.15-.02-.24l-.12-1.1-.16-1.19c-.02-.14-.02-.28-.02-.44l.02-.98c0-.27-.09-.4-.25-.4-.06,0-.13,.02-.19,.05l-.46,.23c-.12,.06-.24,.08-.35,.08-.15,0-.41-.07-.77-.22l-.81-.34c-.73-.29-1.47-.44-2.23-.44-1.29,0-2.37,.45-3.24,1.34h0Zm18.55,1.45c0-.69,.08-1.15,.25-1.38,.17-.23,.54-.39,1.12-.48,.16-.02,.26-.06,.3-.11,.04-.05,.06-.15,.06-.3,0-.2-.13-.3-.4-.3-.44,0-1.08,.03-1.91,.09l-.88,.07c-.67,.05-1.23,.08-1.68,.08-.69,0-1.17-.03-1.46-.1-.29-.06-.51-.09-.65-.1-.19,0-.29,.1-.29,.33,0,.15,.06,.25,.18,.31,.12,.06,.38,.13,.79,.19,.68,.1,1.16,.31,1.42,.63,.26,.31,.39,.84,.39,1.58V14.24c-.01,.7-.11,1.2-.3,1.5s-.57,.56-1.16,.77l-.35,.28,.02,.1c.05,.17,.16,.26,.34,.26s.47-.04,.87-.12c.47-.08,1.11-.13,1.91-.13,.65,0,1.5,.06,2.55,.18,.42,.04,.74,.06,.97,.06,.52,0,.79-.12,.79-.36s-.2-.37-.59-.37c-.6,0-1.1-.17-1.47-.5-.38-.33-.61-.81-.71-1.43l-.1-1.21V3h0Zm15.81-.98c.3-.19,1.07-.28,2.29-.28,.91,0,1.61,.17,2.09,.5s.8,.88,.97,1.63c.07,.31,.2,.46,.39,.46,.22,0,.33-.13,.33-.4s-.03-.6-.08-1.03c-.07-.52-.11-.84-.12-.98l-.06-.87c-.02-.37-.26-.56-.7-.56-.12,0-.39,0-.81,.02-2.12,.1-4.13,.16-6.03,.16l-2.94-.04-2.47-.02c-.58,0-1.03-.01-1.34-.04-.19-.02-.33-.02-.41-.02-.31,0-.48,.16-.51,.47l-.09,.74-.14,1.08-.12,1.05c-.07,.4-.11,.72-.12,.94-.02,.25,.11,.38,.38,.38,.19,0,.32-.17,.41-.5l.1-.34c.24-.88,.43-1.44,.58-1.66,.14-.22,.42-.42,.85-.6,.59-.23,1.69-.35,3.3-.35,.69,0,1.03,.32,1.03,.96V14.03c.01,.72-.16,1.28-.5,1.7-.34,.42-.83,.64-1.46,.68-.24,.02-.4,.05-.47,.1-.07,.05-.11,.17-.12,.35,0,.21,.11,.32,.36,.32,.1,0,.3-.02,.58-.05l2.67-.16c.37-.02,.79-.04,1.26-.04,.2,0,.36,0,.48,.01l1.51,.1,.91,.04c.15,0,.25,.01,.3,.01,.25,0,.38-.09,.38-.28,0-.26-.15-.41-.44-.43-1-.06-1.7-.38-2.09-.95-.4-.57-.59-1.53-.59-2.9V3.43c0-.75,.15-1.22,.45-1.41h0Zm19.07,7.73c.04-.15,.14-.35,.31-.6,.85-1.35,1.8-3.01,2.82-4.98,.57-1.1,1.05-1.85,1.42-2.25,.37-.4,.87-.67,1.47-.81,.29-.07,.44-.18,.44-.36,0-.19-.11-.28-.33-.28-.38,0-.7,0-.96,.02l-1.02,.06c-.32,.02-.62,.04-.88,.04-.49,0-.9-.02-1.21-.06l-.8-.11c-.19-.02-.39-.04-.62-.04-.21,0-.32,.13-.32,.38,0,.16,.13,.26,.39,.3,.51,.05,.96,.22,1.36,.52s.59,.62,.59,.95c0,.4-.44,1.4-1.32,3-.43,.77-.7,1.26-.81,1.47-.42,.82-.75,1.23-1.01,1.23s-.53-.28-.8-.85c-.09-.19-.33-.66-.72-1.4l-.94-1.84c-.59-1.14-.88-1.88-.88-2.22,0-.42,.31-.69,.93-.81,.28-.06,.41-.17,.41-.35,0-.21-.17-.31-.51-.31-.17,0-.5,.02-1,.07-.68,.07-1.34,.11-1.99,.11-.71,0-1.5-.05-2.37-.15-.43-.05-.74-.07-.94-.07-.22,0-.34,.13-.34,.38,0,.21,.15,.32,.45,.34,.98,.1,1.84,.84,2.58,2.22l1.84,3.46c.51,.97,.97,1.8,1.39,2.49,.36,.58,.53,1.14,.53,1.68v2.31c0,1.08-.16,1.84-.48,2.27-.32,.43-.93,.72-1.83,.87-.23,.03-.34,.12-.34,.27,0,.27,.09,.41,.28,.41,.15,0,.39-.03,.72-.08,.5-.09,1.5-.13,3.01-.13,.63,0,1.1,.02,1.41,.05l1.72,.15c.23,.03,.44,.04,.63,.04,.36,0,.54-.12,.54-.36,0-.21-.13-.33-.39-.34-1.48-.08-2.28-.58-2.42-1.49l-.06-.82v-3.57c0-.4,.02-.67,.05-.82h0ZM365.86,.92c-1.21,.49-2.2,1.16-2.98,2.03-.68,.73-1.21,1.65-1.61,2.73-.4,1.09-.59,2.18-.59,3.28,0,2.56,.78,4.6,2.35,6.13s3.65,2.29,6.27,2.29,4.88-.88,6.44-2.64c1.6-1.8,2.4-4,2.4-6.59,0-2.38-.77-4.31-2.32-5.77-1.55-1.47-3.58-2.2-6.1-2.2-1.35,0-2.64,.24-3.84,.73h0Zm6.92,1.75c.77,.71,1.38,1.67,1.84,2.87,.46,1.21,.69,2.44,.69,3.71,0,2.19-.5,3.95-1.49,5.26-.99,1.31-2.32,1.97-3.97,1.97-1.83,0-3.32-.79-4.47-2.38-1.15-1.59-1.72-3.64-1.72-6.18,0-2.15,.46-3.82,1.37-5.02,.91-1.2,2.18-1.8,3.8-1.8,1.52,0,2.83,.52,3.95,1.57h0Zm14.33,.04c0-.44,.09-.74,.27-.91,.18-.17,.5-.26,.96-.26h2.07c1.8,0,2.86,.53,3.19,1.59,.04,.12,.06,.26,.06,.42v.41c0,.22,.08,.34,.25,.34,.31,0,.46-.33,.46-1,0-.13-.01-.29-.04-.47l-.12-.92c0-.08-.03-.38-.07-.89-.02-.42-.13-.63-.33-.63-.2,0-.51,.02-.93,.05-1.14,.09-2.25,.14-3.34,.14h-3.18l-2.08,.05c-.54,0-1.05-.02-1.54-.06-.33-.02-.54-.04-.63-.04-.28,0-.41,.12-.41,.36,0,.18,.1,.28,.32,.3,.77,.04,1.36,.24,1.77,.59,.36,.31,.53,.97,.53,1.98V13.7c0,.97-.09,1.65-.25,2.04-.17,.39-.5,.67-.98,.83-.23,.07-.34,.19-.34,.35,0,.21,.13,.32,.4,.32,.2,0,.6-.04,1.19-.12,.44-.06,.96-.08,1.56-.08h1.34c.88,0,1.46,.02,1.76,.05,.31,.04,.54,.06,.7,.06,.18,0,.27-.11,.27-.33,0-.2-.13-.31-.39-.33-.92-.07-1.53-.31-1.84-.71-.42-.55-.63-1.43-.63-2.63v-2.39c-.01-1.01,.08-1.59,.27-1.74,.19-.15,.88-.23,2.09-.23,.94,0,1.61,.15,1.98,.44,.38,.29,.65,.86,.81,1.71,.04,.23,.14,.33,.29,.33,.22-.02,.33-.11,.33-.28,0-.1,0-.28-.02-.52l-.18-2.28c-.05-.63-.07-1.18-.07-1.64,0-.14,0-.27,.01-.37,.02-.15,.02-.26,.02-.31,0-.21-.12-.31-.36-.31-.1,0-.19,.09-.27,.28-.3,.75-.6,1.25-.91,1.51-.31,.26-.76,.39-1.36,.39h-1.32l-.46,.02c-.34,0-.57-.08-.68-.23s-.18-.46-.18-.91V2.7h0Z"/><path class="cls-1" d="M108.49,74.87c0-.94,.09-1.54,.25-1.82,.17-.28,.6-.51,1.3-.7,.2-.05,.3-.15,.3-.3,0-.22-.12-.33-.35-.32-.14,0-.32,.02-.53,.05-.76,.08-1.61,.12-2.55,.12-1.11,0-2.08-.04-2.92-.13-.2-.02-.4-.04-.61-.04-.23,0-.34,.09-.34,.28s.02,.31,.07,.36c.05,.05,.16,.09,.36,.11,.63,.06,1.11,.21,1.45,.44,.33,.22,.56,.56,.68,.99l.11,.69v10.18c-.01,1.02-.12,1.75-.35,2.17-.22,.42-.62,.68-1.2,.77-.21,.04-.32,.14-.32,.3,0,.24,.16,.36,.47,.36s.73-.02,1.25-.07c.81-.08,1.66-.12,2.57-.12,.68,0,1.23,.04,1.67,.11,.36,.06,.61,.1,.76,.1,.27,0,.4-.12,.4-.37,0-.21-.22-.34-.67-.37-.67-.05-1.14-.35-1.41-.9-.27-.55-.41-1.48-.41-2.78v-.52c0-.7,.03-1.16,.08-1.38,.05-.22,.18-.44,.39-.65l.52-.51,.36-.35c.15-.14,.27-.22,.36-.22,.15,0,.33,.18,.56,.56,.26,.44,.94,1.39,2.03,2.85,1.1,1.46,1.99,2.6,2.69,3.43,.27,.34,.43,.53,.46,.57,.34,.42,.72,.63,1.14,.63,.12,0,.44-.03,.97-.1,.28-.03,.55-.05,.81-.05,.55,0,1.22,.04,2.01,.12,.14,.02,.26,.02,.35,.02,.24,0,.37-.1,.37-.3,0-.21-.09-.34-.29-.39l-.25-.07c-1.16-.32-2.06-.81-2.7-1.45-.91-.92-2.37-2.76-4.39-5.53l-.87-1.18c-.36-.51-.54-.86-.54-1.05,0-.27,.34-.7,1.02-1.27,.23-.19,.65-.58,1.26-1.16,1.33-1.25,2.35-2.13,3.07-2.63s1.36-.8,1.92-.89c.36-.06,.53-.18,.53-.36,0-.24-.14-.36-.42-.36-.32,0-.9,.05-1.72,.14-.38,.04-.7,.06-.96,.06-.35,0-.95-.05-1.82-.14-.35-.04-.69-.06-1.02-.06-.3,0-.45,.1-.45,.31,0,.22,.13,.33,.39,.33,.35,0,.63,.07,.84,.22,.21,.15,.32,.34,.32,.58,0,.73-1.11,2.09-3.34,4.08l-1.69,1.5-1.18,1.06c-.32,.24-.51,.36-.58,.36-.14,0-.21-.16-.21-.46v-4.83h.01Zm21.76-1.07l-.83-.98c-.47-.56-.77-.89-.92-1-.15-.11-.34-.16-.59-.16-.18,0-.4,.01-.67,.04-.72,.07-1.39,.11-2.03,.11h-.51l-.84-.02c-.28,0-.41,.11-.41,.35,0,.19,.12,.29,.37,.31,1.83,.13,2.75,1.43,2.75,3.91v5.24l-.08,2.87c0,.99-.14,1.75-.41,2.28-.27,.53-.7,.88-1.29,1.04-.23,.07-.35,.18-.35,.34,0,.2,.11,.3,.33,.3,.13,0,.34-.02,.62-.07,.64-.11,1.37-.17,2.18-.17s1.58,.06,2.25,.17c.22,.03,.38,.05,.47,.05,.25,0,.38-.12,.38-.37,0-.18-.12-.28-.36-.31-1.31-.12-2.09-.63-2.36-1.54-.25-.85-.38-2.52-.38-5.03v-5.04c.01-.36,.11-.54,.3-.54,.07,0,.21,.1,.4,.31l11.01,12.24c.15,.17,.3,.26,.45,.27,.16,0,.25-.1,.25-.33l-.05-1.51v-2.26l.05-1.04,.17-7.56v-.59c0-1.65,.52-2.58,1.56-2.77,.26-.04,.39-.16,.39-.37,0-.23-.13-.34-.39-.34-.07,0-.19,0-.35,.02-1.21,.15-2.1,.23-2.66,.23-.28,0-.62-.02-1.04-.07-.65-.08-1.12-.12-1.41-.12-.23,0-.35,.11-.35,.32,0,.17,.13,.27,.4,.28,1.12,.08,1.87,.46,2.26,1.12s.57,1.95,.57,3.84c0,1.61-.04,3.31-.11,5.09-.02,.49-.11,.74-.28,.74-.18,0-.55-.31-1.1-.92l-.41-.46-6.4-7.19c-.06-.08-.26-.32-.59-.7h0Zm19.9-1.64c-1.21,.49-2.2,1.16-2.98,2.03-.68,.73-1.21,1.65-1.61,2.73-.4,1.09-.59,2.18-.59,3.28,0,2.56,.78,4.61,2.35,6.14,1.57,1.53,3.65,2.29,6.27,2.29s4.88-.88,6.44-2.64c1.6-1.8,2.4-4,2.4-6.59,0-2.38-.77-4.31-2.32-5.77-1.55-1.47-3.58-2.2-6.1-2.2-1.36,0-2.64,.25-3.84,.73h0Zm6.92,1.75c.77,.71,1.38,1.67,1.84,2.87,.46,1.21,.69,2.44,.69,3.71,0,2.19-.5,3.95-1.49,5.26-.99,1.31-2.32,1.97-3.97,1.97-1.83,0-3.32-.79-4.47-2.38-1.15-1.58-1.72-3.64-1.72-6.18,0-2.15,.46-3.82,1.37-5.02s2.18-1.8,3.8-1.8c1.52,0,2.83,.52,3.95,1.57h0Zm18.13-1.88c-.02,.21,.12,.34,.41,.38l.54,.09c.67,.09,1,.4,1,.93,0,.28-.08,.56-.25,.82s-.58,.78-1.24,1.55l-1.26,1.5-.56,.65c-.13,.14-.24,.22-.32,.23-.14,0-.33-.17-.58-.53l-.88-1.27-.84-1.15c-.55-.87-.85-1.54-.89-2.01-.02-.2,.07-.39,.27-.57,.19-.18,.43-.29,.71-.33,.29-.03,.44-.16,.44-.38s-.13-.32-.37-.32c-.18,0-.44,.02-.77,.05l-1.12,.12c-.44,.05-.97,.07-1.57,.07-.64,0-1.62-.05-2.94-.15-.31-.02-.54-.04-.68-.04-.26,0-.39,.12-.39,.36,0,.21,.15,.35,.46,.41,.76,.14,1.37,.45,1.84,.91,.47,.46,1.45,1.74,2.96,3.84,.53,.75,.99,1.38,1.39,1.9,.6,.79,.91,1.27,.91,1.44s-.3,.58-.89,1.22c-.39,.42-1.06,1.19-1.98,2.3-1.06,1.28-1.91,2.18-2.53,2.7s-1.25,.84-1.88,.97c-.22,.05-.32,.16-.31,.32,0,.11,.04,.18,.11,.21l.33,.06,.54-.02,1.08-.04c.46-.02,.83-.04,1.1-.04,.99,0,1.97,.05,2.95,.14,.22,.02,.37,.04,.46,.04,.17,0,.26-.1,.26-.31s-.13-.32-.4-.33c-1.26-.1-1.89-.48-1.89-1.14,0-.61,.92-1.96,2.76-4.05,.29-.34,.54-.62,.75-.86,.13-.14,.22-.22,.29-.22,.06,0,.14,.07,.24,.22l.61,.79c1.03,1.33,1.74,2.3,2.14,2.93,.4,.62,.6,1.07,.6,1.37,0,.56-.33,.86-.98,.91-.3,.02-.45,.15-.45,.38,0,.2,.14,.3,.41,.3,.2,0,.53-.01,.98-.04l1.33-.08c.34-.02,.69-.04,1.06-.04,.54,0,1.18,.03,1.91,.08l1.52,.12c.22,.02,.4,.02,.53,.02,.29,0,.43-.11,.43-.33,0-.25-.14-.38-.42-.41-.89-.06-1.63-.39-2.21-.97-.93-.93-2.07-2.34-3.4-4.24-.84-1.21-1.37-1.95-1.58-2.22-.47-.6-.7-.97-.7-1.11,0-.14,.18-.4,.54-.8,.09-.1,.62-.72,1.58-1.87,1.31-1.56,2.47-2.75,3.51-3.57,.36-.28,.89-.48,1.61-.59,.27-.04,.4-.17,.4-.38s-.11-.32-.34-.32c-.2,0-.46,.01-.76,.04l-1.49,.11c-.39,.02-.75,.04-1.1,.04-.66,0-1.37-.03-2.14-.09-.2-.02-.35-.02-.44-.02-.26,0-.4,.11-.42,.33h0Zm15.14,1.39c0-.59,.3-.93,.9-1.04,.34-.06,.51-.19,.51-.38,0-.22-.11-.33-.34-.33-.16,0-.51,.02-1.05,.05l-1.27,.06-2.03-.06c-.55,0-1.03-.02-1.44-.07-.18-.02-.3-.02-.36-.02-.23,0-.34,.11-.34,.33,0,.21,.16,.34,.48,.41,.56,.12,1.01,.42,1.34,.89,.33,.48,.77,1.46,1.32,2.94,.47,1.27,1.05,2.7,1.76,4.29l2.87,6.51,.3,.74,.28,.62c.09,.19,.21,.29,.37,.29,.23,0,.42-.18,.58-.54,.06-.14,.3-.65,.74-1.55,.06-.11,.42-.9,1.09-2.4l2.07-4.56,1.8-4.17c.55-1.23,.97-2.05,1.27-2.44s.68-.63,1.14-.72c.24-.05,.36-.17,.36-.36,0-.21-.07-.31-.22-.31-.11,0-.27,.02-.48,.05-.54,.1-1.18,.14-1.91,.14-.24,0-.65-.02-1.22-.05l-1.27-.07c-.35-.02-.57-.02-.68-.02-.2,0-.3,.09-.3,.28s.14,.3,.42,.33c.65,.1,1.16,.3,1.51,.62,.35,.32,.53,.73,.53,1.23,0,.88-.45,2.31-1.35,4.29l-2.73,6.05c-.11,.23-.2,.35-.29,.34-.1,0-.21-.16-.33-.45l-2.7-6.61c-.88-2.15-1.33-3.58-1.33-4.3h0Zm20.64,.83c0-.69,.08-1.15,.25-1.38s.54-.39,1.12-.48c.16-.02,.26-.06,.3-.11,.04-.05,.06-.15,.06-.3,0-.2-.13-.3-.4-.3-.44,0-1.08,.03-1.91,.09l-.88,.07c-.67,.05-1.23,.08-1.68,.08-.69,0-1.17-.03-1.46-.1-.29-.06-.51-.09-.65-.1-.19,0-.29,.1-.29,.33,0,.15,.06,.25,.18,.31,.12,.06,.38,.13,.79,.19,.69,.1,1.16,.32,1.42,.63s.39,.84,.39,1.58v10.71c-.01,.7-.11,1.2-.3,1.5s-.57,.56-1.16,.77l-.35,.28,.02,.1c.05,.17,.16,.26,.34,.26s.47-.04,.87-.12c.47-.08,1.11-.13,1.91-.13,.65,0,1.5,.06,2.55,.18,.42,.04,.74,.06,.97,.06,.52,0,.79-.12,.79-.36s-.2-.37-.59-.37c-.61,0-1.1-.17-1.47-.5-.37-.33-.61-.81-.71-1.43l-.1-1.21v-10.29h0Zm11.83-.22c0-1.06,.41-1.62,1.22-1.68,.35-.02,.52-.12,.52-.32,0-.23-.24-.34-.73-.34-.65,0-1.3,.03-1.93,.1-.85,.1-1.47,.15-1.86,.15-.24,0-.61-.02-1.1-.07l-.52-.04c-.2-.02-.36-.04-.47-.05-.15-.02-.27-.04-.35-.04-.24,0-.36,.12-.36,.37,0,.2,.15,.32,.46,.37l.73,.12c1.07,.17,1.61,.9,1.61,2.19v10.09c0,.94-.1,1.62-.3,2.04s-.56,.69-1.07,.84c-.21,.06-.31,.16-.31,.31,0,.21,.12,.32,.35,.32,.11,0,.34-.02,.67-.06,1.08-.12,2.09-.18,3.03-.18,.56,0,1.07,.01,1.51,.04l1.32,.06c.82,.05,1.31,.08,1.45,.09,.56,.04,.94,.06,1.15,.06,1.02,0,1.82-.36,2.41-1.07,.67-.81,1-1.72,1-2.75,0-.33-.07-.5-.22-.5-.09,0-.31,.24-.66,.73-1.14,1.61-3.08,2.41-5.81,2.41-.59,0-.98-.05-1.18-.16-.36-.19-.54-1.03-.54-2.54v-10.49h0Zm16.65,0c0-1.06,.41-1.62,1.22-1.68,.35-.02,.52-.12,.52-.32,0-.23-.24-.34-.73-.34-.65,0-1.3,.03-1.93,.1-.85,.1-1.47,.15-1.86,.15-.24,0-.61-.02-1.1-.07l-.52-.04c-.2-.02-.36-.04-.47-.05-.15-.02-.27-.04-.35-.04-.24,0-.36,.12-.36,.37,0,.2,.15,.32,.46,.37l.73,.12c1.07,.17,1.61,.9,1.61,2.19v10.09c0,.94-.1,1.62-.3,2.04-.2,.41-.56,.69-1.07,.84-.21,.06-.31,.16-.31,.31,0,.21,.12,.32,.35,.32,.11,0,.34-.02,.67-.06,1.08-.12,2.09-.18,3.03-.18,.56,0,1.07,.01,1.51,.04l1.32,.06c.82,.05,1.31,.08,1.45,.09,.56,.04,.94,.06,1.15,.06,1.02,0,1.82-.36,2.41-1.07,.67-.81,1-1.72,1-2.75,0-.33-.07-.5-.22-.5-.09,0-.31,.24-.66,.73-1.14,1.61-3.08,2.41-5.81,2.41-.59,0-.98-.05-1.18-.16-.36-.19-.54-1.03-.54-2.54v-10.49h0Zm16.65,.02c0-.69,.21-1.09,.62-1.22l.82-.1h1.48c1.31,0,2.25,.18,2.84,.54s.88,.94,.88,1.74c0,.36,.08,.54,.23,.53,.31-.02,.47-.33,.47-.94,0-.31-.03-.81-.1-1.51-.05-.48-.07-.81-.07-.99,0-.27-.12-.4-.35-.4-.05,0-.1,0-.17,.01-.61,.07-2.24,.11-4.88,.11l-4.59-.05-1.22-.05c-.25,0-.45,0-.59-.01-.18-.02-.31-.02-.36-.02-.27,0-.4,.09-.4,.28,0,.21,.11,.32,.33,.36,.93,.13,1.54,.35,1.83,.68,.29,.32,.44,.93,.44,1.84v9.58c0,.73-.05,1.31-.13,1.74-.1,.51-.23,.86-.39,1.06-.17,.2-.48,.38-.94,.56-.19,.07-.28,.18-.27,.33,.02,.18,.12,.27,.31,.27,.15,0,.38-.01,.71-.04,1.2-.07,2.1-.11,2.69-.11,.88,0,1.58,.02,2.09,.07l1.4,.13c.63,.06,1.2,.1,1.72,.1,.88,0,1.59-.14,2.12-.41s.98-.72,1.33-1.35c.43-.74,.64-1.51,.64-2.31,0-.11-.03-.19-.1-.26s-.14-.1-.22-.08c-.04,0-.09,.06-.15,.16-1.01,1.99-3.15,2.99-6.43,2.99-.39,0-.67-.06-.86-.19-.18-.13-.35-.37-.48-.74-.18-.5-.27-1.32-.27-2.45v-1.09c0-.87,.02-1.51,.07-1.91,.05-.35,.14-.59,.28-.71,.14-.12,.41-.18,.79-.18h.82c.83,0,1.4,.03,1.7,.09,.3,.06,.56,.18,.77,.37,.38,.36,.62,.88,.73,1.56,.05,.32,.17,.48,.38,.46,.1,0,.16-.04,.19-.09,.02-.04,.04-.12,.04-.23v-.62c-.01-.46-.04-1-.09-1.62-.07-.95-.11-1.56-.11-1.82,0-.14,0-.32,.02-.53,.02-.29,.04-.47,.04-.53,0-.23-.09-.34-.27-.33-.17,0-.29,.09-.36,.23l-.28,.59c-.44,.88-1.05,1.32-1.85,1.32h-1.56l-.36,.02c-.42,0-.68-.1-.79-.3-.11-.2-.16-.68-.16-1.43v-3.12h.01Z"/><polygon class="cls-2" points="88.17 88.17 88.17 0 0 0 0 88.17 88.17 88.17 88.17 88.17"/><path class="cls-1" d="M77.04,11.12v22.25h-8.24c0-4.1-4.06-7.42-9.06-7.42-3.66,0-6.81,1.77-8.24,4.33v27.8c0,5.91,4.6,10.7,10.27,10.71h.03v8.24H26.37v-8.24h.02c5.68-.01,10.27-4.8,10.27-10.71V30.28c-1.43-2.55-4.58-4.33-8.24-4.33-5,0-9.06,3.32-9.06,7.42H11.13V11.12H77.04Z"/></svg>