<?xml version="1.0" encoding="UTF-8"?><svg id="Layer_1" xmlns="http://www.w3.org/2000/svg" xmlns:xlink="http://www.w3.org/1999/xlink" viewBox="0 0 362.02 90.22"><defs><style>.cls-1{fill:url(#linear-gradient);}.cls-2{fill:#fff;}.cls-3{fill:url(#linear-gradient-3);}.cls-4{fill:url(#linear-gradient-4);}.cls-5{fill:url(#linear-gradient-2);}</style><linearGradient id="linear-gradient" x1="-31.8" y1="430.42" x2="39.23" y2="455.38" gradientTransform="translate(0 -409)" gradientUnits="userSpaceOnUse"><stop offset="0" stop-color="#feeeb6"/><stop offset="1" stop-color="#b49248"/></linearGradient><linearGradient id="linear-gradient-2" x1="24.82" y1="382.46" x2="78.96" y2="511.62" gradientTransform="translate(0 -409)" gradientUnits="userSpaceOnUse"><stop offset="0" stop-color="#feeeb6"/><stop offset="1" stop-color="#b49248"/></linearGradient><linearGradient id="linear-gradient-3" x1="81.6" y1="404.94" x2="107.6" y2="504.03" gradientTransform="translate(0 -409)" gradientUnits="userSpaceOnUse"><stop offset="0" stop-color="#feeeb6"/><stop offset="1" stop-color="#b49248"/></linearGradient><linearGradient id="linear-gradient-4" x1="42.51" y1="405.53" x2="90.35" y2="463.07" gradientTransform="translate(0 -409)" gradientUnits="userSpaceOnUse"><stop offset="0" stop-color="#feeeb6"/><stop offset="1" stop-color="#b49248"/></linearGradient></defs><g><path class="cls-1" d="m23.21,0H0v1.06c6.95,4.75,10.28,8.44,14.61,17.73l33.41,71.43h14.98L23.21,0h0Z"/><path class="cls-5" d="m63,90.22v-31.54l-18.44-39.53c-4.33-9.22-3.19-13.9,4.12-18.09V0h-25.47l39.79,90.22Z"/><path class="cls-3" d="m102.79,0h23.21v1.06c-6.95,4.75-10.28,8.44-14.61,17.73l-33.41,71.43h-14.98L102.79,0h0Z"/><path class="cls-4" d="m63,90.22v-31.54l18.44-39.54c4.33-9.22,3.19-13.9-4.11-18.09V0h25.47l-39.8,90.22h0Z"/></g><g><path class="cls-2" d="m155.86,72.54c-4.05,0-5.94-.06-8.61-.06h-7.26v-.6l3.03-.66v-17.76l-3.03-.66v-.6h8.94v.6l-3,.66v18.09c6.21-.15,6.48-.21,7.11-.3,1.92-.3,2.31-1.95,3.12-3.9h.66l-.96,5.19Z"/><path class="cls-2" d="m158.26,71.01c0-3.06,5.16-4.95,7.2-5.79l.06-3.9c0-.87-.84-1.56-2.07-1.56-2.88,0-1.59,2.88-4.38,2.88-.45,0-.72-.15-.72-.45,0-.63.87-1.59,2.31-2.34,1.05-.54,2.4-.96,3.93-.96,2.1,0,3.42.63,3.42,2.43l-.27,8.73c.09.6.42,1.08,1.26,1.08,1.02,0,1.56-.87,1.71-1.05h.12v.69c-.33.69-1.5,1.98-3.12,1.98-1.32,0-1.95-.63-2.34-1.53h-.24c-.63.63-2.37,1.68-4.29,1.68-1.47,0-2.58-.54-2.58-1.89h0Zm7.05-1.29l.15-3.87c-3.09,1.44-4.53,2.85-4.53,4.17,0,1.08.72,1.53,1.71,1.53,1.2,0,2.4-.6,2.67-1.83Z"/><path class="cls-2" d="m177.49,72.93l-4.92-12.45-1.59-.57v-.6h6.72v.6l-2.49.6,2.49,6.69c.3.84.63,1.71.93,2.55h.12l2.58-6.39-1.08-2.91-1.56-.54v-.6h6.75v.6l-2.58.6,2.55,6.72c.66,1.74.78,2.13.93,2.52h.12c1.02-2.73,2.37-6.36,3.51-9.24l-2.58-.6v-.6h5.52v.6l-1.68.57-5.13,12.45h-.93c-1.11-2.79-2.22-5.7-3.3-8.52l-3.45,8.52s-.93,0-.93,0Z"/><path class="cls-2" d="m201.46,71.67l-.21-4.68.72-.03c.12.51.24,1.02.39,1.5.69,2.19,1.95,3.57,4.56,3.57s4.35-1.56,4.35-3.96c0-2.13-1.41-3.36-3.45-4.35l-.93-.45c-3.33-1.62-5.04-2.94-5.04-6,0-3.33,2.79-5.43,6.72-5.43,1.95,0,3.48.45,4.59.9l.03,4.29h-.66c-.09-.48-.21-.93-.33-1.35-.48-1.71-1.41-3-3.81-3s-3.84,1.38-3.84,3.51c0,2.01.9,3.03,3.81,4.5l.9.45c2.64,1.32,4.77,2.85,4.77,5.85,0,3.9-3.27,5.85-7.23,5.85-2.16,0-4.2-.54-5.34-1.17h0Z"/><path class="cls-2" d="m216.94,66.24c0-4.32,2.94-7.35,7.14-7.35,2.76,0,4.23,1.2,4.23,1.98s-.84,1.38-1.47,1.38c-.33,0-.72-.45-1.2-.99l-.42-.45c-.78-.84-1.11-1.02-2.04-1.02-2.13,0-3.78,2.16-3.78,5.34,0,3.72,2.19,6.06,5.01,6.06,1.74,0,3.21-.9,3.72-1.53l.39.54c-1.35,1.38-3,2.7-5.55,2.7-3.06,0-6.03-2.37-6.03-6.66Z"/><path class="cls-2" d="m230.1,72.48v-.6l2.4-.6v-18.87l-2.31-.66v-.57l4.77-.6-.06,10.56h.06c.84-.99,2.46-2.31,4.8-2.31s3.93,1.32,3.93,3.96v8.49l2.31.6v.6h-7.17v-.6l2.4-.6v-7.92c0-1.62-.96-2.91-2.91-2.91-1.53,0-2.67.72-3.36,1.5v9.33l2.4.6v.6h-7.26,0Z"/><path class="cls-2" d="m247.83,66.06c0-4.14,2.88-7.11,6.87-7.11s6.87,2.85,6.87,6.96-2.91,6.93-6.9,6.93-6.84-2.73-6.84-6.78h0Zm11.01.48c0-3.54-1.44-6.75-4.38-6.75-2.58,0-3.9,2.34-3.9,5.52,0,3.84,1.62,6.75,4.35,6.75,2.55,0,3.93-2.16,3.93-5.52Z"/><path class="cls-2" d="m264.03,66.06c0-4.14,2.88-7.11,6.87-7.11s6.87,2.85,6.87,6.96-2.91,6.93-6.9,6.93-6.84-2.73-6.84-6.78Zm11.01.48c0-3.54-1.44-6.75-4.38-6.75-2.58,0-3.9,2.34-3.9,5.52,0,3.84,1.62,6.75,4.35,6.75,2.55,0,3.93-2.16,3.93-5.52Z"/><path class="cls-2" d="m279.75,72.48v-.6l2.4-.6v-18.87l-2.31-.66v-.57l4.77-.6v20.7l2.4.6v.6h-7.26,0Z"/></g><path class="cls-2" d="m149.2,40.7l-7.61-16.46c-.8-1.73-1.24-2.21-2.79-2.83v-.39h9.19v.39c-2.17.68-2.51,1.26-1.79,2.86l5.98,13.23,5.61-12.52c.72-1.63.28-2.6-3.16-3.57v-.39h7.97v.39c-1.29.63-1.73,1.1-2.54,2.83l-7.6,16.46h-3.26Zm19.7-16.14c.72-1.6.39-2.41-1.89-3.15v-.4h6.81l7.61,16.46c.8,1.73,1.16,2.21,2.28,2.83v.39h-8.67v-.39c2.17-.68,2.51-1.26,1.79-2.86l-1.29-2.86h-9.34l-.96,2.15c-.72,1.63-.28,2.6,3.16,3.57v.39h-7.97v-.39c1.32-.79,1.91-1.47,2.74-3.28l5.75-12.46h-.02Zm-1.94,8.29h7.79l-3.91-8.64-3.88,8.64h0Zm39.34,7.85h-2.69l-14.18-15.83v10.32c0,3.2.49,3.91,3.93,5.12v.39h-8.23v-.39c2.12-1.13,2.46-1.92,2.46-5.12v-9.45c0-3.2-.44-3.73-2.72-4.33v-.4h6.75l12.84,14.33v-8.82c0-3.2-.49-3.91-3.93-5.12v-.39h8.23v.39c-2.12,1.13-2.46,1.92-2.46,5.12,0,0,0,14.18,0,14.18Zm5.31,0v-.39c2.28-.6,2.72-1.13,2.72-4.33v-10.24c0-3.2-.44-3.73-2.72-4.33v-.4h11.15c6.47,0,12.19,4.2,12.19,9.84s-5.72,9.85-12.19,9.85c0,0-11.15,0-11.15,0Zm6.86-1.73h4.17c4.48,0,7.66-2.49,7.66-8.11s-3.18-8.11-7.66-8.11h-4.17v16.22Zm18.43-17.96h19.36l.65,6.8h-.39c-2.56-4.59-3.91-5.07-6.42-5.07h-6.34v6.98h4.12c1.19,0,1.79-.31,3.68-3.73h.39v9.19h-.39c-1.89-3.41-2.48-3.73-3.68-3.73h-4.12v7.51h6.21c2.74,0,4.22-.74,6.86-5.59h.39l-.7,7.32h-19.62v-.39c2.28-.6,2.72-1.13,2.72-4.33v-10.24c0-3.2-.44-3.73-2.72-4.33v-.4h0Zm33.65,19.3v.39h-9.84v-.39c2.28-.6,2.72-1.13,2.72-4.33v-10.24c0-3.2-.44-3.73-2.72-4.33v-.4h11.21c6.52,0,9.73,1.86,9.73,5.07,0,2.31-2.36,3.99-6.42,4.44,2.72.42,3.93,1.73,5.05,4.25l1.45,3.31c.62,1.42.91,1.73,2.12,2.23v.39h-2.95c-2.33,0-3.08-.63-3.83-2.68l-1.31-3.57c-.93-2.52-1.71-3.05-4.04-3.05h-4.14v4.57c0,3.23.45,3.73,2.98,4.33h0Zm6.58-14.09c0-2.47-1.76-3.47-5.46-3.47h-4.09v6.93h4.09c3.7,0,5.46-1,5.46-3.46Zm19.07,14.49h-10.92v-.39c2.22-.6,2.59-1.13,2.59-4.33v-10.24c0-3.2-.44-3.73-2.72-4.33v-.4h10.66c6.47,0,9.68,1.89,9.68,4.75,0,2.49-2.36,4.1-6.57,4.44,4.79.32,7.53,2.42,7.53,5.07,0,3.31-3.42,5.43-10.25,5.43h0Zm-.62-11.13c3.57,0,5.38-1,5.38-3.41s-1.81-3.41-5.38-3.41h-3.57v6.83h3.57Zm.44,9.39c3.93,0,5.77-1.13,5.77-3.83s-1.84-3.83-5.77-3.83h-4.01v7.67h4.01Zm22.34,1.72h-9.58v-.39c2.28-.6,2.72-1.13,2.72-4.33v-10.24c0-3.2-.44-3.73-2.72-4.33v-.4h9.58v.39c-2.28.6-2.72,1.13-2.72,4.33v10.24c0,3.2.44,3.73,2.72,4.33v.39h0Zm2.85,0v-.39c2.28-.6,2.72-1.13,2.72-4.33v-10.24c0-3.2-.44-3.73-2.72-4.33v-.4h9.83v.39c-2.54.6-2.98,1.13-2.98,4.33v13.23h5.18c2.98,0,4.5-1,7.17-6.12h.39l-.75,7.85h-18.84Zm20.31-19.68h19.83l.67,7.06h-.39c-2.56-4.59-3.93-5.33-6.45-5.33h-1.68v13.23c0,3.23.44,3.73,2.98,4.33v.39h-10.09v-.39c2.54-.6,2.98-1.1,2.98-4.33v-13.23h-1.68c-2.51,0-3.88.73-6.44,5.33h-.39l.67-7.06h-.01Z"/></svg>