<?xml version="1.0" encoding="UTF-8"?><svg id="Layer_1" xmlns="http://www.w3.org/2000/svg" viewBox="0 0 1336 281.07"><defs><style>.cls-1{fill:#fff;}</style></defs><path class="cls-1" d="M393.41,126.41l-30.77-92.81c-3.22-9.87-6.6-14.97-10.15-15.31l-4.82-.5v-3.66h41.41v3.66l-5.15.5c-5.55.56-8.32,1.94-8.32,4.16,0,.77.94,4.16,2.83,10.14l21.63,68.53h.32l27.78-82.34c1.77-.88,3.38-1.49,4.82-1.83l31.11,84.17h.34c14.74-48.13,22.12-74.24,22.12-78.35,0-2.1-2-3.44-5.99-3.99l-7.49-1v-3.66h34.92v3.66l-4.32,1c-2.22.56-3.88,1.39-4.99,2.5-1.67,1.67-7.09,16.75-16.3,45.24l-9.64,29.94c-2.44,8.21-5.27,17.41-8.48,27.61-2.11,1.11-4.11,1.89-5.99,2.33l-30.78-83c-8.97,23.4-18.52,50.29-28.61,80.67-.88.78-2.72,1.56-5.48,2.33Z"/><path class="cls-1" d="M495.53,123.91v-3.1l2.67-.42c2.54-.37,4.36-1.22,5.49-2.53.84-1.03,2.16-3.7,3.94-8.02l29.27-71.22c.75-1.87,1.88-4.64,3.38-8.3l4.08-1.41,31.39,81.5c1.31,3.37,2.29,5.58,2.95,6.61,1.13,1.69,2.54,2.67,4.23,2.95l5.63.84v3.1h-34.91v-3.1l6.33-1.12c2.91-.57,4.36-1.45,4.36-2.67,0-.47-.28-1.45-.84-2.95l-9.86-26.6c-4.97-.93-10.18-1.41-15.62-1.41-4.41,0-9.34.48-14.78,1.41l-7.17,19.56c-1.88,5.16-2.82,8.3-2.82,9.43,0,1.88,1.13,2.96,3.38,3.24l8.45,1.12v3.1h-29.56ZM538.46,48.05l-13.37,34.06c7.04-.47,11.3-.7,12.8-.7,5.26,0,9.76.23,13.52.7l-12.95-34.06Z"/><path class="cls-1" d="M600.53,123.91v-3.1l5.07-.42c2.72-.19,4.31-1.12,4.79-2.81.46-1.69.69-6.9.69-15.63v-48.98c0-8.72-.23-13.93-.69-15.62-.48-1.69-2.07-2.62-4.79-2.81l-5.07-.43v-3.09h34.21v3.09l-5.07.43c-2.72.19-4.32,1.12-4.79,2.81s-.7,6.9-.7,15.62v21.25h2.54c3.38,0,6.38-1.17,9.01-3.52,2.25-1.97,6.75-7.32,13.51-16.05l9.29-11.96c2.54-3.28,3.8-5.44,3.8-6.47s-1.64-1.64-4.92-1.83l-5.21-.29v-3.09h31.68v3.09l-3.24.29c-2.34.18-4.64,1.1-6.89,2.74-2.25,1.64-6.67,6.03-13.23,13.16-5.54,6.1-9.25,10.33-11.12,12.67l-6.76,8.58c5.72,9.85,11.96,19.28,18.72,28.29,7.98,10.6,12.67,16.6,14.08,18.01,2.06,1.97,4.88,2.95,8.45,2.95v3.1h-8.73c-6.85,0-11.99-1.9-15.42-5.7-3.42-3.8-7.94-9.87-13.57-18.23l-10.7-15.91c-2.63-3.94-5.58-5.91-8.87-5.91h-2.39v23.78c0,8.73.23,13.94.7,15.63s2.07,2.62,4.79,2.81l5.07.42v3.1h-34.21Z"/><path class="cls-1" d="M696.79,123.91v-3.1l5.07-.42c2.72-.19,4.32-1.12,4.79-2.81.47-1.69.7-6.9.7-15.63v-48.98c0-8.72-.23-13.93-.7-15.62-.47-1.69-2.07-2.62-4.79-2.81l-5.07-.43v-3.09h60.67c1.03,5.63,1.54,10.6,1.54,14.92,0,1.22-.04,2.39-.13,3.51-.1,1.13-.15,1.84-.15,2.11l-3.38.56c-1.59-7.88-3.38-12.62-5.35-14.21-2.35-1.97-8.3-2.96-17.87-2.96h-11.68v38.71h12.52c5.82,0,9.48-.29,10.98-.84,1.88-.66,3.01-2.34,3.38-5.07l.7-4.78h3.66v25.33h-3.66l-.7-4.78c-.37-2.72-1.5-4.41-3.38-5.07-1.5-.57-5.16-.84-10.98-.84h-12.52v40.53c6.28,1.22,11.4,1.83,15.34,1.83,10.04,0,16.93-1.87,20.69-5.63,2.16-2.25,4.13-7.04,5.91-14.36l3.52.57c-.29,6.57-1.84,14.36-4.64,23.36h-64.47Z"/><path class="cls-1" d="M821.87,123.91v-3.66l5.99-.5c3.21-.22,5.1-1.33,5.65-3.32.56-2,.84-8.15.84-18.46v-57.89c0-10.31-.28-16.46-.84-18.46-.55-2-2.44-3.1-5.65-3.33l-5.99-.5v-3.66h73.36c1.21,6.65,1.82,12.53,1.82,17.63,0,1.44-.06,2.83-.17,4.16-.11,1.33-.17,2.16-.17,2.5l-3.98.67c-1.89-9.31-3.99-14.92-6.32-16.8-2.77-2.33-9.81-3.5-21.13-3.5h-15.47v48.4h16.47c6.87,0,11.2-.33,12.97-1,2.23-.78,3.55-2.77,3.99-5.99l.84-5.66h4.32v29.94h-4.32l-.84-5.65c-.45-3.22-1.77-5.21-3.99-5.99-1.77-.67-6.1-1-12.97-1h-16.47v26.12c0,10.31.39,16.44,1.16,18.38.77,1.94,3.44,3.08,7.99,3.41l5.99.5v3.66h-43.08Z"/><path class="cls-1" d="M950.22,126.02c-14.27,0-25.76-4.17-34.48-12.53-9.01-8.63-13.52-20.41-13.52-35.32s5.07-26.74,15.21-36.03c9.57-8.82,21.39-13.23,35.47-13.23s24.82,4.04,33.63,12.11c9.38,8.73,14.08,20.6,14.08,35.61s-4.92,27.21-14.78,36.31c-9.39,8.73-21.25,13.09-35.6,13.09ZM917,75.5c0,14.17,3.29,25.35,9.86,33.57,6.56,8.21,15.24,12.31,26.04,12.31s19.65-4.27,25.47-12.81c4.98-7.41,7.46-16.85,7.46-28.29,0-13.61-3.19-24.8-9.57-33.57-6.39-8.77-14.97-13.16-25.76-13.16s-18.48,3.89-24.49,11.68c-6.01,7.79-9.01,17.87-9.01,30.26Z"/><path class="cls-1" d="M1014.82,123.91v-3.1l5.07-.42c2.72-.19,4.31-1.12,4.79-2.81.46-1.69.69-6.9.69-15.63v-48.98c0-8.72-.23-13.93-.69-15.62-.48-1.69-2.07-2.62-4.79-2.81l-5.07-.43v-3.09h36.73c9.2,0,16.24,1.22,21.11,3.66,7.41,3.66,11.12,10.23,11.12,19.7,0,10.23-6.48,18.39-19.42,24.49,2.25,4.32,5.76,10.89,10.55,19.7,6.57,11.64,11.77,18.58,15.62,20.83,1.6.94,3.95,1.4,7.04,1.4v3.1h-10.83c-8.45,0-15.11-4.69-19.98-14.08l-5.64-10.84c-4.03-7.69-6.94-12.29-8.72-13.8-1.51-1.21-4.42-1.83-8.73-1.83h-5.21v18.58c0,8.73.23,13.94.7,15.63.47,1.69,2.01,2.62,4.64,2.81l5.07.42v3.1h-34.06ZM1038.46,36.79v42.65h8.02c6.48,0,11.73-1.73,15.77-5.21,4.51-3.84,6.76-9.52,6.76-17.03s-2.25-13.23-6.76-16.89c-3.75-3.09-8.77-4.64-15.06-4.64-2.06,0-4.97.37-8.73,1.12Z"/><path class="cls-1" d="M1102.79,123.91v-3.1l5.07-.42c2.72-.19,4.31-1.12,4.78-2.81s.7-6.9.7-15.63v-48.98c0-8.72-.23-13.93-.7-15.62s-2.06-2.62-4.78-2.81l-5.07-.43v-3.09h60.66c1.04,5.63,1.56,10.6,1.56,14.92,0,1.22-.06,2.39-.15,3.51-.09,1.13-.13,1.84-.13,2.11l-3.38.56c-1.6-7.88-3.38-12.62-5.35-14.21-2.35-1.97-8.3-2.96-17.88-2.96h-11.68v38.71h12.53c5.82,0,9.48-.29,10.98-.84,1.87-.66,3-2.34,3.38-5.07l.7-4.78h3.66v25.33h-3.66l-.7-4.78c-.38-2.72-1.51-4.41-3.38-5.07-1.5-.57-5.16-.84-10.98-.84h-12.53v40.53c6.29,1.22,11.4,1.83,15.34,1.83,10.04,0,16.94-1.87,20.69-5.63,2.16-2.25,4.13-7.04,5.92-14.36l3.51.57c-.28,6.57-1.82,14.36-4.64,23.36h-64.46Z"/><path class="cls-1" d="M1216.5,66.21l7.74,4.36c7.7,4.32,12.86,7.84,15.49,10.56,4.79,4.88,7.17,11.07,7.17,18.58,0,8.72-3.56,15.48-10.7,20.26-6,4.03-13.27,6.05-21.81,6.05s-16-1.88-22.1-5.63c-3.01-6.47-4.51-14.73-4.51-24.77l4.51-1.12c2.72,17.92,11.4,26.88,26.04,26.88,4.97,0,9.03-1.55,12.17-4.64,3.14-3.1,4.71-7.32,4.71-12.67,0-4.69-1.92-8.96-5.76-12.81-2.91-2.81-7.51-5.96-13.8-9.43l-9.01-4.93c-4.32-2.34-7.88-5.53-10.7-9.57-3.19-4.41-4.79-9.1-4.79-14.07,0-8.07,3.01-14.26,9.01-18.58,5.35-3.85,12.11-5.77,20.27-5.77s14.53,1.5,19.42,4.51c.93,3.75,1.4,10.23,1.4,19.42h-3.51c-1.13-5.63-2.58-9.71-4.36-12.24-3.19-4.69-8.26-7.04-15.21-7.04-4.22,0-7.83,1.4-10.83,4.22-3.01,2.82-4.51,6.52-4.51,11.12,0,6.38,4.55,12.15,13.65,17.31Z"/><path class="cls-1" d="M1275.76,123.91v-3.1l5.2-.42c3.85-.29,6.1-1.24,6.76-2.89.66-1.64.98-6.83.98-15.55V34.96h-7.32c-9.57,0-15.53,1.03-17.87,3.1-1.97,1.69-3.76,6.8-5.35,15.34h-3.38c0-.1-.04-.96-.15-2.61-.09-1.64-.13-2.84-.13-3.59,0-5.16.51-10.56,1.54-16.19h78.39c1.03,5.63,1.56,11.03,1.56,16.19,0,.75-.06,1.95-.15,3.59-.09,1.64-.13,2.51-.13,2.61h-3.38c-1.6-8.54-3.38-13.65-5.35-15.34-2.35-2.06-8.31-3.1-17.88-3.1h-7.32v66.99c0,8.73.32,13.91.98,15.55.66,1.64,2.95,2.6,6.89,2.89l5.07.42v3.1h-38.98Z"/><path class="cls-1" d="M358.64,276.3v-3.66l5.99-.5c3.21-.22,5.1-1.33,5.66-3.33.55-1.99.83-8.15.83-18.46v-57.88c0-10.32-.28-16.47-.83-18.47-.56-1.99-2.45-3.1-5.66-3.32l-5.99-.5v-3.66h40.42v3.66l-5.99.5c-3.21.22-5.1,1.33-5.65,3.32-.56,2-.84,8.15-.84,18.47v77.18c7.99,1.33,14.03,2,18.14,2,11.09,0,18.69-2.22,22.78-6.65,2.44-2.66,4.71-8.32,6.83-16.97l4.16.67c-.34,7.76-2.17,16.96-5.49,27.61h-74.35Z"/><path class="cls-1" d="M444.48,276.3v-3.09l2.67-.43c2.53-.37,4.36-1.21,5.48-2.53.85-1.03,2.16-3.7,3.94-8.02l29.28-71.22c.75-1.87,1.88-4.64,3.38-8.3l4.08-1.41,31.39,81.49c1.31,3.38,2.29,5.58,2.95,6.62,1.12,1.68,2.53,2.67,4.22,2.95l5.63.84v3.09h-34.9v-3.09l6.33-1.12c2.91-.57,4.36-1.45,4.36-2.67,0-.47-.28-1.45-.85-2.96l-9.85-26.6c-4.98-.93-10.18-1.4-15.63-1.4-4.41,0-9.33.47-14.77,1.4l-7.18,19.56c-1.88,5.16-2.81,8.31-2.81,9.43,0,1.88,1.12,2.95,3.38,3.24l8.44,1.12v3.09h-29.55ZM487.4,200.44l-13.37,34.06c7.04-.46,11.31-.7,12.81-.7,5.25,0,9.76.23,13.51.7l-12.95-34.06Z"/><path class="cls-1" d="M568.46,278.41l-26.04-78.54c-2.72-8.35-5.58-12.67-8.58-12.95l-4.08-.42v-3.1h35.04v3.1l-4.36.42c-4.69.47-7.04,1.64-7.04,3.52,0,.66.81,3.52,2.39,8.59l18.31,57.99h.28l23.5-69.67c1.5-.75,2.86-1.27,4.08-1.55l26.32,71.22h.29c12.48-40.72,18.71-62.82,18.71-66.29,0-1.78-1.68-2.91-5.06-3.38l-6.33-.84v-3.1h29.55v3.1l-3.66.84c-1.88.47-3.29,1.17-4.22,2.11-1.41,1.41-6.01,14.17-13.8,38.28l-8.17,25.33c-2.06,6.95-4.45,14.74-7.17,23.36-1.78.94-3.47,1.59-5.07,1.97l-26.04-70.23c-7.6,19.8-15.68,42.55-24.21,68.26-.75.66-2.29,1.31-4.64,1.97Z"/><path class="cls-1" d="M0,65.87V15.54S69.83,0,140.81,0s140.71,15.54,140.71,15.54c0,0,0,16.29,0,50.33,0,109.81-59.82,186.59-140.77,215.2C59.82,252.46,0,175.68,0,65.87ZM140.82,78.01c8.5-10.39,17.82-20.12,27.93-29.07,11.42-10.1,23.61-19.03,36.42-26.74-19.88-2.16-42.12-3.76-64.36-3.76v59.57ZM152.29,93.16c15.63,22.32,27.68,47.16,35.63,73.53,9.97-34.44,29.36-65.44,56.06-89.08,6.08-5.38,12.47-10.31,19.1-14.78,0-13.77,0-24.45,0-32.15-6.83-1.26-15.79-2.81-26.26-4.38-32.75,15.05-61.79,38-84.54,66.87ZM226.3,193.48c20.64-30.04,32.92-66.78,36.01-107.19-32.01,25.71-55.01,63.71-61.65,108.36-1.53,10.3-2.12,20.51-1.85,30.55,10.25-9.42,19.46-20.03,27.49-31.72ZM140.76,261.39c14.25-5.59,27.61-12.81,39.87-21.49-.11-11.05-.97-22.22-2.64-33.47-5.37-36.11-18.43-69.09-37.17-97.41l-.06,152.37ZM112.89,48.94c-11.42-10.11-23.62-19.04-36.43-26.75-11.49,1.24-22.19,2.67-31.66,4.09,32.76,15.05,61.81,38.01,84.55,66.88-15.62,22.32-27.68,47.16-35.63,73.53-9.97-34.44-29.36-65.45-56.07-89.08-6.11-5.41-12.54-10.37-19.21-14.86v3.12c0,6.87.27,13.64.77,20.32,32.08,25.71,55.12,63.75,61.77,108.46,1.54,10.33,2.13,20.58,1.85,30.65.08.08.17.16.26.24,5.49,5.02,11.28,9.7,17.33,14.02.2.15.39.28.59.43.11-11.07.96-22.27,2.65-33.55,5.37-36.11,18.43-69.09,37.16-97.41v-31c-8.49-10.39-17.82-20.12-27.93-29.07Z"/></svg>